G04*
G04 #@! TF.GenerationSoftware,Altium Limited,Altium Designer,20.0.14 (345)*
G04*
G04 Layer_Physical_Order=1*
G04 Layer_Color=255*
%FSLAX25Y25*%
%MOIN*%
G70*
G01*
G75*
%ADD30C,0.00700*%
%ADD31R,0.03543X0.02756*%
%ADD32R,0.03150X0.03937*%
%ADD33R,0.03150X0.03150*%
%ADD34R,0.03937X0.03543*%
%ADD35R,0.05906X0.05512*%
%ADD36R,0.03937X0.03150*%
%ADD37R,0.05512X0.05906*%
%ADD38C,0.01000*%
%ADD39C,0.02400*%
%ADD40C,0.02000*%
%ADD41C,0.05000*%
%ADD42C,0.06000*%
%ADD43C,0.06102*%
%ADD44R,0.06102X0.06102*%
%ADD45C,0.05984*%
%ADD46R,0.05984X0.05984*%
%ADD47R,0.05984X0.05984*%
%ADD48C,0.02400*%
G36*
X178098Y-2104D02*
X178577Y-2302D01*
X179007Y-2590D01*
X179374Y-2956D01*
X179662Y-3387D01*
X179860Y-3865D01*
X179976Y-4447D01*
X179998Y-4747D01*
X180046Y-19020D01*
Y-19270D01*
X179947Y-19769D01*
X179753Y-20239D01*
X179470Y-20662D01*
X179111Y-21021D01*
X178688Y-21304D01*
X178218Y-21498D01*
X177719Y-21597D01*
X172493D01*
X172443Y-21607D01*
X172393Y-21600D01*
X171950Y-21622D01*
X171803Y-21658D01*
X171652D01*
X170784Y-21831D01*
X170598Y-21908D01*
X170402Y-21947D01*
X169584Y-22286D01*
X169417Y-22398D01*
X169231Y-22474D01*
X168495Y-22966D01*
X168353Y-23108D01*
X168186Y-23220D01*
X167560Y-23846D01*
X167448Y-24013D01*
X167306Y-24155D01*
X166814Y-24891D01*
X166738Y-25076D01*
X166626Y-25243D01*
X166287Y-26061D01*
X166248Y-26258D01*
X166171Y-26444D01*
X165998Y-27312D01*
Y-27517D01*
X165959Y-27717D01*
X165961Y-28157D01*
Y-86000D01*
X166116Y-86780D01*
X166558Y-87442D01*
X171558Y-92442D01*
X171558Y-92442D01*
X182961Y-103845D01*
X182961Y-104939D01*
X181901Y-106000D01*
X82617D01*
X63713Y-124905D01*
X17010Y-124905D01*
X15860Y-123755D01*
Y-118043D01*
X17297Y-116926D01*
X17825Y-117085D01*
Y-117085D01*
X22175D01*
Y-116542D01*
X28144D01*
Y-118609D01*
X34856D01*
Y-118392D01*
X55702D01*
X55798Y-118456D01*
X56500Y-118596D01*
X57202Y-118456D01*
X57798Y-118059D01*
X58196Y-117463D01*
X58335Y-116761D01*
X58196Y-116059D01*
X57798Y-115463D01*
X57202Y-115065D01*
X56500Y-114926D01*
X55798Y-115065D01*
X55702Y-115130D01*
X34856D01*
Y-111504D01*
X28144D01*
Y-113279D01*
X22175D01*
Y-112736D01*
X19583D01*
X19425Y-112704D01*
X18131D01*
Y-110786D01*
X22175D01*
Y-110748D01*
X23150Y-109733D01*
X23579Y-109648D01*
X23943Y-109404D01*
X27292Y-106055D01*
X27500Y-106096D01*
X28202Y-105956D01*
X28798Y-105559D01*
X29196Y-104963D01*
X29335Y-104261D01*
X29196Y-103559D01*
X28798Y-102963D01*
X28202Y-102565D01*
X27500Y-102426D01*
X26798Y-102565D01*
X26202Y-102963D01*
X25804Y-103559D01*
X25665Y-104261D01*
X25706Y-104469D01*
X23675Y-106500D01*
X22175Y-106437D01*
Y-106437D01*
X20595D01*
X19854Y-104937D01*
X20390Y-104235D01*
X22175D01*
Y-99885D01*
X17825D01*
Y-100828D01*
X17360Y-101173D01*
X15860Y-100419D01*
Y-28218D01*
X15850Y-28169D01*
X15857Y-28118D01*
X15835Y-27669D01*
X15799Y-27523D01*
Y-27372D01*
X15623Y-26491D01*
X15547Y-26305D01*
X15507Y-26108D01*
X15164Y-25278D01*
X15052Y-25111D01*
X14975Y-24926D01*
X14476Y-24179D01*
X14334Y-24037D01*
X14222Y-23870D01*
X13587Y-23235D01*
X13420Y-23123D01*
X13278Y-22981D01*
X12532Y-22482D01*
X12346Y-22405D01*
X12179Y-22294D01*
X11349Y-21950D01*
X11152Y-21911D01*
X10967Y-21834D01*
X10086Y-21659D01*
X9934D01*
X9788Y-21622D01*
X9339Y-21600D01*
X9289Y-21607D01*
X9239Y-21597D01*
X4281D01*
X3782Y-21498D01*
X3312Y-21304D01*
X2889Y-21021D01*
X2530Y-20662D01*
X2247Y-20239D01*
X2053Y-19769D01*
X1975Y-19379D01*
X1991Y-19234D01*
X1981Y-19124D01*
X2003Y-19016D01*
Y-4410D01*
X2104Y-3902D01*
X2302Y-3423D01*
X2590Y-2992D01*
X2956Y-2626D01*
X3387Y-2338D01*
X3865Y-2140D01*
X4373Y-2039D01*
X4632Y-2039D01*
X4632Y-2039D01*
X4633Y-2039D01*
X23180Y-2035D01*
X23754Y-3421D01*
X19207Y-7968D01*
X18964Y-8332D01*
X18879Y-8761D01*
X18876Y-8762D01*
X17506Y-9271D01*
X17379Y-9251D01*
X16914Y-8383D01*
X16149Y-7451D01*
X15217Y-6686D01*
X14154Y-6117D01*
X13000Y-5767D01*
X11800Y-5649D01*
X10600Y-5767D01*
X9446Y-6117D01*
X8383Y-6686D01*
X7451Y-7451D01*
X6686Y-8383D01*
X6117Y-9446D01*
X5767Y-10600D01*
X5649Y-11800D01*
X5767Y-13000D01*
X6117Y-14154D01*
X6686Y-15217D01*
X7451Y-16149D01*
X8383Y-16914D01*
X9446Y-17483D01*
X10600Y-17833D01*
X11800Y-17951D01*
X13000Y-17833D01*
X14154Y-17483D01*
X15217Y-16914D01*
X16149Y-16149D01*
X16914Y-15217D01*
X18665Y-15124D01*
X18879Y-15271D01*
Y-76633D01*
X17432D01*
Y-80983D01*
X22569D01*
Y-76633D01*
X21122D01*
Y-9225D01*
X26465Y-3883D01*
X60771D01*
X60798Y-3901D01*
X60872Y-5432D01*
X60872D01*
X60873Y-5432D01*
Y-10569D01*
X65222D01*
Y-5432D01*
X65222D01*
X65056Y-5030D01*
X65991Y-3883D01*
X79720D01*
X80260Y-5209D01*
X80278Y-5432D01*
X80278D01*
X80278Y-5432D01*
Y-10569D01*
X84627D01*
Y-5432D01*
X84628D01*
X84484Y-5084D01*
X85441Y-3883D01*
X149796D01*
X152120Y-6207D01*
X151578Y-7458D01*
X151438Y-7646D01*
X150562Y-7761D01*
X149688Y-8123D01*
X148938Y-8699D01*
X148362Y-9449D01*
X148000Y-10323D01*
X147877Y-11261D01*
X148000Y-12199D01*
X148362Y-13072D01*
X148938Y-13823D01*
X149688Y-14399D01*
X150562Y-14761D01*
X151500Y-14884D01*
X152438Y-14761D01*
X153312Y-14399D01*
X154062Y-13823D01*
X154638Y-13072D01*
X154838Y-12590D01*
X155960Y-12025D01*
X156550Y-11919D01*
X156878Y-12135D01*
Y-40037D01*
X155389Y-40219D01*
X154987Y-39248D01*
X154347Y-38414D01*
X153513Y-37774D01*
X152542Y-37372D01*
X152000Y-37300D01*
Y-41261D01*
Y-45222D01*
X152542Y-45150D01*
X153513Y-44748D01*
X154347Y-44108D01*
X154987Y-43274D01*
X155389Y-42303D01*
X156878Y-42484D01*
Y-44296D01*
X153506Y-47669D01*
X147908D01*
Y-48528D01*
X145890D01*
X144847Y-47028D01*
X144968Y-46622D01*
X144968Y-46444D01*
Y-44350D01*
X139032D01*
Y-46444D01*
X139032Y-46622D01*
X139144Y-46996D01*
X138398Y-48051D01*
X136740Y-48154D01*
X121310Y-32724D01*
X121932Y-31224D01*
X122000D01*
Y-28650D01*
Y-26075D01*
X119925D01*
Y-27517D01*
X118425Y-28277D01*
X118372Y-28238D01*
Y-26322D01*
X113628D01*
Y-26322D01*
X112128Y-26550D01*
X111742Y-25878D01*
X111969Y-25122D01*
X111969Y-24944D01*
Y-22850D01*
X109000D01*
X106032D01*
Y-24944D01*
X106032Y-25122D01*
X106258Y-25878D01*
X105517Y-27167D01*
X105245Y-27378D01*
X102487D01*
X102189Y-26659D01*
X101604Y-25896D01*
X100841Y-25311D01*
X99953Y-24943D01*
X99000Y-24817D01*
X98047Y-24943D01*
X97159Y-25311D01*
X96396Y-25896D01*
X95811Y-26659D01*
X95443Y-27547D01*
X95317Y-28500D01*
X95443Y-29453D01*
X95811Y-30341D01*
X96396Y-31104D01*
X97159Y-31689D01*
X98047Y-32057D01*
X99000Y-32183D01*
X99953Y-32057D01*
X100841Y-31689D01*
X101604Y-31104D01*
X102189Y-30341D01*
X102487Y-29622D01*
X106431D01*
Y-31021D01*
X111568D01*
Y-29622D01*
X113628D01*
Y-30278D01*
X115692D01*
X135824Y-50410D01*
X135824Y-50410D01*
X136188Y-50653D01*
X136617Y-50739D01*
X139432D01*
Y-52521D01*
X140878D01*
Y-66198D01*
X117626Y-89451D01*
X117500Y-89426D01*
X116798Y-89565D01*
X116202Y-89963D01*
X115804Y-90559D01*
X115665Y-91261D01*
X115804Y-91963D01*
X116202Y-92559D01*
X116435Y-92714D01*
Y-94883D01*
X116315Y-94963D01*
X115917Y-95559D01*
X115777Y-96261D01*
X115917Y-96963D01*
X116315Y-97559D01*
X116910Y-97957D01*
X117613Y-98096D01*
X118315Y-97957D01*
X118910Y-97559D01*
X119308Y-96963D01*
X119448Y-96261D01*
X119308Y-95559D01*
X118910Y-94963D01*
X118678Y-94808D01*
Y-92639D01*
X118798Y-92559D01*
X119196Y-91963D01*
X119335Y-91261D01*
X119278Y-90971D01*
X142793Y-67456D01*
X142793Y-67456D01*
X143036Y-67092D01*
X143122Y-66663D01*
X143122Y-66663D01*
Y-52521D01*
X144569D01*
Y-50771D01*
X147908D01*
Y-54853D01*
X155092D01*
Y-49255D01*
X158793Y-45554D01*
X158793Y-45554D01*
X159036Y-45190D01*
X159122Y-44761D01*
Y-10500D01*
X159122Y-10500D01*
X159036Y-10071D01*
X158793Y-9707D01*
X158793Y-9707D01*
X152480Y-3394D01*
X153054Y-2008D01*
X177332Y-2003D01*
X177590D01*
X178098Y-2104D01*
D02*
G37*
G36*
X173602Y-160189D02*
X166643Y-153229D01*
X180562D01*
X173602Y-160189D01*
D02*
G37*
G36*
X156898D02*
X149938Y-153229D01*
X163857D01*
X156898Y-160189D01*
D02*
G37*
G36*
X140193D02*
X133233Y-153229D01*
X147153D01*
X140193Y-160189D01*
D02*
G37*
G36*
X123488D02*
X116528Y-153229D01*
X130448D01*
X123488Y-160189D01*
D02*
G37*
G36*
X106783D02*
X99824Y-153229D01*
X113743D01*
X106783Y-160189D01*
D02*
G37*
G36*
X181954Y-168542D02*
X174994Y-161583D01*
X181954Y-154623D01*
Y-168542D01*
D02*
G37*
G36*
X172209Y-161583D02*
X165249Y-168542D01*
X158290Y-161583D01*
X165249Y-154623D01*
X172209Y-161583D01*
D02*
G37*
G36*
X155504D02*
X148545Y-168542D01*
X141585Y-161583D01*
X148545Y-154623D01*
X155504Y-161583D01*
D02*
G37*
G36*
X138798D02*
X131838Y-168542D01*
X124879Y-161583D01*
X131838Y-154623D01*
X138798Y-161583D01*
D02*
G37*
G36*
X122095D02*
X115135Y-168542D01*
X108175Y-161583D01*
X115135Y-154623D01*
X122095Y-161583D01*
D02*
G37*
G36*
X105390D02*
X98430Y-168542D01*
Y-154623D01*
X105390Y-161583D01*
D02*
G37*
G36*
X180562Y-169934D02*
X173602Y-176894D01*
X166643Y-169934D01*
X173602Y-162974D01*
X180562Y-169934D01*
D02*
G37*
G36*
X163857D02*
X156898Y-176894D01*
X149938Y-169934D01*
X156898Y-162974D01*
X163857Y-169934D01*
D02*
G37*
G36*
X147153D02*
X140193Y-176894D01*
X133233Y-169934D01*
X140193Y-162974D01*
X147153Y-169934D01*
D02*
G37*
G36*
X130448D02*
X123488Y-176894D01*
X116528Y-169934D01*
X123488Y-162974D01*
X130448Y-169934D01*
D02*
G37*
G36*
X113743D02*
X106783Y-176894D01*
X99824Y-169934D01*
X106783Y-162974D01*
X113743Y-169934D01*
D02*
G37*
G36*
X181954Y-185168D02*
X174994Y-178208D01*
X181954Y-171249D01*
Y-185168D01*
D02*
G37*
G36*
X172209Y-178208D02*
X165249Y-185168D01*
X158290Y-178208D01*
X165249Y-171249D01*
X172209Y-178208D01*
D02*
G37*
G36*
X155504D02*
X148545Y-185168D01*
X141585Y-178208D01*
X148545Y-171249D01*
X155504Y-178208D01*
D02*
G37*
G36*
X138798D02*
X131838Y-185168D01*
X124879Y-178208D01*
X131838Y-171249D01*
X138798Y-178208D01*
D02*
G37*
G36*
X122095D02*
X115135Y-185168D01*
X108175Y-178208D01*
X115135Y-171249D01*
X122095Y-178208D01*
D02*
G37*
G36*
X105390D02*
X98430Y-185168D01*
Y-171249D01*
X105390Y-178208D01*
D02*
G37*
G36*
X180562Y-186560D02*
X173602Y-193520D01*
X166643Y-186560D01*
X173602Y-179600D01*
X180562Y-186560D01*
D02*
G37*
G36*
X163857D02*
X156898Y-193520D01*
X149938Y-186560D01*
X156898Y-179600D01*
X163857Y-186560D01*
D02*
G37*
G36*
X147153D02*
X140193Y-193520D01*
X133233Y-186560D01*
X140193Y-179600D01*
X147153Y-186560D01*
D02*
G37*
G36*
X130448D02*
X123488Y-193520D01*
X116528Y-186560D01*
X123488Y-179600D01*
X130448Y-186560D01*
D02*
G37*
G36*
X113743D02*
X106783Y-193520D01*
X99824Y-186560D01*
X106783Y-179600D01*
X113743Y-186560D01*
D02*
G37*
G36*
X181954Y-201794D02*
X174994Y-194834D01*
X181954Y-187875D01*
Y-201794D01*
D02*
G37*
G36*
X172209Y-194834D02*
X165249Y-201794D01*
X158290Y-194834D01*
X165249Y-187875D01*
X172209Y-194834D01*
D02*
G37*
G36*
X155504D02*
X148545Y-201794D01*
X141585Y-194834D01*
X148545Y-187875D01*
X155504Y-194834D01*
D02*
G37*
G36*
X138798D02*
X131838Y-201794D01*
X124879Y-194834D01*
X131838Y-187875D01*
X138798Y-194834D01*
D02*
G37*
G36*
X122095D02*
X115135Y-201794D01*
X108175Y-194834D01*
X115135Y-187875D01*
X122095Y-194834D01*
D02*
G37*
G36*
X105390D02*
X98430Y-201794D01*
Y-187875D01*
X105390Y-194834D01*
D02*
G37*
G36*
X180562Y-203186D02*
X173602Y-210146D01*
X166643Y-203186D01*
X173602Y-196226D01*
X180562Y-203186D01*
D02*
G37*
G36*
X163857D02*
X156898Y-210146D01*
X149938Y-203186D01*
X156898Y-196226D01*
X163857Y-203186D01*
D02*
G37*
G36*
X147153D02*
X140193Y-210146D01*
X133233Y-203186D01*
X140193Y-196226D01*
X147153Y-203186D01*
D02*
G37*
G36*
X130448D02*
X123488Y-210146D01*
X116528Y-203186D01*
X123488Y-196226D01*
X130448Y-203186D01*
D02*
G37*
G36*
X113743D02*
X106783Y-210146D01*
X99824Y-203186D01*
X106783Y-196226D01*
X113743Y-203186D01*
D02*
G37*
G36*
X181954Y-218420D02*
X174994Y-211460D01*
X181954Y-204501D01*
Y-218420D01*
D02*
G37*
G36*
X172209Y-211460D02*
X165249Y-218420D01*
X158290Y-211460D01*
X165249Y-204501D01*
X172209Y-211460D01*
D02*
G37*
G36*
X155504D02*
X148545Y-218420D01*
X141585Y-211460D01*
X148545Y-204501D01*
X155504Y-211460D01*
D02*
G37*
G36*
X138798D02*
X131838Y-218420D01*
X124879Y-211460D01*
X131838Y-204501D01*
X138798Y-211460D01*
D02*
G37*
G36*
X122095D02*
X115135Y-218420D01*
X108175Y-211460D01*
X115135Y-204501D01*
X122095Y-211460D01*
D02*
G37*
G36*
X105390D02*
X98430Y-218420D01*
Y-204501D01*
X105390Y-211460D01*
D02*
G37*
G36*
X180562Y-219812D02*
X173602Y-226772D01*
X166643Y-219812D01*
X173602Y-212852D01*
X180562Y-219812D01*
D02*
G37*
G36*
X163857D02*
X156898Y-226772D01*
X149938Y-219812D01*
X156898Y-212852D01*
X163857Y-219812D01*
D02*
G37*
G36*
X147153D02*
X140193Y-226772D01*
X133233Y-219812D01*
X140193Y-212852D01*
X147153Y-219812D01*
D02*
G37*
G36*
X130448D02*
X123488Y-226772D01*
X116528Y-219812D01*
X123488Y-212852D01*
X130448Y-219812D01*
D02*
G37*
G36*
X113743D02*
X106783Y-226772D01*
X99824Y-219812D01*
X106783Y-212852D01*
X113743Y-219812D01*
D02*
G37*
G36*
X182032Y-235047D02*
X175072Y-228088D01*
X182032Y-221128D01*
Y-235047D01*
D02*
G37*
G36*
X172286Y-228088D02*
X165327Y-235047D01*
X158367Y-228088D01*
X165327Y-221128D01*
X172286Y-228088D01*
D02*
G37*
G36*
X155582D02*
X148622Y-235047D01*
X141662Y-228088D01*
X148622Y-221128D01*
X155582Y-228088D01*
D02*
G37*
G36*
X138876D02*
X131916Y-235047D01*
X124956Y-228088D01*
X131916Y-221128D01*
X138876Y-228088D01*
D02*
G37*
G36*
X122172D02*
X115213Y-235047D01*
X108253Y-228088D01*
X115213Y-221128D01*
X122172Y-228088D01*
D02*
G37*
G36*
X105468D02*
X98508Y-235047D01*
Y-221128D01*
X105468Y-228088D01*
D02*
G37*
G36*
X180562Y-236517D02*
X173602Y-243477D01*
X166643Y-236517D01*
X173602Y-229557D01*
X180562Y-236517D01*
D02*
G37*
G36*
X163857D02*
X156898Y-243477D01*
X149938Y-236517D01*
X156898Y-229557D01*
X163857Y-236517D01*
D02*
G37*
G36*
X147153D02*
X140193Y-243477D01*
X133233Y-236517D01*
X140193Y-229557D01*
X147153Y-236517D01*
D02*
G37*
G36*
X130448D02*
X123488Y-243477D01*
X116528Y-236517D01*
X123488Y-229557D01*
X130448Y-236517D01*
D02*
G37*
G36*
X113743D02*
X106783Y-243477D01*
X99824Y-236517D01*
X106783Y-229557D01*
X113743Y-236517D01*
D02*
G37*
G36*
X182032Y-251752D02*
X175072Y-244792D01*
X182032Y-237833D01*
Y-251752D01*
D02*
G37*
G36*
X172286Y-244792D02*
X165327Y-251752D01*
X158367Y-244792D01*
X165327Y-237833D01*
X172286Y-244792D01*
D02*
G37*
G36*
X155582D02*
X148622Y-251752D01*
X141662Y-244792D01*
X148622Y-237833D01*
X155582Y-244792D01*
D02*
G37*
G36*
X138876D02*
X131916Y-251752D01*
X124956Y-244792D01*
X131916Y-237833D01*
X138876Y-244792D01*
D02*
G37*
G36*
X122172D02*
X115213Y-251752D01*
X108253Y-244792D01*
X115213Y-237833D01*
X122172Y-244792D01*
D02*
G37*
G36*
X105468D02*
X98508Y-251752D01*
Y-237833D01*
X105468Y-244792D01*
D02*
G37*
G36*
X180562Y-253222D02*
X173602Y-260181D01*
X166643Y-253222D01*
X173602Y-246262D01*
X180562Y-253222D01*
D02*
G37*
G36*
X163857D02*
X156898Y-260181D01*
X149938Y-253222D01*
X156898Y-246262D01*
X163857Y-253222D01*
D02*
G37*
G36*
X147153D02*
X140193Y-260181D01*
X133233Y-253222D01*
X140193Y-246262D01*
X147153Y-253222D01*
D02*
G37*
G36*
X130448D02*
X123488Y-260181D01*
X116528Y-253222D01*
X123488Y-246262D01*
X130448Y-253222D01*
D02*
G37*
G36*
X113743D02*
X106783Y-260181D01*
X99824Y-253222D01*
X106783Y-246262D01*
X113743Y-253222D01*
D02*
G37*
G36*
X182032Y-268457D02*
X175072Y-261497D01*
X182032Y-254537D01*
Y-268457D01*
D02*
G37*
G36*
X172286Y-261497D02*
X165327Y-268457D01*
X158367Y-261497D01*
X165327Y-254537D01*
X172286Y-261497D01*
D02*
G37*
G36*
X155582D02*
X148622Y-268457D01*
X141662Y-261497D01*
X148622Y-254537D01*
X155582Y-261497D01*
D02*
G37*
G36*
X138876D02*
X131916Y-268457D01*
X124956Y-261497D01*
X131916Y-254537D01*
X138876Y-261497D01*
D02*
G37*
G36*
X122172D02*
X115213Y-268457D01*
X108253Y-261497D01*
X115213Y-254537D01*
X122172Y-261497D01*
D02*
G37*
G36*
X105468D02*
X98508Y-268457D01*
Y-254537D01*
X105468Y-261497D01*
D02*
G37*
G36*
X180562Y-269926D02*
X173602Y-276886D01*
X166643Y-269926D01*
X173602Y-262967D01*
X180562Y-269926D01*
D02*
G37*
G36*
X163857D02*
X156898Y-276886D01*
X149938Y-269926D01*
X156898Y-262967D01*
X163857Y-269926D01*
D02*
G37*
G36*
X147153D02*
X140193Y-276886D01*
X133233Y-269926D01*
X140193Y-262967D01*
X147153Y-269926D01*
D02*
G37*
G36*
X130448D02*
X123488Y-276886D01*
X116528Y-269926D01*
X123488Y-262967D01*
X130448Y-269926D01*
D02*
G37*
G36*
X113743D02*
X106783Y-276886D01*
X99824Y-269926D01*
X106783Y-262967D01*
X113743Y-269926D01*
D02*
G37*
G36*
X182032Y-285162D02*
X175072Y-278202D01*
X182032Y-271242D01*
Y-285162D01*
D02*
G37*
G36*
X172286Y-278202D02*
X165327Y-285162D01*
X158367Y-278202D01*
X165327Y-271242D01*
X172286Y-278202D01*
D02*
G37*
G36*
X155582D02*
X148622Y-285162D01*
X141662Y-278202D01*
X148622Y-271242D01*
X155582Y-278202D01*
D02*
G37*
G36*
X138876D02*
X131916Y-285162D01*
X124956Y-278202D01*
X131916Y-271242D01*
X138876Y-278202D01*
D02*
G37*
G36*
X122172D02*
X115213Y-285162D01*
X108253Y-278202D01*
X115213Y-271242D01*
X122172Y-278202D01*
D02*
G37*
G36*
X105468D02*
X98508Y-285162D01*
Y-271242D01*
X105468Y-278202D01*
D02*
G37*
G36*
X180562Y-286631D02*
X166643D01*
X173602Y-279671D01*
X180562Y-286631D01*
D02*
G37*
G36*
X163857D02*
X149938D01*
X156898Y-279671D01*
X163857Y-286631D01*
D02*
G37*
G36*
X147153D02*
X133233D01*
X140193Y-279671D01*
X147153Y-286631D01*
D02*
G37*
G36*
X130448D02*
X116528D01*
X123488Y-279671D01*
X130448Y-286631D01*
D02*
G37*
G36*
X113743D02*
X99824D01*
X106783Y-279671D01*
X113743Y-286631D01*
D02*
G37*
%LPC*%
G36*
X78722Y-5432D02*
X74372D01*
Y-9482D01*
X73207Y-10648D01*
X72964Y-11012D01*
X72878Y-11441D01*
X72878Y-11441D01*
Y-15093D01*
X72232Y-15500D01*
X71378Y-15723D01*
X70841Y-15311D01*
X70122Y-15012D01*
Y-10569D01*
X71128D01*
Y-5432D01*
X66778D01*
Y-10569D01*
X67878D01*
Y-15012D01*
X67159Y-15311D01*
X66396Y-15896D01*
X65811Y-16659D01*
X65443Y-17547D01*
X65317Y-18500D01*
X65443Y-19453D01*
X65741Y-20173D01*
X59207Y-26707D01*
X58964Y-27071D01*
X58878Y-27500D01*
X58878Y-27500D01*
Y-55766D01*
X57628D01*
Y-59722D01*
X62128D01*
X62372Y-59722D01*
X63628D01*
X63872Y-59722D01*
X66691Y-59722D01*
X67141Y-60500D01*
X66691Y-61278D01*
X63872D01*
X63628Y-61278D01*
X62372D01*
X62128Y-61278D01*
X57628D01*
Y-65234D01*
X59678D01*
Y-68485D01*
X59502Y-68602D01*
X59104Y-69198D01*
X58990Y-69773D01*
X58460Y-70186D01*
X57564Y-70546D01*
X57202Y-70304D01*
X56500Y-70165D01*
X49500D01*
X48798Y-70304D01*
X48202Y-70702D01*
X47804Y-71298D01*
X47665Y-72000D01*
X47804Y-72702D01*
X48202Y-73298D01*
X48798Y-73696D01*
X49500Y-73835D01*
X55740D01*
X81702Y-99798D01*
X82298Y-100196D01*
X83000Y-100335D01*
X84000D01*
X84702Y-100196D01*
X85298Y-99798D01*
X85696Y-99202D01*
X85835Y-98500D01*
X85696Y-97798D01*
X85298Y-97202D01*
X84702Y-96804D01*
X84000Y-96665D01*
X83760D01*
X60251Y-73155D01*
X60625Y-72188D01*
X60927Y-71710D01*
X61502Y-71596D01*
X62098Y-71198D01*
X62396Y-70752D01*
X62867Y-70537D01*
X64081Y-70323D01*
X64374Y-70519D01*
X65076Y-70659D01*
X65779Y-70519D01*
X66374Y-70121D01*
X66772Y-69526D01*
X66786Y-69456D01*
X67049Y-69447D01*
Y-69447D01*
X68203Y-69406D01*
X68321Y-69427D01*
X68398Y-69542D01*
X68702Y-69998D01*
X69298Y-70396D01*
X70000Y-70535D01*
X70702Y-70396D01*
X71298Y-69998D01*
X71550Y-69620D01*
X72198Y-69478D01*
X72305Y-69475D01*
X73190Y-69580D01*
X73402Y-69898D01*
X73998Y-70296D01*
X74700Y-70435D01*
X75402Y-70296D01*
X75998Y-69898D01*
X77559Y-69800D01*
X77691Y-69857D01*
X78198Y-70196D01*
X78900Y-70335D01*
X79602Y-70196D01*
X80033Y-69908D01*
X80658Y-70121D01*
X81414Y-70652D01*
X81365Y-70900D01*
X81504Y-71602D01*
X81902Y-72198D01*
X82498Y-72596D01*
X83200Y-72735D01*
X83902Y-72596D01*
X84229Y-72378D01*
X85314Y-72667D01*
X85801Y-72947D01*
X85804Y-72963D01*
X86202Y-73559D01*
X86798Y-73957D01*
X87500Y-74096D01*
X88202Y-73957D01*
X88798Y-73559D01*
X89196Y-72963D01*
X89335Y-72261D01*
X89196Y-71559D01*
X88798Y-70963D01*
X88622Y-70846D01*
Y-69356D01*
X92757D01*
Y-62644D01*
X92622D01*
Y-42038D01*
X93030Y-41766D01*
X93428Y-41170D01*
X93567Y-40468D01*
X93428Y-39766D01*
X93030Y-39170D01*
X92435Y-38772D01*
X91732Y-38633D01*
X91030Y-38772D01*
X90434Y-39170D01*
X90037Y-39766D01*
X89897Y-40468D01*
X90037Y-41170D01*
X90378Y-41682D01*
Y-62644D01*
X85822D01*
X85652Y-62644D01*
X84322Y-62235D01*
Y-36265D01*
X88284Y-32302D01*
X88284Y-32302D01*
X88415Y-32106D01*
X89000Y-32183D01*
X89953Y-32057D01*
X90841Y-31689D01*
X91604Y-31104D01*
X92189Y-30341D01*
X92557Y-29453D01*
X92683Y-28500D01*
X92557Y-27547D01*
X92189Y-26659D01*
X91604Y-25896D01*
X90841Y-25311D01*
X89953Y-24943D01*
X89000Y-24817D01*
X88047Y-24943D01*
X87159Y-25311D01*
X86835Y-25559D01*
X85416Y-25001D01*
X85309Y-23777D01*
X87327Y-21759D01*
X88047Y-22057D01*
X89000Y-22183D01*
X89953Y-22057D01*
X90841Y-21689D01*
X91604Y-21104D01*
X92189Y-20341D01*
X92557Y-19453D01*
X92683Y-18500D01*
X92557Y-17547D01*
X92189Y-16659D01*
X91604Y-15896D01*
X90841Y-15311D01*
X89953Y-14943D01*
X89000Y-14817D01*
X88047Y-14943D01*
X87159Y-15311D01*
X86396Y-15896D01*
X85811Y-16659D01*
X85443Y-17547D01*
X85317Y-18500D01*
X85443Y-19453D01*
X85741Y-20173D01*
X83167Y-22747D01*
X82923Y-23111D01*
X82838Y-23540D01*
X82838Y-23540D01*
Y-25040D01*
X82293Y-25418D01*
X81338Y-25692D01*
X80841Y-25311D01*
X79953Y-24943D01*
X79345Y-24863D01*
X78856Y-23968D01*
X78749Y-23337D01*
X79753Y-22333D01*
X79753Y-22333D01*
X79936Y-22060D01*
X79953Y-22057D01*
X80841Y-21689D01*
X81604Y-21104D01*
X82189Y-20341D01*
X82557Y-19453D01*
X82683Y-18500D01*
X82557Y-17547D01*
X82189Y-16659D01*
X81604Y-15896D01*
X80841Y-15311D01*
X79953Y-14943D01*
X79000Y-14817D01*
X78047Y-14943D01*
X77159Y-15311D01*
X76622Y-15723D01*
X75768Y-15500D01*
X75122Y-15093D01*
Y-11906D01*
X76459Y-10569D01*
X78722D01*
Y-5432D01*
D02*
G37*
G36*
X170200Y-5649D02*
X169000Y-5767D01*
X167846Y-6117D01*
X166783Y-6686D01*
X165851Y-7451D01*
X165086Y-8383D01*
X164517Y-9446D01*
X164167Y-10600D01*
X164049Y-11800D01*
X164167Y-13000D01*
X164517Y-14154D01*
X165086Y-15217D01*
X165851Y-16149D01*
X166783Y-16914D01*
X167846Y-17483D01*
X169000Y-17833D01*
X170200Y-17951D01*
X171400Y-17833D01*
X172554Y-17483D01*
X173617Y-16914D01*
X174549Y-16149D01*
X175314Y-15217D01*
X175883Y-14154D01*
X176233Y-13000D01*
X176351Y-11800D01*
X176233Y-10600D01*
X175883Y-9446D01*
X175314Y-8383D01*
X174549Y-7451D01*
X173617Y-6686D01*
X172554Y-6117D01*
X171400Y-5767D01*
X170200Y-5649D01*
D02*
G37*
G36*
X103051Y-14449D02*
X99500D01*
Y-18000D01*
X103051D01*
Y-14449D01*
D02*
G37*
G36*
X98500D02*
X94949D01*
Y-18000D01*
X98500D01*
Y-14449D01*
D02*
G37*
G36*
X124675Y-20176D02*
X120325D01*
Y-21473D01*
X118372D01*
Y-20810D01*
X113628D01*
Y-24766D01*
X118372D01*
Y-23716D01*
X120325D01*
Y-24525D01*
X124675D01*
Y-20176D01*
D02*
G37*
G36*
X111969Y-19579D02*
X109500D01*
Y-21850D01*
X111969D01*
Y-19579D01*
D02*
G37*
G36*
X108500D02*
X106032D01*
Y-21850D01*
X108500D01*
Y-19579D01*
D02*
G37*
G36*
X103051Y-19000D02*
X99500D01*
Y-22551D01*
X103051D01*
Y-19000D01*
D02*
G37*
G36*
X98500D02*
X94949D01*
Y-22551D01*
X98500D01*
Y-19000D01*
D02*
G37*
G36*
X151500Y-17638D02*
X150562Y-17761D01*
X149688Y-18123D01*
X148938Y-18699D01*
X148362Y-19449D01*
X148000Y-20323D01*
X147877Y-21261D01*
X148000Y-22199D01*
X148362Y-23073D01*
X148938Y-23823D01*
X149688Y-24399D01*
X150562Y-24761D01*
X151500Y-24884D01*
X152438Y-24761D01*
X153312Y-24399D01*
X154062Y-23823D01*
X154638Y-23073D01*
X155000Y-22199D01*
X155123Y-21261D01*
X155000Y-20323D01*
X154638Y-19449D01*
X154062Y-18699D01*
X153312Y-18123D01*
X152438Y-17761D01*
X151500Y-17638D01*
D02*
G37*
G36*
X125075Y-26075D02*
X123000D01*
Y-28150D01*
X125075D01*
Y-26075D01*
D02*
G37*
G36*
Y-29150D02*
X123000D01*
Y-31224D01*
X125075D01*
Y-29150D01*
D02*
G37*
G36*
X151500Y-27638D02*
X150562Y-27761D01*
X149688Y-28123D01*
X148938Y-28699D01*
X148362Y-29449D01*
X148000Y-30323D01*
X147877Y-31261D01*
X148000Y-32199D01*
X148362Y-33073D01*
X148938Y-33823D01*
X149688Y-34399D01*
X150562Y-34761D01*
X151500Y-34884D01*
X152438Y-34761D01*
X153312Y-34399D01*
X154062Y-33823D01*
X154638Y-33073D01*
X155000Y-32199D01*
X155123Y-31261D01*
X155000Y-30323D01*
X154638Y-29449D01*
X154062Y-28699D01*
X153312Y-28123D01*
X152438Y-27761D01*
X151500Y-27638D01*
D02*
G37*
G36*
X140727Y-32385D02*
X139931Y-32562D01*
X139207Y-32939D01*
X138605Y-33490D01*
X138166Y-34179D01*
X137921Y-34957D01*
X137885Y-35772D01*
X138062Y-36569D01*
X138439Y-37293D01*
X138990Y-37895D01*
X139679Y-38334D01*
X140457Y-38579D01*
X141272Y-38615D01*
X142069Y-38438D01*
X142793Y-38061D01*
X143395Y-37510D01*
X143834Y-36821D01*
X144079Y-36043D01*
X144115Y-35228D01*
X143938Y-34431D01*
X143561Y-33707D01*
X143010Y-33105D01*
X142321Y-32666D01*
X141543Y-32421D01*
X140727Y-32385D01*
D02*
G37*
G36*
X151000Y-37300D02*
X150458Y-37372D01*
X149487Y-37774D01*
X148653Y-38414D01*
X148013Y-39248D01*
X147611Y-40219D01*
X147539Y-40761D01*
X151000D01*
Y-37300D01*
D02*
G37*
G36*
X109845Y-35087D02*
X109048Y-35264D01*
X108325Y-35640D01*
X107723Y-36192D01*
X107284Y-36880D01*
X107039Y-37659D01*
X107003Y-38474D01*
X107180Y-39271D01*
X107557Y-39995D01*
X108108Y-40597D01*
X108797Y-41036D01*
X109575Y-41281D01*
X110390Y-41317D01*
X111187Y-41140D01*
X111911Y-40763D01*
X112513Y-40212D01*
X112952Y-39523D01*
X113197Y-38745D01*
X113233Y-37929D01*
X113056Y-37132D01*
X112679Y-36408D01*
X112128Y-35807D01*
X111439Y-35368D01*
X110661Y-35123D01*
X109845Y-35087D01*
D02*
G37*
G36*
X144968Y-41079D02*
X142500D01*
Y-43350D01*
X144968D01*
Y-41079D01*
D02*
G37*
G36*
X141500D02*
X139032D01*
Y-43350D01*
X141500D01*
Y-41079D01*
D02*
G37*
G36*
X151000Y-41761D02*
X147539D01*
X147611Y-42303D01*
X148013Y-43274D01*
X148653Y-44108D01*
X149487Y-44748D01*
X150458Y-45150D01*
X151000Y-45222D01*
Y-41761D01*
D02*
G37*
G36*
X118348Y-62644D02*
X111243D01*
Y-67967D01*
X110207Y-69002D01*
X109964Y-69366D01*
X109878Y-69795D01*
X109878Y-69795D01*
Y-78585D01*
X109702Y-78702D01*
X109304Y-79298D01*
X109165Y-80000D01*
X109304Y-80702D01*
X109702Y-81298D01*
X110298Y-81696D01*
X111000Y-81835D01*
X111702Y-81696D01*
X112298Y-81298D01*
X112696Y-80702D01*
X112835Y-80000D01*
X112696Y-79298D01*
X112298Y-78702D01*
X112122Y-78585D01*
Y-70260D01*
X113025Y-69356D01*
X118348D01*
Y-62644D01*
D02*
G37*
G36*
X22569Y-82539D02*
X17432D01*
Y-86888D01*
X22569D01*
Y-85835D01*
X26480D01*
X28144Y-87499D01*
Y-93018D01*
X33648D01*
X33756Y-93040D01*
X33756Y-93040D01*
X35693D01*
X36706Y-94053D01*
X36665Y-94261D01*
X36805Y-94963D01*
X37202Y-95559D01*
X37798Y-95956D01*
X38500Y-96096D01*
X39202Y-95956D01*
X39798Y-95559D01*
X40196Y-94963D01*
X40335Y-94261D01*
X40196Y-93559D01*
X39798Y-92963D01*
X39202Y-92565D01*
X38500Y-92426D01*
X38292Y-92467D01*
X36950Y-91125D01*
X36587Y-90882D01*
X36158Y-90797D01*
X34856Y-90236D01*
Y-85913D01*
X29730D01*
X27738Y-83921D01*
X27374Y-83678D01*
X26945Y-83592D01*
X26945Y-83592D01*
X22569D01*
Y-82539D01*
D02*
G37*
G36*
X22175Y-93586D02*
X17825D01*
Y-97936D01*
X22175D01*
Y-96882D01*
X24189D01*
X24304Y-97463D01*
X24702Y-98059D01*
X25298Y-98457D01*
X26000Y-98596D01*
X26702Y-98457D01*
X27298Y-98059D01*
X27696Y-97463D01*
X27835Y-96761D01*
X27696Y-96059D01*
X27298Y-95463D01*
X26702Y-95065D01*
X26000Y-94926D01*
X25554Y-95014D01*
X25507Y-94968D01*
X25143Y-94725D01*
X24714Y-94639D01*
X24714Y-94639D01*
X22175D01*
Y-93586D01*
D02*
G37*
G36*
X59200Y-94709D02*
X58498Y-94849D01*
X57902Y-95246D01*
X57504Y-95842D01*
X57365Y-96544D01*
X57504Y-97246D01*
X57902Y-97842D01*
X58498Y-98240D01*
X59200Y-98379D01*
X59902Y-98240D01*
X60324Y-97958D01*
X61431Y-99065D01*
Y-102222D01*
X66568D01*
Y-102222D01*
X67431D01*
Y-102222D01*
X72569D01*
Y-100972D01*
X74963D01*
X75298Y-101196D01*
X76000Y-101335D01*
X76702Y-101196D01*
X77298Y-100798D01*
X77696Y-100202D01*
X77835Y-99500D01*
X77696Y-98798D01*
X77298Y-98202D01*
X76702Y-97804D01*
X76000Y-97665D01*
X75298Y-97804D01*
X74702Y-98202D01*
X74350Y-98729D01*
X72569D01*
Y-97479D01*
X67431D01*
Y-97479D01*
X66568D01*
Y-97479D01*
X63018D01*
X61558Y-96019D01*
X61194Y-95776D01*
X60799Y-95697D01*
X60498Y-95246D01*
X59902Y-94849D01*
X59200Y-94709D01*
D02*
G37*
G36*
X66568Y-103778D02*
X65931Y-103778D01*
X61431D01*
Y-107132D01*
X60969Y-107595D01*
X60726Y-107959D01*
X60640Y-108388D01*
X60640Y-108388D01*
Y-110085D01*
X60464Y-110202D01*
X60066Y-110798D01*
X59926Y-111500D01*
X60066Y-112202D01*
X60464Y-112798D01*
X61059Y-113196D01*
X61762Y-113335D01*
X62464Y-113196D01*
X63060Y-112798D01*
X63457Y-112202D01*
X63597Y-111500D01*
X63457Y-110798D01*
X63060Y-110202D01*
X63055Y-109955D01*
X64467Y-108521D01*
X66568Y-108521D01*
X68634Y-108521D01*
Y-110085D01*
X68458Y-110202D01*
X68060Y-110798D01*
X67920Y-111500D01*
X68060Y-112202D01*
X68458Y-112798D01*
X69053Y-113196D01*
X69755Y-113335D01*
X70458Y-113196D01*
X71053Y-112798D01*
X71451Y-112202D01*
X71591Y-111500D01*
X71451Y-110798D01*
X71053Y-110202D01*
X70877Y-110085D01*
Y-108521D01*
X72569D01*
Y-103778D01*
X68068D01*
X66568Y-103778D01*
D02*
G37*
%LPD*%
D30*
X144842Y-132261D02*
G03*
X144842Y-132261I-4342J0D01*
G01*
X68271Y-277700D02*
G03*
X68271Y-277700I-6471J0D01*
G01*
X171196Y-106969D02*
X182504Y-118277D01*
X164832Y-106969D02*
X182505Y-124642D01*
X177560Y-106969D02*
X182503Y-111912D01*
X182503Y-106740D02*
X182507Y-140488D01*
X158468Y-106969D02*
X182506Y-131007D01*
X148522Y-127919D02*
X169473Y-106969D01*
X83258D02*
X181901D01*
X141920Y-128157D02*
X163109Y-106969D01*
X152104D02*
X182507Y-137372D01*
X154842Y-134327D02*
X182280Y-106889D01*
X174071Y-140554D02*
X182506Y-132119D01*
X180485Y-140504D02*
X182507Y-138482D01*
X154842Y-127963D02*
X175837Y-106969D01*
X167657Y-140604D02*
X182505Y-125756D01*
X161243Y-140654D02*
X182504Y-119393D01*
X145740Y-106969D02*
X179285Y-140514D01*
X146158Y-136603D02*
X154842D01*
X139376Y-106969D02*
X172970Y-140563D01*
X154842Y-128799D02*
X166655Y-140612D01*
X154842Y-136603D02*
Y-127919D01*
X146158D02*
X154842D01*
X146158Y-136603D02*
Y-127919D01*
X126648Y-106969D02*
X147598Y-127919D01*
X133012Y-106969D02*
X153962Y-127919D01*
X64211Y-126015D02*
X83258Y-106969D01*
X120284D02*
X141310Y-127995D01*
X113920Y-106969D02*
X136854Y-129903D01*
X144798Y-131643D02*
X146158Y-130283D01*
X144766Y-131450D02*
X146158Y-132843D01*
X122758Y-140955D02*
X156745Y-106969D01*
X154829Y-140704D02*
X182503Y-113030D01*
X107556Y-106969D02*
X141397Y-140809D01*
X116344Y-141005D02*
X150381Y-106969D01*
X109931Y-141055D02*
X144017Y-106969D01*
X101192D02*
X135082Y-140858D01*
X103516Y-141105D02*
X137653Y-106969D01*
X94828D02*
X128767Y-140908D01*
X97102Y-141155D02*
X131289Y-106969D01*
X90688Y-141205D02*
X124925Y-106969D01*
X154829Y-140704D02*
X182503Y-113030D01*
X154842Y-135163D02*
X160341Y-140661D01*
X149918Y-136603D02*
X154026Y-140711D01*
X148415Y-140754D02*
X152566Y-136603D01*
X142858Y-135907D02*
X147711Y-140760D01*
X142000Y-140805D02*
X146202Y-136603D01*
X135587Y-140855D02*
X139882Y-136559D01*
X85711Y-141244D02*
X182507Y-140488D01*
X129173Y-140905D02*
X136397Y-133681D01*
X88464Y-106969D02*
X122453Y-140957D01*
X82679Y-107547D02*
X116138Y-141006D01*
X79497Y-110729D02*
X109823Y-141056D01*
X76315Y-113911D02*
X103509Y-141105D01*
X85711Y-141244D02*
X85711Y-287037D01*
X73133Y-117093D02*
X97194Y-141154D01*
X69951Y-120275D02*
X90879Y-141203D01*
X66769Y-123457D02*
X85711Y-142400D01*
X62455Y-271262D02*
X85711Y-248005D01*
X62963Y-126015D02*
X85711Y-148764D01*
X78497Y-287039D02*
X85711Y-279825D01*
X84863Y-287037D02*
X85711Y-286189D01*
X68252Y-278192D02*
X85711Y-260733D01*
X72131Y-287042D02*
X85711Y-273461D01*
X68271Y-277695D02*
X77617Y-287040D01*
X66657Y-273424D02*
X85711Y-254369D01*
X66432Y-282219D02*
X71255Y-287042D01*
X65764Y-287044D02*
X85711Y-267097D01*
X62016Y-284168D02*
X64893Y-287044D01*
X52368Y-160433D02*
X105833Y-106969D01*
X52498Y-166667D02*
X112197Y-106969D01*
X50235Y-126015D02*
X85711Y-161491D01*
X52498Y-173031D02*
X118561Y-106969D01*
X51863Y-159463D02*
X85711Y-193311D01*
X46261Y-153813D02*
X93105Y-106969D01*
X49443Y-156995D02*
X99469Y-106969D01*
X43079Y-150631D02*
X86741Y-106969D01*
X37507Y-126015D02*
X85711Y-174219D01*
X43871Y-126015D02*
X85711Y-167855D01*
X52498Y-172826D02*
X85711Y-206039D01*
X52498Y-179190D02*
X85711Y-212403D01*
X52498Y-217579D02*
X85711Y-184366D01*
X52498Y-185554D02*
X85711Y-218767D01*
X52498Y-223943D02*
X85711Y-190730D01*
X52498Y-166462D02*
X85711Y-199675D01*
X52498Y-198487D02*
X85711Y-165274D01*
X52498Y-172826D02*
X85711Y-206039D01*
X52498Y-204851D02*
X85711Y-171638D01*
X33533Y-141085D02*
X48603Y-126015D01*
X36715Y-144267D02*
X54967Y-126015D01*
X30351Y-137903D02*
X42239Y-126015D01*
X56599D02*
X85711Y-155127D01*
X39897Y-147449D02*
X61331Y-126015D01*
X18463Y-126015D02*
X64211Y-126015D01*
X23987Y-131539D02*
X29511Y-126015D01*
X20805Y-128357D02*
X23147Y-126015D01*
X18415D02*
X51863Y-159463D01*
X27169Y-134721D02*
X35875Y-126015D01*
X52498Y-179395D02*
X85711Y-146182D01*
X52498Y-185759D02*
X85711Y-152546D01*
X52308Y-160128D02*
X52498Y-161084D01*
Y-211215D02*
X85711Y-178002D01*
X52498Y-192123D02*
X85711Y-158910D01*
X51766Y-159318D02*
X52308Y-160128D01*
X18463Y-126015D02*
X51766Y-159318D01*
X24779Y-126015D02*
X85711Y-186947D01*
X31143Y-126015D02*
X85711Y-180583D01*
X52498Y-243035D02*
X85711Y-209822D01*
X52498Y-211010D02*
X85711Y-244223D01*
X52498Y-249399D02*
X85711Y-216186D01*
X52498Y-217373D02*
X85711Y-250587D01*
X52498Y-255763D02*
X85711Y-222550D01*
X52498Y-230307D02*
X85711Y-197094D01*
X52498Y-236671D02*
X85711Y-203458D01*
X52498Y-191918D02*
X85711Y-225131D01*
X52498Y-204646D02*
X85711Y-237859D01*
X52498Y-243035D02*
X85711Y-209822D01*
X52498Y-236465D02*
X85711Y-269679D01*
X52498Y-242829D02*
X85711Y-276043D01*
X52498Y-274855D02*
X85711Y-241641D01*
X54366Y-287048D02*
X85711Y-287037D01*
X52498Y-249193D02*
X85711Y-282407D01*
X52498Y-223737D02*
X85711Y-256951D01*
X52498Y-262127D02*
X85711Y-228913D01*
X52498Y-268491D02*
X85711Y-235278D01*
X52498Y-230101D02*
X85711Y-263315D01*
X52498Y-198282D02*
X85711Y-231495D01*
X52498Y-261921D02*
X61805Y-271229D01*
X52498Y-255557D02*
X83978Y-287037D01*
X52498Y-285179D02*
Y-161084D01*
Y-268285D02*
X57281Y-273068D01*
X52498Y-274649D02*
X55332Y-277484D01*
X52498Y-281013D02*
X58532Y-287047D01*
X52498Y-281219D02*
X55362Y-278355D01*
X53340Y-286741D02*
X57524Y-282557D01*
X53482Y-286836D02*
X53822Y-286977D01*
X53176Y-286631D02*
X53482Y-286836D01*
X59398Y-287047D02*
X62292Y-284153D01*
X53822Y-286977D02*
X54183Y-287048D01*
X52570Y-285724D02*
X52711Y-286064D01*
X52498Y-285363D02*
X52570Y-285724D01*
X52915Y-286371D02*
X53176Y-286631D01*
X52711Y-286064D02*
X52915Y-286371D01*
X151000Y-109000D02*
X154000D01*
X148400D02*
X151000D01*
X129000D02*
X135000D01*
X171000D02*
X173000D01*
X167000D02*
X171000D01*
X166931Y-109069D02*
X167000Y-109000D01*
X117000D02*
X121000D01*
X99783Y-178208D02*
X176784D01*
X99783Y-261575D02*
X176784D01*
X99783Y-194834D02*
X176784D01*
X99783Y-161583D02*
X176784D01*
X99783Y-211460D02*
X176784D01*
X99783Y-228165D02*
X176784D01*
X99783Y-244870D02*
X176784D01*
X99783Y-278279D02*
X176784D01*
D31*
X66000Y-63256D02*
D03*
Y-57744D02*
D03*
X60000Y-63256D02*
D03*
Y-57744D02*
D03*
X116000Y-22788D02*
D03*
Y-28300D02*
D03*
D32*
X76547Y-8000D02*
D03*
X82453D02*
D03*
X68953D02*
D03*
X63047D02*
D03*
D33*
X122500Y-22350D02*
D03*
Y-28650D02*
D03*
X20000Y-102060D02*
D03*
Y-95761D02*
D03*
Y-114910D02*
D03*
Y-108611D02*
D03*
D34*
X109000Y-22350D02*
D03*
Y-28650D02*
D03*
X142000Y-50150D02*
D03*
Y-43850D02*
D03*
X64000Y-106150D02*
D03*
Y-99850D02*
D03*
X70000D02*
D03*
Y-106150D02*
D03*
D35*
X89205Y-66000D02*
D03*
X114795D02*
D03*
D36*
X20000Y-84714D02*
D03*
Y-78808D02*
D03*
D37*
X31500Y-115056D02*
D03*
Y-89466D02*
D03*
D38*
X140500Y-132261D02*
Y-128269D01*
X150500Y-132261D02*
Y-128269D01*
Y-132261D02*
X154492D01*
X150500Y-136253D02*
Y-132261D01*
X146508D02*
X150500D01*
X140500D02*
X144492D01*
X136508D02*
X140500D01*
Y-136253D02*
Y-132261D01*
X60000Y-63256D02*
X60800Y-64056D01*
Y-69900D02*
Y-64056D01*
X69000Y-28500D02*
Y-27500D01*
Y-28936D02*
Y-28500D01*
X65076Y-68824D02*
Y-63756D01*
X70000Y-99850D02*
X75650D01*
X76000Y-99500D01*
X99000Y-28500D02*
X115800D01*
X114599Y-66000D02*
X114795D01*
X112343Y-68256D02*
X114599Y-66000D01*
X112343Y-68453D02*
Y-68256D01*
X111000Y-69795D02*
X112343Y-68453D01*
X111000Y-80000D02*
Y-69795D01*
X91500Y-40700D02*
X91732Y-40468D01*
X91500Y-63744D02*
Y-40700D01*
X87500Y-72261D02*
Y-66000D01*
X89244D02*
X91500Y-63744D01*
X89205Y-66000D02*
X89244D01*
X136617Y-49617D02*
X141771D01*
X116181Y-29181D02*
X136617Y-49617D01*
X116394Y-28300D02*
X117272Y-29178D01*
X116000Y-28300D02*
X116394D01*
X69000Y-27500D02*
X74000Y-22500D01*
Y-11441D02*
X76547Y-8894D01*
X74000Y-22500D02*
Y-11441D01*
X69000Y-18500D02*
Y-8547D01*
X60000Y-58244D02*
Y-27500D01*
X69000Y-18500D01*
X66000Y-58244D02*
Y-31936D01*
X69000Y-28936D01*
X82453Y-8500D02*
Y-5047D01*
X84739Y-2761D01*
X65442D02*
X84739D01*
X150261D01*
X68953Y-8500D02*
X69000Y-8547D01*
X26000Y-2761D02*
X65442D01*
X63047Y-8500D02*
Y-5156D01*
X65442Y-2761D01*
X76547Y-8894D02*
Y-8500D01*
X70000Y-68700D02*
Y-35000D01*
X78900Y-68500D02*
Y-35100D01*
X83200Y-70900D02*
Y-35800D01*
X74700Y-68600D02*
Y-34181D01*
X115800Y-28500D02*
X116000Y-28300D01*
X116500Y-22594D02*
X121606D01*
X142000Y-66663D02*
Y-50150D01*
X117500Y-91163D02*
X142000Y-66663D01*
X142500Y-49650D02*
X149889D01*
X117500Y-91261D02*
Y-91163D01*
X74700Y-34181D02*
X78960Y-29921D01*
X78900Y-35100D02*
X83960Y-30040D01*
X29244Y-87013D02*
X29244D01*
X26945Y-84714D02*
X29244Y-87013D01*
X29244D02*
X31500Y-89269D01*
X20000Y-84714D02*
X26945D01*
X31500Y-89662D02*
Y-89269D01*
Y-89662D02*
X33756Y-91918D01*
X61762Y-111500D02*
Y-108388D01*
X64000Y-106150D01*
X117500Y-91261D02*
X117556Y-91317D01*
Y-96205D02*
Y-91317D01*
Y-96205D02*
X117613Y-96261D01*
X70000Y-35000D02*
X73960Y-31040D01*
X87491Y-31509D02*
Y-31389D01*
X73960Y-31040D02*
Y-26540D01*
X88960Y-29921D02*
Y-28540D01*
X83200Y-35800D02*
X87491Y-31509D01*
X83960Y-23540D02*
X88960Y-18540D01*
X73960Y-26540D02*
X78960Y-21540D01*
Y-18540D01*
Y-29921D02*
Y-28540D01*
X87491Y-31389D02*
X88960Y-29921D01*
X83960Y-30040D02*
Y-23540D01*
X150261Y-2761D02*
X158000Y-10500D01*
X151500Y-51261D02*
X158000Y-44761D01*
Y-10500D01*
X149889Y-49650D02*
X151500Y-51261D01*
X20000Y-78808D02*
Y-8761D01*
X26000Y-2761D01*
X20000Y-108611D02*
X23150D01*
X27500Y-104261D01*
X20000Y-95761D02*
X24714D01*
X25714Y-96761D01*
X26000D01*
X33756Y-91918D02*
X36158D01*
X38500Y-94261D01*
X64000Y-99611D02*
X69500D01*
X69755Y-106394D02*
X70000Y-106150D01*
X69755Y-111500D02*
Y-106394D01*
X63803Y-99850D02*
X64000D01*
X60765Y-96812D02*
X63803Y-99850D01*
X59468Y-96812D02*
X60765D01*
X59200Y-96544D02*
X59468Y-96812D01*
D39*
X49500Y-72000D02*
X56500D01*
X83000Y-98500D01*
X84000D01*
D40*
X33205Y-116761D02*
X56500D01*
X19425Y-114336D02*
X20000Y-114910D01*
X17336Y-114336D02*
X19425D01*
X16500Y-113500D02*
X17336Y-114336D01*
X16500Y-105261D02*
X20000Y-101761D01*
X16500Y-113500D02*
Y-105261D01*
X20000Y-114910D02*
X31354D01*
X31500Y-115056D02*
X33205Y-116761D01*
X31354Y-114910D02*
X31500Y-115056D01*
D41*
X141000Y-35500D02*
D03*
X110118Y-38202D02*
D03*
D42*
X170200Y-11800D02*
D03*
X61800Y-277700D02*
D03*
X11800Y-11800D02*
D03*
D43*
X69000Y-28500D02*
D03*
Y-18500D02*
D03*
X79000Y-28500D02*
D03*
X89000D02*
D03*
X79000Y-18500D02*
D03*
X89000D02*
D03*
X99000Y-28500D02*
D03*
D44*
Y-18500D02*
D03*
D45*
X140500Y-132261D02*
D03*
X151500Y-11261D02*
D03*
Y-21261D02*
D03*
Y-31261D02*
D03*
Y-41261D02*
D03*
D46*
X150500Y-132261D02*
D03*
D47*
X151500Y-51261D02*
D03*
D48*
X112000Y-109000D02*
D03*
X49500Y-72000D02*
D03*
X84000Y-98500D02*
D03*
X56500Y-72000D02*
D03*
X76000Y-99500D02*
D03*
X56500Y-116761D02*
D03*
X138500Y-79761D02*
D03*
X143500Y-89761D02*
D03*
X133500D02*
D03*
X158500Y-79761D02*
D03*
X163500Y-89761D02*
D03*
X148500Y-79761D02*
D03*
X153500Y-89761D02*
D03*
X91732Y-40468D02*
D03*
X163500Y-29761D02*
D03*
X158500Y-59761D02*
D03*
X163500Y-69761D02*
D03*
X148500Y-59761D02*
D03*
X153500Y-69761D02*
D03*
X138500Y-19761D02*
D03*
X143500Y-29761D02*
D03*
X138500Y-59761D02*
D03*
X143500Y-69761D02*
D03*
X133500Y-9761D02*
D03*
X128500Y-19761D02*
D03*
X133500Y-29761D02*
D03*
X128500Y-59761D02*
D03*
X133500Y-69761D02*
D03*
X123500Y-9761D02*
D03*
X118500Y-39761D02*
D03*
X123500Y-49761D02*
D03*
X118500Y-59761D02*
D03*
X123500Y-69761D02*
D03*
X113500Y-9761D02*
D03*
Y-49761D02*
D03*
X103500Y-9761D02*
D03*
Y-49761D02*
D03*
X93500Y-9761D02*
D03*
X58500Y-19761D02*
D03*
X53500Y-9761D02*
D03*
X48500Y-19761D02*
D03*
X53500Y-29761D02*
D03*
X48500Y-39761D02*
D03*
X53500Y-49761D02*
D03*
X43500Y-9761D02*
D03*
X38500Y-19761D02*
D03*
X43500Y-29761D02*
D03*
X38500Y-39761D02*
D03*
X43500Y-49761D02*
D03*
X38500Y-59761D02*
D03*
Y-79761D02*
D03*
X33500Y-9761D02*
D03*
X28500Y-19761D02*
D03*
X33500Y-29761D02*
D03*
X28500Y-39761D02*
D03*
X33500Y-49761D02*
D03*
X28500Y-59761D02*
D03*
X33500Y-69761D02*
D03*
X28500Y-79761D02*
D03*
X74700Y-68600D02*
D03*
X78900Y-68500D02*
D03*
X61762Y-111500D02*
D03*
X70000Y-68700D02*
D03*
X182000Y-109000D02*
D03*
X172000D02*
D03*
X162000D02*
D03*
X152000D02*
D03*
X142000D02*
D03*
X132000D02*
D03*
X122000D02*
D03*
X65076Y-68824D02*
D03*
X60800Y-69900D02*
D03*
X83200Y-70900D02*
D03*
X111000Y-80000D02*
D03*
X94000Y-119000D02*
D03*
Y-138000D02*
D03*
X117613Y-96261D02*
D03*
X117500Y-91261D02*
D03*
X27500Y-104261D02*
D03*
X26000Y-96761D02*
D03*
X38500Y-94261D02*
D03*
X87500Y-72261D02*
D03*
X69755Y-111500D02*
D03*
X59200Y-96544D02*
D03*
X106783Y-248497D02*
D03*
X99783Y-261575D02*
D03*
Y-194834D02*
D03*
Y-211460D02*
D03*
X106783Y-165210D02*
D03*
X123488D02*
D03*
X173602D02*
D03*
X156898D02*
D03*
X140193D02*
D03*
X123489Y-154895D02*
D03*
X173603D02*
D03*
X156899D02*
D03*
X140194D02*
D03*
X106784D02*
D03*
X140194Y-224536D02*
D03*
X156899D02*
D03*
X173603D02*
D03*
X173602Y-215088D02*
D03*
X99783Y-161583D02*
D03*
X156899Y-174659D02*
D03*
X106784D02*
D03*
X123489D02*
D03*
X140194D02*
D03*
X173603D02*
D03*
X106783Y-181836D02*
D03*
X123488D02*
D03*
X173602D02*
D03*
X156898D02*
D03*
X140193D02*
D03*
X99783Y-178208D02*
D03*
X156899Y-191285D02*
D03*
X106784D02*
D03*
X123489D02*
D03*
X140194D02*
D03*
X173603D02*
D03*
X106783Y-198462D02*
D03*
X123488D02*
D03*
X173602D02*
D03*
X156898D02*
D03*
X140193D02*
D03*
X156899Y-207910D02*
D03*
X106784D02*
D03*
X123489D02*
D03*
X140194D02*
D03*
X173603D02*
D03*
X123488Y-215088D02*
D03*
X156898D02*
D03*
X140193D02*
D03*
X106784Y-224536D02*
D03*
X173602Y-231792D02*
D03*
X156898D02*
D03*
X140193D02*
D03*
X123489Y-224536D02*
D03*
X123488Y-231792D02*
D03*
X173603Y-241241D02*
D03*
X173602Y-248497D02*
D03*
X156899Y-241241D02*
D03*
X156898Y-248497D02*
D03*
X140193D02*
D03*
X123489Y-241241D02*
D03*
X123488Y-248497D02*
D03*
X106784Y-241241D02*
D03*
X173603Y-257946D02*
D03*
X173602Y-265202D02*
D03*
X156899Y-257946D02*
D03*
X156898Y-265202D02*
D03*
X140194Y-257946D02*
D03*
X140193Y-265202D02*
D03*
X123489Y-257946D02*
D03*
X123488Y-265202D02*
D03*
X106783D02*
D03*
X106784Y-257946D02*
D03*
X173603Y-274651D02*
D03*
X173602Y-281907D02*
D03*
X156899Y-274651D02*
D03*
X156898Y-281907D02*
D03*
X140194Y-274651D02*
D03*
X140193Y-281907D02*
D03*
X123489Y-274651D02*
D03*
X123488Y-281907D02*
D03*
X106783D02*
D03*
X106784Y-274651D02*
D03*
X140194Y-241241D02*
D03*
X106783Y-231792D02*
D03*
X99783Y-228165D02*
D03*
Y-244870D02*
D03*
Y-278279D02*
D03*
X106783Y-215088D02*
D03*
M02*
