G04*
G04 #@! TF.GenerationSoftware,Altium Limited,Altium Designer,20.1.14 (287)*
G04*
G04 Layer_Physical_Order=2*
G04 Layer_Color=16711680*
%FSLAX25Y25*%
%MOIN*%
G70*
G04*
G04 #@! TF.SameCoordinates,DC510E11-46E1-4A0D-90B6-29553603E48A*
G04*
G04*
G04 #@! TF.FilePolarity,Positive*
G04*
G01*
G75*
%ADD10C,0.01000*%
%ADD31C,0.00700*%
%ADD33R,0.03150X0.03937*%
%ADD35R,0.03937X0.03543*%
%ADD39C,0.02400*%
%ADD40C,0.02000*%
%ADD41R,0.05984X0.05984*%
%ADD42C,0.05984*%
%ADD43C,0.05000*%
%ADD44C,0.06000*%
%ADD45C,0.06102*%
%ADD46R,0.06102X0.06102*%
%ADD47R,0.05984X0.05984*%
%ADD48C,0.02400*%
G04:AMPARAMS|DCode=49|XSize=30mil|YSize=40mil|CornerRadius=0mil|HoleSize=0mil|Usage=FLASHONLY|Rotation=45.000|XOffset=0mil|YOffset=0mil|HoleType=Round|Shape=Rectangle|*
%AMROTATEDRECTD49*
4,1,4,0.00354,-0.02475,-0.02475,0.00354,-0.00354,0.02475,0.02475,-0.00354,0.00354,-0.02475,0.0*
%
%ADD49ROTATEDRECTD49*%

%ADD50R,0.04000X0.03000*%
G04:AMPARAMS|DCode=51|XSize=30mil|YSize=40mil|CornerRadius=0mil|HoleSize=0mil|Usage=FLASHONLY|Rotation=315.000|XOffset=0mil|YOffset=0mil|HoleType=Round|Shape=Rectangle|*
%AMROTATEDRECTD51*
4,1,4,-0.02475,-0.00354,0.00354,0.02475,0.02475,0.00354,-0.00354,-0.02475,-0.02475,-0.00354,0.0*
%
%ADD51ROTATEDRECTD51*%

%ADD52R,0.02756X0.03543*%
%ADD53R,0.03543X0.03937*%
%ADD54O,0.01181X0.08071*%
%ADD55O,0.08071X0.01181*%
%ADD56C,0.01200*%
%ADD57C,0.04000*%
G36*
X178098Y-2104D02*
X178577Y-2302D01*
X179007Y-2590D01*
X179374Y-2956D01*
X179662Y-3387D01*
X179860Y-3865D01*
X179976Y-4447D01*
X179998Y-4747D01*
X180046Y-19020D01*
Y-19270D01*
X179947Y-19769D01*
X179753Y-20239D01*
X179470Y-20662D01*
X179111Y-21021D01*
X178688Y-21304D01*
X178218Y-21498D01*
X177719Y-21597D01*
X172493D01*
X172443Y-21607D01*
X172393Y-21600D01*
X171950Y-21622D01*
X171803Y-21658D01*
X171652D01*
X170784Y-21831D01*
X170598Y-21908D01*
X170402Y-21947D01*
X169584Y-22286D01*
X169417Y-22398D01*
X169231Y-22474D01*
X168495Y-22966D01*
X168353Y-23108D01*
X168186Y-23220D01*
X167560Y-23846D01*
X167448Y-24013D01*
X167306Y-24155D01*
X166814Y-24891D01*
X166738Y-25076D01*
X166626Y-25243D01*
X166287Y-26061D01*
X166248Y-26258D01*
X166171Y-26444D01*
X165998Y-27312D01*
Y-27517D01*
X165959Y-27717D01*
X165961Y-28157D01*
Y-86000D01*
X166116Y-86780D01*
X166558Y-87442D01*
X171558Y-92442D01*
X171558Y-92442D01*
X176654Y-97538D01*
X176463Y-98000D01*
X138038D01*
X136500Y-99530D01*
Y-102000D01*
X132500D01*
X128600Y-98100D01*
X126200D01*
Y-87422D01*
X126200Y-87422D01*
X126200Y-81200D01*
X109000Y-64000D01*
X50500Y-64000D01*
X42000Y-72500D01*
Y-95521D01*
X41538Y-95713D01*
X40294Y-94469D01*
X40335Y-94261D01*
X40196Y-93559D01*
X39798Y-92963D01*
X39202Y-92565D01*
X38500Y-92426D01*
X37798Y-92565D01*
X37202Y-92963D01*
X36805Y-93559D01*
X36665Y-94261D01*
X36805Y-94963D01*
X37202Y-95559D01*
X37798Y-95956D01*
X38500Y-96096D01*
X38708Y-96055D01*
X39580Y-96927D01*
X39389Y-97389D01*
X36278D01*
Y-102133D01*
X39067D01*
X39134Y-102146D01*
X39632D01*
X39820Y-102389D01*
X39580Y-102889D01*
X36278D01*
Y-107398D01*
X34722D01*
Y-102889D01*
X30766D01*
Y-103139D01*
X28915D01*
X28798Y-102963D01*
X28202Y-102565D01*
X27500Y-102426D01*
X26798Y-102565D01*
X26202Y-102963D01*
X25804Y-103559D01*
X25665Y-104261D01*
X25804Y-104963D01*
X25897Y-105102D01*
X25509Y-105421D01*
X22622Y-102534D01*
Y-10465D01*
X27465Y-5621D01*
X137035D01*
X149246Y-17832D01*
X149203Y-18496D01*
X148938Y-18699D01*
X148362Y-19449D01*
X148000Y-20323D01*
X147877Y-21261D01*
X148000Y-22199D01*
X148362Y-23073D01*
X148938Y-23823D01*
X149688Y-24399D01*
X150562Y-24761D01*
X151500Y-24884D01*
X152438Y-24761D01*
X153312Y-24399D01*
X154062Y-23823D01*
X154638Y-23073D01*
X155000Y-22199D01*
X155123Y-21261D01*
X155000Y-20323D01*
X154638Y-19449D01*
X154062Y-18699D01*
X153312Y-18123D01*
X152438Y-17761D01*
X151821Y-17680D01*
X151740Y-17275D01*
X151497Y-16911D01*
X151497Y-16911D01*
X149373Y-14786D01*
X149688Y-14399D01*
X150562Y-14761D01*
X151500Y-14884D01*
X152438Y-14761D01*
X153312Y-14399D01*
X154062Y-13823D01*
X154638Y-13072D01*
X155000Y-12199D01*
X155123Y-11261D01*
X155000Y-10323D01*
X154638Y-9449D01*
X154062Y-8699D01*
X153312Y-8123D01*
X152438Y-7761D01*
X151500Y-7638D01*
X150562Y-7761D01*
X149872Y-8047D01*
X144335Y-2510D01*
X144542Y-2010D01*
X177332Y-2003D01*
X177590D01*
X178098Y-2104D01*
D02*
G37*
G36*
X100000Y-75761D02*
X101239Y-77000D01*
X114900Y-77000D01*
X122764Y-84864D01*
X120915Y-88007D01*
X119670Y-86761D01*
X103288Y-86761D01*
X101120Y-88929D01*
X101120Y-90641D01*
X99358Y-92403D01*
Y-88802D01*
X99060Y-88504D01*
X97000Y-86367D01*
Y-80761D01*
X96000Y-79761D01*
X94000D01*
X93500Y-79261D01*
Y-75761D01*
X100000Y-75761D01*
D02*
G37*
G36*
X102460Y-100394D02*
X120907Y-100393D01*
X122435Y-98865D01*
X125235Y-101665D01*
X122963Y-103937D01*
X103562D01*
X100374Y-98308D01*
X102460Y-100394D01*
D02*
G37*
G36*
X182503Y-109950D02*
X117000D01*
Y-107900D01*
X182503D01*
Y-109950D01*
D02*
G37*
%LPC*%
G36*
X170200Y-5649D02*
X169000Y-5767D01*
X167846Y-6117D01*
X166783Y-6686D01*
X165851Y-7451D01*
X165086Y-8383D01*
X164517Y-9446D01*
X164167Y-10600D01*
X164049Y-11800D01*
X164167Y-13000D01*
X164517Y-14154D01*
X165086Y-15217D01*
X165851Y-16149D01*
X166783Y-16914D01*
X167846Y-17483D01*
X169000Y-17833D01*
X170200Y-17951D01*
X171400Y-17833D01*
X172554Y-17483D01*
X173617Y-16914D01*
X174549Y-16149D01*
X175314Y-15217D01*
X175883Y-14154D01*
X176233Y-13000D01*
X176351Y-11800D01*
X176233Y-10600D01*
X175883Y-9446D01*
X175314Y-8383D01*
X174549Y-7451D01*
X173617Y-6686D01*
X172554Y-6117D01*
X171400Y-5767D01*
X170200Y-5649D01*
D02*
G37*
G36*
X103051Y-14449D02*
X99500D01*
Y-18000D01*
X103051D01*
Y-14449D01*
D02*
G37*
G36*
X98500D02*
X94949D01*
Y-18000D01*
X98500D01*
Y-14449D01*
D02*
G37*
G36*
X89000Y-14817D02*
X88047Y-14943D01*
X87159Y-15311D01*
X86396Y-15896D01*
X85811Y-16659D01*
X85443Y-17547D01*
X85317Y-18500D01*
X85443Y-19453D01*
X85811Y-20341D01*
X86396Y-21104D01*
X87159Y-21689D01*
X88047Y-22057D01*
X89000Y-22183D01*
X89953Y-22057D01*
X90841Y-21689D01*
X91604Y-21104D01*
X92189Y-20341D01*
X92557Y-19453D01*
X92683Y-18500D01*
X92557Y-17547D01*
X92189Y-16659D01*
X91604Y-15896D01*
X90841Y-15311D01*
X89953Y-14943D01*
X89000Y-14817D01*
D02*
G37*
G36*
X79000D02*
X78047Y-14943D01*
X77159Y-15311D01*
X76396Y-15896D01*
X75811Y-16659D01*
X75443Y-17547D01*
X75317Y-18500D01*
X75443Y-19453D01*
X75811Y-20341D01*
X76396Y-21104D01*
X77159Y-21689D01*
X78047Y-22057D01*
X79000Y-22183D01*
X79953Y-22057D01*
X80841Y-21689D01*
X81604Y-21104D01*
X82189Y-20341D01*
X82557Y-19453D01*
X82683Y-18500D01*
X82557Y-17547D01*
X82189Y-16659D01*
X81604Y-15896D01*
X80841Y-15311D01*
X79953Y-14943D01*
X79000Y-14817D01*
D02*
G37*
G36*
X69000D02*
X68047Y-14943D01*
X67159Y-15311D01*
X66396Y-15896D01*
X65811Y-16659D01*
X65443Y-17547D01*
X65317Y-18500D01*
X65443Y-19453D01*
X65811Y-20341D01*
X66396Y-21104D01*
X67159Y-21689D01*
X68047Y-22057D01*
X69000Y-22183D01*
X69953Y-22057D01*
X70841Y-21689D01*
X71604Y-21104D01*
X72189Y-20341D01*
X72557Y-19453D01*
X72683Y-18500D01*
X72557Y-17547D01*
X72189Y-16659D01*
X71604Y-15896D01*
X70841Y-15311D01*
X69953Y-14943D01*
X69000Y-14817D01*
D02*
G37*
G36*
X103051Y-19000D02*
X99500D01*
Y-22551D01*
X103051D01*
Y-19000D01*
D02*
G37*
G36*
X98500D02*
X94949D01*
Y-22551D01*
X98500D01*
Y-19000D01*
D02*
G37*
G36*
X111969Y-22079D02*
X109500D01*
Y-24350D01*
X111969D01*
Y-22079D01*
D02*
G37*
G36*
X108500D02*
X106032D01*
Y-24350D01*
X108500D01*
Y-22079D01*
D02*
G37*
G36*
X111969Y-25350D02*
X109500D01*
Y-27622D01*
X111969D01*
Y-25350D01*
D02*
G37*
G36*
X108500D02*
X106032D01*
Y-27622D01*
X108500D01*
Y-25350D01*
D02*
G37*
G36*
X89000Y-24817D02*
X88047Y-24943D01*
X87159Y-25311D01*
X86396Y-25896D01*
X85811Y-26659D01*
X85443Y-27547D01*
X85317Y-28500D01*
X85443Y-29453D01*
X85811Y-30341D01*
X86396Y-31104D01*
X87159Y-31689D01*
X88047Y-32057D01*
X89000Y-32183D01*
X89953Y-32057D01*
X90841Y-31689D01*
X91604Y-31104D01*
X92189Y-30341D01*
X92557Y-29453D01*
X92683Y-28500D01*
X92557Y-27547D01*
X92189Y-26659D01*
X91604Y-25896D01*
X90841Y-25311D01*
X89953Y-24943D01*
X89000Y-24817D01*
D02*
G37*
G36*
X79000D02*
X78047Y-24943D01*
X77159Y-25311D01*
X76396Y-25896D01*
X75811Y-26659D01*
X75443Y-27547D01*
X75317Y-28500D01*
X75443Y-29453D01*
X75811Y-30341D01*
X76396Y-31104D01*
X77159Y-31689D01*
X78047Y-32057D01*
X79000Y-32183D01*
X79953Y-32057D01*
X80841Y-31689D01*
X81604Y-31104D01*
X82189Y-30341D01*
X82557Y-29453D01*
X82683Y-28500D01*
X82557Y-27547D01*
X82189Y-26659D01*
X81604Y-25896D01*
X80841Y-25311D01*
X79953Y-24943D01*
X79000Y-24817D01*
D02*
G37*
G36*
X69000D02*
X68047Y-24943D01*
X67159Y-25311D01*
X66396Y-25896D01*
X65811Y-26659D01*
X65443Y-27547D01*
X65317Y-28500D01*
X65443Y-29453D01*
X65811Y-30341D01*
X66396Y-31104D01*
X67159Y-31689D01*
X68047Y-32057D01*
X69000Y-32183D01*
X69953Y-32057D01*
X70841Y-31689D01*
X71604Y-31104D01*
X72189Y-30341D01*
X72557Y-29453D01*
X72683Y-28500D01*
X72557Y-27547D01*
X72189Y-26659D01*
X71604Y-25896D01*
X70841Y-25311D01*
X69953Y-24943D01*
X69000Y-24817D01*
D02*
G37*
G36*
X99000D02*
X98047Y-24943D01*
X97159Y-25311D01*
X96396Y-25896D01*
X95811Y-26659D01*
X95443Y-27547D01*
X95317Y-28500D01*
X95443Y-29453D01*
X95811Y-30341D01*
X96396Y-31104D01*
X97159Y-31689D01*
X98047Y-32057D01*
X99000Y-32183D01*
X99953Y-32057D01*
X100841Y-31689D01*
X101350Y-31299D01*
X101831Y-31780D01*
Y-34431D01*
X100778D01*
Y-39485D01*
X100365Y-39779D01*
X99222Y-38636D01*
Y-34431D01*
X94872D01*
Y-36041D01*
X92190Y-38724D01*
X91732Y-38633D01*
X91030Y-38772D01*
X90434Y-39170D01*
X90037Y-39766D01*
X89897Y-40468D01*
X90037Y-41170D01*
X90434Y-41766D01*
X91030Y-42163D01*
X91732Y-42303D01*
X92435Y-42163D01*
X93030Y-41766D01*
X93428Y-41170D01*
X93555Y-40531D01*
X94396Y-39690D01*
X94872Y-39568D01*
Y-39568D01*
X94872Y-39568D01*
X96982D01*
X99346Y-41932D01*
X99347Y-41933D01*
X99710Y-42176D01*
X100139Y-42261D01*
X107180D01*
X107180Y-42261D01*
X107609Y-42176D01*
X107973Y-41933D01*
X108853Y-41053D01*
X109575Y-41281D01*
X110390Y-41317D01*
X111187Y-41140D01*
X111911Y-40763D01*
X112513Y-40212D01*
X112952Y-39523D01*
X113197Y-38745D01*
X113233Y-37929D01*
X113056Y-37132D01*
X112679Y-36408D01*
X112128Y-35807D01*
X111439Y-35368D01*
X110661Y-35123D01*
X109845Y-35087D01*
X109048Y-35264D01*
X108325Y-35640D01*
X107723Y-36192D01*
X107284Y-36880D01*
X107039Y-37659D01*
X107003Y-38474D01*
X107180Y-39271D01*
X107276Y-39457D01*
X106716Y-40018D01*
X105250D01*
X105128Y-39568D01*
X105128Y-39518D01*
Y-34431D01*
X104074D01*
Y-32271D01*
X106431D01*
Y-33521D01*
X111568D01*
Y-28778D01*
X106431D01*
Y-30028D01*
X103251D01*
X102571Y-29348D01*
X102683Y-28500D01*
X102557Y-27547D01*
X102189Y-26659D01*
X101604Y-25896D01*
X100841Y-25311D01*
X99953Y-24943D01*
X99000Y-24817D01*
D02*
G37*
G36*
X151500Y-27638D02*
X150562Y-27761D01*
X149688Y-28123D01*
X148938Y-28699D01*
X148362Y-29449D01*
X148000Y-30323D01*
X147877Y-31261D01*
X148000Y-32199D01*
X148286Y-32889D01*
X146796Y-34378D01*
X143911D01*
X143561Y-33707D01*
X143010Y-33105D01*
X142321Y-32666D01*
X141543Y-32421D01*
X140727Y-32385D01*
X139931Y-32562D01*
X139207Y-32939D01*
X138605Y-33490D01*
X138166Y-34179D01*
X137921Y-34957D01*
X137885Y-35772D01*
X138062Y-36569D01*
X138439Y-37293D01*
X138990Y-37895D01*
X139679Y-38334D01*
X140457Y-38579D01*
X141272Y-38615D01*
X142069Y-38438D01*
X142793Y-38061D01*
X143395Y-37510D01*
X143834Y-36821D01*
X143897Y-36622D01*
X147261D01*
X147261Y-36622D01*
X147690Y-36536D01*
X148054Y-36293D01*
X149872Y-34475D01*
X150562Y-34761D01*
X151500Y-34884D01*
X152438Y-34761D01*
X153312Y-34399D01*
X154062Y-33823D01*
X154638Y-33073D01*
X155000Y-32199D01*
X155123Y-31261D01*
X155000Y-30323D01*
X154638Y-29449D01*
X154062Y-28699D01*
X153312Y-28123D01*
X152438Y-27761D01*
X151500Y-27638D01*
D02*
G37*
G36*
X152000Y-37300D02*
Y-40761D01*
X155461D01*
X155389Y-40219D01*
X154987Y-39248D01*
X154347Y-38414D01*
X153513Y-37774D01*
X152542Y-37372D01*
X152000Y-37300D01*
D02*
G37*
G36*
X151000D02*
X150458Y-37372D01*
X149487Y-37774D01*
X148653Y-38414D01*
X148013Y-39248D01*
X147611Y-40219D01*
X147539Y-40761D01*
X151000D01*
Y-37300D01*
D02*
G37*
G36*
X163969Y-41079D02*
X161500D01*
Y-43350D01*
X163969D01*
Y-41079D01*
D02*
G37*
G36*
X160500D02*
X158031D01*
Y-43350D01*
X160500D01*
Y-41079D01*
D02*
G37*
G36*
X155461Y-41761D02*
X152000D01*
Y-45222D01*
X152542Y-45150D01*
X153513Y-44748D01*
X154347Y-44108D01*
X154987Y-43274D01*
X155389Y-42303D01*
X155461Y-41761D01*
D02*
G37*
G36*
X151000D02*
X147539D01*
X147611Y-42303D01*
X148013Y-43274D01*
X148653Y-44108D01*
X149487Y-44748D01*
X150458Y-45150D01*
X151000Y-45222D01*
Y-41761D01*
D02*
G37*
G36*
X163969Y-44350D02*
X161500D01*
Y-46622D01*
X163969D01*
Y-44350D01*
D02*
G37*
G36*
X160500D02*
X158031D01*
Y-46622D01*
X160500D01*
Y-44350D01*
D02*
G37*
G36*
X155092Y-47669D02*
X147908D01*
Y-54853D01*
X155092D01*
Y-51271D01*
X158431D01*
Y-52521D01*
X163568D01*
Y-47778D01*
X158431D01*
Y-49028D01*
X155092D01*
Y-47669D01*
D02*
G37*
G36*
X26000Y-94926D02*
X25298Y-95065D01*
X24702Y-95463D01*
X24304Y-96059D01*
X24165Y-96761D01*
X24304Y-97463D01*
X24702Y-98059D01*
X25298Y-98457D01*
X26000Y-98596D01*
X26208Y-98555D01*
X27707Y-100054D01*
X27707Y-100054D01*
X28071Y-100297D01*
X28500Y-100382D01*
X30766D01*
Y-102133D01*
X34722D01*
Y-97389D01*
X30766D01*
Y-98139D01*
X28965D01*
X27794Y-96969D01*
X27835Y-96761D01*
X27696Y-96059D01*
X27298Y-95463D01*
X26702Y-95065D01*
X26000Y-94926D01*
D02*
G37*
%LPD*%
D10*
X150500Y-127261D02*
Y-123269D01*
Y-127261D02*
X154492D01*
X150500Y-131253D02*
Y-127261D01*
X146508D02*
X150500D01*
X140500D02*
Y-123269D01*
Y-127261D02*
X144492D01*
X136508D02*
X140500D01*
Y-131253D02*
Y-127261D01*
X93071Y-96308D02*
X105197D01*
X101129Y-94371D02*
X103805Y-91695D01*
X105016D02*
X105500Y-91211D01*
X103805Y-91695D02*
X105016D01*
X103705Y-101639D02*
X104228D01*
X112000Y-102910D02*
X121000D01*
X105500D02*
X112000D01*
X78500Y-99500D02*
X83629Y-94371D01*
X76000Y-99500D02*
X78500D01*
X83629Y-94371D02*
X93071D01*
X101129D01*
X161000Y-50150D02*
X161500D01*
X152611D02*
X161000D01*
X112000Y-91410D02*
X112150Y-91261D01*
X105500Y-91410D02*
X112000D01*
X51964Y-96305D02*
X59200D01*
X87579Y-76686D02*
X88850Y-77958D01*
X92500Y-40000D02*
X96500Y-36000D01*
X97047Y-38047D02*
Y-37000D01*
X147261Y-35500D02*
X151500Y-31261D01*
X141500Y-35500D02*
X147261D01*
X107180Y-41140D02*
X110118Y-38202D01*
X100139Y-41140D02*
X107180D01*
X27000Y-4500D02*
X137500D01*
X21500Y-10000D02*
X27000Y-4500D01*
X137500D02*
X150704Y-17704D01*
X25600Y-2900D02*
X143139D01*
X151500Y-11261D01*
X19900Y-8600D02*
X25600Y-2900D01*
X102953Y-37000D02*
Y-31316D01*
X102787Y-31150D02*
X102953Y-31316D01*
X97047Y-38047D02*
X100139Y-41140D01*
X102787Y-31150D02*
X109000D01*
X100137Y-28500D02*
X102787Y-31150D01*
X99000Y-28500D02*
X100137D01*
X74700Y-68900D02*
Y-68600D01*
Y-68900D02*
X77421Y-71621D01*
Y-80690D02*
Y-71621D01*
X70000Y-68800D02*
X75453Y-74253D01*
Y-80690D02*
Y-74253D01*
X70000Y-68800D02*
Y-68700D01*
X79390Y-80690D02*
Y-68990D01*
X78900Y-68500D02*
X79390Y-68990D01*
X81358Y-72742D02*
X83200Y-70900D01*
X81358Y-80690D02*
Y-72742D01*
X151500Y-51261D02*
X152611Y-50150D01*
X65076Y-68976D02*
Y-68824D01*
X61968Y-70168D02*
X67579Y-75779D01*
X65076Y-68976D02*
X69524Y-73424D01*
X61068Y-70168D02*
X61968D01*
X60800Y-69900D02*
X61068Y-70168D01*
X69524Y-80666D02*
Y-73424D01*
X67579Y-80690D02*
Y-75779D01*
X69524Y-80666D02*
X69547Y-80690D01*
X149889Y-49650D02*
X151500Y-51261D01*
X150704Y-20465D02*
X151500Y-21261D01*
X150704Y-20465D02*
Y-17704D01*
X21500Y-102998D02*
Y-10000D01*
X19900Y-103661D02*
Y-8600D01*
X21500Y-102998D02*
X27021Y-108519D01*
X19900Y-103661D02*
X26358Y-110119D01*
X112350Y-96261D02*
X117613D01*
X112150Y-91261D02*
X117500D01*
X87579Y-76686D02*
Y-72340D01*
X87500Y-72261D02*
X87579Y-72340D01*
X61673Y-82677D02*
Y-80690D01*
X56500Y-83411D02*
X57150Y-82761D01*
X61590D01*
X61673Y-82677D01*
X49500Y-90351D02*
Y-83411D01*
Y-90351D02*
X49584Y-90434D01*
X51929D01*
X32744Y-105261D02*
Y-105139D01*
X31866Y-104261D02*
X32744Y-105139D01*
X27500Y-104261D02*
X31866D01*
X28500Y-99261D02*
X32244D01*
X26000Y-96761D02*
X28500Y-99261D01*
X26000Y-96761D02*
X26379D01*
X32244Y-99261D02*
X32744Y-99761D01*
X26358Y-110119D02*
X51929D01*
X112000Y-96611D02*
X112350Y-96261D01*
X38500Y-94261D02*
X44516Y-100277D01*
X51929D01*
X83327Y-80690D02*
X86118D01*
X88850Y-77958D01*
X41484Y-102245D02*
X51929D01*
X38256Y-100146D02*
Y-99761D01*
Y-100146D02*
X39134Y-101024D01*
X40263D02*
X41484Y-102245D01*
X39134Y-101024D02*
X40263D01*
X39134Y-104214D02*
X51929D01*
X38256Y-105092D02*
X39134Y-104214D01*
X38256Y-105261D02*
Y-105092D01*
X27021Y-108519D02*
X40203D01*
X42540Y-106182D01*
X51929Y-96340D02*
X51964Y-96305D01*
X93071Y-90434D02*
Y-85981D01*
X91850Y-84761D02*
X93071Y-85981D01*
X105500Y-96611D02*
X112000D01*
X105197Y-96308D02*
X105500Y-96611D01*
X104228Y-101639D02*
X105500Y-102910D01*
X42540Y-106182D02*
X51929D01*
D31*
X144842Y-127261D02*
G03*
X144842Y-127261I-4342J0D01*
G01*
X160467Y-108261D02*
X182506Y-130300D01*
X160467Y-108261D02*
X182506Y-130300D01*
X144500Y-108261D02*
X182503Y-108261D01*
X143988Y-124675D02*
X160402Y-108261D01*
X180266Y-108261D02*
X182503Y-110498D01*
X170367Y-108261D02*
X182504Y-120399D01*
X154842Y-123720D02*
X170301Y-108261D01*
X154842Y-131603D02*
Y-122919D01*
X146158D02*
X154842D01*
X146158Y-131603D02*
Y-122919D01*
X174630Y-133631D02*
X182505Y-125756D01*
X182503Y-108261D02*
X182507Y-139261D01*
X165361Y-133000D02*
X182504Y-115858D01*
X150568Y-108261D02*
X181568Y-139261D01*
X179580Y-138580D02*
X182507Y-135654D01*
X180261Y-139261D02*
X182507D01*
X174000Y-133000D02*
X180261Y-139261D01*
X143239Y-130630D02*
X145608Y-133000D01*
X155462Y-133000D02*
X180201Y-108261D01*
X140668D02*
X165407Y-133000D01*
X146158Y-131603D02*
X154842D01*
X154111D02*
X155508Y-133000D01*
X145562Y-133000D02*
X146959Y-131603D01*
X137850Y-111014D02*
X140603Y-108261D01*
X137850Y-111350D02*
Y-108261D01*
X144500Y-108261D01*
X137850Y-111014D02*
X140603Y-108261D01*
X137514Y-111350D02*
X137850Y-111014D01*
X133858Y-111350D02*
X146158Y-123650D01*
X131150Y-111350D02*
X137850D01*
X130769Y-108261D02*
X131150Y-108642D01*
Y-111350D02*
Y-108261D01*
X117200Y-108261D02*
X131150Y-108261D01*
X117200Y-121765D02*
X130703Y-108261D01*
X137514Y-111350D02*
X137850Y-111014D01*
X120869Y-108261D02*
X137130Y-124522D01*
X117200Y-124400D02*
X117200Y-108261D01*
X125782Y-132982D02*
X150503Y-108261D01*
X125800Y-133000D02*
X174000Y-133000D01*
X120832Y-128032D02*
X137514Y-111350D01*
X120832Y-128032D02*
X137514Y-111350D01*
X117200Y-114491D02*
X135709Y-133000D01*
X117200Y-124400D02*
X125800Y-133000D01*
X135663Y-133000D02*
X137914Y-130749D01*
X117200Y-124391D02*
X125809Y-133000D01*
X98425Y-257624D02*
X98425D01*
X62500Y-221699D02*
X98425Y-257624D01*
X62500Y-221699D02*
Y-152410D01*
X147137Y-177377D02*
X147137Y-177377D01*
X147137Y-177377D02*
Y-170818D01*
X147136Y-170818D02*
X147137Y-170818D01*
Y-191299D02*
X147137Y-191299D01*
X147137Y-191299D02*
Y-184739D01*
X147136Y-184739D02*
X147137Y-184739D01*
Y-205220D02*
X147137Y-205220D01*
X147137Y-205220D02*
Y-198660D01*
X147136Y-198660D02*
X147137Y-198660D01*
X161058Y-177377D02*
X161058Y-177377D01*
X161058Y-177377D02*
Y-170818D01*
X161058Y-170818D02*
X161058Y-170818D01*
Y-191299D02*
X161058Y-191299D01*
X161058Y-191299D02*
Y-184739D01*
X161058Y-184739D02*
X161058Y-184739D01*
Y-205220D02*
X161058Y-205220D01*
X161058Y-205220D02*
Y-198660D01*
X161058Y-198660D02*
X161058Y-198660D01*
X174979Y-177377D02*
X174979Y-177377D01*
X174979Y-177377D02*
Y-170818D01*
X174979Y-170818D02*
X174979Y-170818D01*
Y-191299D02*
X174979Y-191299D01*
X174979Y-191299D02*
Y-184739D01*
X174979Y-184739D02*
X174979Y-184739D01*
Y-205220D02*
X174979Y-205220D01*
X174979Y-205220D02*
Y-198660D01*
X174979Y-198660D02*
X174979Y-198660D01*
Y-219141D02*
X174979Y-219141D01*
X174979Y-219141D02*
Y-212581D01*
X174979Y-212581D02*
X174979Y-212581D01*
Y-233062D02*
X174979Y-233062D01*
X174979Y-233062D02*
Y-226503D01*
X174979Y-226503D02*
X174979Y-226503D01*
Y-246984D02*
X174979Y-246984D01*
X174979Y-246984D02*
Y-240424D01*
X174979Y-240424D02*
X174979Y-240424D01*
Y-260903D02*
X174979Y-260903D01*
X174979Y-260903D02*
Y-254345D01*
X174979Y-254345D02*
X174979Y-254345D01*
Y-274822D02*
X174979Y-274822D01*
X174979Y-274822D02*
Y-268265D01*
X174979Y-268265D02*
X174979Y-268265D01*
X147137Y-219141D02*
X147137Y-219141D01*
X147137Y-219141D02*
Y-212581D01*
X147136Y-212581D02*
X147137Y-212581D01*
X161058Y-219141D02*
X161058Y-219141D01*
X161058Y-219141D02*
Y-212581D01*
X161058Y-212581D02*
X161058Y-212581D01*
Y-233062D02*
X161058Y-233062D01*
X161058Y-233062D02*
Y-226503D01*
X161058Y-226503D02*
X161058Y-226503D01*
Y-246984D02*
X161058Y-246984D01*
X161058Y-246984D02*
Y-240424D01*
X161058Y-240424D02*
X161058Y-240424D01*
Y-260903D02*
X161058Y-260903D01*
X161058Y-260903D02*
Y-254345D01*
X161058Y-254345D02*
X161058Y-254345D01*
Y-274822D02*
X161058Y-274822D01*
X161058Y-274822D02*
Y-268265D01*
X161058Y-268265D02*
X161058Y-268265D01*
X147137Y-233062D02*
X147137Y-233062D01*
X147137Y-233062D02*
Y-226503D01*
X147136Y-226503D02*
X147137Y-226503D01*
Y-246984D02*
X147137Y-246984D01*
X147137Y-246984D02*
Y-240424D01*
X147136Y-240424D02*
X147137Y-240424D01*
Y-260903D02*
X147137Y-260903D01*
X147137Y-260903D02*
Y-254345D01*
X147136Y-254345D02*
X147137Y-254345D01*
Y-274822D02*
X147137Y-274822D01*
X147137Y-274822D02*
Y-268265D01*
X147136Y-268265D02*
X147137Y-268265D01*
X133215Y-274822D02*
X133215Y-274822D01*
X133215Y-274822D02*
Y-268265D01*
X133215Y-268265D02*
X133215Y-268265D01*
Y-260903D02*
X133215Y-260903D01*
X133215Y-260903D02*
Y-254345D01*
X133215Y-254345D02*
X133215Y-254345D01*
X133215Y-240424D02*
X133215Y-240424D01*
Y-246984D02*
Y-240424D01*
Y-246984D02*
X133215Y-246984D01*
X133215Y-226503D02*
X133215Y-226503D01*
Y-233062D02*
Y-226503D01*
Y-233062D02*
X133215Y-233062D01*
X133215Y-212581D02*
X133215Y-212581D01*
Y-219141D02*
Y-212581D01*
Y-219141D02*
X133215Y-219141D01*
X133215Y-198660D02*
X133215Y-198660D01*
Y-205220D02*
Y-198660D01*
Y-205220D02*
X133215Y-205220D01*
X133215Y-184739D02*
X133215Y-184739D01*
Y-191299D02*
Y-184739D01*
Y-191299D02*
X133215Y-191299D01*
X133215Y-170818D02*
X133215Y-170818D01*
Y-177377D02*
Y-170818D01*
Y-177377D02*
X133215Y-177377D01*
X119294Y-177377D02*
X119294Y-177377D01*
X119294Y-177377D02*
Y-170818D01*
X119294Y-170818D02*
X119294Y-170818D01*
Y-191299D02*
X119294Y-191299D01*
X119294Y-191299D02*
Y-184739D01*
X119294Y-184739D02*
X119294Y-184739D01*
X119294Y-198660D02*
X119294Y-198660D01*
Y-205220D02*
Y-198660D01*
Y-205220D02*
X119294Y-205220D01*
X119294Y-219141D02*
X119294Y-219141D01*
X119294Y-219141D02*
Y-212581D01*
X119294Y-212581D02*
X119294Y-212581D01*
Y-233062D02*
X119294Y-233062D01*
X119294Y-233062D02*
Y-226503D01*
X119294Y-226503D02*
X119294Y-226503D01*
Y-246984D02*
X119294Y-246984D01*
X119294Y-246984D02*
Y-240424D01*
X119294Y-240424D02*
X119294Y-240424D01*
Y-260903D02*
X119294Y-260903D01*
X119294Y-260903D02*
Y-254345D01*
X119294Y-254345D02*
X119294Y-254345D01*
Y-274822D02*
X119294Y-274822D01*
X119294Y-274822D02*
Y-268265D01*
X119294Y-268265D02*
X119294Y-268265D01*
X105375Y-274822D02*
X105375Y-274822D01*
X105375Y-274822D02*
Y-268265D01*
X105375Y-268265D02*
X105375Y-268265D01*
X105375Y-254345D02*
X105375Y-254345D01*
Y-260903D02*
Y-254345D01*
Y-260903D02*
X105375Y-260903D01*
X105375Y-240424D02*
X105375Y-240424D01*
Y-246984D02*
Y-240424D01*
Y-246984D02*
X105375Y-246984D01*
X105375Y-226503D02*
X105375Y-226503D01*
Y-233062D02*
Y-226503D01*
Y-233062D02*
X105375Y-233062D01*
X105375Y-212581D02*
X105375Y-212581D01*
Y-219141D02*
Y-212581D01*
Y-219141D02*
X105375Y-219141D01*
X105375Y-198660D02*
X105375Y-198660D01*
Y-205220D02*
Y-198660D01*
Y-205220D02*
X105375Y-205220D01*
X105375Y-184739D02*
X105375Y-184739D01*
Y-191299D02*
Y-184739D01*
Y-191299D02*
X105375Y-191299D01*
X105375Y-170818D02*
X105375Y-170818D01*
Y-177377D02*
Y-170818D01*
Y-177377D02*
X105375Y-177377D01*
X119296Y-163454D02*
Y-156911D01*
X119294Y-163456D02*
X119296Y-163454D01*
Y-156911D02*
X119298Y-156909D01*
X105376Y-163455D02*
Y-156910D01*
X105375Y-163456D02*
X105376Y-163455D01*
Y-156910D02*
X105376Y-156909D01*
X133217Y-156911D02*
X133219Y-156909D01*
X133217Y-163454D02*
Y-156911D01*
X133215Y-163456D02*
X133217Y-163454D01*
X147138Y-156911D02*
X147140Y-156909D01*
X147138Y-163454D02*
Y-156911D01*
X147137Y-163456D02*
X147138Y-163454D01*
X161060Y-156911D02*
X161062Y-156909D01*
X161060Y-163454D02*
Y-156911D01*
X161058Y-163456D02*
X161060Y-163454D01*
X174980Y-156910D02*
X174981Y-156909D01*
X174980Y-163455D02*
Y-156910D01*
X174979Y-163456D02*
X174980Y-163455D01*
X99775Y-160175D02*
X99930D01*
X86500Y-146900D02*
Y-140410D01*
Y-146900D02*
X99775Y-160175D01*
X58468Y-230081D02*
Y-140451D01*
Y-230081D02*
X99930Y-271544D01*
X65500Y-209273D02*
X99930Y-243703D01*
X65500Y-209273D02*
Y-140410D01*
X69000Y-198851D02*
Y-151910D01*
Y-198851D02*
X99930Y-229782D01*
X72500Y-188430D02*
X99930Y-215860D01*
X76000Y-178009D02*
Y-152161D01*
Y-178009D02*
X99930Y-201939D01*
Y-188018D02*
Y-188018D01*
X79500Y-167587D02*
Y-140410D01*
Y-167587D02*
X99930Y-188018D01*
X97997Y-174097D02*
X99930D01*
X83000Y-159100D02*
Y-151910D01*
Y-159100D02*
X97997Y-174097D01*
X108876Y-126976D02*
Y-110875D01*
X107000Y-128048D02*
Y-111261D01*
X105300Y-128753D02*
Y-112061D01*
X103600Y-129457D02*
Y-112861D01*
X101900Y-130161D02*
Y-113757D01*
X100200Y-130961D02*
Y-114461D01*
X100245Y-102245D02*
X108876Y-110875D01*
X93071Y-102245D02*
X100245D01*
X99953Y-104214D02*
X107000Y-111261D01*
X93071Y-104214D02*
X99953D01*
X99421Y-106182D02*
X105300Y-112061D01*
X93071Y-106182D02*
X99421D01*
X98913Y-108174D02*
X103600Y-112861D01*
X93094Y-108174D02*
X98913D01*
X93071Y-108151D02*
X93094Y-108174D01*
X98262Y-110119D02*
X101900Y-113757D01*
X93071Y-110119D02*
X98262D01*
X97827Y-112088D02*
X100200Y-114461D01*
X93071Y-112088D02*
X97827D01*
X159854Y-141782D02*
X174981Y-156909D01*
X123682Y-141782D02*
X159854D01*
X108876Y-126976D02*
X123682Y-141782D01*
X161062Y-156909D02*
Y-152400D01*
X152322Y-143661D02*
X161062Y-152400D01*
X122613Y-143661D02*
X152322D01*
X107000Y-128048D02*
X122613Y-143661D01*
X147140Y-156909D02*
Y-153045D01*
X139456Y-145361D02*
X147140Y-153045D01*
X121908Y-145361D02*
X139456D01*
X105300Y-128753D02*
X121908Y-145361D01*
X133219Y-156909D02*
Y-152908D01*
X131886Y-151575D02*
Y-151571D01*
Y-151575D02*
X133219Y-152908D01*
X127376Y-147061D02*
X131886Y-151571D01*
Y-151579D02*
Y-151575D01*
X121204Y-147061D02*
X127376D01*
X103600Y-129457D02*
X121204Y-147061D01*
X119298Y-156909D02*
Y-147559D01*
X101900Y-130161D02*
X119298Y-147559D01*
X105376Y-156909D02*
Y-136137D01*
X100200Y-130961D02*
X105376Y-136137D01*
X72500Y-188430D02*
Y-140410D01*
X58468Y-134151D02*
Y-128482D01*
X61673Y-125277D01*
Y-121832D01*
X94000Y-138000D02*
Y-119000D01*
X76000Y-151910D02*
X76250Y-152161D01*
X69513Y-128248D02*
Y-121866D01*
X65500Y-134111D02*
X66061Y-133550D01*
Y-131700D02*
X69513Y-128248D01*
X66061Y-133550D02*
Y-131700D01*
X69000Y-145611D02*
Y-131261D01*
X71516Y-128745D02*
Y-121832D01*
X69000Y-131261D02*
X71516Y-128745D01*
X76000Y-145611D02*
Y-130872D01*
X75453Y-130325D02*
Y-121832D01*
Y-130325D02*
X76000Y-130872D01*
X77421Y-129682D02*
Y-121832D01*
X79439Y-134050D02*
X79500Y-134111D01*
X79439Y-134050D02*
Y-131700D01*
X77421Y-129682D02*
X79439Y-131700D01*
X81450Y-128211D02*
Y-121924D01*
X86434Y-134111D02*
X86500D01*
X85013Y-132690D02*
X86434Y-134111D01*
X85013Y-132690D02*
Y-131774D01*
X81450Y-128211D02*
X85013Y-131774D01*
X72500Y-134111D02*
Y-131078D01*
X73484Y-130094D01*
Y-121832D01*
X69513Y-121866D02*
X69547Y-121832D01*
X67544Y-121866D02*
X67579Y-121832D01*
X67544Y-126771D02*
Y-121866D01*
X62000Y-145611D02*
Y-132316D01*
X67544Y-126771D01*
X83000Y-145611D02*
Y-132316D01*
X79390Y-128705D02*
X83000Y-132316D01*
X79390Y-128705D02*
Y-121832D01*
X81358D02*
X81450Y-121924D01*
D33*
X102953Y-37000D02*
D03*
X97047D02*
D03*
D35*
X58468Y-134151D02*
D03*
Y-140451D02*
D03*
X161000Y-43850D02*
D03*
Y-50150D02*
D03*
X86500Y-140410D02*
D03*
Y-134111D02*
D03*
X76000Y-146500D02*
D03*
Y-152799D02*
D03*
X105500Y-84124D02*
D03*
Y-90423D02*
D03*
Y-95824D02*
D03*
Y-102123D02*
D03*
X112000Y-95824D02*
D03*
Y-102123D02*
D03*
X56500Y-83411D02*
D03*
Y-77111D02*
D03*
X109000Y-31150D02*
D03*
Y-24850D02*
D03*
X112000Y-90423D02*
D03*
Y-84124D02*
D03*
X49500Y-77111D02*
D03*
Y-83411D02*
D03*
X79500Y-134111D02*
D03*
Y-140410D02*
D03*
X83000Y-146500D02*
D03*
Y-152799D02*
D03*
X72500Y-134111D02*
D03*
Y-140410D02*
D03*
X69000Y-146500D02*
D03*
Y-152799D02*
D03*
X65500Y-134111D02*
D03*
Y-140410D02*
D03*
X62000Y-152799D02*
D03*
X62000Y-146500D02*
D03*
D39*
X84000Y-98500D02*
X86000D01*
D40*
X49500Y-77111D02*
Y-72000D01*
X49500Y-72000D02*
X49500Y-72000D01*
X74597Y-92403D02*
X81565D01*
X56500Y-77111D02*
Y-72000D01*
X56500Y-72000D02*
X56500Y-72000D01*
X62000Y-105000D02*
X74597Y-92403D01*
X56500Y-116761D02*
X56500D01*
X62000Y-111262D02*
Y-105000D01*
X61762Y-111500D02*
X62000Y-111262D01*
X61762Y-111500D02*
X62141D01*
X62811Y-112171D01*
X62910D02*
X65610Y-114871D01*
X62811Y-112171D02*
X62910D01*
X61761Y-111500D02*
X61762D01*
X56500Y-116761D02*
X61761Y-111500D01*
X69221Y-111261D02*
X69255D01*
X65610Y-114871D02*
X69221Y-111261D01*
D41*
X150500Y-127261D02*
D03*
D42*
X140500D02*
D03*
X151500Y-11261D02*
D03*
Y-21261D02*
D03*
Y-31261D02*
D03*
Y-41261D02*
D03*
D43*
X141000Y-35500D02*
D03*
X110118Y-38202D02*
D03*
D44*
X170200Y-11800D02*
D03*
X11800D02*
D03*
D45*
X69000Y-28500D02*
D03*
Y-18500D02*
D03*
X79000Y-28500D02*
D03*
X89000D02*
D03*
X79000Y-18500D02*
D03*
X89000D02*
D03*
X99000Y-28500D02*
D03*
D46*
Y-18500D02*
D03*
D47*
X151500Y-51261D02*
D03*
D48*
X111000Y-79000D02*
D03*
X99929Y-257624D02*
D03*
X174979Y-246984D02*
D03*
X133215Y-233062D02*
D03*
X119294D02*
D03*
Y-163456D02*
D03*
X174981Y-156909D02*
D03*
X161062D02*
D03*
X147140D02*
D03*
X133219D02*
D03*
X119298D02*
D03*
X105376D02*
D03*
X132000Y-109000D02*
D03*
X99930Y-160175D02*
D03*
Y-174097D02*
D03*
Y-188018D02*
D03*
Y-201939D02*
D03*
Y-215860D02*
D03*
Y-229782D02*
D03*
Y-243703D02*
D03*
X105375Y-170818D02*
D03*
X105375Y-163456D02*
D03*
X119294Y-170818D02*
D03*
X133215Y-163456D02*
D03*
X133215Y-170818D02*
D03*
X147137Y-163456D02*
D03*
X147136Y-170818D02*
D03*
X161058Y-163456D02*
D03*
X161058Y-170818D02*
D03*
X174979Y-163456D02*
D03*
X174979Y-170818D02*
D03*
X105375Y-184739D02*
D03*
X105375Y-177377D02*
D03*
X119294D02*
D03*
X119294Y-184739D02*
D03*
X133215Y-177377D02*
D03*
X133215Y-184739D02*
D03*
X147137Y-177377D02*
D03*
X147136Y-184739D02*
D03*
X161058Y-177377D02*
D03*
X161058Y-184739D02*
D03*
X174979Y-177377D02*
D03*
X174979Y-184739D02*
D03*
X105375Y-198660D02*
D03*
X105375Y-191299D02*
D03*
X119294D02*
D03*
X119294Y-198660D02*
D03*
X133215Y-191299D02*
D03*
X133215Y-198660D02*
D03*
X147137Y-191299D02*
D03*
X147136Y-198660D02*
D03*
X161058Y-191299D02*
D03*
X161058Y-198660D02*
D03*
X174979Y-191299D02*
D03*
X174979Y-198660D02*
D03*
X105375Y-212581D02*
D03*
X105375Y-205220D02*
D03*
X119294D02*
D03*
X119294Y-212581D02*
D03*
X133215Y-205220D02*
D03*
X133215Y-212581D02*
D03*
X147137Y-205220D02*
D03*
X147136Y-212581D02*
D03*
X161058Y-205220D02*
D03*
X161058Y-212581D02*
D03*
X174979Y-205220D02*
D03*
X174979Y-212581D02*
D03*
X105375Y-226503D02*
D03*
X105375Y-219141D02*
D03*
X119294D02*
D03*
X119294Y-226503D02*
D03*
X133215Y-219141D02*
D03*
X133215Y-226503D02*
D03*
X147137Y-219141D02*
D03*
X147136Y-226503D02*
D03*
X161058Y-219141D02*
D03*
X161058Y-226503D02*
D03*
X174979Y-219141D02*
D03*
X174979Y-226503D02*
D03*
X105375Y-240424D02*
D03*
X105375Y-233062D02*
D03*
X119294Y-240424D02*
D03*
X133215D02*
D03*
X147137Y-233062D02*
D03*
X147136Y-240424D02*
D03*
X161058Y-233062D02*
D03*
X161058Y-240424D02*
D03*
X174979Y-233062D02*
D03*
X174979Y-240424D02*
D03*
X105375Y-254345D02*
D03*
X105375Y-246984D02*
D03*
X119294D02*
D03*
X119294Y-254345D02*
D03*
X133215Y-246984D02*
D03*
X133215Y-254345D02*
D03*
X147137Y-246984D02*
D03*
X147136Y-254345D02*
D03*
X161058Y-246984D02*
D03*
X161058Y-254345D02*
D03*
X174979D02*
D03*
X105375Y-274822D02*
D03*
X119294D02*
D03*
X133215D02*
D03*
X147137D02*
D03*
X161058D02*
D03*
X174979D02*
D03*
X174979Y-268265D02*
D03*
X174979Y-260903D02*
D03*
X161058Y-268265D02*
D03*
X161058Y-260903D02*
D03*
X147136Y-268265D02*
D03*
X147137Y-260903D02*
D03*
X133215Y-268265D02*
D03*
X133215Y-260903D02*
D03*
X119294Y-268265D02*
D03*
X119294Y-260903D02*
D03*
X105375D02*
D03*
X105375Y-268265D02*
D03*
X99930Y-271544D02*
D03*
X49500Y-72000D02*
D03*
X84000Y-98500D02*
D03*
X56500Y-72000D02*
D03*
X76000Y-99500D02*
D03*
X56500Y-116761D02*
D03*
X138500Y-79761D02*
D03*
X143500Y-89761D02*
D03*
X133500D02*
D03*
X158500Y-79761D02*
D03*
X163500Y-89761D02*
D03*
X148500Y-79761D02*
D03*
X153500Y-89761D02*
D03*
X91732Y-40468D02*
D03*
X163500Y-29761D02*
D03*
X158500Y-59761D02*
D03*
X163500Y-69761D02*
D03*
X148500Y-59761D02*
D03*
X153500Y-69761D02*
D03*
X138500Y-19761D02*
D03*
X143500Y-29761D02*
D03*
X138500Y-59761D02*
D03*
X143500Y-69761D02*
D03*
X133500Y-9761D02*
D03*
X128500Y-19761D02*
D03*
X133500Y-29761D02*
D03*
X128500Y-59761D02*
D03*
X133500Y-69761D02*
D03*
X123500Y-9761D02*
D03*
X118500Y-39761D02*
D03*
X123500Y-49761D02*
D03*
X118500Y-59761D02*
D03*
X123500Y-69761D02*
D03*
X113500Y-9761D02*
D03*
Y-49761D02*
D03*
X103500Y-9761D02*
D03*
Y-49761D02*
D03*
X93500Y-9761D02*
D03*
X58500Y-19761D02*
D03*
X53500Y-9761D02*
D03*
X48500Y-19761D02*
D03*
X53500Y-29761D02*
D03*
X48500Y-39761D02*
D03*
X53500Y-49761D02*
D03*
X43500Y-9761D02*
D03*
X38500Y-19761D02*
D03*
X43500Y-29761D02*
D03*
X38500Y-39761D02*
D03*
X43500Y-49761D02*
D03*
X38500Y-59761D02*
D03*
Y-79761D02*
D03*
X33500Y-9761D02*
D03*
X28500Y-19761D02*
D03*
X33500Y-29761D02*
D03*
X28500Y-39761D02*
D03*
X33500Y-49761D02*
D03*
X28500Y-59761D02*
D03*
X33500Y-69761D02*
D03*
X28500Y-79761D02*
D03*
X74700Y-68600D02*
D03*
X78900Y-68500D02*
D03*
X61762Y-111500D02*
D03*
X70000Y-68700D02*
D03*
X182000Y-109000D02*
D03*
X172000D02*
D03*
X162000D02*
D03*
X152000D02*
D03*
X142000D02*
D03*
X122000D02*
D03*
X65076Y-68824D02*
D03*
X60800Y-69900D02*
D03*
X83200Y-70900D02*
D03*
X94000Y-119000D02*
D03*
Y-138000D02*
D03*
X117613Y-96261D02*
D03*
X117500Y-91261D02*
D03*
X27500Y-104261D02*
D03*
X26000Y-96761D02*
D03*
X38500Y-94261D02*
D03*
X87500Y-72261D02*
D03*
X69755Y-111500D02*
D03*
X59200Y-96544D02*
D03*
D49*
X128929Y-95134D02*
D03*
X122565Y-101497D02*
D03*
D50*
X134500Y-108500D02*
D03*
Y-99500D02*
D03*
D51*
X121513Y-86443D02*
D03*
X127876Y-92807D02*
D03*
D52*
X38256Y-99761D02*
D03*
X32744D02*
D03*
X38256Y-105261D02*
D03*
X32744D02*
D03*
D53*
X88850Y-77761D02*
D03*
X95150D02*
D03*
X98650Y-84261D02*
D03*
X92350D02*
D03*
D54*
X83327Y-121832D02*
D03*
X81358D02*
D03*
X79390D02*
D03*
X77421D02*
D03*
X75453D02*
D03*
X73484D02*
D03*
X71516D02*
D03*
X69547D02*
D03*
X67579D02*
D03*
X65610D02*
D03*
X63642D02*
D03*
X61673D02*
D03*
Y-80690D02*
D03*
X63642D02*
D03*
X65610D02*
D03*
X67579D02*
D03*
X69547D02*
D03*
X71516D02*
D03*
X73484D02*
D03*
X75453D02*
D03*
X77421D02*
D03*
X79390D02*
D03*
X81358D02*
D03*
X83327D02*
D03*
D55*
X51929Y-112088D02*
D03*
Y-110119D02*
D03*
Y-108151D02*
D03*
Y-106182D02*
D03*
Y-104214D02*
D03*
Y-102245D02*
D03*
Y-100277D02*
D03*
Y-98308D02*
D03*
Y-96340D02*
D03*
Y-94371D02*
D03*
Y-92403D02*
D03*
Y-90434D02*
D03*
X93071D02*
D03*
Y-92403D02*
D03*
Y-94371D02*
D03*
Y-96340D02*
D03*
Y-98308D02*
D03*
Y-100277D02*
D03*
Y-102245D02*
D03*
Y-104214D02*
D03*
Y-106182D02*
D03*
Y-108151D02*
D03*
Y-110119D02*
D03*
Y-112088D02*
D03*
D56*
X86192Y-98308D02*
X100374D01*
X103705Y-101639D01*
X86000Y-98500D02*
X86192Y-98308D01*
X81565Y-92403D02*
X99358D01*
X101120Y-90641D01*
Y-88141D01*
X65610Y-121832D02*
Y-114871D01*
D57*
X123273Y-100790D02*
X128222Y-95841D01*
X134500Y-107500D02*
Y-100500D01*
X122220Y-87150D02*
X127169Y-92100D01*
M02*
