G04*
G04 #@! TF.GenerationSoftware,Altium Limited,Altium Designer,20.0.14 (345)*
G04*
G04 Layer_Color=16711935*
%FSLAX25Y25*%
%MOIN*%
G70*
G01*
G75*
%ADD16R,0.03950X0.04737*%
%ADD18R,0.04737X0.04343*%
%ADD22C,0.05800*%
%ADD23C,0.06800*%
%ADD24C,0.06902*%
%ADD25R,0.06902X0.06902*%
%ADD26C,0.06784*%
%ADD27R,0.06784X0.06784*%
%ADD28R,0.06784X0.06784*%
%ADD29C,0.03200*%
%ADD58R,0.03556X0.04343*%
%ADD59R,0.04343X0.04737*%
%ADD60O,0.01981X0.08871*%
%ADD61O,0.08871X0.01981*%
D16*
X102953Y-37000D02*
D03*
X97047D02*
D03*
D18*
X161000Y-43850D02*
D03*
Y-50150D02*
D03*
X86500Y-140410D02*
D03*
Y-134111D02*
D03*
X76000Y-146500D02*
D03*
Y-152799D02*
D03*
X105500Y-84911D02*
D03*
Y-91211D02*
D03*
Y-96611D02*
D03*
Y-102910D02*
D03*
X112000Y-96611D02*
D03*
Y-102910D02*
D03*
X56500Y-83411D02*
D03*
Y-77111D02*
D03*
X109000Y-31150D02*
D03*
Y-24850D02*
D03*
X112000Y-91211D02*
D03*
Y-84911D02*
D03*
X49500Y-77111D02*
D03*
Y-83411D02*
D03*
X79500Y-134111D02*
D03*
Y-140410D02*
D03*
X83000Y-146500D02*
D03*
Y-152799D02*
D03*
X72500Y-134111D02*
D03*
Y-140410D02*
D03*
X69000Y-146500D02*
D03*
Y-152799D02*
D03*
X65500Y-134111D02*
D03*
Y-140410D02*
D03*
X62000Y-152799D02*
D03*
X62000Y-146500D02*
D03*
D22*
X141000Y-35500D02*
D03*
X110118Y-38202D02*
D03*
D23*
X170200Y-11800D02*
D03*
X61800Y-277700D02*
D03*
X11800Y-11800D02*
D03*
D24*
X69000Y-28500D02*
D03*
Y-18500D02*
D03*
X79000Y-28500D02*
D03*
X89000D02*
D03*
X79000Y-18500D02*
D03*
X89000D02*
D03*
X99000Y-28500D02*
D03*
D25*
Y-18500D02*
D03*
D26*
X140500Y-132261D02*
D03*
X151500Y-11261D02*
D03*
Y-21261D02*
D03*
Y-31261D02*
D03*
Y-41261D02*
D03*
D27*
X150500Y-132261D02*
D03*
D28*
X151500Y-51261D02*
D03*
D29*
X112000Y-109000D02*
D03*
X49500Y-72000D02*
D03*
X84000Y-98500D02*
D03*
X56500Y-72000D02*
D03*
X76000Y-99500D02*
D03*
X138500Y-79761D02*
D03*
X143500Y-89761D02*
D03*
X133500D02*
D03*
X158500Y-79761D02*
D03*
X163500Y-89761D02*
D03*
X148500Y-79761D02*
D03*
X153500Y-89761D02*
D03*
X91732Y-40468D02*
D03*
X163500Y-29761D02*
D03*
X158500Y-59761D02*
D03*
X163500Y-69761D02*
D03*
X148500Y-59761D02*
D03*
X153500Y-69761D02*
D03*
X138500Y-19761D02*
D03*
X143500Y-29761D02*
D03*
X138500Y-59761D02*
D03*
X143500Y-69761D02*
D03*
X133500Y-9761D02*
D03*
X128500Y-19761D02*
D03*
X133500Y-29761D02*
D03*
X128500Y-59761D02*
D03*
X133500Y-69761D02*
D03*
X123500Y-9761D02*
D03*
X118500Y-39761D02*
D03*
X123500Y-49761D02*
D03*
X118500Y-59761D02*
D03*
X123500Y-69761D02*
D03*
X113500Y-9761D02*
D03*
Y-49761D02*
D03*
X103500Y-9761D02*
D03*
Y-49761D02*
D03*
X93500Y-9761D02*
D03*
X58500Y-19761D02*
D03*
X53500Y-9761D02*
D03*
X48500Y-19761D02*
D03*
X53500Y-29761D02*
D03*
X48500Y-39761D02*
D03*
X53500Y-49761D02*
D03*
X43500Y-9761D02*
D03*
X38500Y-19761D02*
D03*
X43500Y-29761D02*
D03*
X38500Y-39761D02*
D03*
X43500Y-49761D02*
D03*
X38500Y-59761D02*
D03*
Y-79761D02*
D03*
X33500Y-9761D02*
D03*
X28500Y-19761D02*
D03*
X33500Y-29761D02*
D03*
X28500Y-39761D02*
D03*
X33500Y-49761D02*
D03*
X28500Y-59761D02*
D03*
X33500Y-69761D02*
D03*
X28500Y-79761D02*
D03*
X74700Y-68600D02*
D03*
X78900Y-68500D02*
D03*
X61762Y-111500D02*
D03*
X70000Y-68700D02*
D03*
X182000Y-109000D02*
D03*
X172000D02*
D03*
X162000D02*
D03*
X152000D02*
D03*
X142000D02*
D03*
X132000D02*
D03*
X122000D02*
D03*
X65076Y-68824D02*
D03*
X60800Y-69900D02*
D03*
X83200Y-70900D02*
D03*
X111000Y-80000D02*
D03*
X94000Y-119000D02*
D03*
Y-138000D02*
D03*
X117613Y-96261D02*
D03*
X117500Y-91261D02*
D03*
X27500Y-104261D02*
D03*
X26000Y-96761D02*
D03*
X38500Y-94261D02*
D03*
X87500Y-72261D02*
D03*
X69755Y-111500D02*
D03*
X59200Y-96544D02*
D03*
X106783Y-248497D02*
D03*
X99783Y-261575D02*
D03*
Y-194834D02*
D03*
Y-211460D02*
D03*
X106783Y-165210D02*
D03*
X123488D02*
D03*
X173602D02*
D03*
X156898D02*
D03*
X140193D02*
D03*
X123489Y-154895D02*
D03*
X173603D02*
D03*
X156899D02*
D03*
X140194D02*
D03*
X106784D02*
D03*
X140194Y-224536D02*
D03*
X156899D02*
D03*
X173603D02*
D03*
X173602Y-215088D02*
D03*
X99783Y-161583D02*
D03*
X156899Y-174659D02*
D03*
X106784D02*
D03*
X123489D02*
D03*
X140194D02*
D03*
X173603D02*
D03*
X106783Y-181836D02*
D03*
X123488D02*
D03*
X173602D02*
D03*
X156898D02*
D03*
X140193D02*
D03*
X99783Y-178208D02*
D03*
X156899Y-191285D02*
D03*
X106784D02*
D03*
X123489D02*
D03*
X140194D02*
D03*
X173603D02*
D03*
X106783Y-198462D02*
D03*
X123488D02*
D03*
X173602D02*
D03*
X156898D02*
D03*
X140193D02*
D03*
X156899Y-207910D02*
D03*
X106784D02*
D03*
X123489D02*
D03*
X140194D02*
D03*
X173603D02*
D03*
X123488Y-215088D02*
D03*
X156898D02*
D03*
X140193D02*
D03*
X106784Y-224536D02*
D03*
X173602Y-231792D02*
D03*
X156898D02*
D03*
X140193D02*
D03*
X123489Y-224536D02*
D03*
X123488Y-231792D02*
D03*
X173603Y-241241D02*
D03*
X173602Y-248497D02*
D03*
X156899Y-241241D02*
D03*
X156898Y-248497D02*
D03*
X140193D02*
D03*
X123489Y-241241D02*
D03*
X123488Y-248497D02*
D03*
X106784Y-241241D02*
D03*
X173603Y-257946D02*
D03*
X173602Y-265202D02*
D03*
X156899Y-257946D02*
D03*
X156898Y-265202D02*
D03*
X140194Y-257946D02*
D03*
X140193Y-265202D02*
D03*
X123489Y-257946D02*
D03*
X123488Y-265202D02*
D03*
X106783D02*
D03*
X106784Y-257946D02*
D03*
X173603Y-274651D02*
D03*
X173602Y-281907D02*
D03*
X156899Y-274651D02*
D03*
X156898Y-281907D02*
D03*
X140194Y-274651D02*
D03*
X140193Y-281907D02*
D03*
X123489Y-274651D02*
D03*
X123488Y-281907D02*
D03*
X106783D02*
D03*
X106784Y-274651D02*
D03*
X140194Y-241241D02*
D03*
X106783Y-231792D02*
D03*
X99783Y-228165D02*
D03*
Y-244870D02*
D03*
Y-278279D02*
D03*
X106783Y-215088D02*
D03*
D58*
X38256Y-99761D02*
D03*
X32744D02*
D03*
X38256Y-105261D02*
D03*
X32744D02*
D03*
D59*
X88850Y-77761D02*
D03*
X95150D02*
D03*
X98650Y-84261D02*
D03*
X92350D02*
D03*
D60*
X83327Y-121832D02*
D03*
X81358D02*
D03*
X79390D02*
D03*
X77421D02*
D03*
X75453D02*
D03*
X73484D02*
D03*
X71516D02*
D03*
X69547D02*
D03*
X67579D02*
D03*
X65610D02*
D03*
X63642D02*
D03*
X61673D02*
D03*
Y-80690D02*
D03*
X63642D02*
D03*
X65610D02*
D03*
X67579D02*
D03*
X69547D02*
D03*
X71516D02*
D03*
X73484D02*
D03*
X75453D02*
D03*
X77421D02*
D03*
X79390D02*
D03*
X81358D02*
D03*
X83327D02*
D03*
D61*
X51929Y-112088D02*
D03*
Y-110119D02*
D03*
Y-108151D02*
D03*
Y-106182D02*
D03*
Y-104214D02*
D03*
Y-102245D02*
D03*
Y-100277D02*
D03*
Y-98308D02*
D03*
Y-96340D02*
D03*
Y-94371D02*
D03*
Y-92403D02*
D03*
Y-90434D02*
D03*
X93071D02*
D03*
Y-92403D02*
D03*
Y-94371D02*
D03*
Y-96340D02*
D03*
Y-98308D02*
D03*
Y-100277D02*
D03*
Y-102245D02*
D03*
Y-104214D02*
D03*
Y-106182D02*
D03*
Y-108151D02*
D03*
Y-110119D02*
D03*
Y-112088D02*
D03*
M02*
