M48
;Layer_Color=9474304
;FILE_FORMAT=2:5
INCH,LZ
;TYPE=PLATED
T1F00S00C0.01200
T2F00S00C0.03000
T3F00S00C0.04016
T4F00S00C0.09843
%
T01
X0174979Y-0274822
X0174979Y-0268265
X0174979Y-0260903
X0174979Y-0254345
X0174979Y-0246984
X0174979Y-0240424
X0174979Y-0233062
X0174979Y-0226503
X0174979Y-0219141
X0174979Y-0212581
X0174979Y-020522
X0174979Y-019866
X0174979Y-0191299
X0174979Y-0184739
X0174979Y-0177377
X0174979Y-0170818
X0174979Y-0163456
X0174981Y-0156909
X0161062
X0161058Y-0163456
X0161058Y-0170818
X0161058Y-0177377
X0161058Y-0184739
X0161058Y-0191299
X0161058Y-019866
X0161058Y-020522
X0161058Y-0212581
X0161058Y-0219141
X0161058Y-0226503
X0161058Y-0233062
X0161058Y-0240424
X0161058Y-0246984
X0161058Y-0254345
X0161058Y-0260903
X0161058Y-0268265
X0161058Y-0274822
X0147137
X0147136Y-0268265
X0147137Y-0260903
X0147136Y-0254345
X0147137Y-0246984
X0147136Y-0240424
X0147137Y-0233062
X0147136Y-0226503
X0147137Y-0219141
X0147136Y-0212581
X0147137Y-020522
X0147136Y-019866
X0147137Y-0191299
X0147136Y-0184739
X0147137Y-0177377
X0147136Y-0170818
X0147137Y-0163456
X014714Y-0156909
X0133219
X0133215Y-0163456
X0133215Y-0170818
X0133215Y-0177377
X0133215Y-0184739
X0133215Y-0191299
X0133215Y-019866
X0133215Y-020522
X0133215Y-0212581
X0133215Y-0219141
X0133215Y-0226503
X0133215Y-0233062
X0133215Y-0240424
X0133215Y-0246984
X0133215Y-0254345
X0133215Y-0260903
X0133215Y-0268265
X0133215Y-0274822
X0119294
X0119294Y-0268265
X0119294Y-0260903
X0119294Y-0254345
X0119294Y-0246984
X0119294Y-0240424
X0119294Y-0233062
X0119294Y-0226503
X0119294Y-0219141
X0119294Y-0212581
X0119294Y-020522
X0119294Y-019866
X0119294Y-0191299
X0119294Y-0184739
X0119294Y-0177377
X0119294Y-0170818
X0119294Y-0163456
X0119298Y-0156909
X0105376
X0105375Y-0163456
X0105375Y-0170818
X0105375Y-0177377
X0105375Y-0184739
X0105375Y-0191299
X0105375Y-019866
X0105375Y-020522
X0105375Y-0212581
X0105375Y-0219141
X0105375Y-0226503
X0105375Y-0233062
X0105375Y-0240424
X0105375Y-0246984
X0105375Y-0254345
X0105375Y-0260903
X0105375Y-0268265
X0105375Y-0274822
X009993Y-0271544
X0099929Y-0257624
X009993Y-0243703
Y-0229782
Y-021586
Y-0201939
Y-0188018
Y-0174097
Y-0160175
X0094Y-0138
Y-0119
X0084Y-00985
X0076Y-00995
X0069755Y-01115
X0061762
X00565Y-0116761
X00592Y-0096544
X00385Y-0094261
Y-0079761
X00285
X00335Y-0069761
X00385Y-0059761
X00285
X00335Y-0049761
X00435
X00535
X00485Y-0039761
X00385
X00285
X00335Y-0029761
X00435
X00535
X00585Y-0019761
X00485
X00385
X00285
X00335Y-0009761
X00435
X00535
X00935
X01035
X01135
X01235
X01335
X01385Y-0019761
X01285
X01335Y-0029761
X01435
X01635
X01585Y-0059761
X01485
X01385
X01285
X01185
X01235Y-0049761
X01135
X01035
X0091732Y-0040468
X01185Y-0039761
X01235Y-0069761
X01335
X01435
X01535
X01635
X01585Y-0079761
X01485
X01385
X01435Y-0089761
X01335
X01175Y-0091261
X0117613Y-0096261
X0122Y-0109
X0132
X0142
X0152
X0162
X01635Y-0089761
X01535
X0111Y-0079
X00875Y-0072261
X00832Y-00709
X00789Y-00685
X00747Y-00686
X007Y-00687
X0065076Y-0068824
X00608Y-00699
X00565Y-0072
X00495
X0026Y-0096761
X00275Y-0104261
X0172Y-0109
X0182
T02
X0110118Y-0038202
X0141Y-00355
T03
X01405Y-0127261
X01505
X01515Y-0051261
Y-0041261
Y-0031261
Y-0021261
Y-0011261
X0099Y-00185
X0089
Y-00285
X0079
X0069
Y-00185
X0079
X0099Y-00285
T04
X00118Y-00118
X01702
M30
