G04*
G04 #@! TF.GenerationSoftware,Altium Limited,Altium Designer,20.0.14 (345)*
G04*
G04 Layer_Color=32896*
%FSLAX25Y25*%
%MOIN*%
G70*
G01*
G75*
%ADD10C,0.00984*%
%ADD12C,0.00787*%
G36*
X133129Y-96696D02*
X133192Y-96700D01*
X133251Y-96711D01*
X133306Y-96722D01*
X133358Y-96737D01*
X133406Y-96751D01*
X133450Y-96770D01*
X133491Y-96788D01*
X133528Y-96807D01*
X133558Y-96825D01*
X133584Y-96840D01*
X133606Y-96855D01*
X133624Y-96866D01*
X133635Y-96877D01*
X133643Y-96881D01*
X133647Y-96885D01*
X133684Y-96921D01*
X133717Y-96962D01*
X133750Y-97007D01*
X133776Y-97051D01*
X133821Y-97140D01*
X133850Y-97228D01*
X133861Y-97269D01*
X133872Y-97310D01*
X133880Y-97343D01*
X133887Y-97373D01*
X133891Y-97399D01*
Y-97417D01*
X133895Y-97428D01*
Y-97432D01*
X133573Y-97465D01*
X133565Y-97380D01*
X133551Y-97306D01*
X133528Y-97240D01*
X133502Y-97188D01*
X133480Y-97143D01*
X133458Y-97114D01*
X133443Y-97095D01*
X133436Y-97088D01*
X133380Y-97044D01*
X133321Y-97010D01*
X133258Y-96984D01*
X133203Y-96970D01*
X133151Y-96959D01*
X133106Y-96955D01*
X133092Y-96951D01*
X133070D01*
X132992Y-96955D01*
X132922Y-96970D01*
X132862Y-96992D01*
X132810Y-97014D01*
X132770Y-97040D01*
X132744Y-97058D01*
X132725Y-97073D01*
X132718Y-97081D01*
X132674Y-97132D01*
X132640Y-97184D01*
X132614Y-97236D01*
X132599Y-97288D01*
X132588Y-97328D01*
X132585Y-97365D01*
X132581Y-97388D01*
Y-97391D01*
Y-97395D01*
X132588Y-97462D01*
X132603Y-97532D01*
X132629Y-97595D01*
X132655Y-97654D01*
X132685Y-97702D01*
X132711Y-97743D01*
X132718Y-97758D01*
X132725Y-97769D01*
X132733Y-97773D01*
Y-97776D01*
X132762Y-97817D01*
X132799Y-97858D01*
X132840Y-97902D01*
X132884Y-97946D01*
X132977Y-98035D01*
X133070Y-98124D01*
X133118Y-98165D01*
X133158Y-98202D01*
X133199Y-98235D01*
X133232Y-98264D01*
X133258Y-98287D01*
X133280Y-98305D01*
X133295Y-98316D01*
X133299Y-98320D01*
X133391Y-98398D01*
X133476Y-98472D01*
X133547Y-98538D01*
X133602Y-98594D01*
X133650Y-98642D01*
X133684Y-98675D01*
X133702Y-98698D01*
X133710Y-98701D01*
Y-98705D01*
X133761Y-98768D01*
X133802Y-98827D01*
X133839Y-98886D01*
X133869Y-98938D01*
X133891Y-98982D01*
X133906Y-99016D01*
X133913Y-99038D01*
X133917Y-99041D01*
Y-99045D01*
X133932Y-99086D01*
X133939Y-99123D01*
X133946Y-99160D01*
X133950Y-99193D01*
X133954Y-99223D01*
Y-99245D01*
Y-99260D01*
Y-99264D01*
X132255D01*
Y-98960D01*
X133517D01*
X133473Y-98897D01*
X133450Y-98871D01*
X133432Y-98845D01*
X133414Y-98823D01*
X133399Y-98808D01*
X133388Y-98797D01*
X133384Y-98794D01*
X133365Y-98775D01*
X133343Y-98757D01*
X133291Y-98709D01*
X133232Y-98653D01*
X133169Y-98598D01*
X133110Y-98549D01*
X133084Y-98527D01*
X133062Y-98505D01*
X133044Y-98490D01*
X133029Y-98479D01*
X133021Y-98472D01*
X133018Y-98468D01*
X132958Y-98416D01*
X132899Y-98368D01*
X132847Y-98320D01*
X132799Y-98279D01*
X132755Y-98239D01*
X132718Y-98202D01*
X132681Y-98168D01*
X132651Y-98139D01*
X132622Y-98109D01*
X132599Y-98087D01*
X132581Y-98068D01*
X132563Y-98050D01*
X132544Y-98028D01*
X132537Y-98020D01*
X132485Y-97957D01*
X132440Y-97902D01*
X132403Y-97847D01*
X132374Y-97802D01*
X132352Y-97761D01*
X132337Y-97732D01*
X132329Y-97713D01*
X132326Y-97706D01*
X132304Y-97650D01*
X132289Y-97595D01*
X132274Y-97543D01*
X132267Y-97499D01*
X132263Y-97458D01*
X132259Y-97428D01*
Y-97410D01*
Y-97402D01*
X132263Y-97347D01*
X132270Y-97295D01*
X132278Y-97243D01*
X132292Y-97199D01*
X132329Y-97110D01*
X132367Y-97040D01*
X132389Y-97007D01*
X132407Y-96981D01*
X132426Y-96955D01*
X132444Y-96936D01*
X132459Y-96921D01*
X132466Y-96907D01*
X132474Y-96903D01*
X132477Y-96899D01*
X132518Y-96862D01*
X132563Y-96829D01*
X132611Y-96803D01*
X132659Y-96781D01*
X132755Y-96744D01*
X132851Y-96718D01*
X132892Y-96711D01*
X132932Y-96703D01*
X132970Y-96700D01*
X132999Y-96696D01*
X133025Y-96692D01*
X133062D01*
X133129Y-96696D01*
D02*
G37*
G36*
X134675Y-98468D02*
Y-98546D01*
X134683Y-98612D01*
X134686Y-98668D01*
X134694Y-98712D01*
X134701Y-98746D01*
X134705Y-98772D01*
X134712Y-98786D01*
Y-98790D01*
X134727Y-98827D01*
X134746Y-98857D01*
X134768Y-98882D01*
X134786Y-98908D01*
X134808Y-98923D01*
X134823Y-98938D01*
X134834Y-98945D01*
X134838Y-98949D01*
X134875Y-98968D01*
X134912Y-98982D01*
X134949Y-98990D01*
X134982Y-98997D01*
X135016Y-99001D01*
X135038Y-99005D01*
X135060D01*
X135119Y-99001D01*
X135175Y-98986D01*
X135219Y-98971D01*
X135260Y-98949D01*
X135290Y-98931D01*
X135312Y-98912D01*
X135326Y-98901D01*
X135330Y-98897D01*
X135349Y-98875D01*
X135363Y-98849D01*
X135386Y-98790D01*
X135408Y-98723D01*
X135419Y-98657D01*
X135430Y-98594D01*
Y-98568D01*
X135434Y-98546D01*
X135437Y-98524D01*
Y-98509D01*
Y-98501D01*
Y-98498D01*
X135745Y-98542D01*
Y-98612D01*
X135741Y-98675D01*
X135730Y-98738D01*
X135722Y-98794D01*
X135707Y-98845D01*
X135693Y-98890D01*
X135678Y-98934D01*
X135663Y-98971D01*
X135645Y-99005D01*
X135630Y-99034D01*
X135615Y-99060D01*
X135600Y-99079D01*
X135589Y-99093D01*
X135582Y-99108D01*
X135578Y-99112D01*
X135574Y-99116D01*
X135537Y-99149D01*
X135500Y-99178D01*
X135460Y-99204D01*
X135415Y-99226D01*
X135330Y-99260D01*
X135249Y-99282D01*
X135171Y-99297D01*
X135142Y-99300D01*
X135112Y-99304D01*
X135090Y-99308D01*
X135056D01*
X134975Y-99304D01*
X134901Y-99293D01*
X134834Y-99278D01*
X134775Y-99260D01*
X134727Y-99245D01*
X134694Y-99230D01*
X134672Y-99219D01*
X134664Y-99215D01*
X134605Y-99178D01*
X134553Y-99134D01*
X134512Y-99090D01*
X134476Y-99049D01*
X134450Y-99008D01*
X134431Y-98979D01*
X134420Y-98956D01*
X134416Y-98953D01*
Y-98949D01*
X134390Y-98875D01*
X134368Y-98797D01*
X134353Y-98712D01*
X134346Y-98631D01*
X134339Y-98561D01*
Y-98531D01*
X134335Y-98501D01*
Y-98479D01*
Y-98464D01*
Y-98453D01*
Y-98449D01*
Y-96703D01*
X134675D01*
Y-98468D01*
D02*
G37*
G36*
X126024Y-90355D02*
Y-90644D01*
X124910D01*
Y-91258D01*
X124596D01*
Y-90644D01*
X124248D01*
Y-90355D01*
X124596D01*
Y-88698D01*
X124851D01*
X126024Y-90355D01*
D02*
G37*
G36*
X126683Y-90462D02*
Y-90540D01*
X126690Y-90607D01*
X126694Y-90662D01*
X126701Y-90707D01*
X126708Y-90740D01*
X126712Y-90766D01*
X126720Y-90781D01*
Y-90784D01*
X126734Y-90821D01*
X126753Y-90851D01*
X126775Y-90877D01*
X126794Y-90903D01*
X126816Y-90918D01*
X126831Y-90932D01*
X126842Y-90940D01*
X126846Y-90943D01*
X126882Y-90962D01*
X126919Y-90977D01*
X126956Y-90984D01*
X126990Y-90992D01*
X127023Y-90995D01*
X127045Y-90999D01*
X127067D01*
X127127Y-90995D01*
X127182Y-90980D01*
X127226Y-90966D01*
X127267Y-90943D01*
X127297Y-90925D01*
X127319Y-90907D01*
X127334Y-90895D01*
X127338Y-90892D01*
X127356Y-90869D01*
X127371Y-90844D01*
X127393Y-90784D01*
X127415Y-90718D01*
X127426Y-90651D01*
X127437Y-90588D01*
Y-90562D01*
X127441Y-90540D01*
X127445Y-90518D01*
Y-90503D01*
Y-90496D01*
Y-90492D01*
X127752Y-90536D01*
Y-90607D01*
X127748Y-90670D01*
X127737Y-90733D01*
X127730Y-90788D01*
X127715Y-90840D01*
X127700Y-90884D01*
X127685Y-90929D01*
X127671Y-90966D01*
X127652Y-90999D01*
X127637Y-91029D01*
X127622Y-91054D01*
X127608Y-91073D01*
X127597Y-91088D01*
X127589Y-91103D01*
X127585Y-91106D01*
X127582Y-91110D01*
X127545Y-91143D01*
X127508Y-91173D01*
X127467Y-91199D01*
X127423Y-91221D01*
X127338Y-91254D01*
X127256Y-91277D01*
X127178Y-91291D01*
X127149Y-91295D01*
X127119Y-91299D01*
X127097Y-91302D01*
X127064D01*
X126982Y-91299D01*
X126908Y-91288D01*
X126842Y-91273D01*
X126783Y-91254D01*
X126734Y-91240D01*
X126701Y-91225D01*
X126679Y-91214D01*
X126672Y-91210D01*
X126612Y-91173D01*
X126560Y-91128D01*
X126520Y-91084D01*
X126483Y-91043D01*
X126457Y-91003D01*
X126438Y-90973D01*
X126427Y-90951D01*
X126424Y-90947D01*
Y-90943D01*
X126398Y-90869D01*
X126375Y-90792D01*
X126361Y-90707D01*
X126353Y-90625D01*
X126346Y-90555D01*
Y-90525D01*
X126342Y-90496D01*
Y-90474D01*
Y-90459D01*
Y-90448D01*
Y-90444D01*
Y-88698D01*
X126683D01*
Y-90462D01*
D02*
G37*
G36*
X125227Y-96700D02*
X125327Y-96718D01*
X125412Y-96748D01*
X125486Y-96777D01*
X125519Y-96796D01*
X125545Y-96811D01*
X125571Y-96825D01*
X125589Y-96840D01*
X125604Y-96851D01*
X125615Y-96859D01*
X125623Y-96862D01*
X125626Y-96866D01*
X125697Y-96936D01*
X125752Y-97014D01*
X125796Y-97095D01*
X125833Y-97177D01*
X125856Y-97247D01*
X125867Y-97277D01*
X125874Y-97303D01*
X125878Y-97325D01*
X125882Y-97339D01*
X125885Y-97351D01*
Y-97354D01*
X125571Y-97410D01*
X125556Y-97328D01*
X125534Y-97258D01*
X125508Y-97199D01*
X125482Y-97151D01*
X125456Y-97114D01*
X125434Y-97088D01*
X125419Y-97069D01*
X125415Y-97066D01*
X125367Y-97029D01*
X125315Y-96999D01*
X125267Y-96981D01*
X125219Y-96966D01*
X125175Y-96959D01*
X125142Y-96951D01*
X125112D01*
X125045Y-96955D01*
X124986Y-96970D01*
X124934Y-96988D01*
X124890Y-97007D01*
X124857Y-97029D01*
X124831Y-97047D01*
X124812Y-97062D01*
X124809Y-97066D01*
X124768Y-97110D01*
X124738Y-97158D01*
X124720Y-97206D01*
X124705Y-97251D01*
X124698Y-97291D01*
X124690Y-97321D01*
Y-97343D01*
Y-97347D01*
Y-97351D01*
Y-97391D01*
X124698Y-97428D01*
X124716Y-97491D01*
X124742Y-97547D01*
X124772Y-97595D01*
X124801Y-97628D01*
X124827Y-97654D01*
X124846Y-97669D01*
X124849Y-97673D01*
X124853D01*
X124916Y-97706D01*
X124975Y-97732D01*
X125038Y-97750D01*
X125093Y-97761D01*
X125142Y-97769D01*
X125182Y-97776D01*
X125230D01*
X125245Y-97773D01*
X125264D01*
X125301Y-98050D01*
X125253Y-98039D01*
X125208Y-98031D01*
X125171Y-98024D01*
X125138Y-98020D01*
X125112Y-98017D01*
X125079D01*
X125001Y-98024D01*
X124931Y-98039D01*
X124868Y-98061D01*
X124816Y-98087D01*
X124775Y-98113D01*
X124746Y-98135D01*
X124727Y-98150D01*
X124720Y-98157D01*
X124672Y-98213D01*
X124635Y-98272D01*
X124609Y-98331D01*
X124594Y-98390D01*
X124583Y-98439D01*
X124579Y-98479D01*
X124575Y-98494D01*
Y-98505D01*
Y-98513D01*
Y-98516D01*
X124583Y-98598D01*
X124601Y-98672D01*
X124624Y-98734D01*
X124653Y-98790D01*
X124683Y-98834D01*
X124705Y-98868D01*
X124723Y-98890D01*
X124731Y-98897D01*
X124790Y-98949D01*
X124853Y-98986D01*
X124916Y-99012D01*
X124975Y-99030D01*
X125027Y-99041D01*
X125068Y-99045D01*
X125082Y-99049D01*
X125105D01*
X125171Y-99045D01*
X125234Y-99030D01*
X125290Y-99012D01*
X125334Y-98990D01*
X125371Y-98971D01*
X125401Y-98953D01*
X125415Y-98938D01*
X125423Y-98934D01*
X125467Y-98882D01*
X125504Y-98823D01*
X125538Y-98760D01*
X125563Y-98694D01*
X125582Y-98638D01*
X125589Y-98612D01*
X125593Y-98590D01*
X125597Y-98572D01*
X125600Y-98557D01*
X125604Y-98549D01*
Y-98546D01*
X125919Y-98586D01*
X125911Y-98646D01*
X125900Y-98701D01*
X125867Y-98805D01*
X125826Y-98894D01*
X125804Y-98931D01*
X125782Y-98968D01*
X125759Y-99001D01*
X125737Y-99027D01*
X125719Y-99053D01*
X125700Y-99071D01*
X125689Y-99086D01*
X125678Y-99097D01*
X125671Y-99104D01*
X125667Y-99108D01*
X125623Y-99141D01*
X125578Y-99175D01*
X125534Y-99201D01*
X125486Y-99223D01*
X125393Y-99260D01*
X125304Y-99282D01*
X125264Y-99289D01*
X125227Y-99297D01*
X125193Y-99300D01*
X125164Y-99304D01*
X125142Y-99308D01*
X125108D01*
X125038Y-99304D01*
X124975Y-99297D01*
X124912Y-99286D01*
X124853Y-99271D01*
X124797Y-99252D01*
X124749Y-99234D01*
X124701Y-99212D01*
X124661Y-99190D01*
X124620Y-99171D01*
X124587Y-99149D01*
X124557Y-99130D01*
X124535Y-99112D01*
X124516Y-99097D01*
X124502Y-99086D01*
X124494Y-99079D01*
X124490Y-99075D01*
X124446Y-99030D01*
X124409Y-98982D01*
X124376Y-98934D01*
X124346Y-98886D01*
X124324Y-98842D01*
X124302Y-98794D01*
X124272Y-98705D01*
X124265Y-98664D01*
X124257Y-98627D01*
X124250Y-98594D01*
X124246Y-98564D01*
X124242Y-98542D01*
Y-98524D01*
Y-98513D01*
Y-98509D01*
X124246Y-98420D01*
X124261Y-98339D01*
X124283Y-98268D01*
X124305Y-98209D01*
X124328Y-98161D01*
X124350Y-98124D01*
X124365Y-98102D01*
X124368Y-98094D01*
X124420Y-98039D01*
X124476Y-97991D01*
X124535Y-97954D01*
X124594Y-97924D01*
X124646Y-97902D01*
X124687Y-97887D01*
X124701Y-97883D01*
X124712Y-97880D01*
X124720Y-97876D01*
X124723D01*
X124661Y-97843D01*
X124609Y-97809D01*
X124564Y-97773D01*
X124527Y-97739D01*
X124498Y-97710D01*
X124476Y-97684D01*
X124464Y-97669D01*
X124461Y-97662D01*
X124431Y-97610D01*
X124409Y-97558D01*
X124390Y-97506D01*
X124379Y-97458D01*
X124372Y-97417D01*
X124368Y-97388D01*
Y-97365D01*
Y-97358D01*
X124372Y-97295D01*
X124383Y-97232D01*
X124398Y-97177D01*
X124416Y-97129D01*
X124435Y-97088D01*
X124450Y-97055D01*
X124461Y-97036D01*
X124464Y-97029D01*
X124502Y-96973D01*
X124546Y-96925D01*
X124590Y-96885D01*
X124635Y-96847D01*
X124672Y-96822D01*
X124705Y-96799D01*
X124727Y-96788D01*
X124731Y-96785D01*
X124735D01*
X124801Y-96755D01*
X124868Y-96733D01*
X124934Y-96714D01*
X124994Y-96703D01*
X125042Y-96696D01*
X125082Y-96692D01*
X125175D01*
X125227Y-96700D01*
D02*
G37*
G36*
X126688Y-98468D02*
Y-98546D01*
X126696Y-98612D01*
X126699Y-98668D01*
X126707Y-98712D01*
X126714Y-98746D01*
X126718Y-98772D01*
X126725Y-98786D01*
Y-98790D01*
X126740Y-98827D01*
X126759Y-98857D01*
X126781Y-98882D01*
X126799Y-98908D01*
X126821Y-98923D01*
X126836Y-98938D01*
X126847Y-98945D01*
X126851Y-98949D01*
X126888Y-98968D01*
X126925Y-98982D01*
X126962Y-98990D01*
X126995Y-98997D01*
X127029Y-99001D01*
X127051Y-99005D01*
X127073D01*
X127132Y-99001D01*
X127188Y-98986D01*
X127232Y-98971D01*
X127273Y-98949D01*
X127302Y-98931D01*
X127325Y-98912D01*
X127339Y-98901D01*
X127343Y-98897D01*
X127362Y-98875D01*
X127376Y-98849D01*
X127399Y-98790D01*
X127421Y-98723D01*
X127432Y-98657D01*
X127443Y-98594D01*
Y-98568D01*
X127447Y-98546D01*
X127450Y-98524D01*
Y-98509D01*
Y-98501D01*
Y-98498D01*
X127758Y-98542D01*
Y-98612D01*
X127754Y-98675D01*
X127743Y-98738D01*
X127735Y-98794D01*
X127720Y-98845D01*
X127706Y-98890D01*
X127691Y-98934D01*
X127676Y-98971D01*
X127658Y-99005D01*
X127643Y-99034D01*
X127628Y-99060D01*
X127613Y-99079D01*
X127602Y-99093D01*
X127595Y-99108D01*
X127591Y-99112D01*
X127587Y-99116D01*
X127550Y-99149D01*
X127513Y-99178D01*
X127473Y-99204D01*
X127428Y-99226D01*
X127343Y-99260D01*
X127262Y-99282D01*
X127184Y-99297D01*
X127154Y-99300D01*
X127125Y-99304D01*
X127103Y-99308D01*
X127069D01*
X126988Y-99304D01*
X126914Y-99293D01*
X126847Y-99278D01*
X126788Y-99260D01*
X126740Y-99245D01*
X126707Y-99230D01*
X126684Y-99219D01*
X126677Y-99215D01*
X126618Y-99178D01*
X126566Y-99134D01*
X126525Y-99090D01*
X126488Y-99049D01*
X126462Y-99008D01*
X126444Y-98979D01*
X126433Y-98956D01*
X126429Y-98953D01*
Y-98949D01*
X126403Y-98875D01*
X126381Y-98797D01*
X126366Y-98712D01*
X126359Y-98631D01*
X126351Y-98561D01*
Y-98531D01*
X126348Y-98501D01*
Y-98479D01*
Y-98464D01*
Y-98453D01*
Y-98449D01*
Y-96703D01*
X126688D01*
Y-98468D01*
D02*
G37*
G36*
X78000Y-157328D02*
Y-159889D01*
X77660D01*
Y-158753D01*
X77223D01*
X77182Y-158756D01*
X77153D01*
X77127Y-158760D01*
X77108Y-158764D01*
X77093D01*
X77086Y-158768D01*
X77082D01*
X77023Y-158786D01*
X76997Y-158797D01*
X76975Y-158808D01*
X76953Y-158819D01*
X76938Y-158827D01*
X76931Y-158830D01*
X76927Y-158834D01*
X76897Y-158856D01*
X76868Y-158882D01*
X76812Y-158938D01*
X76786Y-158964D01*
X76768Y-158986D01*
X76757Y-159001D01*
X76753Y-159004D01*
X76716Y-159056D01*
X76675Y-159112D01*
X76635Y-159171D01*
X76594Y-159226D01*
X76561Y-159278D01*
X76535Y-159319D01*
X76524Y-159334D01*
X76516Y-159345D01*
X76509Y-159352D01*
Y-159356D01*
X76172Y-159889D01*
X75750D01*
X76191Y-159193D01*
X76243Y-159119D01*
X76291Y-159053D01*
X76339Y-158997D01*
X76379Y-158945D01*
X76416Y-158908D01*
X76446Y-158879D01*
X76464Y-158860D01*
X76472Y-158853D01*
X76502Y-158830D01*
X76535Y-158805D01*
X76601Y-158764D01*
X76631Y-158749D01*
X76653Y-158734D01*
X76668Y-158727D01*
X76675Y-158723D01*
X76609Y-158712D01*
X76546Y-158701D01*
X76490Y-158683D01*
X76435Y-158668D01*
X76387Y-158649D01*
X76342Y-158627D01*
X76302Y-158608D01*
X76265Y-158590D01*
X76235Y-158568D01*
X76205Y-158549D01*
X76183Y-158535D01*
X76165Y-158520D01*
X76150Y-158509D01*
X76139Y-158498D01*
X76135Y-158494D01*
X76131Y-158490D01*
X76102Y-158453D01*
X76072Y-158416D01*
X76028Y-158338D01*
X75998Y-158261D01*
X75976Y-158187D01*
X75961Y-158124D01*
X75958Y-158098D01*
Y-158072D01*
X75954Y-158054D01*
Y-158039D01*
Y-158031D01*
Y-158028D01*
X75958Y-157950D01*
X75969Y-157880D01*
X75987Y-157813D01*
X76006Y-157757D01*
X76028Y-157709D01*
X76043Y-157672D01*
X76057Y-157650D01*
X76061Y-157647D01*
Y-157643D01*
X76106Y-157584D01*
X76150Y-157532D01*
X76198Y-157487D01*
X76243Y-157454D01*
X76283Y-157428D01*
X76316Y-157413D01*
X76339Y-157402D01*
X76342Y-157399D01*
X76346D01*
X76379Y-157387D01*
X76420Y-157376D01*
X76502Y-157358D01*
X76590Y-157347D01*
X76672Y-157336D01*
X76749Y-157332D01*
X76783D01*
X76812Y-157328D01*
X78000D01*
D02*
G37*
G36*
X75528Y-157362D02*
Y-157665D01*
X74274D01*
X74363Y-157772D01*
X74448Y-157887D01*
X74522Y-157998D01*
X74592Y-158105D01*
X74622Y-158153D01*
X74648Y-158198D01*
X74674Y-158238D01*
X74692Y-158272D01*
X74707Y-158301D01*
X74718Y-158320D01*
X74726Y-158335D01*
X74729Y-158338D01*
X74803Y-158486D01*
X74870Y-158634D01*
X74925Y-158775D01*
X74948Y-158838D01*
X74970Y-158901D01*
X74992Y-158956D01*
X75007Y-159008D01*
X75021Y-159053D01*
X75033Y-159090D01*
X75044Y-159123D01*
X75051Y-159145D01*
X75055Y-159160D01*
Y-159163D01*
X75092Y-159315D01*
X75107Y-159389D01*
X75118Y-159456D01*
X75129Y-159519D01*
X75140Y-159582D01*
X75147Y-159633D01*
X75155Y-159685D01*
X75158Y-159730D01*
X75162Y-159770D01*
X75166Y-159807D01*
Y-159837D01*
X75169Y-159859D01*
Y-159874D01*
Y-159885D01*
Y-159889D01*
X74848D01*
X74836Y-159748D01*
X74818Y-159619D01*
X74800Y-159500D01*
X74788Y-159445D01*
X74777Y-159393D01*
X74770Y-159348D01*
X74759Y-159308D01*
X74751Y-159271D01*
X74744Y-159241D01*
X74737Y-159219D01*
X74733Y-159201D01*
X74729Y-159189D01*
Y-159186D01*
X74674Y-159016D01*
X74615Y-158856D01*
X74585Y-158779D01*
X74555Y-158705D01*
X74522Y-158638D01*
X74492Y-158572D01*
X74467Y-158512D01*
X74441Y-158460D01*
X74418Y-158416D01*
X74400Y-158375D01*
X74381Y-158342D01*
X74370Y-158320D01*
X74363Y-158305D01*
X74359Y-158301D01*
X74315Y-158224D01*
X74270Y-158146D01*
X74226Y-158076D01*
X74182Y-158009D01*
X74141Y-157950D01*
X74100Y-157891D01*
X74059Y-157839D01*
X74026Y-157794D01*
X73993Y-157750D01*
X73963Y-157713D01*
X73934Y-157684D01*
X73911Y-157658D01*
X73897Y-157635D01*
X73882Y-157621D01*
X73874Y-157613D01*
X73871Y-157609D01*
Y-157362D01*
X75528D01*
D02*
G37*
G36*
X159520Y-55570D02*
X159223Y-55611D01*
X159198Y-55570D01*
X159164Y-55537D01*
X159135Y-55504D01*
X159105Y-55478D01*
X159075Y-55459D01*
X159053Y-55441D01*
X159038Y-55433D01*
X159035Y-55430D01*
X158987Y-55408D01*
X158939Y-55389D01*
X158894Y-55378D01*
X158850Y-55367D01*
X158813Y-55363D01*
X158783Y-55359D01*
X158713D01*
X158668Y-55367D01*
X158591Y-55385D01*
X158524Y-55411D01*
X158465Y-55437D01*
X158421Y-55467D01*
X158387Y-55493D01*
X158369Y-55511D01*
X158361Y-55515D01*
Y-55519D01*
X158310Y-55581D01*
X158273Y-55648D01*
X158247Y-55718D01*
X158228Y-55789D01*
X158217Y-55848D01*
X158213Y-55874D01*
Y-55896D01*
X158210Y-55914D01*
Y-55929D01*
Y-55937D01*
Y-55940D01*
Y-55992D01*
X158217Y-56040D01*
X158236Y-56133D01*
X158262Y-56210D01*
X158287Y-56273D01*
X158317Y-56325D01*
X158343Y-56366D01*
X158354Y-56377D01*
X158361Y-56388D01*
X158365Y-56392D01*
X158369Y-56395D01*
X158398Y-56425D01*
X158428Y-56451D01*
X158495Y-56495D01*
X158557Y-56525D01*
X158620Y-56543D01*
X158672Y-56558D01*
X158717Y-56562D01*
X158731Y-56566D01*
X158754D01*
X158824Y-56562D01*
X158887Y-56547D01*
X158942Y-56529D01*
X158987Y-56506D01*
X159027Y-56484D01*
X159057Y-56466D01*
X159072Y-56451D01*
X159079Y-56447D01*
X159124Y-56395D01*
X159161Y-56340D01*
X159190Y-56277D01*
X159212Y-56221D01*
X159227Y-56166D01*
X159238Y-56125D01*
X159242Y-56107D01*
X159246Y-56096D01*
Y-56088D01*
Y-56085D01*
X159575Y-56111D01*
X159568Y-56170D01*
X159556Y-56225D01*
X159523Y-56329D01*
X159483Y-56418D01*
X159460Y-56458D01*
X159438Y-56492D01*
X159420Y-56525D01*
X159397Y-56555D01*
X159379Y-56577D01*
X159360Y-56595D01*
X159346Y-56610D01*
X159338Y-56625D01*
X159331Y-56629D01*
X159327Y-56632D01*
X159283Y-56665D01*
X159238Y-56695D01*
X159190Y-56721D01*
X159142Y-56743D01*
X159050Y-56776D01*
X158957Y-56799D01*
X158916Y-56810D01*
X158876Y-56814D01*
X158842Y-56817D01*
X158813Y-56821D01*
X158787Y-56825D01*
X158754D01*
X158676Y-56821D01*
X158602Y-56810D01*
X158532Y-56795D01*
X158469Y-56776D01*
X158410Y-56751D01*
X158354Y-56725D01*
X158302Y-56699D01*
X158258Y-56669D01*
X158217Y-56640D01*
X158180Y-56614D01*
X158150Y-56584D01*
X158125Y-56562D01*
X158106Y-56543D01*
X158091Y-56529D01*
X158084Y-56517D01*
X158080Y-56514D01*
X158043Y-56466D01*
X158014Y-56414D01*
X157984Y-56366D01*
X157962Y-56314D01*
X157925Y-56214D01*
X157903Y-56118D01*
X157895Y-56077D01*
X157888Y-56037D01*
X157884Y-56003D01*
X157880Y-55974D01*
X157877Y-55948D01*
Y-55929D01*
Y-55918D01*
Y-55914D01*
X157880Y-55848D01*
X157888Y-55785D01*
X157899Y-55722D01*
X157914Y-55667D01*
X157932Y-55615D01*
X157951Y-55563D01*
X157973Y-55519D01*
X157991Y-55478D01*
X158014Y-55441D01*
X158036Y-55408D01*
X158054Y-55382D01*
X158073Y-55356D01*
X158088Y-55337D01*
X158099Y-55326D01*
X158106Y-55319D01*
X158110Y-55315D01*
X158154Y-55274D01*
X158199Y-55237D01*
X158247Y-55208D01*
X158295Y-55182D01*
X158343Y-55156D01*
X158391Y-55137D01*
X158480Y-55111D01*
X158520Y-55100D01*
X158557Y-55093D01*
X158591Y-55089D01*
X158620Y-55086D01*
X158643Y-55082D01*
X158724D01*
X158768Y-55089D01*
X158857Y-55108D01*
X158939Y-55134D01*
X159013Y-55163D01*
X159072Y-55193D01*
X159098Y-55208D01*
X159120Y-55219D01*
X159138Y-55230D01*
X159150Y-55237D01*
X159157Y-55241D01*
X159161Y-55245D01*
X159024Y-54553D01*
X157999D01*
Y-54253D01*
X159272D01*
X159520Y-55570D01*
D02*
G37*
G36*
X162039Y-54183D02*
X162158Y-54201D01*
X162261Y-54224D01*
X162309Y-54238D01*
X162354Y-54253D01*
X162394Y-54268D01*
X162431Y-54283D01*
X162461Y-54294D01*
X162491Y-54305D01*
X162509Y-54316D01*
X162524Y-54323D01*
X162535Y-54327D01*
X162539Y-54331D01*
X162639Y-54394D01*
X162724Y-54468D01*
X162798Y-54542D01*
X162861Y-54616D01*
X162909Y-54682D01*
X162927Y-54712D01*
X162942Y-54738D01*
X162957Y-54756D01*
X162964Y-54771D01*
X162968Y-54782D01*
X162972Y-54786D01*
X163023Y-54901D01*
X163060Y-55019D01*
X163086Y-55137D01*
X163105Y-55245D01*
X163112Y-55293D01*
X163116Y-55341D01*
X163120Y-55378D01*
Y-55415D01*
X163123Y-55441D01*
Y-55463D01*
Y-55478D01*
Y-55481D01*
X163116Y-55615D01*
X163101Y-55744D01*
X163083Y-55859D01*
X163068Y-55914D01*
X163057Y-55963D01*
X163046Y-56007D01*
X163031Y-56048D01*
X163020Y-56085D01*
X163012Y-56114D01*
X163001Y-56136D01*
X162997Y-56155D01*
X162990Y-56166D01*
Y-56170D01*
X162935Y-56281D01*
X162872Y-56381D01*
X162805Y-56466D01*
X162772Y-56499D01*
X162742Y-56532D01*
X162713Y-56562D01*
X162683Y-56588D01*
X162657Y-56610D01*
X162635Y-56625D01*
X162620Y-56640D01*
X162605Y-56651D01*
X162598Y-56654D01*
X162594Y-56658D01*
X162542Y-56688D01*
X162491Y-56714D01*
X162380Y-56754D01*
X162269Y-56784D01*
X162161Y-56802D01*
X162109Y-56810D01*
X162065Y-56817D01*
X162024Y-56821D01*
X161991D01*
X161961Y-56825D01*
X161921D01*
X161847Y-56821D01*
X161776Y-56814D01*
X161710Y-56806D01*
X161647Y-56791D01*
X161588Y-56773D01*
X161532Y-56754D01*
X161480Y-56736D01*
X161432Y-56714D01*
X161392Y-56695D01*
X161351Y-56677D01*
X161321Y-56658D01*
X161292Y-56640D01*
X161273Y-56625D01*
X161255Y-56617D01*
X161247Y-56610D01*
X161244Y-56606D01*
X161192Y-56562D01*
X161147Y-56517D01*
X161107Y-56466D01*
X161066Y-56414D01*
X161000Y-56310D01*
X160948Y-56207D01*
X160925Y-56159D01*
X160907Y-56114D01*
X160892Y-56073D01*
X160881Y-56040D01*
X160870Y-56011D01*
X160863Y-55988D01*
X160859Y-55974D01*
Y-55970D01*
X161199Y-55885D01*
X161214Y-55944D01*
X161233Y-55999D01*
X161251Y-56051D01*
X161270Y-56099D01*
X161292Y-56144D01*
X161314Y-56181D01*
X161340Y-56218D01*
X161362Y-56251D01*
X161381Y-56281D01*
X161403Y-56303D01*
X161421Y-56325D01*
X161436Y-56344D01*
X161451Y-56355D01*
X161462Y-56366D01*
X161466Y-56370D01*
X161469Y-56373D01*
X161506Y-56403D01*
X161547Y-56425D01*
X161628Y-56466D01*
X161706Y-56495D01*
X161784Y-56514D01*
X161851Y-56529D01*
X161876Y-56532D01*
X161902D01*
X161925Y-56536D01*
X161950D01*
X162036Y-56532D01*
X162117Y-56517D01*
X162191Y-56499D01*
X162258Y-56477D01*
X162309Y-56455D01*
X162331Y-56444D01*
X162350Y-56436D01*
X162365Y-56429D01*
X162376Y-56421D01*
X162383Y-56418D01*
X162387D01*
X162457Y-56366D01*
X162516Y-56310D01*
X162568Y-56247D01*
X162609Y-56188D01*
X162642Y-56136D01*
X162664Y-56092D01*
X162672Y-56073D01*
X162679Y-56062D01*
X162683Y-56055D01*
Y-56051D01*
X162713Y-55955D01*
X162735Y-55859D01*
X162753Y-55763D01*
X162764Y-55674D01*
X162768Y-55633D01*
X162772Y-55596D01*
Y-55563D01*
X162776Y-55537D01*
Y-55515D01*
Y-55496D01*
Y-55485D01*
Y-55481D01*
X162772Y-55385D01*
X162764Y-55296D01*
X162750Y-55215D01*
X162735Y-55141D01*
X162724Y-55078D01*
X162716Y-55052D01*
X162709Y-55030D01*
X162705Y-55012D01*
X162701Y-55001D01*
X162698Y-54993D01*
Y-54989D01*
X162661Y-54904D01*
X162620Y-54827D01*
X162576Y-54764D01*
X162528Y-54708D01*
X162487Y-54664D01*
X162454Y-54634D01*
X162428Y-54616D01*
X162424Y-54608D01*
X162420D01*
X162343Y-54560D01*
X162258Y-54523D01*
X162176Y-54497D01*
X162098Y-54483D01*
X162028Y-54471D01*
X161998Y-54468D01*
X161973D01*
X161954Y-54464D01*
X161925D01*
X161832Y-54468D01*
X161747Y-54483D01*
X161677Y-54505D01*
X161614Y-54527D01*
X161566Y-54553D01*
X161529Y-54571D01*
X161506Y-54586D01*
X161499Y-54593D01*
X161440Y-54649D01*
X161384Y-54712D01*
X161340Y-54778D01*
X161303Y-54845D01*
X161273Y-54904D01*
X161262Y-54934D01*
X161255Y-54956D01*
X161247Y-54975D01*
X161240Y-54989D01*
X161236Y-54997D01*
Y-55001D01*
X160903Y-54923D01*
X160925Y-54856D01*
X160948Y-54797D01*
X160977Y-54742D01*
X161003Y-54686D01*
X161033Y-54638D01*
X161066Y-54593D01*
X161096Y-54549D01*
X161125Y-54512D01*
X161155Y-54483D01*
X161181Y-54453D01*
X161207Y-54427D01*
X161225Y-54409D01*
X161244Y-54390D01*
X161258Y-54379D01*
X161266Y-54375D01*
X161270Y-54372D01*
X161321Y-54338D01*
X161373Y-54305D01*
X161425Y-54279D01*
X161480Y-54257D01*
X161591Y-54224D01*
X161691Y-54201D01*
X161740Y-54190D01*
X161780Y-54186D01*
X161821Y-54183D01*
X161854Y-54179D01*
X161880Y-54175D01*
X161917D01*
X162039Y-54183D01*
D02*
G37*
G36*
X160393Y-56780D02*
X160034D01*
Y-56421D01*
X160393D01*
Y-56780D01*
D02*
G37*
G36*
X111016Y-17364D02*
X111134Y-17382D01*
X111238Y-17404D01*
X111286Y-17419D01*
X111330Y-17434D01*
X111371Y-17449D01*
X111408Y-17463D01*
X111438Y-17474D01*
X111467Y-17486D01*
X111486Y-17497D01*
X111501Y-17504D01*
X111512Y-17508D01*
X111515Y-17512D01*
X111615Y-17574D01*
X111700Y-17648D01*
X111774Y-17722D01*
X111837Y-17796D01*
X111885Y-17863D01*
X111904Y-17893D01*
X111919Y-17919D01*
X111934Y-17937D01*
X111941Y-17952D01*
X111945Y-17963D01*
X111948Y-17967D01*
X112000Y-18081D01*
X112037Y-18200D01*
X112063Y-18318D01*
X112082Y-18425D01*
X112089Y-18474D01*
X112093Y-18522D01*
X112096Y-18559D01*
Y-18596D01*
X112100Y-18621D01*
Y-18644D01*
Y-18658D01*
Y-18662D01*
X112093Y-18795D01*
X112078Y-18925D01*
X112059Y-19040D01*
X112045Y-19095D01*
X112033Y-19143D01*
X112022Y-19188D01*
X112007Y-19228D01*
X111996Y-19265D01*
X111989Y-19295D01*
X111978Y-19317D01*
X111974Y-19336D01*
X111967Y-19347D01*
Y-19350D01*
X111911Y-19461D01*
X111848Y-19561D01*
X111782Y-19646D01*
X111749Y-19680D01*
X111719Y-19713D01*
X111689Y-19743D01*
X111660Y-19769D01*
X111634Y-19791D01*
X111612Y-19805D01*
X111597Y-19820D01*
X111582Y-19831D01*
X111575Y-19835D01*
X111571Y-19839D01*
X111519Y-19868D01*
X111467Y-19894D01*
X111356Y-19935D01*
X111245Y-19965D01*
X111138Y-19983D01*
X111086Y-19990D01*
X111042Y-19998D01*
X111001Y-20002D01*
X110968D01*
X110938Y-20005D01*
X110898D01*
X110824Y-20002D01*
X110753Y-19994D01*
X110687Y-19987D01*
X110624Y-19972D01*
X110564Y-19953D01*
X110509Y-19935D01*
X110457Y-19917D01*
X110409Y-19894D01*
X110368Y-19876D01*
X110328Y-19857D01*
X110298Y-19839D01*
X110268Y-19820D01*
X110250Y-19805D01*
X110231Y-19798D01*
X110224Y-19791D01*
X110220Y-19787D01*
X110169Y-19743D01*
X110124Y-19698D01*
X110083Y-19646D01*
X110043Y-19595D01*
X109976Y-19491D01*
X109924Y-19387D01*
X109902Y-19339D01*
X109884Y-19295D01*
X109869Y-19254D01*
X109858Y-19221D01*
X109847Y-19191D01*
X109839Y-19169D01*
X109836Y-19154D01*
Y-19151D01*
X110176Y-19065D01*
X110191Y-19125D01*
X110209Y-19180D01*
X110228Y-19232D01*
X110246Y-19280D01*
X110268Y-19324D01*
X110291Y-19362D01*
X110317Y-19399D01*
X110339Y-19432D01*
X110357Y-19461D01*
X110380Y-19484D01*
X110398Y-19506D01*
X110413Y-19524D01*
X110428Y-19535D01*
X110439Y-19546D01*
X110442Y-19550D01*
X110446Y-19554D01*
X110483Y-19583D01*
X110524Y-19606D01*
X110605Y-19646D01*
X110683Y-19676D01*
X110761Y-19694D01*
X110827Y-19709D01*
X110853Y-19713D01*
X110879D01*
X110901Y-19717D01*
X110927D01*
X111012Y-19713D01*
X111094Y-19698D01*
X111168Y-19680D01*
X111234Y-19658D01*
X111286Y-19635D01*
X111308Y-19624D01*
X111327Y-19617D01*
X111342Y-19609D01*
X111353Y-19602D01*
X111360Y-19598D01*
X111364D01*
X111434Y-19546D01*
X111493Y-19491D01*
X111545Y-19428D01*
X111586Y-19369D01*
X111619Y-19317D01*
X111641Y-19273D01*
X111649Y-19254D01*
X111656Y-19243D01*
X111660Y-19236D01*
Y-19232D01*
X111689Y-19136D01*
X111712Y-19040D01*
X111730Y-18943D01*
X111741Y-18855D01*
X111745Y-18814D01*
X111749Y-18777D01*
Y-18744D01*
X111752Y-18718D01*
Y-18696D01*
Y-18677D01*
Y-18666D01*
Y-18662D01*
X111749Y-18566D01*
X111741Y-18477D01*
X111726Y-18396D01*
X111712Y-18322D01*
X111700Y-18259D01*
X111693Y-18233D01*
X111686Y-18211D01*
X111682Y-18192D01*
X111678Y-18181D01*
X111674Y-18174D01*
Y-18170D01*
X111637Y-18085D01*
X111597Y-18007D01*
X111552Y-17944D01*
X111504Y-17889D01*
X111464Y-17844D01*
X111430Y-17815D01*
X111404Y-17796D01*
X111401Y-17789D01*
X111397D01*
X111319Y-17741D01*
X111234Y-17704D01*
X111153Y-17678D01*
X111075Y-17663D01*
X111005Y-17652D01*
X110975Y-17648D01*
X110949D01*
X110931Y-17645D01*
X110901D01*
X110809Y-17648D01*
X110724Y-17663D01*
X110653Y-17685D01*
X110590Y-17708D01*
X110542Y-17733D01*
X110505Y-17752D01*
X110483Y-17767D01*
X110476Y-17774D01*
X110416Y-17830D01*
X110361Y-17893D01*
X110317Y-17959D01*
X110280Y-18026D01*
X110250Y-18085D01*
X110239Y-18115D01*
X110231Y-18137D01*
X110224Y-18155D01*
X110217Y-18170D01*
X110213Y-18178D01*
Y-18181D01*
X109880Y-18103D01*
X109902Y-18037D01*
X109924Y-17978D01*
X109954Y-17922D01*
X109980Y-17867D01*
X110010Y-17819D01*
X110043Y-17774D01*
X110072Y-17730D01*
X110102Y-17693D01*
X110132Y-17663D01*
X110158Y-17634D01*
X110183Y-17608D01*
X110202Y-17589D01*
X110220Y-17571D01*
X110235Y-17560D01*
X110243Y-17556D01*
X110246Y-17552D01*
X110298Y-17519D01*
X110350Y-17486D01*
X110402Y-17460D01*
X110457Y-17437D01*
X110568Y-17404D01*
X110668Y-17382D01*
X110716Y-17371D01*
X110757Y-17367D01*
X110798Y-17364D01*
X110831Y-17360D01*
X110857Y-17356D01*
X110894D01*
X111016Y-17364D01*
D02*
G37*
G36*
X109654Y-19058D02*
Y-19347D01*
X108541D01*
Y-19961D01*
X108226D01*
Y-19347D01*
X107878D01*
Y-19058D01*
X108226D01*
Y-17401D01*
X108481D01*
X109654Y-19058D01*
D02*
G37*
G36*
X93619Y-71432D02*
X93690Y-71440D01*
X93756Y-71454D01*
X93819Y-71473D01*
X93875Y-71499D01*
X93930Y-71521D01*
X93978Y-71551D01*
X94023Y-71576D01*
X94059Y-71602D01*
X94096Y-71632D01*
X94126Y-71654D01*
X94148Y-71676D01*
X94167Y-71699D01*
X94182Y-71713D01*
X94189Y-71721D01*
X94193Y-71724D01*
X94241Y-71791D01*
X94282Y-71869D01*
X94318Y-71950D01*
X94352Y-72035D01*
X94378Y-72124D01*
X94400Y-72213D01*
X94418Y-72305D01*
X94433Y-72391D01*
X94444Y-72476D01*
X94452Y-72553D01*
X94459Y-72624D01*
X94463Y-72683D01*
Y-72735D01*
X94467Y-72772D01*
Y-72786D01*
Y-72798D01*
Y-72801D01*
Y-72805D01*
X94463Y-72923D01*
X94455Y-73034D01*
X94444Y-73138D01*
X94426Y-73234D01*
X94407Y-73319D01*
X94389Y-73397D01*
X94367Y-73467D01*
X94341Y-73530D01*
X94318Y-73582D01*
X94296Y-73630D01*
X94278Y-73667D01*
X94256Y-73700D01*
X94241Y-73726D01*
X94230Y-73741D01*
X94222Y-73752D01*
X94219Y-73756D01*
X94170Y-73808D01*
X94119Y-73852D01*
X94067Y-73889D01*
X94015Y-73922D01*
X93960Y-73952D01*
X93908Y-73974D01*
X93856Y-73993D01*
X93804Y-74007D01*
X93760Y-74019D01*
X93715Y-74030D01*
X93678Y-74037D01*
X93645Y-74041D01*
X93616D01*
X93597Y-74044D01*
X93578D01*
X93493Y-74041D01*
X93416Y-74026D01*
X93345Y-74011D01*
X93283Y-73989D01*
X93234Y-73970D01*
X93197Y-73952D01*
X93183Y-73948D01*
X93172Y-73941D01*
X93168Y-73937D01*
X93164D01*
X93101Y-73893D01*
X93042Y-73841D01*
X92994Y-73789D01*
X92953Y-73737D01*
X92920Y-73689D01*
X92898Y-73652D01*
X92890Y-73637D01*
X92883Y-73626D01*
X92879Y-73623D01*
Y-73619D01*
X92842Y-73541D01*
X92816Y-73460D01*
X92798Y-73386D01*
X92787Y-73316D01*
X92776Y-73256D01*
Y-73234D01*
X92772Y-73212D01*
Y-73193D01*
Y-73182D01*
Y-73175D01*
Y-73171D01*
X92776Y-73105D01*
X92783Y-73042D01*
X92794Y-72979D01*
X92805Y-72923D01*
X92824Y-72872D01*
X92842Y-72820D01*
X92861Y-72775D01*
X92883Y-72735D01*
X92905Y-72698D01*
X92924Y-72664D01*
X92942Y-72638D01*
X92961Y-72613D01*
X92972Y-72594D01*
X92983Y-72583D01*
X92990Y-72575D01*
X92994Y-72572D01*
X93035Y-72531D01*
X93079Y-72494D01*
X93127Y-72465D01*
X93172Y-72439D01*
X93216Y-72413D01*
X93260Y-72394D01*
X93345Y-72368D01*
X93382Y-72357D01*
X93419Y-72350D01*
X93449Y-72346D01*
X93479Y-72342D01*
X93501Y-72339D01*
X93530D01*
X93597Y-72342D01*
X93660Y-72354D01*
X93719Y-72365D01*
X93771Y-72379D01*
X93815Y-72398D01*
X93849Y-72409D01*
X93871Y-72420D01*
X93875Y-72424D01*
X93878D01*
X93937Y-72461D01*
X93989Y-72501D01*
X94037Y-72542D01*
X94074Y-72587D01*
X94108Y-72624D01*
X94134Y-72653D01*
X94148Y-72675D01*
X94152Y-72679D01*
Y-72613D01*
X94148Y-72546D01*
X94145Y-72487D01*
X94137Y-72427D01*
X94134Y-72376D01*
X94126Y-72328D01*
X94119Y-72283D01*
X94108Y-72242D01*
X94100Y-72206D01*
X94093Y-72176D01*
X94085Y-72150D01*
X94082Y-72128D01*
X94074Y-72113D01*
X94071Y-72102D01*
X94067Y-72095D01*
Y-72091D01*
X94030Y-72017D01*
X93993Y-71950D01*
X93952Y-71898D01*
X93915Y-71854D01*
X93882Y-71817D01*
X93856Y-71791D01*
X93837Y-71776D01*
X93830Y-71773D01*
X93786Y-71743D01*
X93741Y-71724D01*
X93697Y-71710D01*
X93652Y-71699D01*
X93619Y-71691D01*
X93590Y-71688D01*
X93564D01*
X93497Y-71695D01*
X93434Y-71710D01*
X93382Y-71732D01*
X93334Y-71754D01*
X93297Y-71780D01*
X93271Y-71802D01*
X93257Y-71817D01*
X93249Y-71824D01*
X93223Y-71858D01*
X93197Y-71898D01*
X93175Y-71943D01*
X93160Y-71987D01*
X93146Y-72028D01*
X93134Y-72061D01*
X93131Y-72083D01*
X93127Y-72087D01*
Y-72091D01*
X92813Y-72065D01*
X92835Y-71961D01*
X92868Y-71869D01*
X92905Y-71787D01*
X92946Y-71721D01*
X92987Y-71669D01*
X93001Y-71647D01*
X93020Y-71628D01*
X93031Y-71617D01*
X93042Y-71606D01*
X93046Y-71602D01*
X93049Y-71599D01*
X93086Y-71569D01*
X93127Y-71543D01*
X93208Y-71499D01*
X93290Y-71469D01*
X93368Y-71451D01*
X93438Y-71436D01*
X93467Y-71432D01*
X93493D01*
X93516Y-71429D01*
X93545D01*
X93619Y-71432D01*
D02*
G37*
G36*
X96916Y-71403D02*
X97034Y-71421D01*
X97138Y-71443D01*
X97186Y-71458D01*
X97230Y-71473D01*
X97271Y-71488D01*
X97308Y-71503D01*
X97338Y-71514D01*
X97367Y-71525D01*
X97386Y-71536D01*
X97401Y-71543D01*
X97412Y-71547D01*
X97415Y-71551D01*
X97515Y-71614D01*
X97600Y-71688D01*
X97674Y-71762D01*
X97737Y-71836D01*
X97785Y-71902D01*
X97804Y-71932D01*
X97819Y-71958D01*
X97834Y-71976D01*
X97841Y-71991D01*
X97845Y-72002D01*
X97848Y-72006D01*
X97900Y-72120D01*
X97937Y-72239D01*
X97963Y-72357D01*
X97982Y-72465D01*
X97989Y-72513D01*
X97993Y-72561D01*
X97996Y-72598D01*
Y-72635D01*
X98000Y-72661D01*
Y-72683D01*
Y-72698D01*
Y-72701D01*
X97993Y-72834D01*
X97978Y-72964D01*
X97959Y-73079D01*
X97944Y-73134D01*
X97933Y-73182D01*
X97922Y-73227D01*
X97908Y-73267D01*
X97896Y-73304D01*
X97889Y-73334D01*
X97878Y-73356D01*
X97874Y-73375D01*
X97867Y-73386D01*
Y-73390D01*
X97811Y-73501D01*
X97748Y-73600D01*
X97682Y-73685D01*
X97649Y-73719D01*
X97619Y-73752D01*
X97589Y-73782D01*
X97560Y-73808D01*
X97534Y-73830D01*
X97512Y-73845D01*
X97497Y-73859D01*
X97482Y-73870D01*
X97475Y-73874D01*
X97471Y-73878D01*
X97419Y-73908D01*
X97367Y-73933D01*
X97256Y-73974D01*
X97145Y-74004D01*
X97038Y-74022D01*
X96986Y-74030D01*
X96942Y-74037D01*
X96901Y-74041D01*
X96868D01*
X96838Y-74044D01*
X96798D01*
X96724Y-74041D01*
X96653Y-74033D01*
X96587Y-74026D01*
X96524Y-74011D01*
X96465Y-73993D01*
X96409Y-73974D01*
X96357Y-73956D01*
X96309Y-73933D01*
X96268Y-73915D01*
X96228Y-73896D01*
X96198Y-73878D01*
X96169Y-73859D01*
X96150Y-73845D01*
X96131Y-73837D01*
X96124Y-73830D01*
X96120Y-73826D01*
X96069Y-73782D01*
X96024Y-73737D01*
X95983Y-73685D01*
X95943Y-73634D01*
X95876Y-73530D01*
X95824Y-73427D01*
X95802Y-73378D01*
X95784Y-73334D01*
X95769Y-73293D01*
X95758Y-73260D01*
X95747Y-73230D01*
X95739Y-73208D01*
X95736Y-73193D01*
Y-73190D01*
X96076Y-73105D01*
X96091Y-73164D01*
X96109Y-73219D01*
X96128Y-73271D01*
X96146Y-73319D01*
X96169Y-73364D01*
X96191Y-73401D01*
X96217Y-73438D01*
X96239Y-73471D01*
X96257Y-73501D01*
X96280Y-73523D01*
X96298Y-73545D01*
X96313Y-73563D01*
X96328Y-73575D01*
X96339Y-73586D01*
X96342Y-73589D01*
X96346Y-73593D01*
X96383Y-73623D01*
X96424Y-73645D01*
X96505Y-73685D01*
X96583Y-73715D01*
X96661Y-73734D01*
X96727Y-73748D01*
X96753Y-73752D01*
X96779D01*
X96801Y-73756D01*
X96827D01*
X96912Y-73752D01*
X96994Y-73737D01*
X97068Y-73719D01*
X97134Y-73697D01*
X97186Y-73674D01*
X97208Y-73663D01*
X97227Y-73656D01*
X97241Y-73649D01*
X97253Y-73641D01*
X97260Y-73637D01*
X97264D01*
X97334Y-73586D01*
X97393Y-73530D01*
X97445Y-73467D01*
X97486Y-73408D01*
X97519Y-73356D01*
X97541Y-73312D01*
X97549Y-73293D01*
X97556Y-73282D01*
X97560Y-73275D01*
Y-73271D01*
X97589Y-73175D01*
X97611Y-73079D01*
X97630Y-72983D01*
X97641Y-72894D01*
X97645Y-72853D01*
X97649Y-72816D01*
Y-72783D01*
X97652Y-72757D01*
Y-72735D01*
Y-72716D01*
Y-72705D01*
Y-72701D01*
X97649Y-72605D01*
X97641Y-72516D01*
X97626Y-72435D01*
X97611Y-72361D01*
X97600Y-72298D01*
X97593Y-72272D01*
X97586Y-72250D01*
X97582Y-72231D01*
X97578Y-72220D01*
X97575Y-72213D01*
Y-72209D01*
X97537Y-72124D01*
X97497Y-72046D01*
X97452Y-71983D01*
X97404Y-71928D01*
X97364Y-71884D01*
X97330Y-71854D01*
X97304Y-71836D01*
X97301Y-71828D01*
X97297D01*
X97219Y-71780D01*
X97134Y-71743D01*
X97053Y-71717D01*
X96975Y-71702D01*
X96905Y-71691D01*
X96875Y-71688D01*
X96849D01*
X96831Y-71684D01*
X96801D01*
X96709Y-71688D01*
X96624Y-71702D01*
X96553Y-71724D01*
X96490Y-71747D01*
X96442Y-71773D01*
X96405Y-71791D01*
X96383Y-71806D01*
X96376Y-71813D01*
X96316Y-71869D01*
X96261Y-71932D01*
X96217Y-71998D01*
X96180Y-72065D01*
X96150Y-72124D01*
X96139Y-72154D01*
X96131Y-72176D01*
X96124Y-72194D01*
X96117Y-72209D01*
X96113Y-72217D01*
Y-72220D01*
X95780Y-72143D01*
X95802Y-72076D01*
X95824Y-72017D01*
X95854Y-71961D01*
X95880Y-71906D01*
X95910Y-71858D01*
X95943Y-71813D01*
X95972Y-71769D01*
X96002Y-71732D01*
X96032Y-71702D01*
X96057Y-71673D01*
X96083Y-71647D01*
X96102Y-71628D01*
X96120Y-71610D01*
X96135Y-71599D01*
X96143Y-71595D01*
X96146Y-71591D01*
X96198Y-71558D01*
X96250Y-71525D01*
X96302Y-71499D01*
X96357Y-71477D01*
X96468Y-71443D01*
X96568Y-71421D01*
X96616Y-71410D01*
X96657Y-71406D01*
X96698Y-71403D01*
X96731Y-71399D01*
X96757Y-71395D01*
X96794D01*
X96916Y-71403D01*
D02*
G37*
G36*
X95269Y-74000D02*
X94911D01*
Y-73641D01*
X95269D01*
Y-74000D01*
D02*
G37*
G36*
X100779Y-40932D02*
X100842Y-40936D01*
X100901Y-40947D01*
X100957Y-40958D01*
X101009Y-40973D01*
X101057Y-40988D01*
X101101Y-41006D01*
X101142Y-41025D01*
X101179Y-41043D01*
X101208Y-41062D01*
X101234Y-41076D01*
X101257Y-41091D01*
X101275Y-41102D01*
X101286Y-41113D01*
X101294Y-41117D01*
X101297Y-41121D01*
X101334Y-41158D01*
X101368Y-41199D01*
X101401Y-41243D01*
X101427Y-41287D01*
X101471Y-41376D01*
X101501Y-41465D01*
X101512Y-41506D01*
X101523Y-41546D01*
X101530Y-41580D01*
X101538Y-41609D01*
X101541Y-41635D01*
Y-41654D01*
X101545Y-41665D01*
Y-41668D01*
X101223Y-41702D01*
X101216Y-41617D01*
X101201Y-41543D01*
X101179Y-41476D01*
X101153Y-41424D01*
X101131Y-41380D01*
X101109Y-41350D01*
X101094Y-41332D01*
X101086Y-41324D01*
X101031Y-41280D01*
X100972Y-41247D01*
X100909Y-41221D01*
X100853Y-41206D01*
X100802Y-41195D01*
X100757Y-41191D01*
X100742Y-41188D01*
X100720D01*
X100642Y-41191D01*
X100572Y-41206D01*
X100513Y-41228D01*
X100461Y-41250D01*
X100420Y-41276D01*
X100394Y-41295D01*
X100376Y-41310D01*
X100369Y-41317D01*
X100324Y-41369D01*
X100291Y-41421D01*
X100265Y-41472D01*
X100250Y-41524D01*
X100239Y-41565D01*
X100235Y-41602D01*
X100232Y-41624D01*
Y-41628D01*
Y-41631D01*
X100239Y-41698D01*
X100254Y-41768D01*
X100280Y-41831D01*
X100306Y-41890D01*
X100335Y-41939D01*
X100361Y-41979D01*
X100369Y-41994D01*
X100376Y-42005D01*
X100383Y-42009D01*
Y-42013D01*
X100413Y-42053D01*
X100450Y-42094D01*
X100491Y-42138D01*
X100535Y-42183D01*
X100628Y-42272D01*
X100720Y-42360D01*
X100768Y-42401D01*
X100809Y-42438D01*
X100850Y-42471D01*
X100883Y-42501D01*
X100909Y-42523D01*
X100931Y-42542D01*
X100946Y-42553D01*
X100950Y-42557D01*
X101042Y-42634D01*
X101127Y-42708D01*
X101197Y-42775D01*
X101253Y-42830D01*
X101301Y-42878D01*
X101334Y-42912D01*
X101353Y-42934D01*
X101360Y-42938D01*
Y-42941D01*
X101412Y-43004D01*
X101453Y-43063D01*
X101490Y-43123D01*
X101519Y-43174D01*
X101541Y-43219D01*
X101556Y-43252D01*
X101564Y-43274D01*
X101567Y-43278D01*
Y-43282D01*
X101582Y-43322D01*
X101590Y-43359D01*
X101597Y-43396D01*
X101601Y-43430D01*
X101604Y-43459D01*
Y-43481D01*
Y-43496D01*
Y-43500D01*
X99906D01*
Y-43197D01*
X101168D01*
X101123Y-43134D01*
X101101Y-43108D01*
X101083Y-43082D01*
X101064Y-43060D01*
X101049Y-43045D01*
X101038Y-43034D01*
X101035Y-43030D01*
X101016Y-43012D01*
X100994Y-42993D01*
X100942Y-42945D01*
X100883Y-42889D01*
X100820Y-42834D01*
X100761Y-42786D01*
X100735Y-42764D01*
X100713Y-42742D01*
X100694Y-42727D01*
X100679Y-42716D01*
X100672Y-42708D01*
X100668Y-42704D01*
X100609Y-42653D01*
X100550Y-42605D01*
X100498Y-42557D01*
X100450Y-42516D01*
X100406Y-42475D01*
X100369Y-42438D01*
X100332Y-42405D01*
X100302Y-42375D01*
X100272Y-42346D01*
X100250Y-42323D01*
X100232Y-42305D01*
X100213Y-42286D01*
X100195Y-42264D01*
X100187Y-42257D01*
X100136Y-42194D01*
X100091Y-42138D01*
X100054Y-42083D01*
X100024Y-42039D01*
X100002Y-41998D01*
X99988Y-41968D01*
X99980Y-41950D01*
X99976Y-41942D01*
X99954Y-41887D01*
X99939Y-41831D01*
X99925Y-41780D01*
X99917Y-41735D01*
X99914Y-41694D01*
X99910Y-41665D01*
Y-41646D01*
Y-41639D01*
X99914Y-41583D01*
X99921Y-41532D01*
X99928Y-41480D01*
X99943Y-41435D01*
X99980Y-41347D01*
X100017Y-41276D01*
X100039Y-41243D01*
X100058Y-41217D01*
X100076Y-41191D01*
X100095Y-41173D01*
X100110Y-41158D01*
X100117Y-41143D01*
X100124Y-41139D01*
X100128Y-41136D01*
X100169Y-41099D01*
X100213Y-41065D01*
X100261Y-41039D01*
X100309Y-41017D01*
X100406Y-40980D01*
X100502Y-40954D01*
X100542Y-40947D01*
X100583Y-40940D01*
X100620Y-40936D01*
X100650Y-40932D01*
X100676Y-40929D01*
X100713D01*
X100779Y-40932D01*
D02*
G37*
G36*
X102607Y-40991D02*
X102648Y-41051D01*
X102696Y-41110D01*
X102740Y-41162D01*
X102785Y-41206D01*
X102818Y-41243D01*
X102833Y-41254D01*
X102844Y-41265D01*
X102848Y-41269D01*
X102851Y-41273D01*
X102929Y-41335D01*
X103007Y-41395D01*
X103081Y-41447D01*
X103155Y-41487D01*
X103218Y-41524D01*
X103244Y-41539D01*
X103266Y-41550D01*
X103284Y-41561D01*
X103299Y-41565D01*
X103306Y-41572D01*
X103310D01*
Y-41876D01*
X103255Y-41853D01*
X103199Y-41828D01*
X103144Y-41802D01*
X103092Y-41776D01*
X103047Y-41754D01*
X103010Y-41735D01*
X102988Y-41720D01*
X102984Y-41717D01*
X102981D01*
X102914Y-41676D01*
X102855Y-41635D01*
X102803Y-41598D01*
X102762Y-41565D01*
X102726Y-41539D01*
X102703Y-41517D01*
X102685Y-41502D01*
X102681Y-41498D01*
Y-43500D01*
X102367D01*
Y-40929D01*
X102570D01*
X102607Y-40991D01*
D02*
G37*
G36*
X106000Y-43500D02*
X105660D01*
Y-42364D01*
X105223D01*
X105182Y-42368D01*
X105153D01*
X105127Y-42371D01*
X105108Y-42375D01*
X105094D01*
X105086Y-42379D01*
X105082D01*
X105023Y-42397D01*
X104997Y-42408D01*
X104975Y-42420D01*
X104953Y-42431D01*
X104938Y-42438D01*
X104931Y-42442D01*
X104927Y-42445D01*
X104897Y-42468D01*
X104868Y-42494D01*
X104812Y-42549D01*
X104786Y-42575D01*
X104768Y-42597D01*
X104757Y-42612D01*
X104753Y-42616D01*
X104716Y-42667D01*
X104675Y-42723D01*
X104635Y-42782D01*
X104594Y-42838D01*
X104561Y-42889D01*
X104535Y-42930D01*
X104524Y-42945D01*
X104516Y-42956D01*
X104509Y-42963D01*
Y-42967D01*
X104172Y-43500D01*
X103750D01*
X104191Y-42804D01*
X104243Y-42730D01*
X104291Y-42664D01*
X104339Y-42608D01*
X104379Y-42557D01*
X104416Y-42520D01*
X104446Y-42490D01*
X104464Y-42471D01*
X104472Y-42464D01*
X104501Y-42442D01*
X104535Y-42416D01*
X104601Y-42375D01*
X104631Y-42360D01*
X104653Y-42346D01*
X104668Y-42338D01*
X104675Y-42334D01*
X104609Y-42323D01*
X104546Y-42312D01*
X104490Y-42294D01*
X104435Y-42279D01*
X104387Y-42261D01*
X104342Y-42238D01*
X104302Y-42220D01*
X104265Y-42201D01*
X104235Y-42179D01*
X104206Y-42161D01*
X104183Y-42146D01*
X104165Y-42131D01*
X104150Y-42120D01*
X104139Y-42109D01*
X104135Y-42105D01*
X104131Y-42101D01*
X104102Y-42064D01*
X104072Y-42027D01*
X104028Y-41950D01*
X103998Y-41872D01*
X103976Y-41798D01*
X103961Y-41735D01*
X103958Y-41709D01*
Y-41683D01*
X103954Y-41665D01*
Y-41650D01*
Y-41643D01*
Y-41639D01*
X103958Y-41561D01*
X103969Y-41491D01*
X103987Y-41424D01*
X104006Y-41369D01*
X104028Y-41321D01*
X104043Y-41284D01*
X104058Y-41262D01*
X104061Y-41258D01*
Y-41254D01*
X104106Y-41195D01*
X104150Y-41143D01*
X104198Y-41099D01*
X104243Y-41065D01*
X104283Y-41039D01*
X104316Y-41025D01*
X104339Y-41014D01*
X104342Y-41010D01*
X104346D01*
X104379Y-40999D01*
X104420Y-40988D01*
X104501Y-40969D01*
X104590Y-40958D01*
X104672Y-40947D01*
X104749Y-40943D01*
X104783D01*
X104812Y-40940D01*
X106000D01*
Y-43500D01*
D02*
G37*
G36*
X103916Y-76403D02*
X104034Y-76421D01*
X104138Y-76443D01*
X104186Y-76458D01*
X104230Y-76473D01*
X104271Y-76488D01*
X104308Y-76503D01*
X104338Y-76514D01*
X104367Y-76525D01*
X104386Y-76536D01*
X104401Y-76543D01*
X104412Y-76547D01*
X104415Y-76551D01*
X104515Y-76613D01*
X104600Y-76688D01*
X104674Y-76762D01*
X104737Y-76836D01*
X104785Y-76902D01*
X104804Y-76932D01*
X104819Y-76958D01*
X104833Y-76976D01*
X104841Y-76991D01*
X104845Y-77002D01*
X104848Y-77006D01*
X104900Y-77120D01*
X104937Y-77239D01*
X104963Y-77357D01*
X104982Y-77464D01*
X104989Y-77513D01*
X104993Y-77561D01*
X104996Y-77598D01*
Y-77635D01*
X105000Y-77661D01*
Y-77683D01*
Y-77698D01*
Y-77701D01*
X104993Y-77834D01*
X104978Y-77964D01*
X104959Y-78079D01*
X104945Y-78134D01*
X104933Y-78182D01*
X104922Y-78227D01*
X104908Y-78267D01*
X104896Y-78304D01*
X104889Y-78334D01*
X104878Y-78356D01*
X104874Y-78375D01*
X104867Y-78386D01*
Y-78390D01*
X104811Y-78500D01*
X104748Y-78600D01*
X104682Y-78685D01*
X104648Y-78719D01*
X104619Y-78752D01*
X104589Y-78782D01*
X104560Y-78808D01*
X104534Y-78830D01*
X104512Y-78845D01*
X104497Y-78859D01*
X104482Y-78870D01*
X104475Y-78874D01*
X104471Y-78878D01*
X104419Y-78908D01*
X104367Y-78933D01*
X104256Y-78974D01*
X104145Y-79004D01*
X104038Y-79022D01*
X103986Y-79030D01*
X103942Y-79037D01*
X103901Y-79041D01*
X103868D01*
X103838Y-79044D01*
X103797D01*
X103724Y-79041D01*
X103653Y-79033D01*
X103587Y-79026D01*
X103524Y-79011D01*
X103464Y-78993D01*
X103409Y-78974D01*
X103357Y-78956D01*
X103309Y-78933D01*
X103268Y-78915D01*
X103228Y-78896D01*
X103198Y-78878D01*
X103168Y-78859D01*
X103150Y-78845D01*
X103131Y-78837D01*
X103124Y-78830D01*
X103120Y-78826D01*
X103069Y-78782D01*
X103024Y-78737D01*
X102983Y-78685D01*
X102943Y-78634D01*
X102876Y-78530D01*
X102824Y-78426D01*
X102802Y-78378D01*
X102784Y-78334D01*
X102769Y-78293D01*
X102758Y-78260D01*
X102747Y-78230D01*
X102739Y-78208D01*
X102736Y-78193D01*
Y-78190D01*
X103076Y-78105D01*
X103091Y-78164D01*
X103109Y-78219D01*
X103128Y-78271D01*
X103146Y-78319D01*
X103168Y-78364D01*
X103191Y-78401D01*
X103217Y-78438D01*
X103239Y-78471D01*
X103257Y-78500D01*
X103279Y-78523D01*
X103298Y-78545D01*
X103313Y-78563D01*
X103328Y-78575D01*
X103339Y-78586D01*
X103342Y-78589D01*
X103346Y-78593D01*
X103383Y-78623D01*
X103424Y-78645D01*
X103505Y-78685D01*
X103583Y-78715D01*
X103661Y-78734D01*
X103727Y-78748D01*
X103753Y-78752D01*
X103779D01*
X103801Y-78756D01*
X103827D01*
X103912Y-78752D01*
X103994Y-78737D01*
X104068Y-78719D01*
X104134Y-78697D01*
X104186Y-78674D01*
X104208Y-78663D01*
X104227Y-78656D01*
X104242Y-78649D01*
X104253Y-78641D01*
X104260Y-78637D01*
X104264D01*
X104334Y-78586D01*
X104393Y-78530D01*
X104445Y-78467D01*
X104486Y-78408D01*
X104519Y-78356D01*
X104541Y-78312D01*
X104549Y-78293D01*
X104556Y-78282D01*
X104560Y-78275D01*
Y-78271D01*
X104589Y-78175D01*
X104612Y-78079D01*
X104630Y-77982D01*
X104641Y-77894D01*
X104645Y-77853D01*
X104648Y-77816D01*
Y-77783D01*
X104652Y-77757D01*
Y-77735D01*
Y-77716D01*
Y-77705D01*
Y-77701D01*
X104648Y-77605D01*
X104641Y-77516D01*
X104626Y-77435D01*
X104612Y-77361D01*
X104600Y-77298D01*
X104593Y-77272D01*
X104586Y-77250D01*
X104582Y-77231D01*
X104578Y-77220D01*
X104575Y-77213D01*
Y-77209D01*
X104537Y-77124D01*
X104497Y-77046D01*
X104452Y-76983D01*
X104404Y-76928D01*
X104364Y-76884D01*
X104330Y-76854D01*
X104304Y-76836D01*
X104301Y-76828D01*
X104297D01*
X104219Y-76780D01*
X104134Y-76743D01*
X104053Y-76717D01*
X103975Y-76702D01*
X103905Y-76691D01*
X103875Y-76688D01*
X103849D01*
X103831Y-76684D01*
X103801D01*
X103709Y-76688D01*
X103624Y-76702D01*
X103553Y-76724D01*
X103490Y-76747D01*
X103442Y-76773D01*
X103405Y-76791D01*
X103383Y-76806D01*
X103376Y-76813D01*
X103316Y-76869D01*
X103261Y-76932D01*
X103217Y-76998D01*
X103180Y-77065D01*
X103150Y-77124D01*
X103139Y-77154D01*
X103131Y-77176D01*
X103124Y-77194D01*
X103117Y-77209D01*
X103113Y-77217D01*
Y-77220D01*
X102780Y-77143D01*
X102802Y-77076D01*
X102824Y-77017D01*
X102854Y-76961D01*
X102880Y-76906D01*
X102910Y-76858D01*
X102943Y-76813D01*
X102972Y-76769D01*
X103002Y-76732D01*
X103032Y-76702D01*
X103058Y-76673D01*
X103083Y-76647D01*
X103102Y-76628D01*
X103120Y-76610D01*
X103135Y-76599D01*
X103143Y-76595D01*
X103146Y-76591D01*
X103198Y-76558D01*
X103250Y-76525D01*
X103302Y-76499D01*
X103357Y-76477D01*
X103468Y-76443D01*
X103568Y-76421D01*
X103616Y-76410D01*
X103657Y-76406D01*
X103698Y-76403D01*
X103731Y-76399D01*
X103757Y-76395D01*
X103794D01*
X103916Y-76403D01*
D02*
G37*
G36*
X102269Y-79000D02*
X101910D01*
Y-78641D01*
X102269D01*
Y-79000D01*
D02*
G37*
G36*
X101429Y-76776D02*
X100175D01*
X100264Y-76884D01*
X100349Y-76998D01*
X100423Y-77109D01*
X100493Y-77217D01*
X100523Y-77265D01*
X100549Y-77309D01*
X100575Y-77350D01*
X100593Y-77383D01*
X100608Y-77413D01*
X100619Y-77431D01*
X100627Y-77446D01*
X100630Y-77450D01*
X100704Y-77598D01*
X100771Y-77746D01*
X100826Y-77886D01*
X100849Y-77949D01*
X100871Y-78012D01*
X100893Y-78068D01*
X100908Y-78119D01*
X100923Y-78164D01*
X100934Y-78201D01*
X100945Y-78234D01*
X100952Y-78256D01*
X100956Y-78271D01*
Y-78275D01*
X100993Y-78426D01*
X101008Y-78500D01*
X101019Y-78567D01*
X101030Y-78630D01*
X101041Y-78693D01*
X101048Y-78745D01*
X101056Y-78796D01*
X101059Y-78841D01*
X101063Y-78882D01*
X101067Y-78919D01*
Y-78948D01*
X101071Y-78970D01*
Y-78985D01*
Y-78996D01*
Y-79000D01*
X100749D01*
X100738Y-78859D01*
X100719Y-78730D01*
X100701Y-78611D01*
X100689Y-78556D01*
X100678Y-78504D01*
X100671Y-78460D01*
X100660Y-78419D01*
X100653Y-78382D01*
X100645Y-78352D01*
X100638Y-78330D01*
X100634Y-78312D01*
X100630Y-78301D01*
Y-78297D01*
X100575Y-78127D01*
X100516Y-77968D01*
X100486Y-77890D01*
X100456Y-77816D01*
X100423Y-77749D01*
X100393Y-77683D01*
X100368Y-77624D01*
X100342Y-77572D01*
X100320Y-77527D01*
X100301Y-77487D01*
X100283Y-77453D01*
X100271Y-77431D01*
X100264Y-77416D01*
X100260Y-77413D01*
X100216Y-77335D01*
X100171Y-77257D01*
X100127Y-77187D01*
X100083Y-77120D01*
X100042Y-77061D01*
X100001Y-77002D01*
X99961Y-76950D01*
X99927Y-76906D01*
X99894Y-76861D01*
X99864Y-76824D01*
X99835Y-76795D01*
X99813Y-76769D01*
X99798Y-76747D01*
X99783Y-76732D01*
X99776Y-76724D01*
X99772Y-76721D01*
Y-76473D01*
X101429D01*
Y-76776D01*
D02*
G37*
G36*
X100835Y-87507D02*
X100964Y-87522D01*
X101079Y-87541D01*
X101134Y-87555D01*
X101182Y-87567D01*
X101227Y-87578D01*
X101267Y-87593D01*
X101304Y-87604D01*
X101334Y-87611D01*
X101356Y-87622D01*
X101375Y-87626D01*
X101386Y-87633D01*
X101390D01*
X101500Y-87689D01*
X101600Y-87752D01*
X101686Y-87818D01*
X101719Y-87852D01*
X101752Y-87881D01*
X101782Y-87911D01*
X101808Y-87940D01*
X101830Y-87966D01*
X101845Y-87988D01*
X101859Y-88003D01*
X101871Y-88018D01*
X101874Y-88025D01*
X101878Y-88029D01*
X101908Y-88081D01*
X101933Y-88133D01*
X101974Y-88244D01*
X102004Y-88355D01*
X102022Y-88462D01*
X102030Y-88514D01*
X102037Y-88558D01*
X102041Y-88599D01*
Y-88632D01*
X102044Y-88662D01*
Y-88702D01*
X102041Y-88776D01*
X102033Y-88847D01*
X102026Y-88913D01*
X102011Y-88976D01*
X101993Y-89035D01*
X101974Y-89091D01*
X101956Y-89143D01*
X101933Y-89191D01*
X101915Y-89232D01*
X101896Y-89272D01*
X101878Y-89302D01*
X101859Y-89332D01*
X101845Y-89350D01*
X101837Y-89368D01*
X101830Y-89376D01*
X101826Y-89380D01*
X101782Y-89431D01*
X101737Y-89476D01*
X101686Y-89517D01*
X101634Y-89557D01*
X101530Y-89624D01*
X101426Y-89676D01*
X101378Y-89698D01*
X101334Y-89716D01*
X101293Y-89731D01*
X101260Y-89742D01*
X101230Y-89753D01*
X101208Y-89761D01*
X101193Y-89764D01*
X101190D01*
X101105Y-89424D01*
X101164Y-89409D01*
X101219Y-89391D01*
X101271Y-89372D01*
X101319Y-89354D01*
X101364Y-89332D01*
X101401Y-89309D01*
X101438Y-89283D01*
X101471Y-89261D01*
X101500Y-89243D01*
X101523Y-89220D01*
X101545Y-89202D01*
X101563Y-89187D01*
X101575Y-89172D01*
X101586Y-89161D01*
X101589Y-89158D01*
X101593Y-89154D01*
X101623Y-89117D01*
X101645Y-89076D01*
X101686Y-88995D01*
X101715Y-88917D01*
X101734Y-88839D01*
X101748Y-88773D01*
X101752Y-88747D01*
Y-88721D01*
X101756Y-88699D01*
Y-88673D01*
X101752Y-88588D01*
X101737Y-88506D01*
X101719Y-88432D01*
X101697Y-88366D01*
X101674Y-88314D01*
X101663Y-88292D01*
X101656Y-88273D01*
X101648Y-88258D01*
X101641Y-88247D01*
X101637Y-88240D01*
Y-88236D01*
X101586Y-88166D01*
X101530Y-88107D01*
X101467Y-88055D01*
X101408Y-88014D01*
X101356Y-87981D01*
X101312Y-87959D01*
X101293Y-87951D01*
X101282Y-87944D01*
X101275Y-87940D01*
X101271D01*
X101175Y-87911D01*
X101079Y-87888D01*
X100982Y-87870D01*
X100894Y-87859D01*
X100853Y-87855D01*
X100816Y-87852D01*
X100783D01*
X100757Y-87848D01*
X100735D01*
X100716D01*
X100705D01*
X100701D01*
X100605Y-87852D01*
X100516Y-87859D01*
X100435Y-87874D01*
X100361Y-87888D01*
X100298Y-87900D01*
X100272Y-87907D01*
X100250Y-87914D01*
X100231Y-87918D01*
X100220Y-87922D01*
X100213Y-87925D01*
X100209D01*
X100124Y-87963D01*
X100046Y-88003D01*
X99984Y-88048D01*
X99928Y-88096D01*
X99884Y-88136D01*
X99854Y-88170D01*
X99835Y-88196D01*
X99828Y-88199D01*
Y-88203D01*
X99780Y-88281D01*
X99743Y-88366D01*
X99717Y-88447D01*
X99702Y-88525D01*
X99691Y-88595D01*
X99687Y-88625D01*
Y-88651D01*
X99684Y-88669D01*
Y-88699D01*
X99687Y-88791D01*
X99702Y-88876D01*
X99725Y-88947D01*
X99747Y-89010D01*
X99773Y-89058D01*
X99791Y-89095D01*
X99806Y-89117D01*
X99813Y-89124D01*
X99869Y-89183D01*
X99932Y-89239D01*
X99998Y-89283D01*
X100065Y-89320D01*
X100124Y-89350D01*
X100154Y-89361D01*
X100176Y-89368D01*
X100194Y-89376D01*
X100209Y-89383D01*
X100217Y-89387D01*
X100220D01*
X100143Y-89720D01*
X100076Y-89698D01*
X100017Y-89676D01*
X99961Y-89646D01*
X99906Y-89620D01*
X99858Y-89591D01*
X99813Y-89557D01*
X99769Y-89528D01*
X99732Y-89498D01*
X99702Y-89468D01*
X99673Y-89442D01*
X99647Y-89417D01*
X99628Y-89398D01*
X99610Y-89380D01*
X99599Y-89365D01*
X99595Y-89357D01*
X99591Y-89354D01*
X99558Y-89302D01*
X99525Y-89250D01*
X99499Y-89198D01*
X99477Y-89143D01*
X99443Y-89032D01*
X99421Y-88932D01*
X99410Y-88884D01*
X99406Y-88843D01*
X99403Y-88802D01*
X99399Y-88769D01*
X99395Y-88743D01*
Y-88706D01*
X99403Y-88584D01*
X99421Y-88466D01*
X99443Y-88362D01*
X99458Y-88314D01*
X99473Y-88270D01*
X99488Y-88229D01*
X99502Y-88192D01*
X99514Y-88162D01*
X99525Y-88133D01*
X99536Y-88114D01*
X99543Y-88099D01*
X99547Y-88088D01*
X99551Y-88085D01*
X99613Y-87985D01*
X99687Y-87900D01*
X99761Y-87826D01*
X99835Y-87763D01*
X99902Y-87715D01*
X99932Y-87696D01*
X99958Y-87681D01*
X99976Y-87666D01*
X99991Y-87659D01*
X100002Y-87655D01*
X100006Y-87652D01*
X100120Y-87600D01*
X100239Y-87563D01*
X100357Y-87537D01*
X100464Y-87519D01*
X100513Y-87511D01*
X100561Y-87507D01*
X100598Y-87504D01*
X100635D01*
X100661Y-87500D01*
X100683D01*
X100698D01*
X100701D01*
X100835Y-87507D01*
D02*
G37*
G36*
X102000Y-90589D02*
X101641D01*
Y-90231D01*
X102000D01*
Y-90589D01*
D02*
G37*
G36*
Y-92702D02*
X101697D01*
Y-91440D01*
X101634Y-91485D01*
X101608Y-91507D01*
X101582Y-91526D01*
X101560Y-91544D01*
X101545Y-91559D01*
X101534Y-91570D01*
X101530Y-91574D01*
X101512Y-91592D01*
X101493Y-91614D01*
X101445Y-91666D01*
X101390Y-91725D01*
X101334Y-91788D01*
X101286Y-91847D01*
X101264Y-91873D01*
X101242Y-91896D01*
X101227Y-91914D01*
X101216Y-91929D01*
X101208Y-91936D01*
X101205Y-91940D01*
X101153Y-91999D01*
X101105Y-92058D01*
X101057Y-92110D01*
X101016Y-92158D01*
X100975Y-92203D01*
X100938Y-92240D01*
X100905Y-92277D01*
X100875Y-92306D01*
X100846Y-92336D01*
X100823Y-92358D01*
X100805Y-92377D01*
X100786Y-92395D01*
X100764Y-92414D01*
X100757Y-92421D01*
X100694Y-92473D01*
X100638Y-92517D01*
X100583Y-92554D01*
X100539Y-92584D01*
X100498Y-92606D01*
X100468Y-92621D01*
X100450Y-92628D01*
X100442Y-92632D01*
X100387Y-92654D01*
X100331Y-92669D01*
X100279Y-92684D01*
X100235Y-92691D01*
X100194Y-92695D01*
X100165Y-92699D01*
X100146D01*
X100139D01*
X100083Y-92695D01*
X100032Y-92687D01*
X99980Y-92680D01*
X99935Y-92665D01*
X99847Y-92628D01*
X99776Y-92591D01*
X99743Y-92569D01*
X99717Y-92550D01*
X99691Y-92532D01*
X99673Y-92514D01*
X99658Y-92499D01*
X99643Y-92491D01*
X99639Y-92484D01*
X99636Y-92480D01*
X99599Y-92440D01*
X99565Y-92395D01*
X99540Y-92347D01*
X99517Y-92299D01*
X99480Y-92203D01*
X99454Y-92106D01*
X99447Y-92066D01*
X99440Y-92025D01*
X99436Y-91988D01*
X99432Y-91958D01*
X99428Y-91933D01*
Y-91896D01*
X99432Y-91829D01*
X99436Y-91766D01*
X99447Y-91707D01*
X99458Y-91651D01*
X99473Y-91600D01*
X99488Y-91552D01*
X99506Y-91507D01*
X99525Y-91466D01*
X99543Y-91429D01*
X99562Y-91400D01*
X99576Y-91374D01*
X99591Y-91352D01*
X99602Y-91333D01*
X99613Y-91322D01*
X99617Y-91315D01*
X99621Y-91311D01*
X99658Y-91274D01*
X99699Y-91241D01*
X99743Y-91207D01*
X99787Y-91181D01*
X99876Y-91137D01*
X99965Y-91107D01*
X100006Y-91096D01*
X100046Y-91085D01*
X100080Y-91078D01*
X100109Y-91070D01*
X100135Y-91067D01*
X100154D01*
X100165Y-91063D01*
X100169D01*
X100202Y-91385D01*
X100117Y-91392D01*
X100043Y-91407D01*
X99976Y-91429D01*
X99924Y-91455D01*
X99880Y-91478D01*
X99850Y-91500D01*
X99832Y-91514D01*
X99824Y-91522D01*
X99780Y-91577D01*
X99747Y-91637D01*
X99721Y-91699D01*
X99706Y-91755D01*
X99695Y-91807D01*
X99691Y-91851D01*
X99687Y-91866D01*
Y-91888D01*
X99691Y-91966D01*
X99706Y-92036D01*
X99728Y-92095D01*
X99750Y-92147D01*
X99776Y-92188D01*
X99795Y-92214D01*
X99810Y-92232D01*
X99817Y-92240D01*
X99869Y-92284D01*
X99921Y-92317D01*
X99972Y-92343D01*
X100024Y-92358D01*
X100065Y-92369D01*
X100102Y-92373D01*
X100124Y-92377D01*
X100128D01*
X100131D01*
X100198Y-92369D01*
X100268Y-92354D01*
X100331Y-92329D01*
X100391Y-92303D01*
X100439Y-92273D01*
X100479Y-92247D01*
X100494Y-92240D01*
X100505Y-92232D01*
X100509Y-92225D01*
X100513D01*
X100553Y-92195D01*
X100594Y-92158D01*
X100638Y-92118D01*
X100683Y-92073D01*
X100772Y-91981D01*
X100860Y-91888D01*
X100901Y-91840D01*
X100938Y-91799D01*
X100971Y-91759D01*
X101001Y-91725D01*
X101023Y-91699D01*
X101042Y-91677D01*
X101053Y-91663D01*
X101057Y-91659D01*
X101134Y-91566D01*
X101208Y-91481D01*
X101275Y-91411D01*
X101330Y-91355D01*
X101378Y-91307D01*
X101412Y-91274D01*
X101434Y-91255D01*
X101438Y-91248D01*
X101441D01*
X101504Y-91196D01*
X101563Y-91156D01*
X101623Y-91119D01*
X101674Y-91089D01*
X101719Y-91067D01*
X101752Y-91052D01*
X101774Y-91045D01*
X101778Y-91041D01*
X101782D01*
X101822Y-91026D01*
X101859Y-91019D01*
X101896Y-91011D01*
X101930Y-91008D01*
X101959Y-91004D01*
X101981D01*
X101996D01*
X102000D01*
Y-92702D01*
D02*
G37*
G36*
X116008Y-98991D02*
X116049Y-99051D01*
X116097Y-99110D01*
X116141Y-99162D01*
X116186Y-99206D01*
X116219Y-99243D01*
X116234Y-99254D01*
X116245Y-99265D01*
X116249Y-99269D01*
X116252Y-99273D01*
X116330Y-99335D01*
X116408Y-99395D01*
X116482Y-99446D01*
X116556Y-99487D01*
X116619Y-99524D01*
X116645Y-99539D01*
X116667Y-99550D01*
X116685Y-99561D01*
X116700Y-99565D01*
X116708Y-99572D01*
X116711D01*
Y-99876D01*
X116656Y-99853D01*
X116600Y-99828D01*
X116545Y-99802D01*
X116493Y-99776D01*
X116448Y-99754D01*
X116411Y-99735D01*
X116389Y-99720D01*
X116386Y-99717D01*
X116382D01*
X116315Y-99676D01*
X116256Y-99635D01*
X116204Y-99598D01*
X116164Y-99565D01*
X116127Y-99539D01*
X116104Y-99517D01*
X116086Y-99502D01*
X116082Y-99498D01*
Y-101500D01*
X115768D01*
Y-98928D01*
X115971D01*
X116008Y-98991D01*
D02*
G37*
G36*
X119416Y-98903D02*
X119534Y-98921D01*
X119638Y-98943D01*
X119686Y-98958D01*
X119730Y-98973D01*
X119771Y-98988D01*
X119808Y-99002D01*
X119838Y-99014D01*
X119867Y-99025D01*
X119886Y-99036D01*
X119901Y-99043D01*
X119912Y-99047D01*
X119915Y-99051D01*
X120015Y-99114D01*
X120100Y-99187D01*
X120174Y-99261D01*
X120237Y-99335D01*
X120285Y-99402D01*
X120304Y-99432D01*
X120319Y-99458D01*
X120334Y-99476D01*
X120341Y-99491D01*
X120345Y-99502D01*
X120348Y-99506D01*
X120400Y-99620D01*
X120437Y-99739D01*
X120463Y-99857D01*
X120482Y-99964D01*
X120489Y-100013D01*
X120493Y-100061D01*
X120496Y-100098D01*
Y-100135D01*
X120500Y-100161D01*
Y-100183D01*
Y-100198D01*
Y-100201D01*
X120493Y-100335D01*
X120478Y-100464D01*
X120459Y-100579D01*
X120445Y-100634D01*
X120433Y-100682D01*
X120422Y-100727D01*
X120407Y-100767D01*
X120396Y-100804D01*
X120389Y-100834D01*
X120378Y-100856D01*
X120374Y-100875D01*
X120367Y-100886D01*
Y-100890D01*
X120311Y-101000D01*
X120248Y-101100D01*
X120182Y-101186D01*
X120149Y-101219D01*
X120119Y-101252D01*
X120089Y-101282D01*
X120060Y-101308D01*
X120034Y-101330D01*
X120012Y-101345D01*
X119997Y-101359D01*
X119982Y-101371D01*
X119975Y-101374D01*
X119971Y-101378D01*
X119919Y-101408D01*
X119867Y-101433D01*
X119756Y-101474D01*
X119645Y-101504D01*
X119538Y-101522D01*
X119486Y-101530D01*
X119442Y-101537D01*
X119401Y-101541D01*
X119368D01*
X119338Y-101544D01*
X119298D01*
X119223Y-101541D01*
X119153Y-101533D01*
X119087Y-101526D01*
X119024Y-101511D01*
X118965Y-101493D01*
X118909Y-101474D01*
X118857Y-101456D01*
X118809Y-101433D01*
X118768Y-101415D01*
X118728Y-101396D01*
X118698Y-101378D01*
X118668Y-101359D01*
X118650Y-101345D01*
X118631Y-101337D01*
X118624Y-101330D01*
X118620Y-101326D01*
X118569Y-101282D01*
X118524Y-101237D01*
X118483Y-101186D01*
X118443Y-101134D01*
X118376Y-101030D01*
X118324Y-100926D01*
X118302Y-100878D01*
X118284Y-100834D01*
X118269Y-100793D01*
X118258Y-100760D01*
X118247Y-100730D01*
X118239Y-100708D01*
X118236Y-100693D01*
Y-100690D01*
X118576Y-100605D01*
X118591Y-100664D01*
X118609Y-100719D01*
X118628Y-100771D01*
X118646Y-100819D01*
X118668Y-100864D01*
X118691Y-100901D01*
X118717Y-100938D01*
X118739Y-100971D01*
X118757Y-101000D01*
X118780Y-101023D01*
X118798Y-101045D01*
X118813Y-101063D01*
X118828Y-101075D01*
X118839Y-101086D01*
X118842Y-101089D01*
X118846Y-101093D01*
X118883Y-101123D01*
X118924Y-101145D01*
X119005Y-101186D01*
X119083Y-101215D01*
X119161Y-101234D01*
X119227Y-101248D01*
X119253Y-101252D01*
X119279D01*
X119301Y-101256D01*
X119327D01*
X119412Y-101252D01*
X119494Y-101237D01*
X119568Y-101219D01*
X119634Y-101197D01*
X119686Y-101174D01*
X119708Y-101163D01*
X119727Y-101156D01*
X119741Y-101148D01*
X119753Y-101141D01*
X119760Y-101137D01*
X119764D01*
X119834Y-101086D01*
X119893Y-101030D01*
X119945Y-100967D01*
X119986Y-100908D01*
X120019Y-100856D01*
X120041Y-100812D01*
X120049Y-100793D01*
X120056Y-100782D01*
X120060Y-100775D01*
Y-100771D01*
X120089Y-100675D01*
X120112Y-100579D01*
X120130Y-100482D01*
X120141Y-100394D01*
X120145Y-100353D01*
X120149Y-100316D01*
Y-100283D01*
X120152Y-100257D01*
Y-100235D01*
Y-100216D01*
Y-100205D01*
Y-100201D01*
X120149Y-100105D01*
X120141Y-100016D01*
X120126Y-99935D01*
X120112Y-99861D01*
X120100Y-99798D01*
X120093Y-99772D01*
X120086Y-99750D01*
X120082Y-99731D01*
X120078Y-99720D01*
X120074Y-99713D01*
Y-99709D01*
X120037Y-99624D01*
X119997Y-99546D01*
X119952Y-99484D01*
X119904Y-99428D01*
X119864Y-99384D01*
X119830Y-99354D01*
X119804Y-99335D01*
X119801Y-99328D01*
X119797D01*
X119719Y-99280D01*
X119634Y-99243D01*
X119553Y-99217D01*
X119475Y-99202D01*
X119405Y-99191D01*
X119375Y-99187D01*
X119349D01*
X119331Y-99184D01*
X119301D01*
X119209Y-99187D01*
X119124Y-99202D01*
X119053Y-99225D01*
X118990Y-99247D01*
X118942Y-99273D01*
X118905Y-99291D01*
X118883Y-99306D01*
X118876Y-99313D01*
X118816Y-99369D01*
X118761Y-99432D01*
X118717Y-99498D01*
X118680Y-99565D01*
X118650Y-99624D01*
X118639Y-99654D01*
X118631Y-99676D01*
X118624Y-99694D01*
X118617Y-99709D01*
X118613Y-99717D01*
Y-99720D01*
X118280Y-99643D01*
X118302Y-99576D01*
X118324Y-99517D01*
X118354Y-99461D01*
X118380Y-99406D01*
X118410Y-99358D01*
X118443Y-99313D01*
X118472Y-99269D01*
X118502Y-99232D01*
X118532Y-99202D01*
X118558Y-99173D01*
X118583Y-99147D01*
X118602Y-99128D01*
X118620Y-99110D01*
X118635Y-99099D01*
X118643Y-99095D01*
X118646Y-99091D01*
X118698Y-99058D01*
X118750Y-99025D01*
X118802Y-98999D01*
X118857Y-98977D01*
X118968Y-98943D01*
X119068Y-98921D01*
X119116Y-98910D01*
X119157Y-98906D01*
X119198Y-98903D01*
X119231Y-98899D01*
X119257Y-98895D01*
X119294D01*
X119416Y-98903D01*
D02*
G37*
G36*
X117769Y-101500D02*
X117411D01*
Y-101141D01*
X117769D01*
Y-101500D01*
D02*
G37*
G36*
X55607Y-119491D02*
X55648Y-119551D01*
X55696Y-119610D01*
X55740Y-119662D01*
X55785Y-119706D01*
X55818Y-119743D01*
X55833Y-119754D01*
X55844Y-119765D01*
X55848Y-119769D01*
X55851Y-119773D01*
X55929Y-119835D01*
X56007Y-119895D01*
X56081Y-119947D01*
X56155Y-119987D01*
X56218Y-120024D01*
X56243Y-120039D01*
X56266Y-120050D01*
X56284Y-120061D01*
X56299Y-120065D01*
X56306Y-120072D01*
X56310D01*
Y-120376D01*
X56255Y-120353D01*
X56199Y-120328D01*
X56144Y-120302D01*
X56092Y-120276D01*
X56047Y-120254D01*
X56010Y-120235D01*
X55988Y-120220D01*
X55984Y-120217D01*
X55981D01*
X55914Y-120176D01*
X55855Y-120135D01*
X55803Y-120098D01*
X55762Y-120065D01*
X55726Y-120039D01*
X55703Y-120017D01*
X55685Y-120002D01*
X55681Y-119998D01*
Y-122000D01*
X55367D01*
Y-119429D01*
X55570D01*
X55607Y-119491D01*
D02*
G37*
G36*
X59000Y-120920D02*
Y-120994D01*
X58996Y-121064D01*
X58993Y-121131D01*
X58985Y-121193D01*
X58978Y-121249D01*
X58970Y-121301D01*
X58959Y-121349D01*
X58952Y-121393D01*
X58944Y-121434D01*
X58933Y-121467D01*
X58926Y-121497D01*
X58919Y-121519D01*
X58911Y-121537D01*
X58908Y-121552D01*
X58904Y-121560D01*
Y-121563D01*
X58863Y-121645D01*
X58811Y-121719D01*
X58759Y-121778D01*
X58704Y-121830D01*
X58656Y-121871D01*
X58615Y-121900D01*
X58600Y-121907D01*
X58589Y-121915D01*
X58582Y-121922D01*
X58578D01*
X58486Y-121963D01*
X58390Y-121993D01*
X58290Y-122015D01*
X58197Y-122030D01*
X58156Y-122033D01*
X58116Y-122037D01*
X58079Y-122041D01*
X58049D01*
X58023Y-122044D01*
X57990D01*
X57857Y-122037D01*
X57797Y-122030D01*
X57742Y-122022D01*
X57687Y-122011D01*
X57638Y-122000D01*
X57594Y-121989D01*
X57553Y-121974D01*
X57516Y-121959D01*
X57487Y-121948D01*
X57457Y-121937D01*
X57435Y-121926D01*
X57416Y-121915D01*
X57405Y-121911D01*
X57398Y-121904D01*
X57394D01*
X57313Y-121848D01*
X57246Y-121785D01*
X57194Y-121726D01*
X57150Y-121667D01*
X57117Y-121615D01*
X57095Y-121574D01*
X57087Y-121560D01*
X57080Y-121549D01*
X57076Y-121541D01*
Y-121537D01*
X57061Y-121493D01*
X57046Y-121445D01*
X57024Y-121345D01*
X57009Y-121241D01*
X56998Y-121142D01*
X56995Y-121097D01*
X56991Y-121053D01*
Y-121016D01*
X56987Y-120983D01*
Y-120957D01*
Y-120938D01*
Y-120923D01*
Y-120920D01*
Y-119440D01*
X57328D01*
Y-120920D01*
Y-121005D01*
X57335Y-121086D01*
X57342Y-121156D01*
X57354Y-121223D01*
X57365Y-121282D01*
X57379Y-121338D01*
X57390Y-121386D01*
X57405Y-121426D01*
X57420Y-121460D01*
X57435Y-121493D01*
X57450Y-121515D01*
X57461Y-121537D01*
X57472Y-121552D01*
X57479Y-121563D01*
X57483Y-121567D01*
X57487Y-121571D01*
X57520Y-121600D01*
X57557Y-121626D01*
X57638Y-121667D01*
X57723Y-121697D01*
X57812Y-121715D01*
X57894Y-121730D01*
X57927Y-121734D01*
X57960D01*
X57982Y-121737D01*
X58020D01*
X58097Y-121734D01*
X58167Y-121722D01*
X58234Y-121711D01*
X58286Y-121693D01*
X58330Y-121678D01*
X58364Y-121667D01*
X58382Y-121656D01*
X58390Y-121652D01*
X58441Y-121619D01*
X58486Y-121578D01*
X58523Y-121537D01*
X58549Y-121501D01*
X58571Y-121464D01*
X58589Y-121438D01*
X58597Y-121419D01*
X58600Y-121412D01*
X58612Y-121378D01*
X58619Y-121345D01*
X58634Y-121267D01*
X58645Y-121186D01*
X58652Y-121105D01*
X58656Y-121034D01*
Y-121001D01*
X58660Y-120975D01*
Y-120953D01*
Y-120934D01*
Y-120923D01*
Y-120920D01*
Y-119440D01*
X59000D01*
Y-120920D01*
D02*
G37*
G36*
X88607Y-127491D02*
X88648Y-127551D01*
X88696Y-127610D01*
X88740Y-127662D01*
X88785Y-127706D01*
X88818Y-127743D01*
X88833Y-127754D01*
X88844Y-127765D01*
X88848Y-127769D01*
X88851Y-127773D01*
X88929Y-127836D01*
X89007Y-127895D01*
X89081Y-127946D01*
X89155Y-127987D01*
X89218Y-128024D01*
X89244Y-128039D01*
X89266Y-128050D01*
X89284Y-128061D01*
X89299Y-128065D01*
X89306Y-128072D01*
X89310D01*
Y-128376D01*
X89255Y-128354D01*
X89199Y-128328D01*
X89144Y-128302D01*
X89092Y-128276D01*
X89047Y-128254D01*
X89010Y-128235D01*
X88988Y-128220D01*
X88985Y-128217D01*
X88981D01*
X88914Y-128176D01*
X88855Y-128135D01*
X88803Y-128098D01*
X88762Y-128065D01*
X88726Y-128039D01*
X88703Y-128017D01*
X88685Y-128002D01*
X88681Y-127998D01*
Y-130000D01*
X88367D01*
Y-127428D01*
X88570D01*
X88607Y-127491D01*
D02*
G37*
G36*
X92000Y-130000D02*
X91660D01*
Y-128864D01*
X91223D01*
X91182Y-128868D01*
X91153D01*
X91127Y-128872D01*
X91108Y-128875D01*
X91093D01*
X91086Y-128879D01*
X91082D01*
X91023Y-128897D01*
X90997Y-128909D01*
X90975Y-128920D01*
X90953Y-128931D01*
X90938Y-128938D01*
X90931Y-128942D01*
X90927Y-128946D01*
X90897Y-128968D01*
X90868Y-128994D01*
X90812Y-129049D01*
X90786Y-129075D01*
X90768Y-129097D01*
X90757Y-129112D01*
X90753Y-129116D01*
X90716Y-129167D01*
X90675Y-129223D01*
X90635Y-129282D01*
X90594Y-129338D01*
X90561Y-129390D01*
X90535Y-129430D01*
X90524Y-129445D01*
X90516Y-129456D01*
X90509Y-129464D01*
Y-129467D01*
X90172Y-130000D01*
X89750D01*
X90191Y-129304D01*
X90242Y-129230D01*
X90291Y-129164D01*
X90339Y-129108D01*
X90379Y-129057D01*
X90416Y-129019D01*
X90446Y-128990D01*
X90465Y-128971D01*
X90472Y-128964D01*
X90501Y-128942D01*
X90535Y-128916D01*
X90601Y-128875D01*
X90631Y-128860D01*
X90653Y-128846D01*
X90668Y-128838D01*
X90675Y-128834D01*
X90609Y-128823D01*
X90546Y-128812D01*
X90490Y-128794D01*
X90435Y-128779D01*
X90387Y-128761D01*
X90342Y-128738D01*
X90302Y-128720D01*
X90265Y-128701D01*
X90235Y-128679D01*
X90206Y-128661D01*
X90183Y-128646D01*
X90165Y-128631D01*
X90150Y-128620D01*
X90139Y-128609D01*
X90135Y-128605D01*
X90131Y-128601D01*
X90102Y-128564D01*
X90072Y-128527D01*
X90028Y-128450D01*
X89998Y-128372D01*
X89976Y-128298D01*
X89961Y-128235D01*
X89958Y-128209D01*
Y-128183D01*
X89954Y-128165D01*
Y-128150D01*
Y-128143D01*
Y-128139D01*
X89958Y-128061D01*
X89969Y-127991D01*
X89987Y-127924D01*
X90006Y-127869D01*
X90028Y-127821D01*
X90043Y-127784D01*
X90057Y-127761D01*
X90061Y-127758D01*
Y-127754D01*
X90106Y-127695D01*
X90150Y-127643D01*
X90198Y-127599D01*
X90242Y-127565D01*
X90283Y-127540D01*
X90316Y-127525D01*
X90339Y-127514D01*
X90342Y-127510D01*
X90346D01*
X90379Y-127499D01*
X90420Y-127488D01*
X90501Y-127469D01*
X90590Y-127458D01*
X90672Y-127447D01*
X90749Y-127443D01*
X90783D01*
X90812Y-127440D01*
X92000D01*
Y-130000D01*
D02*
G37*
G36*
X86824Y-127436D02*
X86916Y-127451D01*
X86994Y-127477D01*
X87060Y-127503D01*
X87116Y-127532D01*
X87138Y-127543D01*
X87157Y-127558D01*
X87172Y-127565D01*
X87183Y-127573D01*
X87186Y-127580D01*
X87190D01*
X87257Y-127639D01*
X87312Y-127710D01*
X87360Y-127780D01*
X87397Y-127847D01*
X87427Y-127910D01*
X87442Y-127935D01*
X87449Y-127961D01*
X87456Y-127980D01*
X87464Y-127995D01*
X87467Y-128002D01*
Y-128006D01*
X87482Y-128061D01*
X87497Y-128117D01*
X87519Y-128239D01*
X87538Y-128361D01*
X87549Y-128476D01*
X87553Y-128531D01*
X87556Y-128579D01*
Y-128624D01*
X87560Y-128664D01*
Y-128694D01*
Y-128720D01*
Y-128735D01*
Y-128738D01*
X87556Y-128868D01*
X87549Y-128990D01*
X87538Y-129101D01*
X87519Y-129204D01*
X87501Y-129301D01*
X87479Y-129386D01*
X87456Y-129464D01*
X87434Y-129530D01*
X87412Y-129589D01*
X87386Y-129641D01*
X87368Y-129685D01*
X87349Y-129719D01*
X87331Y-129748D01*
X87319Y-129767D01*
X87312Y-129778D01*
X87308Y-129782D01*
X87268Y-129826D01*
X87223Y-129867D01*
X87175Y-129904D01*
X87127Y-129933D01*
X87079Y-129959D01*
X87031Y-129982D01*
X86983Y-129996D01*
X86938Y-130011D01*
X86894Y-130022D01*
X86853Y-130030D01*
X86816Y-130037D01*
X86787Y-130041D01*
X86761Y-130044D01*
X86724D01*
X86624Y-130037D01*
X86531Y-130022D01*
X86454Y-129996D01*
X86387Y-129970D01*
X86332Y-129945D01*
X86313Y-129930D01*
X86295Y-129919D01*
X86280Y-129911D01*
X86269Y-129904D01*
X86265Y-129896D01*
X86261D01*
X86195Y-129833D01*
X86139Y-129767D01*
X86091Y-129693D01*
X86054Y-129626D01*
X86024Y-129563D01*
X86010Y-129537D01*
X86002Y-129512D01*
X85995Y-129493D01*
X85988Y-129478D01*
X85984Y-129471D01*
Y-129467D01*
X85965Y-129412D01*
X85950Y-129356D01*
X85928Y-129238D01*
X85910Y-129116D01*
X85899Y-128997D01*
X85895Y-128946D01*
X85891Y-128897D01*
Y-128853D01*
X85888Y-128812D01*
Y-128783D01*
Y-128757D01*
Y-128742D01*
Y-128738D01*
Y-128668D01*
X85891Y-128601D01*
Y-128542D01*
X85895Y-128483D01*
X85902Y-128431D01*
X85906Y-128379D01*
X85910Y-128335D01*
X85917Y-128294D01*
X85921Y-128257D01*
X85928Y-128224D01*
X85932Y-128198D01*
X85936Y-128176D01*
X85939Y-128157D01*
X85943Y-128146D01*
X85947Y-128139D01*
Y-128135D01*
X85969Y-128054D01*
X85995Y-127980D01*
X86024Y-127917D01*
X86047Y-127861D01*
X86073Y-127813D01*
X86087Y-127780D01*
X86102Y-127761D01*
X86106Y-127754D01*
X86147Y-127699D01*
X86187Y-127650D01*
X86232Y-127610D01*
X86272Y-127573D01*
X86309Y-127547D01*
X86339Y-127528D01*
X86357Y-127517D01*
X86361Y-127514D01*
X86365D01*
X86424Y-127484D01*
X86487Y-127465D01*
X86546Y-127451D01*
X86602Y-127440D01*
X86650Y-127432D01*
X86690Y-127428D01*
X86724D01*
X86824Y-127436D01*
D02*
G37*
G36*
X82748Y-157317D02*
X82811Y-157321D01*
X82870Y-157328D01*
X82929Y-157339D01*
X82981Y-157354D01*
X83081Y-157395D01*
X83125Y-157413D01*
X83162Y-157436D01*
X83199Y-157462D01*
X83229Y-157480D01*
X83258Y-157502D01*
X83280Y-157521D01*
X83299Y-157536D01*
X83310Y-157547D01*
X83318Y-157554D01*
X83321Y-157558D01*
X83362Y-157602D01*
X83395Y-157654D01*
X83429Y-157702D01*
X83454Y-157754D01*
X83477Y-157809D01*
X83495Y-157861D01*
X83521Y-157957D01*
X83532Y-158005D01*
X83539Y-158046D01*
X83543Y-158087D01*
X83547Y-158120D01*
X83551Y-158146D01*
Y-158165D01*
Y-158179D01*
Y-158183D01*
X83547Y-158253D01*
X83539Y-158316D01*
X83532Y-158379D01*
X83517Y-158438D01*
X83499Y-158490D01*
X83480Y-158542D01*
X83462Y-158586D01*
X83440Y-158627D01*
X83421Y-158664D01*
X83403Y-158697D01*
X83384Y-158723D01*
X83366Y-158749D01*
X83351Y-158768D01*
X83343Y-158779D01*
X83336Y-158786D01*
X83332Y-158790D01*
X83292Y-158830D01*
X83247Y-158864D01*
X83203Y-158897D01*
X83155Y-158923D01*
X83110Y-158945D01*
X83066Y-158964D01*
X82981Y-158990D01*
X82944Y-159001D01*
X82907Y-159008D01*
X82877Y-159012D01*
X82848Y-159016D01*
X82825Y-159019D01*
X82796D01*
X82726Y-159016D01*
X82659Y-159004D01*
X82600Y-158990D01*
X82544Y-158971D01*
X82503Y-158956D01*
X82470Y-158941D01*
X82448Y-158930D01*
X82441Y-158927D01*
X82381Y-158890D01*
X82330Y-158849D01*
X82285Y-158808D01*
X82248Y-158771D01*
X82222Y-158734D01*
X82200Y-158708D01*
X82185Y-158690D01*
X82182Y-158683D01*
Y-158712D01*
Y-158731D01*
Y-158742D01*
Y-158745D01*
X82185Y-158819D01*
X82189Y-158890D01*
X82196Y-158953D01*
X82204Y-159012D01*
X82215Y-159060D01*
X82222Y-159097D01*
X82226Y-159112D01*
Y-159123D01*
X82230Y-159126D01*
Y-159130D01*
X82248Y-159197D01*
X82267Y-159256D01*
X82285Y-159308D01*
X82304Y-159352D01*
X82319Y-159386D01*
X82333Y-159411D01*
X82341Y-159430D01*
X82344Y-159434D01*
X82374Y-159474D01*
X82404Y-159508D01*
X82433Y-159537D01*
X82463Y-159563D01*
X82485Y-159585D01*
X82507Y-159600D01*
X82522Y-159608D01*
X82526Y-159611D01*
X82566Y-159633D01*
X82611Y-159648D01*
X82652Y-159659D01*
X82692Y-159667D01*
X82726Y-159670D01*
X82751Y-159674D01*
X82777D01*
X82837Y-159670D01*
X82892Y-159659D01*
X82940Y-159644D01*
X82981Y-159626D01*
X83010Y-159611D01*
X83036Y-159596D01*
X83051Y-159585D01*
X83055Y-159582D01*
X83092Y-159541D01*
X83121Y-159493D01*
X83147Y-159441D01*
X83166Y-159389D01*
X83181Y-159345D01*
X83192Y-159304D01*
X83195Y-159289D01*
Y-159282D01*
X83199Y-159274D01*
Y-159271D01*
X83503Y-159297D01*
X83480Y-159404D01*
X83451Y-159496D01*
X83414Y-159578D01*
X83377Y-159644D01*
X83340Y-159696D01*
X83321Y-159719D01*
X83306Y-159737D01*
X83295Y-159748D01*
X83284Y-159759D01*
X83280Y-159763D01*
X83277Y-159767D01*
X83240Y-159796D01*
X83199Y-159822D01*
X83118Y-159863D01*
X83036Y-159892D01*
X82959Y-159911D01*
X82888Y-159926D01*
X82859Y-159929D01*
X82833D01*
X82814Y-159933D01*
X82785D01*
X82681Y-159926D01*
X82589Y-159911D01*
X82503Y-159885D01*
X82433Y-159855D01*
X82404Y-159844D01*
X82374Y-159829D01*
X82352Y-159815D01*
X82330Y-159804D01*
X82315Y-159796D01*
X82304Y-159789D01*
X82296Y-159781D01*
X82293D01*
X82219Y-159719D01*
X82152Y-159648D01*
X82100Y-159574D01*
X82056Y-159504D01*
X82019Y-159441D01*
X82004Y-159411D01*
X81993Y-159389D01*
X81985Y-159367D01*
X81978Y-159352D01*
X81974Y-159345D01*
Y-159341D01*
X81956Y-159286D01*
X81937Y-159223D01*
X81911Y-159097D01*
X81893Y-158964D01*
X81882Y-158838D01*
X81875Y-158782D01*
X81871Y-158727D01*
Y-158679D01*
X81867Y-158638D01*
Y-158605D01*
Y-158579D01*
Y-158560D01*
Y-158557D01*
Y-158472D01*
X81871Y-158390D01*
X81878Y-158316D01*
X81886Y-158246D01*
X81893Y-158183D01*
X81900Y-158124D01*
X81911Y-158068D01*
X81923Y-158020D01*
X81934Y-157980D01*
X81941Y-157942D01*
X81952Y-157909D01*
X81960Y-157883D01*
X81967Y-157865D01*
X81974Y-157850D01*
X81978Y-157843D01*
Y-157839D01*
X82023Y-157750D01*
X82071Y-157672D01*
X82126Y-157606D01*
X82174Y-157550D01*
X82222Y-157510D01*
X82259Y-157480D01*
X82274Y-157469D01*
X82285Y-157462D01*
X82289Y-157454D01*
X82293D01*
X82370Y-157410D01*
X82448Y-157376D01*
X82526Y-157351D01*
X82596Y-157336D01*
X82659Y-157325D01*
X82685Y-157321D01*
X82703D01*
X82722Y-157317D01*
X82748D01*
D02*
G37*
G36*
X86000Y-157328D02*
Y-159889D01*
X85660D01*
Y-158753D01*
X85223D01*
X85182Y-158756D01*
X85153D01*
X85127Y-158760D01*
X85108Y-158764D01*
X85093D01*
X85086Y-158768D01*
X85082D01*
X85023Y-158786D01*
X84997Y-158797D01*
X84975Y-158808D01*
X84953Y-158819D01*
X84938Y-158827D01*
X84931Y-158830D01*
X84927Y-158834D01*
X84897Y-158856D01*
X84868Y-158882D01*
X84812Y-158938D01*
X84786Y-158964D01*
X84768Y-158986D01*
X84757Y-159001D01*
X84753Y-159004D01*
X84716Y-159056D01*
X84675Y-159112D01*
X84635Y-159171D01*
X84594Y-159226D01*
X84561Y-159278D01*
X84535Y-159319D01*
X84524Y-159334D01*
X84516Y-159345D01*
X84509Y-159352D01*
Y-159356D01*
X84172Y-159889D01*
X83750D01*
X84191Y-159193D01*
X84242Y-159119D01*
X84291Y-159053D01*
X84339Y-158997D01*
X84379Y-158945D01*
X84416Y-158908D01*
X84446Y-158879D01*
X84465Y-158860D01*
X84472Y-158853D01*
X84501Y-158830D01*
X84535Y-158805D01*
X84601Y-158764D01*
X84631Y-158749D01*
X84653Y-158734D01*
X84668Y-158727D01*
X84675Y-158723D01*
X84609Y-158712D01*
X84546Y-158701D01*
X84490Y-158683D01*
X84435Y-158668D01*
X84387Y-158649D01*
X84342Y-158627D01*
X84302Y-158608D01*
X84265Y-158590D01*
X84235Y-158568D01*
X84206Y-158549D01*
X84183Y-158535D01*
X84165Y-158520D01*
X84150Y-158509D01*
X84139Y-158498D01*
X84135Y-158494D01*
X84131Y-158490D01*
X84102Y-158453D01*
X84072Y-158416D01*
X84028Y-158338D01*
X83998Y-158261D01*
X83976Y-158187D01*
X83961Y-158124D01*
X83958Y-158098D01*
Y-158072D01*
X83954Y-158054D01*
Y-158039D01*
Y-158031D01*
Y-158028D01*
X83958Y-157950D01*
X83969Y-157880D01*
X83987Y-157813D01*
X84006Y-157757D01*
X84028Y-157709D01*
X84043Y-157672D01*
X84057Y-157650D01*
X84061Y-157647D01*
Y-157643D01*
X84106Y-157584D01*
X84150Y-157532D01*
X84198Y-157487D01*
X84242Y-157454D01*
X84283Y-157428D01*
X84316Y-157413D01*
X84339Y-157402D01*
X84342Y-157399D01*
X84346D01*
X84379Y-157387D01*
X84420Y-157376D01*
X84501Y-157358D01*
X84590Y-157347D01*
X84672Y-157336D01*
X84749Y-157332D01*
X84783D01*
X84812Y-157328D01*
X86000D01*
D02*
G37*
G36*
X82000Y-130000D02*
X81660D01*
Y-128864D01*
X81223D01*
X81182Y-128868D01*
X81153D01*
X81127Y-128872D01*
X81108Y-128875D01*
X81094D01*
X81086Y-128879D01*
X81082D01*
X81023Y-128897D01*
X80997Y-128909D01*
X80975Y-128920D01*
X80953Y-128931D01*
X80938Y-128938D01*
X80931Y-128942D01*
X80927Y-128946D01*
X80897Y-128968D01*
X80868Y-128994D01*
X80812Y-129049D01*
X80786Y-129075D01*
X80768Y-129097D01*
X80757Y-129112D01*
X80753Y-129116D01*
X80716Y-129167D01*
X80675Y-129223D01*
X80635Y-129282D01*
X80594Y-129338D01*
X80561Y-129390D01*
X80535Y-129430D01*
X80524Y-129445D01*
X80516Y-129456D01*
X80509Y-129464D01*
Y-129467D01*
X80172Y-130000D01*
X79750D01*
X80191Y-129304D01*
X80243Y-129230D01*
X80291Y-129164D01*
X80339Y-129108D01*
X80379Y-129057D01*
X80416Y-129019D01*
X80446Y-128990D01*
X80465Y-128971D01*
X80472Y-128964D01*
X80502Y-128942D01*
X80535Y-128916D01*
X80601Y-128875D01*
X80631Y-128860D01*
X80653Y-128846D01*
X80668Y-128838D01*
X80675Y-128834D01*
X80609Y-128823D01*
X80546Y-128812D01*
X80490Y-128794D01*
X80435Y-128779D01*
X80387Y-128761D01*
X80342Y-128738D01*
X80302Y-128720D01*
X80265Y-128701D01*
X80235Y-128679D01*
X80206Y-128661D01*
X80183Y-128646D01*
X80165Y-128631D01*
X80150Y-128620D01*
X80139Y-128609D01*
X80135Y-128605D01*
X80132Y-128601D01*
X80102Y-128564D01*
X80072Y-128527D01*
X80028Y-128450D01*
X79998Y-128372D01*
X79976Y-128298D01*
X79961Y-128235D01*
X79958Y-128209D01*
Y-128183D01*
X79954Y-128165D01*
Y-128150D01*
Y-128143D01*
Y-128139D01*
X79958Y-128061D01*
X79969Y-127991D01*
X79987Y-127924D01*
X80006Y-127869D01*
X80028Y-127821D01*
X80043Y-127784D01*
X80058Y-127761D01*
X80061Y-127758D01*
Y-127754D01*
X80106Y-127695D01*
X80150Y-127643D01*
X80198Y-127599D01*
X80243Y-127565D01*
X80283Y-127540D01*
X80317Y-127525D01*
X80339Y-127514D01*
X80342Y-127510D01*
X80346D01*
X80379Y-127499D01*
X80420Y-127488D01*
X80502Y-127469D01*
X80590Y-127458D01*
X80672Y-127447D01*
X80749Y-127443D01*
X80783D01*
X80812Y-127440D01*
X82000D01*
Y-130000D01*
D02*
G37*
G36*
X78777Y-127432D02*
X78837Y-127436D01*
X78940Y-127458D01*
X78988Y-127473D01*
X79033Y-127488D01*
X79073Y-127506D01*
X79110Y-127525D01*
X79140Y-127543D01*
X79169Y-127562D01*
X79195Y-127576D01*
X79214Y-127591D01*
X79229Y-127602D01*
X79240Y-127613D01*
X79247Y-127617D01*
X79251Y-127621D01*
X79284Y-127658D01*
X79317Y-127695D01*
X79343Y-127736D01*
X79366Y-127776D01*
X79403Y-127854D01*
X79425Y-127928D01*
X79440Y-127991D01*
X79443Y-128021D01*
X79447Y-128043D01*
X79451Y-128065D01*
Y-128080D01*
Y-128087D01*
Y-128091D01*
X79447Y-128157D01*
X79436Y-128220D01*
X79421Y-128276D01*
X79403Y-128324D01*
X79388Y-128361D01*
X79373Y-128391D01*
X79362Y-128405D01*
X79358Y-128413D01*
X79317Y-128457D01*
X79273Y-128498D01*
X79225Y-128535D01*
X79177Y-128564D01*
X79132Y-128587D01*
X79099Y-128601D01*
X79084Y-128609D01*
X79073Y-128612D01*
X79070Y-128616D01*
X79066D01*
X79151Y-128642D01*
X79221Y-128675D01*
X79284Y-128716D01*
X79336Y-128753D01*
X79377Y-128790D01*
X79406Y-128820D01*
X79421Y-128838D01*
X79428Y-128842D01*
Y-128846D01*
X79469Y-128912D01*
X79502Y-128982D01*
X79525Y-129049D01*
X79540Y-129116D01*
X79547Y-129175D01*
X79551Y-129201D01*
Y-129223D01*
X79554Y-129238D01*
Y-129253D01*
Y-129260D01*
Y-129264D01*
X79551Y-129323D01*
X79543Y-129382D01*
X79532Y-129438D01*
X79517Y-129493D01*
X79480Y-129586D01*
X79462Y-129630D01*
X79440Y-129667D01*
X79417Y-129704D01*
X79399Y-129734D01*
X79377Y-129760D01*
X79362Y-129782D01*
X79347Y-129800D01*
X79336Y-129811D01*
X79329Y-129819D01*
X79325Y-129822D01*
X79281Y-129863D01*
X79232Y-129896D01*
X79181Y-129926D01*
X79129Y-129952D01*
X79081Y-129970D01*
X79029Y-129989D01*
X78929Y-130015D01*
X78885Y-130026D01*
X78844Y-130033D01*
X78807Y-130037D01*
X78774Y-130041D01*
X78748Y-130044D01*
X78711D01*
X78640Y-130041D01*
X78578Y-130033D01*
X78515Y-130022D01*
X78455Y-130011D01*
X78404Y-129993D01*
X78352Y-129974D01*
X78304Y-129956D01*
X78263Y-129933D01*
X78226Y-129911D01*
X78193Y-129893D01*
X78167Y-129874D01*
X78141Y-129856D01*
X78122Y-129845D01*
X78111Y-129833D01*
X78104Y-129826D01*
X78100Y-129822D01*
X78060Y-129778D01*
X78022Y-129734D01*
X77993Y-129689D01*
X77967Y-129641D01*
X77941Y-129597D01*
X77923Y-129549D01*
X77897Y-129464D01*
X77886Y-129423D01*
X77878Y-129386D01*
X77874Y-129352D01*
X77871Y-129327D01*
X77867Y-129304D01*
Y-129286D01*
Y-129275D01*
Y-129271D01*
X77871Y-129186D01*
X77886Y-129108D01*
X77908Y-129038D01*
X77930Y-128979D01*
X77952Y-128931D01*
X77974Y-128894D01*
X77989Y-128872D01*
X77993Y-128868D01*
Y-128864D01*
X78045Y-128805D01*
X78100Y-128753D01*
X78159Y-128712D01*
X78215Y-128675D01*
X78267Y-128649D01*
X78311Y-128631D01*
X78326Y-128624D01*
X78337Y-128620D01*
X78344Y-128616D01*
X78348D01*
X78281Y-128587D01*
X78226Y-128553D01*
X78178Y-128520D01*
X78137Y-128487D01*
X78108Y-128457D01*
X78085Y-128435D01*
X78071Y-128420D01*
X78067Y-128413D01*
X78034Y-128361D01*
X78011Y-128309D01*
X77993Y-128257D01*
X77982Y-128206D01*
X77974Y-128165D01*
X77971Y-128131D01*
Y-128109D01*
Y-128106D01*
Y-128102D01*
X77974Y-128050D01*
X77978Y-128002D01*
X78004Y-127910D01*
X78037Y-127828D01*
X78074Y-127758D01*
X78111Y-127702D01*
X78130Y-127680D01*
X78145Y-127658D01*
X78159Y-127643D01*
X78171Y-127632D01*
X78174Y-127628D01*
X78178Y-127625D01*
X78219Y-127591D01*
X78259Y-127558D01*
X78304Y-127532D01*
X78348Y-127510D01*
X78437Y-127477D01*
X78526Y-127454D01*
X78563Y-127443D01*
X78600Y-127440D01*
X78633Y-127436D01*
X78663Y-127432D01*
X78685Y-127428D01*
X78718D01*
X78777Y-127432D01*
D02*
G37*
G36*
X71718D02*
X71788Y-127440D01*
X71855Y-127454D01*
X71918Y-127473D01*
X71973Y-127499D01*
X72029Y-127521D01*
X72077Y-127551D01*
X72121Y-127576D01*
X72158Y-127602D01*
X72195Y-127632D01*
X72225Y-127654D01*
X72247Y-127676D01*
X72266Y-127699D01*
X72281Y-127713D01*
X72288Y-127721D01*
X72292Y-127725D01*
X72340Y-127791D01*
X72380Y-127869D01*
X72417Y-127950D01*
X72451Y-128035D01*
X72477Y-128124D01*
X72499Y-128213D01*
X72517Y-128305D01*
X72532Y-128391D01*
X72543Y-128476D01*
X72551Y-128553D01*
X72558Y-128624D01*
X72562Y-128683D01*
Y-128735D01*
X72565Y-128772D01*
Y-128786D01*
Y-128797D01*
Y-128801D01*
Y-128805D01*
X72562Y-128923D01*
X72554Y-129034D01*
X72543Y-129138D01*
X72525Y-129234D01*
X72506Y-129319D01*
X72488Y-129397D01*
X72465Y-129467D01*
X72440Y-129530D01*
X72417Y-129582D01*
X72395Y-129630D01*
X72377Y-129667D01*
X72355Y-129700D01*
X72340Y-129726D01*
X72329Y-129741D01*
X72321Y-129752D01*
X72317Y-129756D01*
X72269Y-129808D01*
X72218Y-129852D01*
X72166Y-129889D01*
X72114Y-129922D01*
X72058Y-129952D01*
X72007Y-129974D01*
X71955Y-129993D01*
X71903Y-130007D01*
X71859Y-130018D01*
X71814Y-130030D01*
X71777Y-130037D01*
X71744Y-130041D01*
X71714D01*
X71696Y-130044D01*
X71677D01*
X71592Y-130041D01*
X71515Y-130026D01*
X71444Y-130011D01*
X71381Y-129989D01*
X71333Y-129970D01*
X71296Y-129952D01*
X71281Y-129948D01*
X71270Y-129941D01*
X71267Y-129937D01*
X71263D01*
X71200Y-129893D01*
X71141Y-129841D01*
X71093Y-129789D01*
X71052Y-129737D01*
X71019Y-129689D01*
X70997Y-129652D01*
X70989Y-129637D01*
X70982Y-129626D01*
X70978Y-129623D01*
Y-129619D01*
X70941Y-129541D01*
X70915Y-129460D01*
X70897Y-129386D01*
X70886Y-129315D01*
X70875Y-129256D01*
Y-129234D01*
X70871Y-129212D01*
Y-129193D01*
Y-129182D01*
Y-129175D01*
Y-129171D01*
X70875Y-129105D01*
X70882Y-129042D01*
X70893Y-128979D01*
X70904Y-128923D01*
X70923Y-128872D01*
X70941Y-128820D01*
X70960Y-128775D01*
X70982Y-128735D01*
X71004Y-128698D01*
X71022Y-128664D01*
X71041Y-128638D01*
X71060Y-128612D01*
X71071Y-128594D01*
X71082Y-128583D01*
X71089Y-128576D01*
X71093Y-128572D01*
X71134Y-128531D01*
X71178Y-128494D01*
X71226Y-128464D01*
X71270Y-128439D01*
X71315Y-128413D01*
X71359Y-128394D01*
X71444Y-128368D01*
X71481Y-128357D01*
X71518Y-128350D01*
X71548Y-128346D01*
X71578Y-128342D01*
X71600Y-128339D01*
X71629D01*
X71696Y-128342D01*
X71759Y-128354D01*
X71818Y-128365D01*
X71870Y-128379D01*
X71914Y-128398D01*
X71947Y-128409D01*
X71970Y-128420D01*
X71973Y-128424D01*
X71977D01*
X72036Y-128461D01*
X72088Y-128501D01*
X72136Y-128542D01*
X72173Y-128587D01*
X72206Y-128624D01*
X72232Y-128653D01*
X72247Y-128675D01*
X72251Y-128679D01*
Y-128612D01*
X72247Y-128546D01*
X72243Y-128487D01*
X72236Y-128428D01*
X72232Y-128376D01*
X72225Y-128328D01*
X72218Y-128283D01*
X72206Y-128243D01*
X72199Y-128206D01*
X72192Y-128176D01*
X72184Y-128150D01*
X72181Y-128128D01*
X72173Y-128113D01*
X72170Y-128102D01*
X72166Y-128094D01*
Y-128091D01*
X72129Y-128017D01*
X72092Y-127950D01*
X72051Y-127898D01*
X72014Y-127854D01*
X71981Y-127817D01*
X71955Y-127791D01*
X71936Y-127776D01*
X71929Y-127773D01*
X71885Y-127743D01*
X71840Y-127725D01*
X71796Y-127710D01*
X71751Y-127699D01*
X71718Y-127691D01*
X71688Y-127688D01*
X71663D01*
X71596Y-127695D01*
X71533Y-127710D01*
X71481Y-127732D01*
X71433Y-127754D01*
X71396Y-127780D01*
X71370Y-127802D01*
X71355Y-127817D01*
X71348Y-127824D01*
X71322Y-127858D01*
X71296Y-127898D01*
X71274Y-127943D01*
X71259Y-127987D01*
X71245Y-128028D01*
X71233Y-128061D01*
X71230Y-128083D01*
X71226Y-128087D01*
Y-128091D01*
X70912Y-128065D01*
X70934Y-127961D01*
X70967Y-127869D01*
X71004Y-127787D01*
X71045Y-127721D01*
X71085Y-127669D01*
X71100Y-127647D01*
X71119Y-127628D01*
X71130Y-127617D01*
X71141Y-127606D01*
X71145Y-127602D01*
X71148Y-127599D01*
X71185Y-127569D01*
X71226Y-127543D01*
X71307Y-127499D01*
X71389Y-127469D01*
X71466Y-127451D01*
X71537Y-127436D01*
X71566Y-127432D01*
X71592D01*
X71614Y-127428D01*
X71644D01*
X71718Y-127432D01*
D02*
G37*
G36*
X75000Y-130000D02*
X74660D01*
Y-128864D01*
X74223D01*
X74182Y-128868D01*
X74153D01*
X74127Y-128872D01*
X74108Y-128875D01*
X74094D01*
X74086Y-128879D01*
X74082D01*
X74023Y-128897D01*
X73997Y-128909D01*
X73975Y-128920D01*
X73953Y-128931D01*
X73938Y-128938D01*
X73931Y-128942D01*
X73927Y-128946D01*
X73897Y-128968D01*
X73868Y-128994D01*
X73812Y-129049D01*
X73786Y-129075D01*
X73768Y-129097D01*
X73757Y-129112D01*
X73753Y-129116D01*
X73716Y-129167D01*
X73675Y-129223D01*
X73635Y-129282D01*
X73594Y-129338D01*
X73561Y-129390D01*
X73535Y-129430D01*
X73524Y-129445D01*
X73516Y-129456D01*
X73509Y-129464D01*
Y-129467D01*
X73172Y-130000D01*
X72750D01*
X73191Y-129304D01*
X73242Y-129230D01*
X73291Y-129164D01*
X73339Y-129108D01*
X73379Y-129057D01*
X73416Y-129019D01*
X73446Y-128990D01*
X73465Y-128971D01*
X73472Y-128964D01*
X73501Y-128942D01*
X73535Y-128916D01*
X73601Y-128875D01*
X73631Y-128860D01*
X73653Y-128846D01*
X73668Y-128838D01*
X73675Y-128834D01*
X73609Y-128823D01*
X73546Y-128812D01*
X73490Y-128794D01*
X73435Y-128779D01*
X73387Y-128761D01*
X73342Y-128738D01*
X73302Y-128720D01*
X73265Y-128701D01*
X73235Y-128679D01*
X73206Y-128661D01*
X73183Y-128646D01*
X73165Y-128631D01*
X73150Y-128620D01*
X73139Y-128609D01*
X73135Y-128605D01*
X73132Y-128601D01*
X73102Y-128564D01*
X73072Y-128527D01*
X73028Y-128450D01*
X72998Y-128372D01*
X72976Y-128298D01*
X72961Y-128235D01*
X72958Y-128209D01*
Y-128183D01*
X72954Y-128165D01*
Y-128150D01*
Y-128143D01*
Y-128139D01*
X72958Y-128061D01*
X72969Y-127991D01*
X72987Y-127924D01*
X73006Y-127869D01*
X73028Y-127821D01*
X73043Y-127784D01*
X73058Y-127761D01*
X73061Y-127758D01*
Y-127754D01*
X73106Y-127695D01*
X73150Y-127643D01*
X73198Y-127599D01*
X73242Y-127565D01*
X73283Y-127540D01*
X73317Y-127525D01*
X73339Y-127514D01*
X73342Y-127510D01*
X73346D01*
X73379Y-127499D01*
X73420Y-127488D01*
X73501Y-127469D01*
X73590Y-127458D01*
X73672Y-127447D01*
X73749Y-127443D01*
X73783D01*
X73812Y-127440D01*
X75000D01*
Y-130000D01*
D02*
G37*
G36*
X71000Y-157328D02*
Y-159889D01*
X70660D01*
Y-158753D01*
X70223D01*
X70182Y-158756D01*
X70153D01*
X70127Y-158760D01*
X70108Y-158764D01*
X70094D01*
X70086Y-158768D01*
X70082D01*
X70023Y-158786D01*
X69997Y-158797D01*
X69975Y-158808D01*
X69953Y-158819D01*
X69938Y-158827D01*
X69931Y-158830D01*
X69927Y-158834D01*
X69897Y-158856D01*
X69868Y-158882D01*
X69812Y-158938D01*
X69786Y-158964D01*
X69768Y-158986D01*
X69757Y-159001D01*
X69753Y-159004D01*
X69716Y-159056D01*
X69675Y-159112D01*
X69635Y-159171D01*
X69594Y-159226D01*
X69561Y-159278D01*
X69535Y-159319D01*
X69524Y-159334D01*
X69516Y-159345D01*
X69509Y-159352D01*
Y-159356D01*
X69172Y-159889D01*
X68750D01*
X69191Y-159193D01*
X69243Y-159119D01*
X69291Y-159053D01*
X69339Y-158997D01*
X69379Y-158945D01*
X69416Y-158908D01*
X69446Y-158879D01*
X69464Y-158860D01*
X69472Y-158853D01*
X69502Y-158830D01*
X69535Y-158805D01*
X69601Y-158764D01*
X69631Y-158749D01*
X69653Y-158734D01*
X69668Y-158727D01*
X69675Y-158723D01*
X69609Y-158712D01*
X69546Y-158701D01*
X69490Y-158683D01*
X69435Y-158668D01*
X69387Y-158649D01*
X69342Y-158627D01*
X69302Y-158608D01*
X69265Y-158590D01*
X69235Y-158568D01*
X69205Y-158549D01*
X69183Y-158535D01*
X69165Y-158520D01*
X69150Y-158509D01*
X69139Y-158498D01*
X69135Y-158494D01*
X69131Y-158490D01*
X69102Y-158453D01*
X69072Y-158416D01*
X69028Y-158338D01*
X68998Y-158261D01*
X68976Y-158187D01*
X68961Y-158124D01*
X68958Y-158098D01*
Y-158072D01*
X68954Y-158054D01*
Y-158039D01*
Y-158031D01*
Y-158028D01*
X68958Y-157950D01*
X68969Y-157880D01*
X68987Y-157813D01*
X69006Y-157757D01*
X69028Y-157709D01*
X69043Y-157672D01*
X69058Y-157650D01*
X69061Y-157647D01*
Y-157643D01*
X69106Y-157584D01*
X69150Y-157532D01*
X69198Y-157487D01*
X69243Y-157454D01*
X69283Y-157428D01*
X69317Y-157413D01*
X69339Y-157402D01*
X69342Y-157399D01*
X69346D01*
X69379Y-157387D01*
X69420Y-157376D01*
X69502Y-157358D01*
X69590Y-157347D01*
X69672Y-157336D01*
X69749Y-157332D01*
X69783D01*
X69812Y-157328D01*
X71000D01*
D02*
G37*
G36*
X68247Y-157362D02*
X68495Y-158679D01*
X68199Y-158720D01*
X68173Y-158679D01*
X68140Y-158645D01*
X68110Y-158612D01*
X68081Y-158586D01*
X68051Y-158568D01*
X68029Y-158549D01*
X68014Y-158542D01*
X68010Y-158538D01*
X67962Y-158516D01*
X67914Y-158498D01*
X67870Y-158486D01*
X67825Y-158475D01*
X67788Y-158472D01*
X67759Y-158468D01*
X67689D01*
X67644Y-158475D01*
X67566Y-158494D01*
X67500Y-158520D01*
X67441Y-158546D01*
X67396Y-158575D01*
X67363Y-158601D01*
X67344Y-158620D01*
X67337Y-158623D01*
Y-158627D01*
X67285Y-158690D01*
X67248Y-158756D01*
X67222Y-158827D01*
X67204Y-158897D01*
X67193Y-158956D01*
X67189Y-158982D01*
Y-159004D01*
X67185Y-159023D01*
Y-159038D01*
Y-159045D01*
Y-159049D01*
Y-159101D01*
X67193Y-159149D01*
X67211Y-159241D01*
X67237Y-159319D01*
X67263Y-159382D01*
X67293Y-159434D01*
X67318Y-159474D01*
X67330Y-159485D01*
X67337Y-159496D01*
X67341Y-159500D01*
X67344Y-159504D01*
X67374Y-159534D01*
X67404Y-159559D01*
X67470Y-159604D01*
X67533Y-159633D01*
X67596Y-159652D01*
X67648Y-159667D01*
X67692Y-159670D01*
X67707Y-159674D01*
X67729D01*
X67800Y-159670D01*
X67862Y-159656D01*
X67918Y-159637D01*
X67962Y-159615D01*
X68003Y-159593D01*
X68033Y-159574D01*
X68047Y-159559D01*
X68055Y-159556D01*
X68099Y-159504D01*
X68136Y-159448D01*
X68166Y-159386D01*
X68188Y-159330D01*
X68203Y-159274D01*
X68214Y-159234D01*
X68218Y-159215D01*
X68221Y-159204D01*
Y-159197D01*
Y-159193D01*
X68551Y-159219D01*
X68543Y-159278D01*
X68532Y-159334D01*
X68499Y-159437D01*
X68458Y-159526D01*
X68436Y-159567D01*
X68414Y-159600D01*
X68395Y-159633D01*
X68373Y-159663D01*
X68354Y-159685D01*
X68336Y-159704D01*
X68321Y-159719D01*
X68314Y-159733D01*
X68306Y-159737D01*
X68303Y-159741D01*
X68258Y-159774D01*
X68214Y-159804D01*
X68166Y-159829D01*
X68118Y-159852D01*
X68025Y-159885D01*
X67933Y-159907D01*
X67892Y-159918D01*
X67851Y-159922D01*
X67818Y-159926D01*
X67788Y-159929D01*
X67763Y-159933D01*
X67729D01*
X67651Y-159929D01*
X67577Y-159918D01*
X67507Y-159904D01*
X67444Y-159885D01*
X67385Y-159859D01*
X67330Y-159833D01*
X67278Y-159807D01*
X67233Y-159778D01*
X67193Y-159748D01*
X67156Y-159722D01*
X67126Y-159693D01*
X67100Y-159670D01*
X67082Y-159652D01*
X67067Y-159637D01*
X67059Y-159626D01*
X67056Y-159622D01*
X67019Y-159574D01*
X66989Y-159522D01*
X66960Y-159474D01*
X66937Y-159423D01*
X66900Y-159323D01*
X66878Y-159226D01*
X66871Y-159186D01*
X66863Y-159145D01*
X66860Y-159112D01*
X66856Y-159082D01*
X66852Y-159056D01*
Y-159038D01*
Y-159027D01*
Y-159023D01*
X66856Y-158956D01*
X66863Y-158893D01*
X66874Y-158830D01*
X66889Y-158775D01*
X66908Y-158723D01*
X66926Y-158671D01*
X66948Y-158627D01*
X66967Y-158586D01*
X66989Y-158549D01*
X67011Y-158516D01*
X67030Y-158490D01*
X67048Y-158464D01*
X67063Y-158446D01*
X67074Y-158435D01*
X67082Y-158427D01*
X67085Y-158423D01*
X67130Y-158383D01*
X67174Y-158346D01*
X67222Y-158316D01*
X67270Y-158290D01*
X67318Y-158264D01*
X67367Y-158246D01*
X67455Y-158220D01*
X67496Y-158209D01*
X67533Y-158202D01*
X67566Y-158198D01*
X67596Y-158194D01*
X67618Y-158190D01*
X67700D01*
X67744Y-158198D01*
X67833Y-158216D01*
X67914Y-158242D01*
X67988Y-158272D01*
X68047Y-158301D01*
X68073Y-158316D01*
X68095Y-158327D01*
X68114Y-158338D01*
X68125Y-158346D01*
X68133Y-158350D01*
X68136Y-158353D01*
X67999Y-157661D01*
X66974D01*
Y-157362D01*
X68247D01*
D02*
G37*
G36*
X66000Y-127440D02*
Y-130000D01*
X65660D01*
Y-128864D01*
X65223D01*
X65182Y-128868D01*
X65153D01*
X65127Y-128872D01*
X65108Y-128875D01*
X65093D01*
X65086Y-128879D01*
X65082D01*
X65023Y-128897D01*
X64997Y-128909D01*
X64975Y-128920D01*
X64953Y-128931D01*
X64938Y-128938D01*
X64931Y-128942D01*
X64927Y-128946D01*
X64897Y-128968D01*
X64868Y-128994D01*
X64812Y-129049D01*
X64786Y-129075D01*
X64768Y-129097D01*
X64757Y-129112D01*
X64753Y-129116D01*
X64716Y-129167D01*
X64675Y-129223D01*
X64635Y-129282D01*
X64594Y-129338D01*
X64561Y-129390D01*
X64535Y-129430D01*
X64524Y-129445D01*
X64516Y-129456D01*
X64509Y-129464D01*
Y-129467D01*
X64172Y-130000D01*
X63750D01*
X64191Y-129304D01*
X64243Y-129230D01*
X64291Y-129164D01*
X64339Y-129108D01*
X64379Y-129057D01*
X64416Y-129019D01*
X64446Y-128990D01*
X64464Y-128971D01*
X64472Y-128964D01*
X64502Y-128942D01*
X64535Y-128916D01*
X64601Y-128875D01*
X64631Y-128860D01*
X64653Y-128846D01*
X64668Y-128838D01*
X64675Y-128834D01*
X64609Y-128823D01*
X64546Y-128812D01*
X64490Y-128794D01*
X64435Y-128779D01*
X64387Y-128761D01*
X64342Y-128738D01*
X64302Y-128720D01*
X64265Y-128701D01*
X64235Y-128679D01*
X64205Y-128661D01*
X64183Y-128646D01*
X64165Y-128631D01*
X64150Y-128620D01*
X64139Y-128609D01*
X64135Y-128605D01*
X64131Y-128601D01*
X64102Y-128564D01*
X64072Y-128527D01*
X64028Y-128450D01*
X63998Y-128372D01*
X63976Y-128298D01*
X63961Y-128235D01*
X63958Y-128209D01*
Y-128183D01*
X63954Y-128165D01*
Y-128150D01*
Y-128143D01*
Y-128139D01*
X63958Y-128061D01*
X63969Y-127991D01*
X63987Y-127924D01*
X64006Y-127869D01*
X64028Y-127821D01*
X64043Y-127784D01*
X64057Y-127761D01*
X64061Y-127758D01*
Y-127754D01*
X64106Y-127695D01*
X64150Y-127643D01*
X64198Y-127599D01*
X64243Y-127565D01*
X64283Y-127540D01*
X64316Y-127525D01*
X64339Y-127514D01*
X64342Y-127510D01*
X64346D01*
X64379Y-127499D01*
X64420Y-127488D01*
X64502Y-127469D01*
X64590Y-127458D01*
X64672Y-127447D01*
X64749Y-127443D01*
X64783D01*
X64812Y-127440D01*
X66000D01*
D02*
G37*
G36*
X62485D02*
X63658Y-129097D01*
Y-129386D01*
X62544D01*
Y-130000D01*
X62230D01*
Y-129386D01*
X61882D01*
Y-129097D01*
X62230D01*
Y-127440D01*
X62485D01*
D02*
G37*
G36*
X64000Y-157328D02*
Y-159889D01*
X63660D01*
Y-158753D01*
X63223D01*
X63182Y-158756D01*
X63153D01*
X63127Y-158760D01*
X63108Y-158764D01*
X63094D01*
X63086Y-158768D01*
X63082D01*
X63023Y-158786D01*
X62997Y-158797D01*
X62975Y-158808D01*
X62953Y-158819D01*
X62938Y-158827D01*
X62931Y-158830D01*
X62927Y-158834D01*
X62897Y-158856D01*
X62868Y-158882D01*
X62812Y-158938D01*
X62786Y-158964D01*
X62768Y-158986D01*
X62757Y-159001D01*
X62753Y-159004D01*
X62716Y-159056D01*
X62675Y-159112D01*
X62635Y-159171D01*
X62594Y-159226D01*
X62561Y-159278D01*
X62535Y-159319D01*
X62524Y-159334D01*
X62516Y-159345D01*
X62509Y-159352D01*
Y-159356D01*
X62172Y-159889D01*
X61750D01*
X62191Y-159193D01*
X62243Y-159119D01*
X62291Y-159053D01*
X62339Y-158997D01*
X62379Y-158945D01*
X62416Y-158908D01*
X62446Y-158879D01*
X62464Y-158860D01*
X62472Y-158853D01*
X62502Y-158830D01*
X62535Y-158805D01*
X62601Y-158764D01*
X62631Y-158749D01*
X62653Y-158734D01*
X62668Y-158727D01*
X62675Y-158723D01*
X62609Y-158712D01*
X62546Y-158701D01*
X62490Y-158683D01*
X62435Y-158668D01*
X62387Y-158649D01*
X62342Y-158627D01*
X62302Y-158608D01*
X62265Y-158590D01*
X62235Y-158568D01*
X62205Y-158549D01*
X62183Y-158535D01*
X62165Y-158520D01*
X62150Y-158509D01*
X62139Y-158498D01*
X62135Y-158494D01*
X62132Y-158490D01*
X62102Y-158453D01*
X62072Y-158416D01*
X62028Y-158338D01*
X61998Y-158261D01*
X61976Y-158187D01*
X61961Y-158124D01*
X61958Y-158098D01*
Y-158072D01*
X61954Y-158054D01*
Y-158039D01*
Y-158031D01*
Y-158028D01*
X61958Y-157950D01*
X61969Y-157880D01*
X61987Y-157813D01*
X62006Y-157757D01*
X62028Y-157709D01*
X62043Y-157672D01*
X62058Y-157650D01*
X62061Y-157647D01*
Y-157643D01*
X62106Y-157584D01*
X62150Y-157532D01*
X62198Y-157487D01*
X62243Y-157454D01*
X62283Y-157428D01*
X62317Y-157413D01*
X62339Y-157402D01*
X62342Y-157399D01*
X62346D01*
X62379Y-157387D01*
X62420Y-157376D01*
X62502Y-157358D01*
X62590Y-157347D01*
X62672Y-157336D01*
X62749Y-157332D01*
X62783D01*
X62812Y-157328D01*
X64000D01*
D02*
G37*
G36*
X60803Y-157317D02*
X60855Y-157325D01*
X60955Y-157343D01*
X61040Y-157373D01*
X61114Y-157402D01*
X61147Y-157421D01*
X61173Y-157436D01*
X61199Y-157450D01*
X61218Y-157465D01*
X61232Y-157476D01*
X61243Y-157484D01*
X61251Y-157487D01*
X61255Y-157491D01*
X61325Y-157561D01*
X61380Y-157639D01*
X61425Y-157720D01*
X61462Y-157802D01*
X61484Y-157872D01*
X61495Y-157902D01*
X61502Y-157928D01*
X61506Y-157950D01*
X61510Y-157965D01*
X61514Y-157976D01*
Y-157980D01*
X61199Y-158035D01*
X61184Y-157954D01*
X61162Y-157883D01*
X61136Y-157824D01*
X61110Y-157776D01*
X61084Y-157739D01*
X61062Y-157713D01*
X61047Y-157695D01*
X61044Y-157691D01*
X60996Y-157654D01*
X60944Y-157624D01*
X60896Y-157606D01*
X60848Y-157591D01*
X60803Y-157584D01*
X60770Y-157576D01*
X60740D01*
X60674Y-157580D01*
X60615Y-157595D01*
X60563Y-157613D01*
X60518Y-157632D01*
X60485Y-157654D01*
X60459Y-157672D01*
X60441Y-157687D01*
X60437Y-157691D01*
X60396Y-157735D01*
X60367Y-157783D01*
X60348Y-157832D01*
X60333Y-157876D01*
X60326Y-157917D01*
X60318Y-157946D01*
Y-157968D01*
Y-157972D01*
Y-157976D01*
Y-158017D01*
X60326Y-158054D01*
X60344Y-158116D01*
X60370Y-158172D01*
X60400Y-158220D01*
X60430Y-158253D01*
X60455Y-158279D01*
X60474Y-158294D01*
X60478Y-158298D01*
X60481D01*
X60544Y-158331D01*
X60603Y-158357D01*
X60666Y-158375D01*
X60722Y-158387D01*
X60770Y-158394D01*
X60811Y-158401D01*
X60859D01*
X60874Y-158398D01*
X60892D01*
X60929Y-158675D01*
X60881Y-158664D01*
X60836Y-158657D01*
X60799Y-158649D01*
X60766Y-158645D01*
X60740Y-158642D01*
X60707D01*
X60629Y-158649D01*
X60559Y-158664D01*
X60496Y-158686D01*
X60444Y-158712D01*
X60404Y-158738D01*
X60374Y-158760D01*
X60356Y-158775D01*
X60348Y-158782D01*
X60300Y-158838D01*
X60263Y-158897D01*
X60237Y-158956D01*
X60222Y-159016D01*
X60211Y-159064D01*
X60207Y-159104D01*
X60204Y-159119D01*
Y-159130D01*
Y-159138D01*
Y-159141D01*
X60211Y-159223D01*
X60230Y-159297D01*
X60252Y-159360D01*
X60281Y-159415D01*
X60311Y-159459D01*
X60333Y-159493D01*
X60352Y-159515D01*
X60359Y-159522D01*
X60418Y-159574D01*
X60481Y-159611D01*
X60544Y-159637D01*
X60603Y-159656D01*
X60655Y-159667D01*
X60696Y-159670D01*
X60711Y-159674D01*
X60733D01*
X60799Y-159670D01*
X60862Y-159656D01*
X60918Y-159637D01*
X60962Y-159615D01*
X60999Y-159596D01*
X61029Y-159578D01*
X61044Y-159563D01*
X61051Y-159559D01*
X61095Y-159508D01*
X61133Y-159448D01*
X61166Y-159386D01*
X61192Y-159319D01*
X61210Y-159263D01*
X61218Y-159238D01*
X61221Y-159215D01*
X61225Y-159197D01*
X61229Y-159182D01*
X61232Y-159175D01*
Y-159171D01*
X61547Y-159212D01*
X61540Y-159271D01*
X61528Y-159326D01*
X61495Y-159430D01*
X61454Y-159519D01*
X61432Y-159556D01*
X61410Y-159593D01*
X61388Y-159626D01*
X61366Y-159652D01*
X61347Y-159678D01*
X61329Y-159696D01*
X61317Y-159711D01*
X61306Y-159722D01*
X61299Y-159730D01*
X61295Y-159733D01*
X61251Y-159767D01*
X61207Y-159800D01*
X61162Y-159826D01*
X61114Y-159848D01*
X61022Y-159885D01*
X60933Y-159907D01*
X60892Y-159915D01*
X60855Y-159922D01*
X60822Y-159926D01*
X60792Y-159929D01*
X60770Y-159933D01*
X60737D01*
X60666Y-159929D01*
X60603Y-159922D01*
X60540Y-159911D01*
X60481Y-159896D01*
X60426Y-159878D01*
X60378Y-159859D01*
X60330Y-159837D01*
X60289Y-159815D01*
X60248Y-159796D01*
X60215Y-159774D01*
X60185Y-159756D01*
X60163Y-159737D01*
X60145Y-159722D01*
X60130Y-159711D01*
X60122Y-159704D01*
X60119Y-159700D01*
X60074Y-159656D01*
X60037Y-159608D01*
X60004Y-159559D01*
X59974Y-159511D01*
X59952Y-159467D01*
X59930Y-159419D01*
X59900Y-159330D01*
X59893Y-159289D01*
X59886Y-159252D01*
X59878Y-159219D01*
X59874Y-159189D01*
X59871Y-159167D01*
Y-159149D01*
Y-159138D01*
Y-159134D01*
X59874Y-159045D01*
X59889Y-158964D01*
X59912Y-158893D01*
X59934Y-158834D01*
X59956Y-158786D01*
X59978Y-158749D01*
X59993Y-158727D01*
X59997Y-158720D01*
X60048Y-158664D01*
X60104Y-158616D01*
X60163Y-158579D01*
X60222Y-158549D01*
X60274Y-158527D01*
X60315Y-158512D01*
X60330Y-158509D01*
X60341Y-158505D01*
X60348Y-158501D01*
X60352D01*
X60289Y-158468D01*
X60237Y-158435D01*
X60193Y-158398D01*
X60156Y-158364D01*
X60126Y-158335D01*
X60104Y-158309D01*
X60093Y-158294D01*
X60089Y-158287D01*
X60059Y-158235D01*
X60037Y-158183D01*
X60019Y-158131D01*
X60008Y-158083D01*
X60000Y-158042D01*
X59997Y-158013D01*
Y-157991D01*
Y-157983D01*
X60000Y-157920D01*
X60011Y-157857D01*
X60026Y-157802D01*
X60045Y-157754D01*
X60063Y-157713D01*
X60078Y-157680D01*
X60089Y-157661D01*
X60093Y-157654D01*
X60130Y-157598D01*
X60174Y-157550D01*
X60219Y-157510D01*
X60263Y-157473D01*
X60300Y-157447D01*
X60333Y-157424D01*
X60356Y-157413D01*
X60359Y-157410D01*
X60363D01*
X60430Y-157380D01*
X60496Y-157358D01*
X60563Y-157339D01*
X60622Y-157328D01*
X60670Y-157321D01*
X60711Y-157317D01*
X60803D01*
D02*
G37*
G36*
X42770Y-103432D02*
X42833Y-103436D01*
X42892Y-103447D01*
X42948Y-103458D01*
X42999Y-103473D01*
X43047Y-103488D01*
X43092Y-103506D01*
X43132Y-103525D01*
X43170Y-103543D01*
X43199Y-103562D01*
X43225Y-103577D01*
X43247Y-103591D01*
X43266Y-103602D01*
X43277Y-103613D01*
X43284Y-103617D01*
X43288Y-103621D01*
X43325Y-103658D01*
X43358Y-103699D01*
X43391Y-103743D01*
X43417Y-103787D01*
X43462Y-103876D01*
X43491Y-103965D01*
X43503Y-104006D01*
X43514Y-104046D01*
X43521Y-104080D01*
X43528Y-104109D01*
X43532Y-104135D01*
Y-104154D01*
X43536Y-104165D01*
Y-104168D01*
X43214Y-104202D01*
X43207Y-104117D01*
X43192Y-104043D01*
X43170Y-103976D01*
X43144Y-103924D01*
X43121Y-103880D01*
X43099Y-103850D01*
X43084Y-103832D01*
X43077Y-103824D01*
X43022Y-103780D01*
X42962Y-103747D01*
X42899Y-103721D01*
X42844Y-103706D01*
X42792Y-103695D01*
X42748Y-103691D01*
X42733Y-103688D01*
X42711D01*
X42633Y-103691D01*
X42563Y-103706D01*
X42503Y-103728D01*
X42452Y-103750D01*
X42411Y-103776D01*
X42385Y-103795D01*
X42367Y-103810D01*
X42359Y-103817D01*
X42315Y-103869D01*
X42281Y-103921D01*
X42256Y-103972D01*
X42241Y-104024D01*
X42230Y-104065D01*
X42226Y-104102D01*
X42222Y-104124D01*
Y-104128D01*
Y-104131D01*
X42230Y-104198D01*
X42244Y-104268D01*
X42270Y-104331D01*
X42296Y-104391D01*
X42326Y-104439D01*
X42352Y-104479D01*
X42359Y-104494D01*
X42367Y-104505D01*
X42374Y-104509D01*
Y-104513D01*
X42404Y-104553D01*
X42441Y-104594D01*
X42481Y-104638D01*
X42526Y-104683D01*
X42618Y-104772D01*
X42711Y-104860D01*
X42759Y-104901D01*
X42799Y-104938D01*
X42840Y-104971D01*
X42873Y-105001D01*
X42899Y-105023D01*
X42922Y-105042D01*
X42936Y-105053D01*
X42940Y-105057D01*
X43033Y-105134D01*
X43118Y-105208D01*
X43188Y-105275D01*
X43244Y-105330D01*
X43292Y-105378D01*
X43325Y-105412D01*
X43343Y-105434D01*
X43351Y-105438D01*
Y-105441D01*
X43403Y-105504D01*
X43443Y-105563D01*
X43480Y-105623D01*
X43510Y-105674D01*
X43532Y-105719D01*
X43547Y-105752D01*
X43554Y-105774D01*
X43558Y-105778D01*
Y-105782D01*
X43573Y-105822D01*
X43580Y-105859D01*
X43588Y-105896D01*
X43591Y-105930D01*
X43595Y-105959D01*
Y-105982D01*
Y-105996D01*
Y-106000D01*
X41897D01*
Y-105697D01*
X43158D01*
X43114Y-105634D01*
X43092Y-105608D01*
X43073Y-105582D01*
X43055Y-105560D01*
X43040Y-105545D01*
X43029Y-105534D01*
X43025Y-105530D01*
X43007Y-105512D01*
X42985Y-105493D01*
X42933Y-105445D01*
X42873Y-105389D01*
X42811Y-105334D01*
X42751Y-105286D01*
X42726Y-105264D01*
X42703Y-105242D01*
X42685Y-105227D01*
X42670Y-105216D01*
X42663Y-105208D01*
X42659Y-105204D01*
X42600Y-105153D01*
X42540Y-105105D01*
X42489Y-105057D01*
X42441Y-105016D01*
X42396Y-104975D01*
X42359Y-104938D01*
X42322Y-104905D01*
X42293Y-104875D01*
X42263Y-104846D01*
X42241Y-104823D01*
X42222Y-104805D01*
X42204Y-104786D01*
X42185Y-104764D01*
X42178Y-104757D01*
X42126Y-104694D01*
X42082Y-104638D01*
X42045Y-104583D01*
X42015Y-104539D01*
X41993Y-104498D01*
X41978Y-104468D01*
X41971Y-104450D01*
X41967Y-104442D01*
X41945Y-104387D01*
X41930Y-104331D01*
X41915Y-104279D01*
X41908Y-104235D01*
X41904Y-104194D01*
X41900Y-104165D01*
Y-104146D01*
Y-104139D01*
X41904Y-104083D01*
X41912Y-104032D01*
X41919Y-103980D01*
X41934Y-103935D01*
X41971Y-103847D01*
X42008Y-103776D01*
X42030Y-103743D01*
X42048Y-103717D01*
X42067Y-103691D01*
X42085Y-103673D01*
X42100Y-103658D01*
X42108Y-103643D01*
X42115Y-103639D01*
X42119Y-103636D01*
X42159Y-103599D01*
X42204Y-103565D01*
X42252Y-103540D01*
X42300Y-103517D01*
X42396Y-103480D01*
X42492Y-103454D01*
X42533Y-103447D01*
X42574Y-103440D01*
X42611Y-103436D01*
X42640Y-103432D01*
X42666Y-103428D01*
X42703D01*
X42770Y-103432D01*
D02*
G37*
G36*
X46000Y-106000D02*
X45660D01*
Y-104864D01*
X45223D01*
X45182Y-104868D01*
X45153D01*
X45127Y-104871D01*
X45108Y-104875D01*
X45094D01*
X45086Y-104879D01*
X45082D01*
X45023Y-104897D01*
X44997Y-104909D01*
X44975Y-104920D01*
X44953Y-104931D01*
X44938Y-104938D01*
X44931Y-104942D01*
X44927Y-104946D01*
X44897Y-104968D01*
X44868Y-104994D01*
X44812Y-105049D01*
X44786Y-105075D01*
X44768Y-105097D01*
X44757Y-105112D01*
X44753Y-105116D01*
X44716Y-105167D01*
X44675Y-105223D01*
X44635Y-105282D01*
X44594Y-105338D01*
X44561Y-105389D01*
X44535Y-105430D01*
X44524Y-105445D01*
X44516Y-105456D01*
X44509Y-105464D01*
Y-105467D01*
X44172Y-106000D01*
X43750D01*
X44191Y-105304D01*
X44243Y-105230D01*
X44291Y-105164D01*
X44339Y-105108D01*
X44379Y-105057D01*
X44416Y-105019D01*
X44446Y-104990D01*
X44464Y-104971D01*
X44472Y-104964D01*
X44502Y-104942D01*
X44535Y-104916D01*
X44601Y-104875D01*
X44631Y-104860D01*
X44653Y-104846D01*
X44668Y-104838D01*
X44675Y-104834D01*
X44609Y-104823D01*
X44546Y-104812D01*
X44490Y-104794D01*
X44435Y-104779D01*
X44387Y-104761D01*
X44342Y-104738D01*
X44302Y-104720D01*
X44265Y-104701D01*
X44235Y-104679D01*
X44205Y-104661D01*
X44183Y-104646D01*
X44165Y-104631D01*
X44150Y-104620D01*
X44139Y-104609D01*
X44135Y-104605D01*
X44131Y-104601D01*
X44102Y-104564D01*
X44072Y-104527D01*
X44028Y-104450D01*
X43998Y-104372D01*
X43976Y-104298D01*
X43961Y-104235D01*
X43958Y-104209D01*
Y-104183D01*
X43954Y-104165D01*
Y-104150D01*
Y-104143D01*
Y-104139D01*
X43958Y-104061D01*
X43969Y-103991D01*
X43987Y-103924D01*
X44006Y-103869D01*
X44028Y-103821D01*
X44043Y-103784D01*
X44058Y-103761D01*
X44061Y-103758D01*
Y-103754D01*
X44106Y-103695D01*
X44150Y-103643D01*
X44198Y-103599D01*
X44243Y-103565D01*
X44283Y-103540D01*
X44317Y-103525D01*
X44339Y-103514D01*
X44342Y-103510D01*
X44346D01*
X44379Y-103499D01*
X44420Y-103488D01*
X44502Y-103469D01*
X44590Y-103458D01*
X44672Y-103447D01*
X44749Y-103443D01*
X44783D01*
X44812Y-103440D01*
X46000D01*
Y-106000D01*
D02*
G37*
G36*
X41607Y-98491D02*
X41648Y-98551D01*
X41696Y-98610D01*
X41740Y-98662D01*
X41785Y-98706D01*
X41818Y-98743D01*
X41833Y-98754D01*
X41844Y-98765D01*
X41848Y-98769D01*
X41851Y-98773D01*
X41929Y-98835D01*
X42007Y-98895D01*
X42081Y-98946D01*
X42155Y-98987D01*
X42218Y-99024D01*
X42243Y-99039D01*
X42266Y-99050D01*
X42284Y-99061D01*
X42299Y-99065D01*
X42306Y-99072D01*
X42310D01*
Y-99376D01*
X42255Y-99353D01*
X42199Y-99328D01*
X42144Y-99302D01*
X42092Y-99276D01*
X42047Y-99254D01*
X42010Y-99235D01*
X41988Y-99220D01*
X41985Y-99217D01*
X41981D01*
X41914Y-99176D01*
X41855Y-99135D01*
X41803Y-99098D01*
X41763Y-99065D01*
X41726Y-99039D01*
X41703Y-99017D01*
X41685Y-99002D01*
X41681Y-98998D01*
Y-101000D01*
X41367D01*
Y-98428D01*
X41570D01*
X41607Y-98491D01*
D02*
G37*
G36*
X45000Y-101000D02*
X44660D01*
Y-99864D01*
X44223D01*
X44182Y-99868D01*
X44153D01*
X44127Y-99871D01*
X44108Y-99875D01*
X44093D01*
X44086Y-99879D01*
X44082D01*
X44023Y-99897D01*
X43997Y-99909D01*
X43975Y-99920D01*
X43953Y-99931D01*
X43938Y-99938D01*
X43931Y-99942D01*
X43927Y-99945D01*
X43897Y-99968D01*
X43868Y-99994D01*
X43812Y-100049D01*
X43786Y-100075D01*
X43768Y-100097D01*
X43757Y-100112D01*
X43753Y-100116D01*
X43716Y-100168D01*
X43675Y-100223D01*
X43635Y-100282D01*
X43594Y-100338D01*
X43561Y-100390D01*
X43535Y-100430D01*
X43524Y-100445D01*
X43516Y-100456D01*
X43509Y-100463D01*
Y-100467D01*
X43172Y-101000D01*
X42750D01*
X43191Y-100304D01*
X43242Y-100230D01*
X43291Y-100164D01*
X43339Y-100108D01*
X43379Y-100057D01*
X43416Y-100020D01*
X43446Y-99990D01*
X43464Y-99971D01*
X43472Y-99964D01*
X43501Y-99942D01*
X43535Y-99916D01*
X43601Y-99875D01*
X43631Y-99860D01*
X43653Y-99846D01*
X43668Y-99838D01*
X43675Y-99835D01*
X43609Y-99823D01*
X43546Y-99812D01*
X43490Y-99794D01*
X43435Y-99779D01*
X43387Y-99761D01*
X43342Y-99738D01*
X43302Y-99720D01*
X43265Y-99701D01*
X43235Y-99679D01*
X43205Y-99661D01*
X43183Y-99646D01*
X43165Y-99631D01*
X43150Y-99620D01*
X43139Y-99609D01*
X43135Y-99605D01*
X43132Y-99601D01*
X43102Y-99564D01*
X43072Y-99527D01*
X43028Y-99450D01*
X42998Y-99372D01*
X42976Y-99298D01*
X42961Y-99235D01*
X42958Y-99209D01*
Y-99183D01*
X42954Y-99165D01*
Y-99150D01*
Y-99143D01*
Y-99139D01*
X42958Y-99061D01*
X42969Y-98991D01*
X42987Y-98924D01*
X43006Y-98869D01*
X43028Y-98821D01*
X43043Y-98784D01*
X43058Y-98761D01*
X43061Y-98758D01*
Y-98754D01*
X43106Y-98695D01*
X43150Y-98643D01*
X43198Y-98599D01*
X43242Y-98565D01*
X43283Y-98540D01*
X43317Y-98525D01*
X43339Y-98514D01*
X43342Y-98510D01*
X43346D01*
X43379Y-98499D01*
X43420Y-98488D01*
X43501Y-98469D01*
X43590Y-98458D01*
X43672Y-98447D01*
X43749Y-98443D01*
X43783D01*
X43812Y-98440D01*
X45000D01*
Y-101000D01*
D02*
G37*
G36*
X46207Y-66932D02*
X46266Y-66940D01*
X46325Y-66951D01*
X46377Y-66966D01*
X46477Y-67006D01*
X46521Y-67025D01*
X46558Y-67047D01*
X46595Y-67073D01*
X46625Y-67091D01*
X46655Y-67114D01*
X46677Y-67132D01*
X46695Y-67147D01*
X46707Y-67158D01*
X46714Y-67165D01*
X46718Y-67169D01*
X46758Y-67213D01*
X46792Y-67265D01*
X46825Y-67313D01*
X46851Y-67365D01*
X46873Y-67421D01*
X46891Y-67472D01*
X46917Y-67569D01*
X46929Y-67617D01*
X46936Y-67657D01*
X46940Y-67698D01*
X46943Y-67731D01*
X46947Y-67757D01*
Y-67776D01*
Y-67791D01*
Y-67794D01*
X46943Y-67865D01*
X46936Y-67927D01*
X46929Y-67990D01*
X46914Y-68050D01*
X46895Y-68101D01*
X46877Y-68153D01*
X46858Y-68198D01*
X46836Y-68238D01*
X46817Y-68275D01*
X46799Y-68309D01*
X46780Y-68335D01*
X46762Y-68360D01*
X46747Y-68379D01*
X46740Y-68390D01*
X46732Y-68397D01*
X46729Y-68401D01*
X46688Y-68442D01*
X46644Y-68475D01*
X46599Y-68508D01*
X46551Y-68534D01*
X46507Y-68556D01*
X46462Y-68575D01*
X46377Y-68601D01*
X46340Y-68612D01*
X46303Y-68619D01*
X46274Y-68623D01*
X46244Y-68627D01*
X46222Y-68630D01*
X46192D01*
X46122Y-68627D01*
X46055Y-68616D01*
X45996Y-68601D01*
X45941Y-68582D01*
X45900Y-68568D01*
X45867Y-68553D01*
X45844Y-68542D01*
X45837Y-68538D01*
X45778Y-68501D01*
X45726Y-68460D01*
X45682Y-68420D01*
X45645Y-68383D01*
X45619Y-68346D01*
X45597Y-68320D01*
X45582Y-68301D01*
X45578Y-68294D01*
Y-68323D01*
Y-68342D01*
Y-68353D01*
Y-68357D01*
X45582Y-68431D01*
X45585Y-68501D01*
X45593Y-68564D01*
X45600Y-68623D01*
X45611Y-68671D01*
X45619Y-68708D01*
X45622Y-68723D01*
Y-68734D01*
X45626Y-68738D01*
Y-68742D01*
X45645Y-68808D01*
X45663Y-68867D01*
X45682Y-68919D01*
X45700Y-68963D01*
X45715Y-68997D01*
X45730Y-69023D01*
X45737Y-69041D01*
X45741Y-69045D01*
X45770Y-69086D01*
X45800Y-69119D01*
X45830Y-69148D01*
X45859Y-69174D01*
X45881Y-69197D01*
X45904Y-69211D01*
X45918Y-69219D01*
X45922Y-69222D01*
X45963Y-69245D01*
X46007Y-69260D01*
X46048Y-69271D01*
X46089Y-69278D01*
X46122Y-69282D01*
X46148Y-69285D01*
X46174D01*
X46233Y-69282D01*
X46288Y-69271D01*
X46336Y-69256D01*
X46377Y-69237D01*
X46407Y-69222D01*
X46433Y-69208D01*
X46448Y-69197D01*
X46451Y-69193D01*
X46488Y-69152D01*
X46518Y-69104D01*
X46544Y-69052D01*
X46562Y-69001D01*
X46577Y-68956D01*
X46588Y-68915D01*
X46592Y-68901D01*
Y-68893D01*
X46595Y-68886D01*
Y-68882D01*
X46899Y-68908D01*
X46877Y-69015D01*
X46847Y-69108D01*
X46810Y-69189D01*
X46773Y-69256D01*
X46736Y-69308D01*
X46718Y-69330D01*
X46703Y-69348D01*
X46692Y-69359D01*
X46681Y-69371D01*
X46677Y-69374D01*
X46673Y-69378D01*
X46636Y-69407D01*
X46595Y-69433D01*
X46514Y-69474D01*
X46433Y-69504D01*
X46355Y-69522D01*
X46285Y-69537D01*
X46255Y-69541D01*
X46229D01*
X46211Y-69544D01*
X46181D01*
X46077Y-69537D01*
X45985Y-69522D01*
X45900Y-69496D01*
X45830Y-69467D01*
X45800Y-69456D01*
X45770Y-69441D01*
X45748Y-69426D01*
X45726Y-69415D01*
X45711Y-69407D01*
X45700Y-69400D01*
X45693Y-69393D01*
X45689D01*
X45615Y-69330D01*
X45548Y-69260D01*
X45497Y-69186D01*
X45452Y-69115D01*
X45415Y-69052D01*
X45400Y-69023D01*
X45389Y-69001D01*
X45382Y-68978D01*
X45375Y-68963D01*
X45371Y-68956D01*
Y-68952D01*
X45352Y-68897D01*
X45334Y-68834D01*
X45308Y-68708D01*
X45289Y-68575D01*
X45278Y-68449D01*
X45271Y-68394D01*
X45267Y-68338D01*
Y-68290D01*
X45263Y-68249D01*
Y-68216D01*
Y-68190D01*
Y-68172D01*
Y-68168D01*
Y-68083D01*
X45267Y-68002D01*
X45275Y-67927D01*
X45282Y-67857D01*
X45289Y-67794D01*
X45297Y-67735D01*
X45308Y-67680D01*
X45319Y-67632D01*
X45330Y-67591D01*
X45338Y-67554D01*
X45349Y-67520D01*
X45356Y-67495D01*
X45363Y-67476D01*
X45371Y-67461D01*
X45375Y-67454D01*
Y-67450D01*
X45419Y-67361D01*
X45467Y-67284D01*
X45522Y-67217D01*
X45571Y-67162D01*
X45619Y-67121D01*
X45656Y-67091D01*
X45671Y-67080D01*
X45682Y-67073D01*
X45685Y-67065D01*
X45689D01*
X45767Y-67021D01*
X45844Y-66988D01*
X45922Y-66962D01*
X45992Y-66947D01*
X46055Y-66936D01*
X46081Y-66932D01*
X46100D01*
X46118Y-66928D01*
X46144D01*
X46207Y-66932D01*
D02*
G37*
G36*
X48416Y-66903D02*
X48534Y-66921D01*
X48638Y-66943D01*
X48686Y-66958D01*
X48730Y-66973D01*
X48771Y-66988D01*
X48808Y-67002D01*
X48838Y-67014D01*
X48867Y-67025D01*
X48886Y-67036D01*
X48901Y-67043D01*
X48912Y-67047D01*
X48915Y-67051D01*
X49015Y-67114D01*
X49100Y-67188D01*
X49174Y-67261D01*
X49237Y-67335D01*
X49285Y-67402D01*
X49304Y-67432D01*
X49319Y-67458D01*
X49334Y-67476D01*
X49341Y-67491D01*
X49345Y-67502D01*
X49348Y-67506D01*
X49400Y-67620D01*
X49437Y-67739D01*
X49463Y-67857D01*
X49481Y-67965D01*
X49489Y-68013D01*
X49493Y-68061D01*
X49496Y-68098D01*
Y-68135D01*
X49500Y-68161D01*
Y-68183D01*
Y-68198D01*
Y-68201D01*
X49493Y-68335D01*
X49478Y-68464D01*
X49459Y-68579D01*
X49444Y-68634D01*
X49433Y-68682D01*
X49422Y-68727D01*
X49408Y-68767D01*
X49396Y-68804D01*
X49389Y-68834D01*
X49378Y-68856D01*
X49374Y-68875D01*
X49367Y-68886D01*
Y-68889D01*
X49311Y-69001D01*
X49248Y-69100D01*
X49182Y-69186D01*
X49148Y-69219D01*
X49119Y-69252D01*
X49089Y-69282D01*
X49060Y-69308D01*
X49034Y-69330D01*
X49012Y-69345D01*
X48997Y-69359D01*
X48982Y-69371D01*
X48975Y-69374D01*
X48971Y-69378D01*
X48919Y-69407D01*
X48867Y-69433D01*
X48756Y-69474D01*
X48645Y-69504D01*
X48538Y-69522D01*
X48486Y-69530D01*
X48442Y-69537D01*
X48401Y-69541D01*
X48368D01*
X48338Y-69544D01*
X48298D01*
X48224Y-69541D01*
X48153Y-69533D01*
X48087Y-69526D01*
X48024Y-69511D01*
X47965Y-69493D01*
X47909Y-69474D01*
X47857Y-69456D01*
X47809Y-69433D01*
X47768Y-69415D01*
X47728Y-69396D01*
X47698Y-69378D01*
X47668Y-69359D01*
X47650Y-69345D01*
X47631Y-69337D01*
X47624Y-69330D01*
X47620Y-69326D01*
X47569Y-69282D01*
X47524Y-69237D01*
X47484Y-69186D01*
X47443Y-69134D01*
X47376Y-69030D01*
X47324Y-68927D01*
X47302Y-68878D01*
X47284Y-68834D01*
X47269Y-68793D01*
X47258Y-68760D01*
X47247Y-68730D01*
X47239Y-68708D01*
X47236Y-68693D01*
Y-68690D01*
X47576Y-68605D01*
X47591Y-68664D01*
X47609Y-68719D01*
X47628Y-68771D01*
X47646Y-68819D01*
X47668Y-68864D01*
X47691Y-68901D01*
X47717Y-68938D01*
X47739Y-68971D01*
X47757Y-69001D01*
X47780Y-69023D01*
X47798Y-69045D01*
X47813Y-69063D01*
X47828Y-69074D01*
X47839Y-69086D01*
X47842Y-69089D01*
X47846Y-69093D01*
X47883Y-69123D01*
X47924Y-69145D01*
X48005Y-69186D01*
X48083Y-69215D01*
X48161Y-69234D01*
X48227Y-69248D01*
X48253Y-69252D01*
X48279D01*
X48301Y-69256D01*
X48327D01*
X48412Y-69252D01*
X48494Y-69237D01*
X48568Y-69219D01*
X48634Y-69197D01*
X48686Y-69174D01*
X48708Y-69163D01*
X48727Y-69156D01*
X48741Y-69148D01*
X48753Y-69141D01*
X48760Y-69137D01*
X48764D01*
X48834Y-69086D01*
X48893Y-69030D01*
X48945Y-68967D01*
X48986Y-68908D01*
X49019Y-68856D01*
X49041Y-68812D01*
X49049Y-68793D01*
X49056Y-68782D01*
X49060Y-68775D01*
Y-68771D01*
X49089Y-68675D01*
X49112Y-68579D01*
X49130Y-68483D01*
X49141Y-68394D01*
X49145Y-68353D01*
X49148Y-68316D01*
Y-68283D01*
X49152Y-68257D01*
Y-68235D01*
Y-68216D01*
Y-68205D01*
Y-68201D01*
X49148Y-68105D01*
X49141Y-68016D01*
X49126Y-67935D01*
X49112Y-67861D01*
X49100Y-67798D01*
X49093Y-67772D01*
X49086Y-67750D01*
X49082Y-67731D01*
X49078Y-67720D01*
X49075Y-67713D01*
Y-67709D01*
X49038Y-67624D01*
X48997Y-67546D01*
X48952Y-67484D01*
X48904Y-67428D01*
X48864Y-67384D01*
X48830Y-67354D01*
X48804Y-67335D01*
X48801Y-67328D01*
X48797D01*
X48719Y-67280D01*
X48634Y-67243D01*
X48553Y-67217D01*
X48475Y-67202D01*
X48405Y-67191D01*
X48375Y-67188D01*
X48349D01*
X48331Y-67184D01*
X48301D01*
X48209Y-67188D01*
X48124Y-67202D01*
X48053Y-67225D01*
X47990Y-67247D01*
X47942Y-67273D01*
X47905Y-67291D01*
X47883Y-67306D01*
X47876Y-67313D01*
X47817Y-67369D01*
X47761Y-67432D01*
X47717Y-67498D01*
X47680Y-67565D01*
X47650Y-67624D01*
X47639Y-67654D01*
X47631Y-67676D01*
X47624Y-67694D01*
X47617Y-67709D01*
X47613Y-67717D01*
Y-67720D01*
X47280Y-67643D01*
X47302Y-67576D01*
X47324Y-67517D01*
X47354Y-67461D01*
X47380Y-67406D01*
X47409Y-67358D01*
X47443Y-67313D01*
X47472Y-67269D01*
X47502Y-67232D01*
X47532Y-67202D01*
X47558Y-67173D01*
X47583Y-67147D01*
X47602Y-67128D01*
X47620Y-67110D01*
X47635Y-67099D01*
X47643Y-67095D01*
X47646Y-67091D01*
X47698Y-67058D01*
X47750Y-67025D01*
X47802Y-66999D01*
X47857Y-66977D01*
X47968Y-66943D01*
X48068Y-66921D01*
X48116Y-66910D01*
X48157Y-66906D01*
X48198Y-66903D01*
X48231Y-66899D01*
X48257Y-66895D01*
X48294D01*
X48416Y-66903D01*
D02*
G37*
G36*
X56916D02*
X57034Y-66921D01*
X57138Y-66943D01*
X57186Y-66958D01*
X57230Y-66973D01*
X57271Y-66988D01*
X57308Y-67002D01*
X57338Y-67014D01*
X57367Y-67025D01*
X57386Y-67036D01*
X57401Y-67043D01*
X57412Y-67047D01*
X57415Y-67051D01*
X57515Y-67114D01*
X57600Y-67188D01*
X57674Y-67261D01*
X57737Y-67335D01*
X57785Y-67402D01*
X57804Y-67432D01*
X57819Y-67458D01*
X57833Y-67476D01*
X57841Y-67491D01*
X57845Y-67502D01*
X57848Y-67506D01*
X57900Y-67620D01*
X57937Y-67739D01*
X57963Y-67857D01*
X57981Y-67965D01*
X57989Y-68013D01*
X57993Y-68061D01*
X57996Y-68098D01*
Y-68135D01*
X58000Y-68161D01*
Y-68183D01*
Y-68198D01*
Y-68201D01*
X57993Y-68335D01*
X57978Y-68464D01*
X57959Y-68579D01*
X57945Y-68634D01*
X57933Y-68682D01*
X57922Y-68727D01*
X57907Y-68767D01*
X57896Y-68804D01*
X57889Y-68834D01*
X57878Y-68856D01*
X57874Y-68875D01*
X57867Y-68886D01*
Y-68889D01*
X57811Y-69001D01*
X57748Y-69100D01*
X57682Y-69186D01*
X57648Y-69219D01*
X57619Y-69252D01*
X57589Y-69282D01*
X57560Y-69308D01*
X57534Y-69330D01*
X57512Y-69345D01*
X57497Y-69359D01*
X57482Y-69371D01*
X57475Y-69374D01*
X57471Y-69378D01*
X57419Y-69407D01*
X57367Y-69433D01*
X57256Y-69474D01*
X57145Y-69504D01*
X57038Y-69522D01*
X56986Y-69530D01*
X56942Y-69537D01*
X56901Y-69541D01*
X56868D01*
X56838Y-69544D01*
X56797D01*
X56723Y-69541D01*
X56653Y-69533D01*
X56587Y-69526D01*
X56524Y-69511D01*
X56464Y-69493D01*
X56409Y-69474D01*
X56357Y-69456D01*
X56309Y-69433D01*
X56268Y-69415D01*
X56228Y-69396D01*
X56198Y-69378D01*
X56169Y-69359D01*
X56150Y-69345D01*
X56132Y-69337D01*
X56124Y-69330D01*
X56120Y-69326D01*
X56069Y-69282D01*
X56024Y-69237D01*
X55984Y-69186D01*
X55943Y-69134D01*
X55876Y-69030D01*
X55824Y-68927D01*
X55802Y-68878D01*
X55784Y-68834D01*
X55769Y-68793D01*
X55758Y-68760D01*
X55747Y-68730D01*
X55739Y-68708D01*
X55736Y-68693D01*
Y-68690D01*
X56076Y-68605D01*
X56091Y-68664D01*
X56109Y-68719D01*
X56128Y-68771D01*
X56146Y-68819D01*
X56169Y-68864D01*
X56191Y-68901D01*
X56217Y-68938D01*
X56239Y-68971D01*
X56257Y-69001D01*
X56279Y-69023D01*
X56298Y-69045D01*
X56313Y-69063D01*
X56328Y-69074D01*
X56339Y-69086D01*
X56342Y-69089D01*
X56346Y-69093D01*
X56383Y-69123D01*
X56424Y-69145D01*
X56505Y-69186D01*
X56583Y-69215D01*
X56661Y-69234D01*
X56727Y-69248D01*
X56753Y-69252D01*
X56779D01*
X56801Y-69256D01*
X56827D01*
X56912Y-69252D01*
X56994Y-69237D01*
X57068Y-69219D01*
X57134Y-69197D01*
X57186Y-69174D01*
X57208Y-69163D01*
X57227Y-69156D01*
X57241Y-69148D01*
X57253Y-69141D01*
X57260Y-69137D01*
X57264D01*
X57334Y-69086D01*
X57393Y-69030D01*
X57445Y-68967D01*
X57486Y-68908D01*
X57519Y-68856D01*
X57541Y-68812D01*
X57549Y-68793D01*
X57556Y-68782D01*
X57560Y-68775D01*
Y-68771D01*
X57589Y-68675D01*
X57612Y-68579D01*
X57630Y-68483D01*
X57641Y-68394D01*
X57645Y-68353D01*
X57648Y-68316D01*
Y-68283D01*
X57652Y-68257D01*
Y-68235D01*
Y-68216D01*
Y-68205D01*
Y-68201D01*
X57648Y-68105D01*
X57641Y-68016D01*
X57626Y-67935D01*
X57612Y-67861D01*
X57600Y-67798D01*
X57593Y-67772D01*
X57586Y-67750D01*
X57582Y-67731D01*
X57578Y-67720D01*
X57574Y-67713D01*
Y-67709D01*
X57538Y-67624D01*
X57497Y-67546D01*
X57452Y-67484D01*
X57404Y-67428D01*
X57364Y-67384D01*
X57330Y-67354D01*
X57304Y-67335D01*
X57301Y-67328D01*
X57297D01*
X57219Y-67280D01*
X57134Y-67243D01*
X57053Y-67217D01*
X56975Y-67202D01*
X56905Y-67191D01*
X56875Y-67188D01*
X56849D01*
X56831Y-67184D01*
X56801D01*
X56709Y-67188D01*
X56624Y-67202D01*
X56553Y-67225D01*
X56490Y-67247D01*
X56442Y-67273D01*
X56405Y-67291D01*
X56383Y-67306D01*
X56376Y-67313D01*
X56317Y-67369D01*
X56261Y-67432D01*
X56217Y-67498D01*
X56180Y-67565D01*
X56150Y-67624D01*
X56139Y-67654D01*
X56132Y-67676D01*
X56124Y-67694D01*
X56117Y-67709D01*
X56113Y-67717D01*
Y-67720D01*
X55780Y-67643D01*
X55802Y-67576D01*
X55824Y-67517D01*
X55854Y-67461D01*
X55880Y-67406D01*
X55910Y-67358D01*
X55943Y-67313D01*
X55972Y-67269D01*
X56002Y-67232D01*
X56032Y-67202D01*
X56058Y-67173D01*
X56083Y-67147D01*
X56102Y-67128D01*
X56120Y-67110D01*
X56135Y-67099D01*
X56143Y-67095D01*
X56146Y-67091D01*
X56198Y-67058D01*
X56250Y-67025D01*
X56302Y-66999D01*
X56357Y-66977D01*
X56468Y-66943D01*
X56568Y-66921D01*
X56616Y-66910D01*
X56657Y-66906D01*
X56698Y-66903D01*
X56731Y-66899D01*
X56757Y-66895D01*
X56794D01*
X56916Y-66903D01*
D02*
G37*
G36*
X54674Y-66932D02*
X54733Y-66936D01*
X54836Y-66958D01*
X54885Y-66973D01*
X54929Y-66988D01*
X54970Y-67006D01*
X55007Y-67025D01*
X55036Y-67043D01*
X55066Y-67062D01*
X55092Y-67076D01*
X55110Y-67091D01*
X55125Y-67102D01*
X55136Y-67114D01*
X55144Y-67117D01*
X55147Y-67121D01*
X55181Y-67158D01*
X55214Y-67195D01*
X55240Y-67236D01*
X55262Y-67276D01*
X55299Y-67354D01*
X55321Y-67428D01*
X55336Y-67491D01*
X55340Y-67520D01*
X55343Y-67543D01*
X55347Y-67565D01*
Y-67580D01*
Y-67587D01*
Y-67591D01*
X55343Y-67657D01*
X55332Y-67720D01*
X55317Y-67776D01*
X55299Y-67824D01*
X55284Y-67861D01*
X55269Y-67891D01*
X55258Y-67905D01*
X55255Y-67913D01*
X55214Y-67957D01*
X55169Y-67998D01*
X55121Y-68035D01*
X55073Y-68064D01*
X55029Y-68087D01*
X54996Y-68101D01*
X54981Y-68109D01*
X54970Y-68112D01*
X54966Y-68116D01*
X54962D01*
X55047Y-68142D01*
X55118Y-68175D01*
X55181Y-68216D01*
X55232Y-68253D01*
X55273Y-68290D01*
X55303Y-68320D01*
X55317Y-68338D01*
X55325Y-68342D01*
Y-68346D01*
X55366Y-68412D01*
X55399Y-68483D01*
X55421Y-68549D01*
X55436Y-68616D01*
X55443Y-68675D01*
X55447Y-68701D01*
Y-68723D01*
X55451Y-68738D01*
Y-68753D01*
Y-68760D01*
Y-68764D01*
X55447Y-68823D01*
X55440Y-68882D01*
X55428Y-68938D01*
X55414Y-68993D01*
X55377Y-69086D01*
X55358Y-69130D01*
X55336Y-69167D01*
X55314Y-69204D01*
X55295Y-69234D01*
X55273Y-69260D01*
X55258Y-69282D01*
X55243Y-69300D01*
X55232Y-69311D01*
X55225Y-69319D01*
X55221Y-69322D01*
X55177Y-69363D01*
X55129Y-69396D01*
X55077Y-69426D01*
X55025Y-69452D01*
X54977Y-69470D01*
X54925Y-69489D01*
X54825Y-69515D01*
X54781Y-69526D01*
X54740Y-69533D01*
X54703Y-69537D01*
X54670Y-69541D01*
X54644Y-69544D01*
X54607D01*
X54537Y-69541D01*
X54474Y-69533D01*
X54411Y-69522D01*
X54352Y-69511D01*
X54300Y-69493D01*
X54248Y-69474D01*
X54200Y-69456D01*
X54159Y-69433D01*
X54122Y-69411D01*
X54089Y-69393D01*
X54063Y-69374D01*
X54037Y-69356D01*
X54019Y-69345D01*
X54008Y-69333D01*
X54000Y-69326D01*
X53997Y-69322D01*
X53956Y-69278D01*
X53919Y-69234D01*
X53889Y-69189D01*
X53863Y-69141D01*
X53838Y-69097D01*
X53819Y-69049D01*
X53793Y-68963D01*
X53782Y-68923D01*
X53775Y-68886D01*
X53771Y-68853D01*
X53767Y-68827D01*
X53764Y-68804D01*
Y-68786D01*
Y-68775D01*
Y-68771D01*
X53767Y-68686D01*
X53782Y-68608D01*
X53804Y-68538D01*
X53826Y-68479D01*
X53849Y-68431D01*
X53871Y-68394D01*
X53886Y-68371D01*
X53889Y-68368D01*
Y-68364D01*
X53941Y-68305D01*
X53997Y-68253D01*
X54056Y-68212D01*
X54111Y-68175D01*
X54163Y-68150D01*
X54207Y-68131D01*
X54222Y-68124D01*
X54233Y-68120D01*
X54241Y-68116D01*
X54245D01*
X54178Y-68087D01*
X54122Y-68053D01*
X54074Y-68020D01*
X54034Y-67987D01*
X54004Y-67957D01*
X53982Y-67935D01*
X53967Y-67920D01*
X53963Y-67913D01*
X53930Y-67861D01*
X53908Y-67809D01*
X53889Y-67757D01*
X53878Y-67706D01*
X53871Y-67665D01*
X53867Y-67632D01*
Y-67609D01*
Y-67606D01*
Y-67602D01*
X53871Y-67550D01*
X53874Y-67502D01*
X53900Y-67409D01*
X53934Y-67328D01*
X53971Y-67258D01*
X54008Y-67202D01*
X54026Y-67180D01*
X54041Y-67158D01*
X54056Y-67143D01*
X54067Y-67132D01*
X54071Y-67128D01*
X54074Y-67125D01*
X54115Y-67091D01*
X54156Y-67058D01*
X54200Y-67032D01*
X54245Y-67010D01*
X54333Y-66977D01*
X54422Y-66954D01*
X54459Y-66943D01*
X54496Y-66940D01*
X54529Y-66936D01*
X54559Y-66932D01*
X54581Y-66928D01*
X54615D01*
X54674Y-66932D01*
D02*
G37*
G36*
X117166Y-85932D02*
X117229Y-85936D01*
X117288Y-85947D01*
X117344Y-85958D01*
X117396Y-85973D01*
X117444Y-85988D01*
X117488Y-86006D01*
X117529Y-86025D01*
X117566Y-86043D01*
X117596Y-86062D01*
X117621Y-86076D01*
X117644Y-86091D01*
X117662Y-86102D01*
X117673Y-86114D01*
X117681Y-86117D01*
X117684Y-86121D01*
X117721Y-86158D01*
X117755Y-86199D01*
X117788Y-86243D01*
X117814Y-86287D01*
X117858Y-86376D01*
X117888Y-86465D01*
X117899Y-86506D01*
X117910Y-86546D01*
X117917Y-86580D01*
X117925Y-86609D01*
X117929Y-86635D01*
Y-86654D01*
X117932Y-86665D01*
Y-86668D01*
X117610Y-86702D01*
X117603Y-86617D01*
X117588Y-86543D01*
X117566Y-86476D01*
X117540Y-86424D01*
X117518Y-86380D01*
X117496Y-86350D01*
X117481Y-86332D01*
X117473Y-86324D01*
X117418Y-86280D01*
X117359Y-86247D01*
X117296Y-86221D01*
X117240Y-86206D01*
X117189Y-86195D01*
X117144Y-86191D01*
X117129Y-86187D01*
X117107D01*
X117029Y-86191D01*
X116959Y-86206D01*
X116900Y-86228D01*
X116848Y-86250D01*
X116807Y-86276D01*
X116781Y-86295D01*
X116763Y-86310D01*
X116756Y-86317D01*
X116711Y-86369D01*
X116678Y-86421D01*
X116652Y-86472D01*
X116637Y-86524D01*
X116626Y-86565D01*
X116622Y-86602D01*
X116619Y-86624D01*
Y-86628D01*
Y-86632D01*
X116626Y-86698D01*
X116641Y-86768D01*
X116667Y-86831D01*
X116693Y-86891D01*
X116722Y-86939D01*
X116748Y-86979D01*
X116756Y-86994D01*
X116763Y-87005D01*
X116770Y-87009D01*
Y-87013D01*
X116800Y-87053D01*
X116837Y-87094D01*
X116878Y-87138D01*
X116922Y-87183D01*
X117015Y-87272D01*
X117107Y-87360D01*
X117155Y-87401D01*
X117196Y-87438D01*
X117237Y-87471D01*
X117270Y-87501D01*
X117296Y-87523D01*
X117318Y-87542D01*
X117333Y-87553D01*
X117336Y-87556D01*
X117429Y-87634D01*
X117514Y-87708D01*
X117584Y-87775D01*
X117640Y-87830D01*
X117688Y-87878D01*
X117721Y-87912D01*
X117740Y-87934D01*
X117747Y-87938D01*
Y-87941D01*
X117799Y-88004D01*
X117840Y-88063D01*
X117877Y-88123D01*
X117906Y-88174D01*
X117929Y-88219D01*
X117943Y-88252D01*
X117951Y-88274D01*
X117954Y-88278D01*
Y-88282D01*
X117969Y-88322D01*
X117977Y-88359D01*
X117984Y-88396D01*
X117988Y-88430D01*
X117991Y-88459D01*
Y-88481D01*
Y-88496D01*
Y-88500D01*
X116293D01*
Y-88197D01*
X117555D01*
X117510Y-88134D01*
X117488Y-88108D01*
X117470Y-88082D01*
X117451Y-88060D01*
X117436Y-88045D01*
X117425Y-88034D01*
X117422Y-88030D01*
X117403Y-88012D01*
X117381Y-87993D01*
X117329Y-87945D01*
X117270Y-87889D01*
X117207Y-87834D01*
X117148Y-87786D01*
X117122Y-87764D01*
X117100Y-87742D01*
X117081Y-87727D01*
X117066Y-87716D01*
X117059Y-87708D01*
X117055Y-87704D01*
X116996Y-87653D01*
X116937Y-87605D01*
X116885Y-87556D01*
X116837Y-87516D01*
X116793Y-87475D01*
X116756Y-87438D01*
X116719Y-87405D01*
X116689Y-87375D01*
X116659Y-87346D01*
X116637Y-87323D01*
X116619Y-87305D01*
X116600Y-87286D01*
X116582Y-87264D01*
X116574Y-87257D01*
X116523Y-87194D01*
X116478Y-87138D01*
X116441Y-87083D01*
X116411Y-87038D01*
X116389Y-86998D01*
X116375Y-86968D01*
X116367Y-86950D01*
X116363Y-86942D01*
X116341Y-86887D01*
X116326Y-86831D01*
X116312Y-86779D01*
X116304Y-86735D01*
X116300Y-86694D01*
X116297Y-86665D01*
Y-86646D01*
Y-86639D01*
X116300Y-86583D01*
X116308Y-86532D01*
X116315Y-86480D01*
X116330Y-86435D01*
X116367Y-86347D01*
X116404Y-86276D01*
X116426Y-86243D01*
X116445Y-86217D01*
X116463Y-86191D01*
X116482Y-86173D01*
X116497Y-86158D01*
X116504Y-86143D01*
X116511Y-86139D01*
X116515Y-86136D01*
X116556Y-86099D01*
X116600Y-86065D01*
X116648Y-86040D01*
X116696Y-86017D01*
X116793Y-85980D01*
X116889Y-85954D01*
X116929Y-85947D01*
X116970Y-85940D01*
X117007Y-85936D01*
X117037Y-85932D01*
X117063Y-85928D01*
X117100D01*
X117166Y-85932D01*
D02*
G37*
G36*
X119416Y-85903D02*
X119534Y-85921D01*
X119638Y-85943D01*
X119686Y-85958D01*
X119730Y-85973D01*
X119771Y-85988D01*
X119808Y-86002D01*
X119838Y-86014D01*
X119867Y-86025D01*
X119886Y-86036D01*
X119901Y-86043D01*
X119912Y-86047D01*
X119915Y-86051D01*
X120015Y-86114D01*
X120100Y-86187D01*
X120174Y-86261D01*
X120237Y-86335D01*
X120285Y-86402D01*
X120304Y-86432D01*
X120319Y-86458D01*
X120334Y-86476D01*
X120341Y-86491D01*
X120345Y-86502D01*
X120348Y-86506D01*
X120400Y-86620D01*
X120437Y-86739D01*
X120463Y-86857D01*
X120482Y-86964D01*
X120489Y-87013D01*
X120493Y-87061D01*
X120496Y-87098D01*
Y-87135D01*
X120500Y-87161D01*
Y-87183D01*
Y-87198D01*
Y-87201D01*
X120493Y-87335D01*
X120478Y-87464D01*
X120459Y-87579D01*
X120445Y-87634D01*
X120433Y-87682D01*
X120422Y-87727D01*
X120407Y-87767D01*
X120396Y-87804D01*
X120389Y-87834D01*
X120378Y-87856D01*
X120374Y-87875D01*
X120367Y-87886D01*
Y-87889D01*
X120311Y-88001D01*
X120248Y-88100D01*
X120182Y-88186D01*
X120149Y-88219D01*
X120119Y-88252D01*
X120089Y-88282D01*
X120060Y-88308D01*
X120034Y-88330D01*
X120012Y-88345D01*
X119997Y-88359D01*
X119982Y-88371D01*
X119975Y-88374D01*
X119971Y-88378D01*
X119919Y-88407D01*
X119867Y-88433D01*
X119756Y-88474D01*
X119645Y-88504D01*
X119538Y-88522D01*
X119486Y-88530D01*
X119442Y-88537D01*
X119401Y-88541D01*
X119368D01*
X119338Y-88544D01*
X119298D01*
X119223Y-88541D01*
X119153Y-88533D01*
X119087Y-88526D01*
X119024Y-88511D01*
X118965Y-88493D01*
X118909Y-88474D01*
X118857Y-88456D01*
X118809Y-88433D01*
X118768Y-88415D01*
X118728Y-88396D01*
X118698Y-88378D01*
X118668Y-88359D01*
X118650Y-88345D01*
X118631Y-88337D01*
X118624Y-88330D01*
X118620Y-88326D01*
X118569Y-88282D01*
X118524Y-88237D01*
X118483Y-88186D01*
X118443Y-88134D01*
X118376Y-88030D01*
X118324Y-87927D01*
X118302Y-87878D01*
X118284Y-87834D01*
X118269Y-87793D01*
X118258Y-87760D01*
X118247Y-87730D01*
X118239Y-87708D01*
X118236Y-87693D01*
Y-87690D01*
X118576Y-87605D01*
X118591Y-87664D01*
X118609Y-87719D01*
X118628Y-87771D01*
X118646Y-87819D01*
X118668Y-87864D01*
X118691Y-87901D01*
X118717Y-87938D01*
X118739Y-87971D01*
X118757Y-88001D01*
X118780Y-88023D01*
X118798Y-88045D01*
X118813Y-88063D01*
X118828Y-88074D01*
X118839Y-88086D01*
X118842Y-88089D01*
X118846Y-88093D01*
X118883Y-88123D01*
X118924Y-88145D01*
X119005Y-88186D01*
X119083Y-88215D01*
X119161Y-88234D01*
X119227Y-88248D01*
X119253Y-88252D01*
X119279D01*
X119301Y-88256D01*
X119327D01*
X119412Y-88252D01*
X119494Y-88237D01*
X119568Y-88219D01*
X119634Y-88197D01*
X119686Y-88174D01*
X119708Y-88163D01*
X119727Y-88156D01*
X119741Y-88148D01*
X119753Y-88141D01*
X119760Y-88137D01*
X119764D01*
X119834Y-88086D01*
X119893Y-88030D01*
X119945Y-87967D01*
X119986Y-87908D01*
X120019Y-87856D01*
X120041Y-87812D01*
X120049Y-87793D01*
X120056Y-87782D01*
X120060Y-87775D01*
Y-87771D01*
X120089Y-87675D01*
X120112Y-87579D01*
X120130Y-87483D01*
X120141Y-87394D01*
X120145Y-87353D01*
X120149Y-87316D01*
Y-87283D01*
X120152Y-87257D01*
Y-87235D01*
Y-87216D01*
Y-87205D01*
Y-87201D01*
X120149Y-87105D01*
X120141Y-87016D01*
X120126Y-86935D01*
X120112Y-86861D01*
X120100Y-86798D01*
X120093Y-86772D01*
X120086Y-86750D01*
X120082Y-86731D01*
X120078Y-86720D01*
X120074Y-86713D01*
Y-86709D01*
X120037Y-86624D01*
X119997Y-86546D01*
X119952Y-86484D01*
X119904Y-86428D01*
X119864Y-86384D01*
X119830Y-86354D01*
X119804Y-86335D01*
X119801Y-86328D01*
X119797D01*
X119719Y-86280D01*
X119634Y-86243D01*
X119553Y-86217D01*
X119475Y-86202D01*
X119405Y-86191D01*
X119375Y-86187D01*
X119349D01*
X119331Y-86184D01*
X119301D01*
X119209Y-86187D01*
X119124Y-86202D01*
X119053Y-86225D01*
X118990Y-86247D01*
X118942Y-86273D01*
X118905Y-86291D01*
X118883Y-86306D01*
X118876Y-86313D01*
X118816Y-86369D01*
X118761Y-86432D01*
X118717Y-86498D01*
X118680Y-86565D01*
X118650Y-86624D01*
X118639Y-86654D01*
X118631Y-86676D01*
X118624Y-86694D01*
X118617Y-86709D01*
X118613Y-86717D01*
Y-86720D01*
X118280Y-86643D01*
X118302Y-86576D01*
X118324Y-86517D01*
X118354Y-86461D01*
X118380Y-86406D01*
X118410Y-86358D01*
X118443Y-86313D01*
X118472Y-86269D01*
X118502Y-86232D01*
X118532Y-86202D01*
X118558Y-86173D01*
X118583Y-86147D01*
X118602Y-86128D01*
X118620Y-86110D01*
X118635Y-86099D01*
X118643Y-86095D01*
X118646Y-86091D01*
X118698Y-86058D01*
X118750Y-86025D01*
X118802Y-85999D01*
X118857Y-85977D01*
X118968Y-85943D01*
X119068Y-85921D01*
X119116Y-85910D01*
X119157Y-85906D01*
X119198Y-85903D01*
X119231Y-85899D01*
X119257Y-85895D01*
X119294D01*
X119416Y-85903D01*
D02*
G37*
G36*
X100835Y-99007D02*
X100964Y-99022D01*
X101079Y-99041D01*
X101134Y-99055D01*
X101182Y-99067D01*
X101227Y-99078D01*
X101267Y-99093D01*
X101304Y-99104D01*
X101334Y-99111D01*
X101356Y-99122D01*
X101375Y-99126D01*
X101386Y-99133D01*
X101390D01*
X101500Y-99189D01*
X101600Y-99252D01*
X101686Y-99318D01*
X101719Y-99352D01*
X101752Y-99381D01*
X101782Y-99411D01*
X101808Y-99440D01*
X101830Y-99466D01*
X101845Y-99488D01*
X101859Y-99503D01*
X101871Y-99518D01*
X101874Y-99525D01*
X101878Y-99529D01*
X101908Y-99581D01*
X101933Y-99633D01*
X101974Y-99744D01*
X102004Y-99855D01*
X102022Y-99962D01*
X102030Y-100014D01*
X102037Y-100058D01*
X102041Y-100099D01*
Y-100132D01*
X102044Y-100162D01*
Y-100203D01*
X102041Y-100277D01*
X102033Y-100347D01*
X102026Y-100413D01*
X102011Y-100476D01*
X101993Y-100536D01*
X101974Y-100591D01*
X101956Y-100643D01*
X101933Y-100691D01*
X101915Y-100732D01*
X101896Y-100772D01*
X101878Y-100802D01*
X101859Y-100831D01*
X101845Y-100850D01*
X101837Y-100868D01*
X101830Y-100876D01*
X101826Y-100880D01*
X101782Y-100931D01*
X101737Y-100976D01*
X101686Y-101016D01*
X101634Y-101057D01*
X101530Y-101124D01*
X101426Y-101176D01*
X101378Y-101198D01*
X101334Y-101216D01*
X101293Y-101231D01*
X101260Y-101242D01*
X101230Y-101253D01*
X101208Y-101261D01*
X101193Y-101264D01*
X101190D01*
X101105Y-100924D01*
X101164Y-100909D01*
X101219Y-100891D01*
X101271Y-100872D01*
X101319Y-100854D01*
X101364Y-100831D01*
X101401Y-100809D01*
X101438Y-100783D01*
X101471Y-100761D01*
X101500Y-100743D01*
X101523Y-100721D01*
X101545Y-100702D01*
X101563Y-100687D01*
X101575Y-100672D01*
X101586Y-100661D01*
X101589Y-100658D01*
X101593Y-100654D01*
X101623Y-100617D01*
X101645Y-100576D01*
X101686Y-100495D01*
X101715Y-100417D01*
X101734Y-100339D01*
X101748Y-100273D01*
X101752Y-100247D01*
Y-100221D01*
X101756Y-100199D01*
Y-100173D01*
X101752Y-100088D01*
X101737Y-100006D01*
X101719Y-99932D01*
X101697Y-99866D01*
X101674Y-99814D01*
X101663Y-99792D01*
X101656Y-99773D01*
X101648Y-99758D01*
X101641Y-99747D01*
X101637Y-99740D01*
Y-99736D01*
X101586Y-99666D01*
X101530Y-99607D01*
X101467Y-99555D01*
X101408Y-99514D01*
X101356Y-99481D01*
X101312Y-99459D01*
X101293Y-99451D01*
X101282Y-99444D01*
X101275Y-99440D01*
X101271D01*
X101175Y-99411D01*
X101079Y-99388D01*
X100982Y-99370D01*
X100894Y-99359D01*
X100853Y-99355D01*
X100816Y-99352D01*
X100783D01*
X100757Y-99348D01*
X100735D01*
X100716D01*
X100705D01*
X100701D01*
X100605Y-99352D01*
X100516Y-99359D01*
X100435Y-99374D01*
X100361Y-99388D01*
X100298Y-99400D01*
X100272Y-99407D01*
X100250Y-99414D01*
X100231Y-99418D01*
X100220Y-99422D01*
X100213Y-99426D01*
X100209D01*
X100124Y-99462D01*
X100046Y-99503D01*
X99984Y-99548D01*
X99928Y-99596D01*
X99884Y-99636D01*
X99854Y-99670D01*
X99835Y-99696D01*
X99828Y-99699D01*
Y-99703D01*
X99780Y-99781D01*
X99743Y-99866D01*
X99717Y-99947D01*
X99702Y-100025D01*
X99691Y-100095D01*
X99687Y-100125D01*
Y-100151D01*
X99684Y-100169D01*
Y-100199D01*
X99687Y-100291D01*
X99702Y-100376D01*
X99725Y-100447D01*
X99747Y-100510D01*
X99773Y-100558D01*
X99791Y-100595D01*
X99806Y-100617D01*
X99813Y-100624D01*
X99869Y-100683D01*
X99932Y-100739D01*
X99998Y-100783D01*
X100065Y-100820D01*
X100124Y-100850D01*
X100154Y-100861D01*
X100176Y-100868D01*
X100194Y-100876D01*
X100209Y-100883D01*
X100217Y-100887D01*
X100220D01*
X100143Y-101220D01*
X100076Y-101198D01*
X100017Y-101176D01*
X99961Y-101146D01*
X99906Y-101120D01*
X99858Y-101091D01*
X99813Y-101057D01*
X99769Y-101028D01*
X99732Y-100998D01*
X99702Y-100968D01*
X99673Y-100943D01*
X99647Y-100917D01*
X99628Y-100898D01*
X99610Y-100880D01*
X99599Y-100865D01*
X99595Y-100857D01*
X99591Y-100854D01*
X99558Y-100802D01*
X99525Y-100750D01*
X99499Y-100698D01*
X99477Y-100643D01*
X99443Y-100532D01*
X99421Y-100432D01*
X99410Y-100384D01*
X99406Y-100343D01*
X99403Y-100302D01*
X99399Y-100269D01*
X99395Y-100243D01*
Y-100206D01*
X99403Y-100084D01*
X99421Y-99966D01*
X99443Y-99862D01*
X99458Y-99814D01*
X99473Y-99770D01*
X99488Y-99729D01*
X99502Y-99692D01*
X99514Y-99662D01*
X99525Y-99633D01*
X99536Y-99614D01*
X99543Y-99599D01*
X99547Y-99588D01*
X99551Y-99585D01*
X99613Y-99485D01*
X99687Y-99400D01*
X99761Y-99326D01*
X99835Y-99263D01*
X99902Y-99215D01*
X99932Y-99196D01*
X99958Y-99181D01*
X99976Y-99167D01*
X99991Y-99159D01*
X100002Y-99155D01*
X100006Y-99152D01*
X100120Y-99100D01*
X100239Y-99063D01*
X100357Y-99037D01*
X100464Y-99019D01*
X100513Y-99011D01*
X100561Y-99007D01*
X100598Y-99004D01*
X100635D01*
X100661Y-99000D01*
X100683D01*
X100698D01*
X100701D01*
X100835Y-99007D01*
D02*
G37*
G36*
X100354Y-101849D02*
X100328Y-101904D01*
X100302Y-101960D01*
X100276Y-102012D01*
X100254Y-102056D01*
X100235Y-102093D01*
X100220Y-102115D01*
X100217Y-102119D01*
Y-102123D01*
X100176Y-102189D01*
X100135Y-102249D01*
X100098Y-102300D01*
X100065Y-102341D01*
X100039Y-102378D01*
X100017Y-102400D01*
X100002Y-102419D01*
X99998Y-102422D01*
X102000D01*
Y-102737D01*
X99428D01*
Y-102533D01*
X99491Y-102497D01*
X99551Y-102456D01*
X99610Y-102408D01*
X99662Y-102363D01*
X99706Y-102319D01*
X99743Y-102286D01*
X99754Y-102271D01*
X99765Y-102260D01*
X99769Y-102256D01*
X99773Y-102252D01*
X99835Y-102175D01*
X99895Y-102097D01*
X99946Y-102023D01*
X99987Y-101949D01*
X100024Y-101886D01*
X100039Y-101860D01*
X100050Y-101838D01*
X100061Y-101819D01*
X100065Y-101805D01*
X100072Y-101797D01*
Y-101794D01*
X100376D01*
X100354Y-101849D01*
D02*
G37*
%LPC*%
G36*
X124910Y-89208D02*
Y-90355D01*
X125717D01*
X124910Y-89208D01*
D02*
G37*
G36*
X76853Y-157613D02*
X76753Y-157617D01*
X76668Y-157632D01*
X76594Y-157650D01*
X76538Y-157672D01*
X76490Y-157695D01*
X76461Y-157713D01*
X76442Y-157728D01*
X76435Y-157732D01*
X76390Y-157780D01*
X76357Y-157828D01*
X76335Y-157880D01*
X76316Y-157924D01*
X76309Y-157968D01*
X76305Y-158002D01*
X76302Y-158024D01*
Y-158028D01*
Y-158031D01*
X76305Y-158076D01*
X76313Y-158120D01*
X76324Y-158157D01*
X76335Y-158190D01*
X76350Y-158220D01*
X76361Y-158242D01*
X76368Y-158257D01*
X76372Y-158261D01*
X76398Y-158298D01*
X76431Y-158331D01*
X76464Y-158357D01*
X76498Y-158379D01*
X76527Y-158394D01*
X76550Y-158405D01*
X76564Y-158412D01*
X76572Y-158416D01*
X76624Y-158431D01*
X76683Y-158442D01*
X76742Y-158449D01*
X76801Y-158453D01*
X76853Y-158457D01*
X76897Y-158460D01*
X77660D01*
Y-157613D01*
X76853D01*
D02*
G37*
G36*
X108541Y-17911D02*
Y-19058D01*
X109347D01*
X108541Y-17911D01*
D02*
G37*
G36*
X93616Y-72616D02*
X93593D01*
X93516Y-72624D01*
X93445Y-72642D01*
X93386Y-72664D01*
X93334Y-72694D01*
X93294Y-72724D01*
X93264Y-72746D01*
X93246Y-72764D01*
X93238Y-72772D01*
X93190Y-72834D01*
X93153Y-72901D01*
X93127Y-72971D01*
X93112Y-73038D01*
X93101Y-73097D01*
X93098Y-73123D01*
Y-73145D01*
X93094Y-73164D01*
Y-73179D01*
Y-73186D01*
Y-73190D01*
X93101Y-73290D01*
X93116Y-73375D01*
X93138Y-73449D01*
X93164Y-73512D01*
X93194Y-73560D01*
X93216Y-73597D01*
X93231Y-73619D01*
X93238Y-73623D01*
Y-73626D01*
X93264Y-73656D01*
X93294Y-73678D01*
X93353Y-73719D01*
X93412Y-73745D01*
X93464Y-73767D01*
X93512Y-73778D01*
X93549Y-73782D01*
X93564Y-73785D01*
X93582D01*
X93634Y-73782D01*
X93682Y-73774D01*
X93726Y-73760D01*
X93764Y-73745D01*
X93797Y-73734D01*
X93823Y-73719D01*
X93837Y-73711D01*
X93845Y-73708D01*
X93889Y-73674D01*
X93926Y-73641D01*
X93960Y-73600D01*
X93985Y-73567D01*
X94008Y-73534D01*
X94023Y-73508D01*
X94034Y-73489D01*
X94037Y-73482D01*
X94059Y-73427D01*
X94074Y-73371D01*
X94089Y-73319D01*
X94096Y-73271D01*
X94100Y-73230D01*
X94104Y-73197D01*
Y-73179D01*
Y-73171D01*
X94096Y-73082D01*
X94082Y-73005D01*
X94056Y-72934D01*
X94030Y-72879D01*
X94004Y-72831D01*
X93978Y-72798D01*
X93963Y-72779D01*
X93956Y-72772D01*
X93897Y-72720D01*
X93837Y-72683D01*
X93775Y-72653D01*
X93719Y-72635D01*
X93667Y-72624D01*
X93630Y-72620D01*
X93616Y-72616D01*
D02*
G37*
G36*
X105660Y-41225D02*
X104853D01*
X104753Y-41228D01*
X104668Y-41243D01*
X104594Y-41262D01*
X104539Y-41284D01*
X104490Y-41306D01*
X104461Y-41324D01*
X104442Y-41339D01*
X104435Y-41343D01*
X104391Y-41391D01*
X104357Y-41439D01*
X104335Y-41491D01*
X104316Y-41535D01*
X104309Y-41580D01*
X104305Y-41613D01*
X104302Y-41635D01*
Y-41639D01*
Y-41643D01*
X104305Y-41687D01*
X104313Y-41731D01*
X104324Y-41768D01*
X104335Y-41802D01*
X104350Y-41831D01*
X104361Y-41853D01*
X104368Y-41868D01*
X104372Y-41872D01*
X104398Y-41909D01*
X104431Y-41942D01*
X104464Y-41968D01*
X104498Y-41990D01*
X104527Y-42005D01*
X104550Y-42016D01*
X104564Y-42024D01*
X104572Y-42027D01*
X104624Y-42042D01*
X104683Y-42053D01*
X104742Y-42061D01*
X104801Y-42064D01*
X104853Y-42068D01*
X104897Y-42072D01*
X105660D01*
Y-41225D01*
D02*
G37*
G36*
X91660Y-127725D02*
X90853D01*
X90753Y-127728D01*
X90668Y-127743D01*
X90594Y-127761D01*
X90539Y-127784D01*
X90490Y-127806D01*
X90461Y-127824D01*
X90442Y-127839D01*
X90435Y-127843D01*
X90390Y-127891D01*
X90357Y-127939D01*
X90335Y-127991D01*
X90316Y-128035D01*
X90309Y-128080D01*
X90305Y-128113D01*
X90302Y-128135D01*
Y-128139D01*
Y-128143D01*
X90305Y-128187D01*
X90313Y-128231D01*
X90324Y-128268D01*
X90335Y-128302D01*
X90350Y-128331D01*
X90361Y-128354D01*
X90368Y-128368D01*
X90372Y-128372D01*
X90398Y-128409D01*
X90431Y-128442D01*
X90465Y-128468D01*
X90498Y-128490D01*
X90527Y-128505D01*
X90550Y-128516D01*
X90564Y-128524D01*
X90572Y-128527D01*
X90624Y-128542D01*
X90683Y-128553D01*
X90742Y-128561D01*
X90801Y-128564D01*
X90853Y-128568D01*
X90897Y-128572D01*
X91660D01*
Y-127725D01*
D02*
G37*
G36*
X86750Y-127688D02*
X86727D01*
X86687Y-127691D01*
X86646Y-127695D01*
X86609Y-127706D01*
X86576Y-127721D01*
X86513Y-127754D01*
X86457Y-127791D01*
X86417Y-127832D01*
X86383Y-127865D01*
X86372Y-127880D01*
X86365Y-127891D01*
X86357Y-127895D01*
Y-127898D01*
X86332Y-127943D01*
X86309Y-127995D01*
X86287Y-128054D01*
X86272Y-128117D01*
X86258Y-128183D01*
X86247Y-128254D01*
X86228Y-128394D01*
X86221Y-128464D01*
X86217Y-128527D01*
X86213Y-128587D01*
Y-128635D01*
X86209Y-128679D01*
Y-128712D01*
Y-128731D01*
Y-128735D01*
Y-128738D01*
Y-128853D01*
X86217Y-128957D01*
X86224Y-129049D01*
X86232Y-129138D01*
X86243Y-129212D01*
X86258Y-129282D01*
X86272Y-129341D01*
X86283Y-129397D01*
X86298Y-129441D01*
X86313Y-129478D01*
X86324Y-129512D01*
X86339Y-129537D01*
X86346Y-129556D01*
X86354Y-129567D01*
X86361Y-129575D01*
Y-129578D01*
X86391Y-129615D01*
X86420Y-129645D01*
X86450Y-129674D01*
X86480Y-129697D01*
X86542Y-129734D01*
X86598Y-129760D01*
X86650Y-129774D01*
X86687Y-129782D01*
X86702Y-129785D01*
X86724D01*
X86765Y-129782D01*
X86801Y-129778D01*
X86872Y-129752D01*
X86935Y-129719D01*
X86990Y-129682D01*
X87031Y-129645D01*
X87064Y-129612D01*
X87083Y-129586D01*
X87090Y-129582D01*
Y-129578D01*
X87116Y-129534D01*
X87138Y-129482D01*
X87160Y-129423D01*
X87175Y-129360D01*
X87190Y-129293D01*
X87201Y-129223D01*
X87220Y-129079D01*
X87227Y-129012D01*
X87231Y-128949D01*
X87234Y-128890D01*
Y-128842D01*
X87238Y-128797D01*
Y-128764D01*
Y-128746D01*
Y-128738D01*
X87234Y-128624D01*
X87231Y-128520D01*
X87223Y-128424D01*
X87212Y-128335D01*
X87201Y-128257D01*
X87186Y-128187D01*
X87172Y-128124D01*
X87157Y-128069D01*
X87142Y-128021D01*
X87131Y-127980D01*
X87116Y-127946D01*
X87105Y-127917D01*
X87094Y-127898D01*
X87086Y-127884D01*
X87079Y-127876D01*
Y-127873D01*
X87053Y-127839D01*
X87027Y-127810D01*
X86998Y-127787D01*
X86968Y-127765D01*
X86909Y-127732D01*
X86853Y-127710D01*
X86805Y-127699D01*
X86765Y-127691D01*
X86750Y-127688D01*
D02*
G37*
G36*
X82670Y-157576D02*
X82633Y-157584D01*
X82566Y-157602D01*
X82507Y-157628D01*
X82455Y-157654D01*
X82415Y-157684D01*
X82385Y-157709D01*
X82367Y-157728D01*
X82359Y-157732D01*
Y-157735D01*
X82311Y-157798D01*
X82274Y-157869D01*
X82248Y-157942D01*
X82233Y-158013D01*
X82222Y-158072D01*
X82219Y-158098D01*
Y-158124D01*
X82215Y-158142D01*
Y-158157D01*
Y-158165D01*
Y-158168D01*
X82222Y-158264D01*
X82237Y-158350D01*
X82259Y-158420D01*
X82285Y-158479D01*
X82315Y-158527D01*
X82337Y-158560D01*
X82352Y-158583D01*
X82359Y-158590D01*
X82415Y-158642D01*
X82474Y-158679D01*
X82533Y-158705D01*
X82592Y-158723D01*
X82640Y-158734D01*
X82681Y-158738D01*
X82696Y-158742D01*
X82718D01*
X82796Y-158734D01*
X82866Y-158720D01*
X82929Y-158694D01*
X82985Y-158664D01*
X83025Y-158638D01*
X83059Y-158612D01*
X83077Y-158597D01*
X83084Y-158590D01*
X83132Y-158531D01*
X83170Y-158464D01*
X83192Y-158398D01*
X83210Y-158335D01*
X83221Y-158279D01*
X83225Y-158257D01*
Y-158235D01*
X83229Y-158216D01*
Y-158205D01*
Y-158198D01*
Y-158194D01*
X83221Y-158098D01*
X83206Y-158009D01*
X83181Y-157931D01*
X83151Y-157869D01*
X83125Y-157817D01*
X83099Y-157780D01*
X83092Y-157769D01*
X83084Y-157757D01*
X83077Y-157754D01*
Y-157750D01*
X83047Y-157720D01*
X83018Y-157691D01*
X82955Y-157650D01*
X82892Y-157617D01*
X82833Y-157598D01*
X82785Y-157584D01*
X82744Y-157580D01*
X82729Y-157576D01*
X82670D01*
D02*
G37*
G36*
X84853Y-157613D02*
X84753Y-157617D01*
X84668Y-157632D01*
X84594Y-157650D01*
X84539Y-157672D01*
X84490Y-157695D01*
X84461Y-157713D01*
X84442Y-157728D01*
X84435Y-157732D01*
X84390Y-157780D01*
X84357Y-157828D01*
X84335Y-157880D01*
X84316Y-157924D01*
X84309Y-157968D01*
X84305Y-158002D01*
X84302Y-158024D01*
Y-158028D01*
Y-158031D01*
X84305Y-158076D01*
X84313Y-158120D01*
X84324Y-158157D01*
X84335Y-158190D01*
X84350Y-158220D01*
X84361Y-158242D01*
X84368Y-158257D01*
X84372Y-158261D01*
X84398Y-158298D01*
X84431Y-158331D01*
X84465Y-158357D01*
X84498Y-158379D01*
X84527Y-158394D01*
X84550Y-158405D01*
X84564Y-158412D01*
X84572Y-158416D01*
X84624Y-158431D01*
X84683Y-158442D01*
X84742Y-158449D01*
X84801Y-158453D01*
X84853Y-158457D01*
X84897Y-158460D01*
X85660D01*
Y-157613D01*
X84853D01*
D02*
G37*
G36*
X81660Y-127725D02*
X80853D01*
X80753Y-127728D01*
X80668Y-127743D01*
X80594Y-127761D01*
X80538Y-127784D01*
X80490Y-127806D01*
X80461Y-127824D01*
X80442Y-127839D01*
X80435Y-127843D01*
X80391Y-127891D01*
X80357Y-127939D01*
X80335Y-127991D01*
X80317Y-128035D01*
X80309Y-128080D01*
X80305Y-128113D01*
X80302Y-128135D01*
Y-128139D01*
Y-128143D01*
X80305Y-128187D01*
X80313Y-128231D01*
X80324Y-128268D01*
X80335Y-128302D01*
X80350Y-128331D01*
X80361Y-128354D01*
X80368Y-128368D01*
X80372Y-128372D01*
X80398Y-128409D01*
X80431Y-128442D01*
X80465Y-128468D01*
X80498Y-128490D01*
X80527Y-128505D01*
X80550Y-128516D01*
X80564Y-128524D01*
X80572Y-128527D01*
X80624Y-128542D01*
X80683Y-128553D01*
X80742Y-128561D01*
X80801Y-128564D01*
X80853Y-128568D01*
X80897Y-128572D01*
X81660D01*
Y-127725D01*
D02*
G37*
G36*
X78740Y-127688D02*
X78711D01*
X78648Y-127691D01*
X78589Y-127706D01*
X78540Y-127725D01*
X78496Y-127747D01*
X78463Y-127769D01*
X78437Y-127787D01*
X78418Y-127802D01*
X78415Y-127806D01*
X78374Y-127854D01*
X78344Y-127902D01*
X78322Y-127950D01*
X78307Y-127995D01*
X78300Y-128035D01*
X78293Y-128069D01*
Y-128091D01*
Y-128094D01*
Y-128098D01*
X78296Y-128157D01*
X78311Y-128213D01*
X78330Y-128261D01*
X78352Y-128302D01*
X78374Y-128335D01*
X78392Y-128357D01*
X78407Y-128376D01*
X78411Y-128379D01*
X78455Y-128416D01*
X78507Y-128446D01*
X78555Y-128464D01*
X78603Y-128479D01*
X78648Y-128487D01*
X78681Y-128490D01*
X78703Y-128494D01*
X78711D01*
X78777Y-128490D01*
X78837Y-128476D01*
X78888Y-128457D01*
X78933Y-128435D01*
X78966Y-128416D01*
X78992Y-128398D01*
X79010Y-128383D01*
X79014Y-128379D01*
X79051Y-128335D01*
X79081Y-128283D01*
X79099Y-128235D01*
X79114Y-128187D01*
X79121Y-128146D01*
X79125Y-128113D01*
X79129Y-128091D01*
Y-128087D01*
Y-128083D01*
X79125Y-128024D01*
X79110Y-127972D01*
X79092Y-127924D01*
X79070Y-127884D01*
X79051Y-127850D01*
X79033Y-127824D01*
X79018Y-127810D01*
X79014Y-127806D01*
X78966Y-127765D01*
X78918Y-127736D01*
X78866Y-127717D01*
X78818Y-127702D01*
X78774Y-127695D01*
X78740Y-127688D01*
D02*
G37*
G36*
X78744Y-128749D02*
X78722D01*
X78640Y-128757D01*
X78566Y-128772D01*
X78500Y-128797D01*
X78444Y-128823D01*
X78400Y-128853D01*
X78367Y-128879D01*
X78348Y-128894D01*
X78341Y-128901D01*
X78289Y-128960D01*
X78252Y-129023D01*
X78226Y-129086D01*
X78207Y-129142D01*
X78196Y-129197D01*
X78193Y-129238D01*
X78189Y-129253D01*
Y-129264D01*
Y-129271D01*
Y-129275D01*
X78196Y-129352D01*
X78211Y-129427D01*
X78237Y-129489D01*
X78263Y-129541D01*
X78289Y-129582D01*
X78315Y-129615D01*
X78330Y-129634D01*
X78337Y-129641D01*
X78396Y-129689D01*
X78455Y-129726D01*
X78518Y-129748D01*
X78578Y-129767D01*
X78629Y-129778D01*
X78674Y-129782D01*
X78689Y-129785D01*
X78711D01*
X78763Y-129782D01*
X78814Y-129774D01*
X78862Y-129763D01*
X78903Y-129752D01*
X78936Y-129741D01*
X78962Y-129730D01*
X78977Y-129722D01*
X78984Y-129719D01*
X79029Y-129689D01*
X79066Y-129660D01*
X79099Y-129626D01*
X79125Y-129593D01*
X79147Y-129567D01*
X79162Y-129545D01*
X79169Y-129526D01*
X79173Y-129523D01*
X79192Y-129475D01*
X79207Y-129430D01*
X79218Y-129386D01*
X79225Y-129345D01*
X79229Y-129312D01*
X79232Y-129286D01*
Y-129271D01*
Y-129264D01*
X79225Y-129186D01*
X79210Y-129116D01*
X79188Y-129053D01*
X79158Y-128997D01*
X79132Y-128957D01*
X79110Y-128923D01*
X79096Y-128905D01*
X79088Y-128897D01*
X79033Y-128849D01*
X78970Y-128812D01*
X78910Y-128786D01*
X78851Y-128768D01*
X78799Y-128757D01*
X78759Y-128753D01*
X78744Y-128749D01*
D02*
G37*
G36*
X71714Y-128616D02*
X71692D01*
X71614Y-128624D01*
X71544Y-128642D01*
X71485Y-128664D01*
X71433Y-128694D01*
X71393Y-128724D01*
X71363Y-128746D01*
X71344Y-128764D01*
X71337Y-128772D01*
X71289Y-128834D01*
X71252Y-128901D01*
X71226Y-128971D01*
X71211Y-129038D01*
X71200Y-129097D01*
X71196Y-129123D01*
Y-129145D01*
X71193Y-129164D01*
Y-129179D01*
Y-129186D01*
Y-129190D01*
X71200Y-129290D01*
X71215Y-129375D01*
X71237Y-129449D01*
X71263Y-129512D01*
X71293Y-129560D01*
X71315Y-129597D01*
X71330Y-129619D01*
X71337Y-129623D01*
Y-129626D01*
X71363Y-129656D01*
X71393Y-129678D01*
X71452Y-129719D01*
X71511Y-129745D01*
X71563Y-129767D01*
X71611Y-129778D01*
X71648Y-129782D01*
X71663Y-129785D01*
X71681D01*
X71733Y-129782D01*
X71781Y-129774D01*
X71825Y-129760D01*
X71862Y-129745D01*
X71896Y-129734D01*
X71922Y-129719D01*
X71936Y-129711D01*
X71944Y-129708D01*
X71988Y-129674D01*
X72025Y-129641D01*
X72058Y-129600D01*
X72084Y-129567D01*
X72107Y-129534D01*
X72121Y-129508D01*
X72132Y-129489D01*
X72136Y-129482D01*
X72158Y-129427D01*
X72173Y-129371D01*
X72188Y-129319D01*
X72195Y-129271D01*
X72199Y-129230D01*
X72203Y-129197D01*
Y-129179D01*
Y-129171D01*
X72195Y-129082D01*
X72181Y-129005D01*
X72155Y-128934D01*
X72129Y-128879D01*
X72103Y-128831D01*
X72077Y-128797D01*
X72062Y-128779D01*
X72055Y-128772D01*
X71996Y-128720D01*
X71936Y-128683D01*
X71873Y-128653D01*
X71818Y-128635D01*
X71766Y-128624D01*
X71729Y-128620D01*
X71714Y-128616D01*
D02*
G37*
G36*
X74660Y-127725D02*
X73853D01*
X73753Y-127728D01*
X73668Y-127743D01*
X73594Y-127761D01*
X73539Y-127784D01*
X73490Y-127806D01*
X73461Y-127824D01*
X73442Y-127839D01*
X73435Y-127843D01*
X73391Y-127891D01*
X73357Y-127939D01*
X73335Y-127991D01*
X73317Y-128035D01*
X73309Y-128080D01*
X73305Y-128113D01*
X73302Y-128135D01*
Y-128139D01*
Y-128143D01*
X73305Y-128187D01*
X73313Y-128231D01*
X73324Y-128268D01*
X73335Y-128302D01*
X73350Y-128331D01*
X73361Y-128354D01*
X73368Y-128368D01*
X73372Y-128372D01*
X73398Y-128409D01*
X73431Y-128442D01*
X73465Y-128468D01*
X73498Y-128490D01*
X73527Y-128505D01*
X73550Y-128516D01*
X73564Y-128524D01*
X73572Y-128527D01*
X73624Y-128542D01*
X73683Y-128553D01*
X73742Y-128561D01*
X73801Y-128564D01*
X73853Y-128568D01*
X73897Y-128572D01*
X74660D01*
Y-127725D01*
D02*
G37*
G36*
X69853Y-157613D02*
X69753Y-157617D01*
X69668Y-157632D01*
X69594Y-157650D01*
X69538Y-157672D01*
X69490Y-157695D01*
X69461Y-157713D01*
X69442Y-157728D01*
X69435Y-157732D01*
X69390Y-157780D01*
X69357Y-157828D01*
X69335Y-157880D01*
X69317Y-157924D01*
X69309Y-157968D01*
X69305Y-158002D01*
X69302Y-158024D01*
Y-158028D01*
Y-158031D01*
X69305Y-158076D01*
X69313Y-158120D01*
X69324Y-158157D01*
X69335Y-158190D01*
X69350Y-158220D01*
X69361Y-158242D01*
X69368Y-158257D01*
X69372Y-158261D01*
X69398Y-158298D01*
X69431Y-158331D01*
X69464Y-158357D01*
X69498Y-158379D01*
X69527Y-158394D01*
X69550Y-158405D01*
X69564Y-158412D01*
X69572Y-158416D01*
X69624Y-158431D01*
X69683Y-158442D01*
X69742Y-158449D01*
X69801Y-158453D01*
X69853Y-158457D01*
X69897Y-158460D01*
X70660D01*
Y-157613D01*
X69853D01*
D02*
G37*
G36*
X64853Y-127725D02*
X64753Y-127728D01*
X64668Y-127743D01*
X64594Y-127761D01*
X64539Y-127784D01*
X64490Y-127806D01*
X64461Y-127824D01*
X64442Y-127839D01*
X64435Y-127843D01*
X64390Y-127891D01*
X64357Y-127939D01*
X64335Y-127991D01*
X64316Y-128035D01*
X64309Y-128080D01*
X64305Y-128113D01*
X64302Y-128135D01*
Y-128139D01*
Y-128143D01*
X64305Y-128187D01*
X64313Y-128231D01*
X64324Y-128268D01*
X64335Y-128302D01*
X64350Y-128331D01*
X64361Y-128354D01*
X64368Y-128368D01*
X64372Y-128372D01*
X64398Y-128409D01*
X64431Y-128442D01*
X64464Y-128468D01*
X64498Y-128490D01*
X64527Y-128505D01*
X64550Y-128516D01*
X64564Y-128524D01*
X64572Y-128527D01*
X64624Y-128542D01*
X64683Y-128553D01*
X64742Y-128561D01*
X64801Y-128564D01*
X64853Y-128568D01*
X64897Y-128572D01*
X65660D01*
Y-127725D01*
X64853D01*
D02*
G37*
G36*
X62544Y-127950D02*
Y-129097D01*
X63351D01*
X62544Y-127950D01*
D02*
G37*
G36*
X62853Y-157613D02*
X62753Y-157617D01*
X62668Y-157632D01*
X62594Y-157650D01*
X62538Y-157672D01*
X62490Y-157695D01*
X62461Y-157713D01*
X62442Y-157728D01*
X62435Y-157732D01*
X62391Y-157780D01*
X62357Y-157828D01*
X62335Y-157880D01*
X62317Y-157924D01*
X62309Y-157968D01*
X62305Y-158002D01*
X62302Y-158024D01*
Y-158028D01*
Y-158031D01*
X62305Y-158076D01*
X62313Y-158120D01*
X62324Y-158157D01*
X62335Y-158190D01*
X62350Y-158220D01*
X62361Y-158242D01*
X62368Y-158257D01*
X62372Y-158261D01*
X62398Y-158298D01*
X62431Y-158331D01*
X62464Y-158357D01*
X62498Y-158379D01*
X62527Y-158394D01*
X62550Y-158405D01*
X62564Y-158412D01*
X62572Y-158416D01*
X62624Y-158431D01*
X62683Y-158442D01*
X62742Y-158449D01*
X62801Y-158453D01*
X62853Y-158457D01*
X62897Y-158460D01*
X63660D01*
Y-157613D01*
X62853D01*
D02*
G37*
G36*
X45660Y-103725D02*
X44853D01*
X44753Y-103728D01*
X44668Y-103743D01*
X44594Y-103761D01*
X44539Y-103784D01*
X44490Y-103806D01*
X44461Y-103824D01*
X44442Y-103839D01*
X44435Y-103843D01*
X44390Y-103891D01*
X44357Y-103939D01*
X44335Y-103991D01*
X44317Y-104035D01*
X44309Y-104080D01*
X44305Y-104113D01*
X44302Y-104135D01*
Y-104139D01*
Y-104143D01*
X44305Y-104187D01*
X44313Y-104231D01*
X44324Y-104268D01*
X44335Y-104302D01*
X44350Y-104331D01*
X44361Y-104353D01*
X44368Y-104368D01*
X44372Y-104372D01*
X44398Y-104409D01*
X44431Y-104442D01*
X44464Y-104468D01*
X44498Y-104490D01*
X44527Y-104505D01*
X44550Y-104516D01*
X44564Y-104524D01*
X44572Y-104527D01*
X44624Y-104542D01*
X44683Y-104553D01*
X44742Y-104561D01*
X44801Y-104564D01*
X44853Y-104568D01*
X44897Y-104572D01*
X45660D01*
Y-103725D01*
D02*
G37*
G36*
X44660Y-98725D02*
X43853D01*
X43753Y-98728D01*
X43668Y-98743D01*
X43594Y-98761D01*
X43538Y-98784D01*
X43490Y-98806D01*
X43461Y-98824D01*
X43442Y-98839D01*
X43435Y-98843D01*
X43391Y-98891D01*
X43357Y-98939D01*
X43335Y-98991D01*
X43317Y-99035D01*
X43309Y-99080D01*
X43305Y-99113D01*
X43302Y-99135D01*
Y-99139D01*
Y-99143D01*
X43305Y-99187D01*
X43313Y-99231D01*
X43324Y-99268D01*
X43335Y-99302D01*
X43350Y-99331D01*
X43361Y-99353D01*
X43368Y-99368D01*
X43372Y-99372D01*
X43398Y-99409D01*
X43431Y-99442D01*
X43464Y-99468D01*
X43498Y-99490D01*
X43527Y-99505D01*
X43550Y-99516D01*
X43564Y-99524D01*
X43572Y-99527D01*
X43624Y-99542D01*
X43683Y-99553D01*
X43742Y-99561D01*
X43801Y-99564D01*
X43853Y-99568D01*
X43897Y-99572D01*
X44660D01*
Y-98725D01*
D02*
G37*
G36*
X46126Y-67188D02*
X46066D01*
X46029Y-67195D01*
X45963Y-67213D01*
X45904Y-67239D01*
X45852Y-67265D01*
X45811Y-67295D01*
X45781Y-67321D01*
X45763Y-67339D01*
X45756Y-67343D01*
Y-67347D01*
X45707Y-67409D01*
X45671Y-67480D01*
X45645Y-67554D01*
X45630Y-67624D01*
X45619Y-67683D01*
X45615Y-67709D01*
Y-67735D01*
X45611Y-67754D01*
Y-67768D01*
Y-67776D01*
Y-67779D01*
X45619Y-67876D01*
X45634Y-67961D01*
X45656Y-68031D01*
X45682Y-68090D01*
X45711Y-68138D01*
X45733Y-68172D01*
X45748Y-68194D01*
X45756Y-68201D01*
X45811Y-68253D01*
X45870Y-68290D01*
X45930Y-68316D01*
X45989Y-68335D01*
X46037Y-68346D01*
X46077Y-68349D01*
X46092Y-68353D01*
X46115D01*
X46192Y-68346D01*
X46262Y-68331D01*
X46325Y-68305D01*
X46381Y-68275D01*
X46422Y-68249D01*
X46455Y-68224D01*
X46473Y-68209D01*
X46481Y-68201D01*
X46529Y-68142D01*
X46566Y-68076D01*
X46588Y-68009D01*
X46607Y-67946D01*
X46618Y-67891D01*
X46621Y-67868D01*
Y-67846D01*
X46625Y-67828D01*
Y-67817D01*
Y-67809D01*
Y-67805D01*
X46618Y-67709D01*
X46603Y-67620D01*
X46577Y-67543D01*
X46547Y-67480D01*
X46521Y-67428D01*
X46496Y-67391D01*
X46488Y-67380D01*
X46481Y-67369D01*
X46473Y-67365D01*
Y-67361D01*
X46444Y-67332D01*
X46414Y-67302D01*
X46351Y-67261D01*
X46288Y-67228D01*
X46229Y-67210D01*
X46181Y-67195D01*
X46140Y-67191D01*
X46126Y-67188D01*
D02*
G37*
G36*
X54637D02*
X54607D01*
X54544Y-67191D01*
X54485Y-67206D01*
X54437Y-67225D01*
X54392Y-67247D01*
X54359Y-67269D01*
X54333Y-67287D01*
X54315Y-67302D01*
X54311Y-67306D01*
X54270Y-67354D01*
X54241Y-67402D01*
X54219Y-67450D01*
X54204Y-67495D01*
X54196Y-67535D01*
X54189Y-67569D01*
Y-67591D01*
Y-67594D01*
Y-67598D01*
X54193Y-67657D01*
X54207Y-67713D01*
X54226Y-67761D01*
X54248Y-67802D01*
X54270Y-67835D01*
X54289Y-67857D01*
X54304Y-67876D01*
X54307Y-67879D01*
X54352Y-67916D01*
X54404Y-67946D01*
X54452Y-67965D01*
X54500Y-67979D01*
X54544Y-67987D01*
X54577Y-67990D01*
X54600Y-67994D01*
X54607D01*
X54674Y-67990D01*
X54733Y-67976D01*
X54785Y-67957D01*
X54829Y-67935D01*
X54862Y-67916D01*
X54888Y-67898D01*
X54907Y-67883D01*
X54910Y-67879D01*
X54948Y-67835D01*
X54977Y-67783D01*
X54996Y-67735D01*
X55010Y-67687D01*
X55018Y-67646D01*
X55022Y-67613D01*
X55025Y-67591D01*
Y-67587D01*
Y-67583D01*
X55022Y-67524D01*
X55007Y-67472D01*
X54988Y-67424D01*
X54966Y-67384D01*
X54948Y-67350D01*
X54929Y-67324D01*
X54914Y-67310D01*
X54910Y-67306D01*
X54862Y-67265D01*
X54814Y-67236D01*
X54763Y-67217D01*
X54714Y-67202D01*
X54670Y-67195D01*
X54637Y-67188D01*
D02*
G37*
G36*
X54640Y-68249D02*
X54618D01*
X54537Y-68257D01*
X54463Y-68272D01*
X54396Y-68297D01*
X54341Y-68323D01*
X54296Y-68353D01*
X54263Y-68379D01*
X54245Y-68394D01*
X54237Y-68401D01*
X54185Y-68460D01*
X54148Y-68523D01*
X54122Y-68586D01*
X54104Y-68642D01*
X54093Y-68697D01*
X54089Y-68738D01*
X54085Y-68753D01*
Y-68764D01*
Y-68771D01*
Y-68775D01*
X54093Y-68853D01*
X54108Y-68927D01*
X54133Y-68989D01*
X54159Y-69041D01*
X54185Y-69082D01*
X54211Y-69115D01*
X54226Y-69134D01*
X54233Y-69141D01*
X54293Y-69189D01*
X54352Y-69226D01*
X54415Y-69248D01*
X54474Y-69267D01*
X54526Y-69278D01*
X54570Y-69282D01*
X54585Y-69285D01*
X54607D01*
X54659Y-69282D01*
X54711Y-69274D01*
X54759Y-69263D01*
X54799Y-69252D01*
X54833Y-69241D01*
X54859Y-69230D01*
X54874Y-69222D01*
X54881Y-69219D01*
X54925Y-69189D01*
X54962Y-69160D01*
X54996Y-69126D01*
X55022Y-69093D01*
X55044Y-69067D01*
X55058Y-69045D01*
X55066Y-69026D01*
X55070Y-69023D01*
X55088Y-68975D01*
X55103Y-68930D01*
X55114Y-68886D01*
X55121Y-68845D01*
X55125Y-68812D01*
X55129Y-68786D01*
Y-68771D01*
Y-68764D01*
X55121Y-68686D01*
X55107Y-68616D01*
X55084Y-68553D01*
X55055Y-68497D01*
X55029Y-68457D01*
X55007Y-68423D01*
X54992Y-68405D01*
X54984Y-68397D01*
X54929Y-68349D01*
X54866Y-68312D01*
X54807Y-68286D01*
X54748Y-68268D01*
X54696Y-68257D01*
X54655Y-68253D01*
X54640Y-68249D01*
D02*
G37*
%LPD*%
D10*
X86575Y-121832D02*
G03*
X86575Y-121832I-492J0D01*
G01*
D12*
X159425Y-47197D02*
Y-46803D01*
X162575Y-47197D02*
Y-46803D01*
X84925Y-137458D02*
Y-137064D01*
X88075Y-137458D02*
Y-137064D01*
X77575Y-149846D02*
Y-149453D01*
X74425Y-149846D02*
Y-149453D01*
X103925Y-88258D02*
Y-87864D01*
X107075Y-88258D02*
Y-87864D01*
X103925Y-99958D02*
Y-99564D01*
X107075Y-99958D02*
Y-99564D01*
X110425Y-99958D02*
Y-99564D01*
X113575Y-99958D02*
Y-99564D01*
X58075Y-80458D02*
Y-80064D01*
X54925Y-80458D02*
Y-80064D01*
X35303Y-101139D02*
X35697D01*
X35303Y-98383D02*
X35697D01*
X35303Y-106639D02*
X35697D01*
X35303Y-103883D02*
X35697D01*
X91803Y-79336D02*
X92197D01*
X91803Y-76186D02*
X92197D01*
X110575Y-28197D02*
Y-27803D01*
X107425Y-28197D02*
Y-27803D01*
X113575Y-88258D02*
Y-87864D01*
X110425Y-88258D02*
Y-87864D01*
X61673Y-116221D02*
X83327D01*
X61673Y-86300D02*
X83327D01*
X87461Y-112088D02*
Y-90434D01*
X57539Y-112088D02*
Y-90434D01*
X83327Y-116221D02*
X87461Y-112088D01*
X83327Y-86300D02*
X87461Y-90434D01*
X57539Y-112088D02*
X61673Y-116221D01*
X57539Y-90434D02*
X61673Y-86300D01*
X83327Y-116221D02*
Y-110316D01*
X81358D02*
X83327D01*
X81358Y-116221D02*
Y-110316D01*
X95303Y-82686D02*
X95697D01*
X95303Y-85836D02*
X95697D01*
X47925Y-80458D02*
Y-80064D01*
X51075Y-80458D02*
Y-80064D01*
X81075Y-137458D02*
Y-137064D01*
X77925Y-137458D02*
Y-137064D01*
X84575Y-149846D02*
Y-149453D01*
X81425Y-149846D02*
Y-149453D01*
X74075Y-137458D02*
Y-137064D01*
X70925Y-137458D02*
Y-137064D01*
X70575Y-149846D02*
Y-149453D01*
X67425Y-149846D02*
Y-149453D01*
X67075Y-137458D02*
Y-137064D01*
X63925Y-137458D02*
Y-137064D01*
X60425Y-149846D02*
Y-149453D01*
X63575Y-149846D02*
Y-149453D01*
M02*
