M48
;Layer_Color=9474304
;FILE_FORMAT=2:5
INCH,LZ
;TYPE=PLATED
T1F00S00C0.01200
T2F00S00C0.03000
T3F00S00C0.04016
T4F00S00C0.09843
%
T01
X0173602Y-0281907
X0173603Y-0274651
X0173602Y-0265202
X0173603Y-0257946
X0173602Y-0248497
X0173603Y-0241241
X0173602Y-0231792
X0173603Y-0224536
X0173602Y-0215088
X0173603Y-020791
X0173602Y-0198462
X0173603Y-0191285
X0173602Y-0181836
X0173603Y-0174659
X0173602Y-016521
X0173603Y-0154895
X0156899
X0156898Y-016521
X0156899Y-0174659
X0156898Y-0181836
X0156899Y-0191285
X0156898Y-0198462
X0156899Y-020791
X0156898Y-0215088
X0156899Y-0224536
X0156898Y-0231792
X0156899Y-0241241
X0156898Y-0248497
X0156899Y-0257946
X0156898Y-0265202
X0156899Y-0274651
X0156898Y-0281907
X0140193
X0140194Y-0274651
X0140193Y-0265202
X0140194Y-0257946
X0140193Y-0248497
X0140194Y-0241241
X0140193Y-0231792
X0140194Y-0224536
X0140193Y-0215088
X0140194Y-020791
X0140193Y-0198462
X0140194Y-0191285
X0140193Y-0181836
X0140194Y-0174659
X0140193Y-016521
X0140194Y-0154895
X0123489
X0123488Y-016521
X0123489Y-0174659
X0123488Y-0181836
X0123489Y-0191285
X0123488Y-0198462
X0123489Y-020791
X0123488Y-0215088
X0123489Y-0224536
X0123488Y-0231792
X0123489Y-0241241
X0123488Y-0248497
X0123489Y-0257946
X0123488Y-0265202
X0123489Y-0274651
X0123488Y-0281907
X0106783
X0106784Y-0274651
X0106783Y-0265202
X0106784Y-0257946
X0106783Y-0248497
X0106784Y-0241241
X0106783Y-0231792
X0106784Y-0224536
X0106783Y-0215088
X0106784Y-020791
X0106783Y-0198462
X0106784Y-0191285
X0106783Y-0181836
X0106784Y-0174659
X0106783Y-016521
X0106784Y-0154895
X0099783Y-0161583
Y-0178208
Y-0194834
Y-021146
Y-0228165
Y-024487
Y-0261575
Y-0278279
X0094Y-0138
Y-0119
X0112Y-0109
X0122
X0132
X0142
X0152
X0162
X01635Y-0089761
X01535
X01435
X01335
X01385Y-0079761
X01485
X01585
X01635Y-0069761
X01535
X01435
X01335
X01235
X01285Y-0059761
X01385
X01485
X01585
X01635Y-0029761
X01435
X01335
X01385Y-0019761
X01285
X01335Y-0009761
X01235
X01135
X01035
X00935
X0091732Y-0040468
X01035Y-0049761
X01135
X01235
X01185Y-0039761
Y-0059761
X0111Y-008
X01175Y-0091261
X0117613Y-0096261
X0084Y-00985
X0076Y-00995
X0069755Y-01115
X0061762
X00565Y-0116761
X00592Y-0096544
X00385Y-0094261
Y-0079761
X00285
X00335Y-0069761
X00385Y-0059761
X00285
X00335Y-0049761
X00435
X00535
X00485Y-0039761
X00385
X00285
X00335Y-0029761
X00435
X00535
X00585Y-0019761
X00485
X00385
X00285
X00335Y-0009761
X00435
X00535
X00565Y-0072
X00608Y-00699
X0065076Y-0068824
X007Y-00687
X00747Y-00686
X00789Y-00685
X00832Y-00709
X00875Y-0072261
X00495Y-0072
X0026Y-0096761
X00275Y-0104261
X0172Y-0109
X0182
T02
X0110118Y-0038202
X0141Y-00355
T03
X01405Y-0132261
X01505
X01515Y-0051261
Y-0041261
Y-0031261
Y-0021261
Y-0011261
X0099Y-00185
X0089
Y-00285
X0079
X0069
Y-00185
X0079
X0099Y-00285
T04
X00618Y-02777
X00118Y-00118
X01702
M30
