G04*
G04 #@! TF.GenerationSoftware,Altium Limited,Altium Designer,20.0.14 (345)*
G04*
G04 Layer_Color=16711935*
%FSLAX25Y25*%
%MOIN*%
G70*
G01*
G75*
%ADD13R,0.04343X0.04737*%
%ADD16R,0.04737X0.04343*%
%ADD19C,0.06800*%
%ADD20C,0.06784*%
%ADD21R,0.06784X0.06784*%
%ADD22R,0.06902X0.06902*%
%ADD23C,0.06902*%
%ADD24R,0.06784X0.06784*%
%ADD25C,0.02400*%
%ADD26C,0.03200*%
%ADD45R,0.03543X0.04724*%
%ADD48O,0.01981X0.08871*%
%ADD49O,0.08871X0.01981*%
G04:AMPARAMS|DCode=50|XSize=47.37mil|YSize=43.43mil|CornerRadius=0mil|HoleSize=0mil|Usage=FLASHONLY|Rotation=225.000|XOffset=0mil|YOffset=0mil|HoleType=Round|Shape=Rectangle|*
%AMROTATEDRECTD50*
4,1,4,0.00139,0.03210,0.03210,0.00139,-0.00139,-0.03210,-0.03210,-0.00139,0.00139,0.03210,0.0*
%
%ADD50ROTATEDRECTD50*%

G04:AMPARAMS|DCode=51|XSize=47.37mil|YSize=43.43mil|CornerRadius=0mil|HoleSize=0mil|Usage=FLASHONLY|Rotation=135.000|XOffset=0mil|YOffset=0mil|HoleType=Round|Shape=Rectangle|*
%AMROTATEDRECTD51*
4,1,4,0.03210,-0.00139,0.00139,-0.03210,-0.03210,0.00139,-0.00139,0.03210,0.03210,-0.00139,0.0*
%
%ADD51ROTATEDRECTD51*%

D13*
X42000Y-40000D02*
D03*
X35701D02*
D03*
D16*
X-8350Y-26776D02*
D03*
Y-33075D02*
D03*
X-15000Y-32850D02*
D03*
Y-39150D02*
D03*
D19*
X-45000Y22000D02*
D03*
X53000D02*
D03*
D20*
X72000Y-90000D02*
D03*
X-40000Y-79000D02*
D03*
Y-69000D02*
D03*
Y-59000D02*
D03*
Y-49000D02*
D03*
D21*
X82000Y-90000D02*
D03*
D22*
X4000Y-5000D02*
D03*
D23*
X14000D02*
D03*
X24000D02*
D03*
X34000D02*
D03*
X44000D02*
D03*
X54000D02*
D03*
X4000Y5000D02*
D03*
X14000D02*
D03*
X24000D02*
D03*
X34000D02*
D03*
X44000D02*
D03*
X54000D02*
D03*
D24*
X-40000Y-39000D02*
D03*
D25*
X38100Y-72000D02*
D03*
X46284Y-204236D02*
D03*
X9000Y-90000D02*
D03*
X10000Y-94000D02*
D03*
X14000D02*
D03*
X6800Y-86700D02*
D03*
X17000Y-92000D02*
D03*
X19600Y-89200D02*
D03*
X23000Y-87000D02*
D03*
X45500Y-72000D02*
D03*
X47200Y-62200D02*
D03*
X44000Y-64000D02*
D03*
X42000Y-72000D02*
D03*
X39283Y-217314D02*
D03*
Y-150574D02*
D03*
Y-167200D02*
D03*
X46284Y-120949D02*
D03*
X62988D02*
D03*
X113102D02*
D03*
X96398D02*
D03*
X79693D02*
D03*
X62989Y-110634D02*
D03*
X113103D02*
D03*
X96399D02*
D03*
X79694D02*
D03*
X46284D02*
D03*
X79694Y-180276D02*
D03*
X96399D02*
D03*
X113103D02*
D03*
X113102Y-170827D02*
D03*
X39283Y-117322D02*
D03*
X96399Y-130398D02*
D03*
X46284D02*
D03*
X62989D02*
D03*
X79694D02*
D03*
X113103D02*
D03*
X46284Y-137575D02*
D03*
X62988D02*
D03*
X113102D02*
D03*
X96398D02*
D03*
X79693D02*
D03*
X39283Y-133948D02*
D03*
X96399Y-147024D02*
D03*
X46284D02*
D03*
X62989D02*
D03*
X79694D02*
D03*
X113103D02*
D03*
X46284Y-154201D02*
D03*
X62988D02*
D03*
X113102D02*
D03*
X96398D02*
D03*
X79693D02*
D03*
X96399Y-163650D02*
D03*
X46284D02*
D03*
X62989D02*
D03*
X79694D02*
D03*
X113103D02*
D03*
X62988Y-170827D02*
D03*
X96398D02*
D03*
X79693D02*
D03*
X46284Y-180276D02*
D03*
X113102Y-187531D02*
D03*
X96398D02*
D03*
X79693D02*
D03*
X62989Y-180276D02*
D03*
X62988Y-187531D02*
D03*
X113103Y-196980D02*
D03*
X113102Y-204236D02*
D03*
X96399Y-196980D02*
D03*
X96398Y-204236D02*
D03*
X79693D02*
D03*
X62989Y-196980D02*
D03*
X62988Y-204236D02*
D03*
X46284Y-196980D02*
D03*
X113103Y-213685D02*
D03*
X113102Y-220941D02*
D03*
X96399Y-213685D02*
D03*
X96398Y-220941D02*
D03*
X79694Y-213685D02*
D03*
X79693Y-220941D02*
D03*
X62989Y-213685D02*
D03*
X62988Y-220941D02*
D03*
X46284D02*
D03*
X46284Y-213685D02*
D03*
X113103Y-230390D02*
D03*
X113102Y-237646D02*
D03*
X96399Y-230390D02*
D03*
X96398Y-237646D02*
D03*
X79694Y-230390D02*
D03*
X79693Y-237646D02*
D03*
X62989Y-230390D02*
D03*
X62988Y-237646D02*
D03*
X46284D02*
D03*
X46284Y-230390D02*
D03*
X79694Y-196980D02*
D03*
X46284Y-187531D02*
D03*
X39283Y-183904D02*
D03*
Y-200609D02*
D03*
Y-234018D02*
D03*
X46284Y-170827D02*
D03*
D26*
X40000Y-14000D02*
D03*
X42000Y-45000D02*
D03*
Y-57000D02*
D03*
X31000Y-26500D02*
D03*
X26000Y-33000D02*
D03*
X37000Y-26500D02*
D03*
X60000Y-64000D02*
D03*
X-23000Y-59000D02*
D03*
X-36000Y-31500D02*
D03*
X-31000Y-22000D02*
D03*
X-23000Y-35000D02*
D03*
X-30000Y-95000D02*
D03*
Y-85000D02*
D03*
Y-75000D02*
D03*
Y-66000D02*
D03*
Y-55000D02*
D03*
X-37000Y9000D02*
D03*
X-30000D02*
D03*
X-50000Y-39000D02*
D03*
Y-32000D02*
D03*
Y-79000D02*
D03*
Y-70000D02*
D03*
Y-61000D02*
D03*
Y-20000D02*
D03*
X-30000Y-10000D02*
D03*
X-40000D02*
D03*
X-50000D02*
D03*
X-30000Y0D02*
D03*
X-40000D02*
D03*
X-50000D02*
D03*
X-20000D02*
D03*
X-10000D02*
D03*
X60000D02*
D03*
Y10000D02*
D03*
X50000D02*
D03*
X-10000D02*
D03*
X0D02*
D03*
X40000D02*
D03*
X30000D02*
D03*
X20000D02*
D03*
X10000D02*
D03*
Y0D02*
D03*
X20000D02*
D03*
X30000D02*
D03*
X40000D02*
D03*
X50000D02*
D03*
X90000Y-84000D02*
D03*
X80000Y-74000D02*
D03*
Y-84000D02*
D03*
X70000Y-64000D02*
D03*
Y-74000D02*
D03*
Y-84000D02*
D03*
X60000D02*
D03*
Y-74000D02*
D03*
Y-54000D02*
D03*
Y-44000D02*
D03*
Y-34000D02*
D03*
Y-24000D02*
D03*
X-10816Y-5000D02*
D03*
X-11000Y-14000D02*
D03*
X10000D02*
D03*
X60000D02*
D03*
X50000D02*
D03*
X-2500Y-1500D02*
D03*
X1000Y-59000D02*
D03*
X-20000Y-52000D02*
D03*
X8000Y-63000D02*
D03*
Y-68000D02*
D03*
X41700Y-51000D02*
D03*
D45*
X3000Y-12000D02*
D03*
X-5268D02*
D03*
X6134Y-22000D02*
D03*
X-2134D02*
D03*
X20268D02*
D03*
X12000D02*
D03*
D48*
X22827Y-77571D02*
D03*
X20858D02*
D03*
X18890D02*
D03*
X16921D02*
D03*
X14953D02*
D03*
X12984D02*
D03*
X11016D02*
D03*
X9047D02*
D03*
X7079D02*
D03*
X5110D02*
D03*
X3142D02*
D03*
X1173D02*
D03*
Y-36429D02*
D03*
X3142D02*
D03*
X5110D02*
D03*
X7079D02*
D03*
X9047D02*
D03*
X11016D02*
D03*
X12984D02*
D03*
X14953D02*
D03*
X16921D02*
D03*
X18890D02*
D03*
X20858D02*
D03*
X22827D02*
D03*
D49*
X-8571Y-67827D02*
D03*
Y-65858D02*
D03*
Y-63890D02*
D03*
Y-61921D02*
D03*
Y-59953D02*
D03*
Y-57984D02*
D03*
Y-56016D02*
D03*
Y-54047D02*
D03*
Y-52079D02*
D03*
Y-50110D02*
D03*
Y-48142D02*
D03*
Y-46173D02*
D03*
X32571D02*
D03*
Y-48142D02*
D03*
Y-50110D02*
D03*
Y-52079D02*
D03*
Y-54047D02*
D03*
Y-56016D02*
D03*
Y-57984D02*
D03*
Y-59953D02*
D03*
Y-61921D02*
D03*
Y-63890D02*
D03*
Y-65858D02*
D03*
Y-67827D02*
D03*
D50*
X20773Y-94773D02*
D03*
X25227Y-99227D02*
D03*
X25773Y-90773D02*
D03*
X30227Y-95227D02*
D03*
X28773Y-84773D02*
D03*
X33227Y-89227D02*
D03*
X17773Y-100773D02*
D03*
X22227Y-105227D02*
D03*
X8773Y-100773D02*
D03*
X13227Y-105227D02*
D03*
X1773Y-102773D02*
D03*
X6227Y-107227D02*
D03*
D51*
X327Y-93673D02*
D03*
X-4127Y-98127D02*
D03*
X-9227Y-94227D02*
D03*
X-4773Y-89773D02*
D03*
M02*
