G04*
G04 #@! TF.GenerationSoftware,Altium Limited,Altium Designer,20.0.14 (345)*
G04*
G04 Layer_Color=32896*
%FSLAX25Y25*%
%MOIN*%
G70*
G01*
G75*
%ADD11C,0.00787*%
%ADD52C,0.00984*%
G36*
X-6751Y-3721D02*
X-6643Y-3741D01*
X-6550Y-3773D01*
X-6470Y-3805D01*
X-6434Y-3825D01*
X-6406Y-3841D01*
X-6378Y-3857D01*
X-6358Y-3873D01*
X-6342Y-3886D01*
X-6330Y-3893D01*
X-6322Y-3898D01*
X-6318Y-3901D01*
X-6242Y-3978D01*
X-6181Y-4062D01*
X-6133Y-4150D01*
X-6093Y-4238D01*
X-6069Y-4315D01*
X-6057Y-4347D01*
X-6049Y-4375D01*
X-6045Y-4399D01*
X-6041Y-4415D01*
X-6037Y-4427D01*
Y-4431D01*
X-6378Y-4491D01*
X-6394Y-4403D01*
X-6418Y-4327D01*
X-6446Y-4262D01*
X-6474Y-4210D01*
X-6502Y-4170D01*
X-6526Y-4142D01*
X-6542Y-4122D01*
X-6546Y-4118D01*
X-6599Y-4078D01*
X-6655Y-4046D01*
X-6707Y-4026D01*
X-6759Y-4010D01*
X-6807Y-4002D01*
X-6843Y-3994D01*
X-6875D01*
X-6947Y-3998D01*
X-7012Y-4014D01*
X-7068Y-4034D01*
X-7116Y-4054D01*
X-7152Y-4078D01*
X-7180Y-4098D01*
X-7200Y-4114D01*
X-7204Y-4118D01*
X-7248Y-4166D01*
X-7280Y-4218D01*
X-7300Y-4270D01*
X-7316Y-4319D01*
X-7324Y-4363D01*
X-7332Y-4395D01*
Y-4419D01*
Y-4423D01*
Y-4427D01*
Y-4471D01*
X-7324Y-4511D01*
X-7304Y-4579D01*
X-7276Y-4639D01*
X-7244Y-4691D01*
X-7212Y-4728D01*
X-7184Y-4756D01*
X-7164Y-4772D01*
X-7160Y-4776D01*
X-7156D01*
X-7088Y-4812D01*
X-7023Y-4840D01*
X-6955Y-4860D01*
X-6895Y-4872D01*
X-6843Y-4880D01*
X-6799Y-4888D01*
X-6747D01*
X-6731Y-4884D01*
X-6711D01*
X-6671Y-5185D01*
X-6723Y-5173D01*
X-6771Y-5165D01*
X-6811Y-5157D01*
X-6847Y-5153D01*
X-6875Y-5149D01*
X-6911D01*
X-6995Y-5157D01*
X-7072Y-5173D01*
X-7140Y-5197D01*
X-7196Y-5225D01*
X-7240Y-5253D01*
X-7272Y-5277D01*
X-7292Y-5293D01*
X-7300Y-5301D01*
X-7352Y-5361D01*
X-7393Y-5425D01*
X-7421Y-5489D01*
X-7437Y-5554D01*
X-7449Y-5606D01*
X-7453Y-5650D01*
X-7457Y-5666D01*
Y-5678D01*
Y-5686D01*
Y-5690D01*
X-7449Y-5778D01*
X-7429Y-5858D01*
X-7405Y-5927D01*
X-7372Y-5987D01*
X-7340Y-6035D01*
X-7316Y-6071D01*
X-7296Y-6095D01*
X-7288Y-6103D01*
X-7224Y-6159D01*
X-7156Y-6199D01*
X-7088Y-6227D01*
X-7023Y-6247D01*
X-6967Y-6259D01*
X-6923Y-6263D01*
X-6907Y-6267D01*
X-6883D01*
X-6811Y-6263D01*
X-6743Y-6247D01*
X-6683Y-6227D01*
X-6635Y-6203D01*
X-6594Y-6183D01*
X-6562Y-6163D01*
X-6546Y-6147D01*
X-6538Y-6143D01*
X-6490Y-6087D01*
X-6450Y-6023D01*
X-6414Y-5955D01*
X-6386Y-5883D01*
X-6366Y-5822D01*
X-6358Y-5794D01*
X-6354Y-5770D01*
X-6350Y-5750D01*
X-6346Y-5734D01*
X-6342Y-5726D01*
Y-5722D01*
X-6001Y-5766D01*
X-6009Y-5830D01*
X-6021Y-5891D01*
X-6057Y-6003D01*
X-6101Y-6099D01*
X-6125Y-6139D01*
X-6149Y-6179D01*
X-6173Y-6215D01*
X-6197Y-6243D01*
X-6217Y-6271D01*
X-6238Y-6291D01*
X-6250Y-6307D01*
X-6262Y-6320D01*
X-6270Y-6328D01*
X-6274Y-6332D01*
X-6322Y-6368D01*
X-6370Y-6404D01*
X-6418Y-6432D01*
X-6470Y-6456D01*
X-6570Y-6496D01*
X-6667Y-6520D01*
X-6711Y-6528D01*
X-6751Y-6536D01*
X-6787Y-6540D01*
X-6819Y-6544D01*
X-6843Y-6548D01*
X-6879D01*
X-6955Y-6544D01*
X-7023Y-6536D01*
X-7092Y-6524D01*
X-7156Y-6508D01*
X-7216Y-6488D01*
X-7268Y-6468D01*
X-7320Y-6444D01*
X-7364Y-6420D01*
X-7408Y-6400D01*
X-7445Y-6376D01*
X-7477Y-6356D01*
X-7501Y-6336D01*
X-7521Y-6320D01*
X-7537Y-6307D01*
X-7545Y-6300D01*
X-7549Y-6295D01*
X-7597Y-6247D01*
X-7637Y-6195D01*
X-7673Y-6143D01*
X-7705Y-6091D01*
X-7729Y-6043D01*
X-7753Y-5991D01*
X-7785Y-5895D01*
X-7794Y-5850D01*
X-7801Y-5810D01*
X-7809Y-5774D01*
X-7813Y-5742D01*
X-7818Y-5718D01*
Y-5698D01*
Y-5686D01*
Y-5682D01*
X-7813Y-5586D01*
X-7797Y-5497D01*
X-7773Y-5421D01*
X-7749Y-5357D01*
X-7725Y-5305D01*
X-7701Y-5265D01*
X-7685Y-5241D01*
X-7681Y-5233D01*
X-7625Y-5173D01*
X-7565Y-5121D01*
X-7501Y-5080D01*
X-7437Y-5048D01*
X-7380Y-5024D01*
X-7336Y-5008D01*
X-7320Y-5004D01*
X-7308Y-5000D01*
X-7300Y-4996D01*
X-7296D01*
X-7364Y-4960D01*
X-7421Y-4924D01*
X-7469Y-4884D01*
X-7509Y-4848D01*
X-7541Y-4816D01*
X-7565Y-4788D01*
X-7577Y-4772D01*
X-7581Y-4764D01*
X-7613Y-4707D01*
X-7637Y-4651D01*
X-7657Y-4595D01*
X-7669Y-4543D01*
X-7677Y-4499D01*
X-7681Y-4467D01*
Y-4443D01*
Y-4435D01*
X-7677Y-4367D01*
X-7665Y-4298D01*
X-7649Y-4238D01*
X-7629Y-4186D01*
X-7609Y-4142D01*
X-7593Y-4106D01*
X-7581Y-4086D01*
X-7577Y-4078D01*
X-7537Y-4018D01*
X-7489Y-3966D01*
X-7441Y-3922D01*
X-7393Y-3881D01*
X-7352Y-3853D01*
X-7316Y-3829D01*
X-7292Y-3817D01*
X-7288Y-3813D01*
X-7284D01*
X-7212Y-3781D01*
X-7140Y-3757D01*
X-7068Y-3737D01*
X-7004Y-3725D01*
X-6951Y-3717D01*
X-6907Y-3713D01*
X-6807D01*
X-6751Y-3721D01*
D02*
G37*
G36*
X-5167Y-5638D02*
Y-5722D01*
X-5159Y-5794D01*
X-5155Y-5854D01*
X-5147Y-5903D01*
X-5139Y-5939D01*
X-5135Y-5967D01*
X-5127Y-5983D01*
Y-5987D01*
X-5111Y-6027D01*
X-5091Y-6059D01*
X-5067Y-6087D01*
X-5047Y-6115D01*
X-5023Y-6131D01*
X-5006Y-6147D01*
X-4995Y-6155D01*
X-4990Y-6159D01*
X-4950Y-6179D01*
X-4910Y-6195D01*
X-4870Y-6203D01*
X-4834Y-6211D01*
X-4798Y-6215D01*
X-4774Y-6219D01*
X-4750D01*
X-4686Y-6215D01*
X-4626Y-6199D01*
X-4577Y-6183D01*
X-4533Y-6159D01*
X-4501Y-6139D01*
X-4477Y-6119D01*
X-4461Y-6107D01*
X-4457Y-6103D01*
X-4437Y-6079D01*
X-4421Y-6051D01*
X-4397Y-5987D01*
X-4373Y-5914D01*
X-4361Y-5842D01*
X-4349Y-5774D01*
Y-5746D01*
X-4345Y-5722D01*
X-4341Y-5698D01*
Y-5682D01*
Y-5674D01*
Y-5670D01*
X-4008Y-5718D01*
Y-5794D01*
X-4012Y-5862D01*
X-4024Y-5931D01*
X-4032Y-5991D01*
X-4048Y-6047D01*
X-4064Y-6095D01*
X-4080Y-6143D01*
X-4096Y-6183D01*
X-4116Y-6219D01*
X-4132Y-6251D01*
X-4148Y-6279D01*
X-4164Y-6300D01*
X-4176Y-6316D01*
X-4185Y-6332D01*
X-4188Y-6336D01*
X-4192Y-6340D01*
X-4233Y-6376D01*
X-4273Y-6408D01*
X-4317Y-6436D01*
X-4365Y-6460D01*
X-4457Y-6496D01*
X-4545Y-6520D01*
X-4630Y-6536D01*
X-4662Y-6540D01*
X-4694Y-6544D01*
X-4718Y-6548D01*
X-4754D01*
X-4842Y-6544D01*
X-4922Y-6532D01*
X-4995Y-6516D01*
X-5059Y-6496D01*
X-5111Y-6480D01*
X-5147Y-6464D01*
X-5171Y-6452D01*
X-5179Y-6448D01*
X-5243Y-6408D01*
X-5299Y-6360D01*
X-5343Y-6312D01*
X-5383Y-6267D01*
X-5412Y-6223D01*
X-5432Y-6191D01*
X-5444Y-6167D01*
X-5448Y-6163D01*
Y-6159D01*
X-5476Y-6079D01*
X-5500Y-5995D01*
X-5516Y-5903D01*
X-5524Y-5814D01*
X-5532Y-5738D01*
Y-5706D01*
X-5536Y-5674D01*
Y-5650D01*
Y-5634D01*
Y-5622D01*
Y-5618D01*
Y-3725D01*
X-5167D01*
Y-5638D01*
D02*
G37*
G36*
X981Y-27281D02*
X1025Y-27345D01*
X1077Y-27409D01*
X1125Y-27466D01*
X1173Y-27514D01*
X1209Y-27554D01*
X1225Y-27566D01*
X1237Y-27578D01*
X1241Y-27582D01*
X1245Y-27586D01*
X1329Y-27654D01*
X1414Y-27718D01*
X1494Y-27775D01*
X1574Y-27819D01*
X1642Y-27859D01*
X1670Y-27875D01*
X1694Y-27887D01*
X1714Y-27899D01*
X1730Y-27903D01*
X1738Y-27911D01*
X1742D01*
Y-28240D01*
X1682Y-28216D01*
X1622Y-28188D01*
X1562Y-28159D01*
X1506Y-28131D01*
X1458Y-28107D01*
X1418Y-28087D01*
X1393Y-28071D01*
X1390Y-28067D01*
X1386D01*
X1313Y-28023D01*
X1249Y-27979D01*
X1193Y-27939D01*
X1149Y-27903D01*
X1109Y-27875D01*
X1085Y-27851D01*
X1065Y-27835D01*
X1061Y-27831D01*
Y-30000D01*
X720D01*
Y-27213D01*
X940D01*
X981Y-27281D01*
D02*
G37*
G36*
X2833Y-29138D02*
Y-29222D01*
X2841Y-29294D01*
X2845Y-29354D01*
X2853Y-29403D01*
X2861Y-29439D01*
X2865Y-29467D01*
X2873Y-29483D01*
Y-29487D01*
X2889Y-29527D01*
X2909Y-29559D01*
X2933Y-29587D01*
X2953Y-29615D01*
X2977Y-29631D01*
X2994Y-29647D01*
X3005Y-29655D01*
X3009Y-29659D01*
X3050Y-29679D01*
X3090Y-29695D01*
X3130Y-29703D01*
X3166Y-29711D01*
X3202Y-29715D01*
X3226Y-29719D01*
X3250D01*
X3314Y-29715D01*
X3374Y-29699D01*
X3423Y-29683D01*
X3467Y-29659D01*
X3499Y-29639D01*
X3523Y-29619D01*
X3539Y-29607D01*
X3543Y-29603D01*
X3563Y-29579D01*
X3579Y-29551D01*
X3603Y-29487D01*
X3627Y-29414D01*
X3639Y-29342D01*
X3651Y-29274D01*
Y-29246D01*
X3655Y-29222D01*
X3659Y-29198D01*
Y-29182D01*
Y-29174D01*
Y-29170D01*
X3992Y-29218D01*
Y-29294D01*
X3988Y-29362D01*
X3976Y-29431D01*
X3968Y-29491D01*
X3952Y-29547D01*
X3936Y-29595D01*
X3920Y-29643D01*
X3904Y-29683D01*
X3884Y-29719D01*
X3868Y-29751D01*
X3852Y-29779D01*
X3836Y-29800D01*
X3824Y-29816D01*
X3816Y-29832D01*
X3811Y-29836D01*
X3808Y-29840D01*
X3767Y-29876D01*
X3727Y-29908D01*
X3683Y-29936D01*
X3635Y-29960D01*
X3543Y-29996D01*
X3455Y-30020D01*
X3370Y-30036D01*
X3338Y-30040D01*
X3306Y-30044D01*
X3282Y-30048D01*
X3246D01*
X3158Y-30044D01*
X3078Y-30032D01*
X3005Y-30016D01*
X2941Y-29996D01*
X2889Y-29980D01*
X2853Y-29964D01*
X2829Y-29952D01*
X2821Y-29948D01*
X2757Y-29908D01*
X2701Y-29860D01*
X2657Y-29811D01*
X2617Y-29767D01*
X2589Y-29723D01*
X2568Y-29691D01*
X2556Y-29667D01*
X2552Y-29663D01*
Y-29659D01*
X2524Y-29579D01*
X2500Y-29495D01*
X2484Y-29403D01*
X2476Y-29314D01*
X2468Y-29238D01*
Y-29206D01*
X2464Y-29174D01*
Y-29150D01*
Y-29134D01*
Y-29122D01*
Y-29118D01*
Y-27225D01*
X2833D01*
Y-29138D01*
D02*
G37*
G36*
X14157Y-27217D02*
X14225Y-27221D01*
X14289Y-27233D01*
X14349Y-27245D01*
X14405Y-27261D01*
X14458Y-27277D01*
X14506Y-27297D01*
X14550Y-27317D01*
X14590Y-27337D01*
X14622Y-27357D01*
X14650Y-27373D01*
X14674Y-27389D01*
X14694Y-27402D01*
X14706Y-27413D01*
X14714Y-27418D01*
X14718Y-27422D01*
X14758Y-27462D01*
X14795Y-27506D01*
X14831Y-27554D01*
X14859Y-27602D01*
X14907Y-27698D01*
X14939Y-27795D01*
X14951Y-27839D01*
X14963Y-27883D01*
X14971Y-27919D01*
X14979Y-27951D01*
X14983Y-27979D01*
Y-27999D01*
X14987Y-28011D01*
Y-28015D01*
X14638Y-28051D01*
X14630Y-27959D01*
X14614Y-27879D01*
X14590Y-27806D01*
X14562Y-27750D01*
X14538Y-27702D01*
X14514Y-27670D01*
X14498Y-27650D01*
X14490Y-27642D01*
X14430Y-27594D01*
X14365Y-27558D01*
X14297Y-27530D01*
X14237Y-27514D01*
X14181Y-27502D01*
X14133Y-27498D01*
X14117Y-27494D01*
X14093D01*
X14008Y-27498D01*
X13932Y-27514D01*
X13868Y-27538D01*
X13812Y-27562D01*
X13768Y-27590D01*
X13740Y-27610D01*
X13720Y-27626D01*
X13712Y-27634D01*
X13664Y-27690D01*
X13628Y-27746D01*
X13600Y-27803D01*
X13584Y-27859D01*
X13571Y-27903D01*
X13567Y-27943D01*
X13563Y-27967D01*
Y-27971D01*
Y-27975D01*
X13571Y-28047D01*
X13588Y-28123D01*
X13616Y-28192D01*
X13644Y-28256D01*
X13676Y-28308D01*
X13704Y-28352D01*
X13712Y-28368D01*
X13720Y-28380D01*
X13728Y-28384D01*
Y-28388D01*
X13760Y-28432D01*
X13800Y-28476D01*
X13844Y-28524D01*
X13892Y-28572D01*
X13993Y-28669D01*
X14093Y-28765D01*
X14145Y-28809D01*
X14189Y-28849D01*
X14233Y-28885D01*
X14269Y-28917D01*
X14297Y-28941D01*
X14321Y-28961D01*
X14337Y-28973D01*
X14341Y-28977D01*
X14442Y-29062D01*
X14534Y-29142D01*
X14610Y-29214D01*
X14670Y-29274D01*
X14722Y-29326D01*
X14758Y-29362D01*
X14778Y-29386D01*
X14786Y-29390D01*
Y-29395D01*
X14843Y-29463D01*
X14887Y-29527D01*
X14927Y-29591D01*
X14959Y-29647D01*
X14983Y-29695D01*
X14999Y-29731D01*
X15007Y-29755D01*
X15011Y-29759D01*
Y-29763D01*
X15027Y-29807D01*
X15035Y-29848D01*
X15043Y-29888D01*
X15047Y-29924D01*
X15051Y-29956D01*
Y-29980D01*
Y-29996D01*
Y-30000D01*
X13211D01*
Y-29671D01*
X14578D01*
X14530Y-29603D01*
X14506Y-29575D01*
X14486Y-29547D01*
X14466Y-29523D01*
X14450Y-29507D01*
X14438Y-29495D01*
X14434Y-29491D01*
X14414Y-29471D01*
X14390Y-29451D01*
X14333Y-29399D01*
X14269Y-29338D01*
X14201Y-29278D01*
X14137Y-29226D01*
X14109Y-29202D01*
X14085Y-29178D01*
X14065Y-29162D01*
X14049Y-29150D01*
X14041Y-29142D01*
X14037Y-29138D01*
X13972Y-29082D01*
X13908Y-29030D01*
X13852Y-28977D01*
X13800Y-28933D01*
X13752Y-28889D01*
X13712Y-28849D01*
X13672Y-28813D01*
X13640Y-28781D01*
X13608Y-28749D01*
X13584Y-28725D01*
X13563Y-28705D01*
X13543Y-28685D01*
X13523Y-28661D01*
X13515Y-28653D01*
X13459Y-28585D01*
X13411Y-28524D01*
X13371Y-28464D01*
X13339Y-28416D01*
X13315Y-28372D01*
X13299Y-28340D01*
X13291Y-28320D01*
X13287Y-28312D01*
X13263Y-28252D01*
X13247Y-28192D01*
X13231Y-28135D01*
X13223Y-28087D01*
X13219Y-28043D01*
X13215Y-28011D01*
Y-27991D01*
Y-27983D01*
X13219Y-27923D01*
X13227Y-27867D01*
X13235Y-27810D01*
X13251Y-27762D01*
X13291Y-27666D01*
X13331Y-27590D01*
X13355Y-27554D01*
X13375Y-27526D01*
X13395Y-27498D01*
X13415Y-27478D01*
X13431Y-27462D01*
X13439Y-27446D01*
X13447Y-27442D01*
X13451Y-27438D01*
X13495Y-27398D01*
X13543Y-27361D01*
X13596Y-27333D01*
X13648Y-27309D01*
X13752Y-27269D01*
X13856Y-27241D01*
X13900Y-27233D01*
X13944Y-27225D01*
X13984Y-27221D01*
X14017Y-27217D01*
X14045Y-27213D01*
X14085D01*
X14157Y-27217D01*
D02*
G37*
G36*
X15833Y-29138D02*
Y-29222D01*
X15841Y-29294D01*
X15845Y-29354D01*
X15853Y-29403D01*
X15861Y-29439D01*
X15865Y-29467D01*
X15873Y-29483D01*
Y-29487D01*
X15889Y-29527D01*
X15909Y-29559D01*
X15933Y-29587D01*
X15953Y-29615D01*
X15977Y-29631D01*
X15993Y-29647D01*
X16005Y-29655D01*
X16010Y-29659D01*
X16050Y-29679D01*
X16090Y-29695D01*
X16130Y-29703D01*
X16166Y-29711D01*
X16202Y-29715D01*
X16226Y-29719D01*
X16250D01*
X16314Y-29715D01*
X16374Y-29699D01*
X16423Y-29683D01*
X16467Y-29659D01*
X16499Y-29639D01*
X16523Y-29619D01*
X16539Y-29607D01*
X16543Y-29603D01*
X16563Y-29579D01*
X16579Y-29551D01*
X16603Y-29487D01*
X16627Y-29414D01*
X16639Y-29342D01*
X16651Y-29274D01*
Y-29246D01*
X16655Y-29222D01*
X16659Y-29198D01*
Y-29182D01*
Y-29174D01*
Y-29170D01*
X16992Y-29218D01*
Y-29294D01*
X16988Y-29362D01*
X16976Y-29431D01*
X16968Y-29491D01*
X16952Y-29547D01*
X16936Y-29595D01*
X16920Y-29643D01*
X16904Y-29683D01*
X16884Y-29719D01*
X16868Y-29751D01*
X16852Y-29779D01*
X16836Y-29800D01*
X16824Y-29816D01*
X16815Y-29832D01*
X16812Y-29836D01*
X16807Y-29840D01*
X16767Y-29876D01*
X16727Y-29908D01*
X16683Y-29936D01*
X16635Y-29960D01*
X16543Y-29996D01*
X16455Y-30020D01*
X16370Y-30036D01*
X16338Y-30040D01*
X16306Y-30044D01*
X16282Y-30048D01*
X16246D01*
X16158Y-30044D01*
X16078Y-30032D01*
X16005Y-30016D01*
X15941Y-29996D01*
X15889Y-29980D01*
X15853Y-29964D01*
X15829Y-29952D01*
X15821Y-29948D01*
X15757Y-29908D01*
X15701Y-29860D01*
X15657Y-29811D01*
X15617Y-29767D01*
X15588Y-29723D01*
X15568Y-29691D01*
X15556Y-29667D01*
X15552Y-29663D01*
Y-29659D01*
X15524Y-29579D01*
X15500Y-29495D01*
X15484Y-29403D01*
X15476Y-29314D01*
X15468Y-29238D01*
Y-29206D01*
X15464Y-29174D01*
Y-29150D01*
Y-29134D01*
Y-29122D01*
Y-29118D01*
Y-27225D01*
X15833D01*
Y-29138D01*
D02*
G37*
G36*
X41825Y-33185D02*
X41953Y-33205D01*
X42066Y-33229D01*
X42118Y-33245D01*
X42166Y-33261D01*
X42210Y-33277D01*
X42250Y-33293D01*
X42282Y-33305D01*
X42314Y-33317D01*
X42334Y-33329D01*
X42350Y-33337D01*
X42362Y-33341D01*
X42366Y-33345D01*
X42475Y-33413D01*
X42567Y-33494D01*
X42647Y-33574D01*
X42715Y-33654D01*
X42767Y-33726D01*
X42788Y-33758D01*
X42803Y-33786D01*
X42819Y-33806D01*
X42828Y-33823D01*
X42832Y-33835D01*
X42836Y-33839D01*
X42892Y-33963D01*
X42932Y-34091D01*
X42960Y-34220D01*
X42980Y-34336D01*
X42988Y-34388D01*
X42992Y-34440D01*
X42996Y-34480D01*
Y-34520D01*
X43000Y-34548D01*
Y-34572D01*
Y-34589D01*
Y-34593D01*
X42992Y-34737D01*
X42976Y-34877D01*
X42956Y-35002D01*
X42940Y-35062D01*
X42928Y-35114D01*
X42916Y-35162D01*
X42900Y-35206D01*
X42888Y-35246D01*
X42880Y-35278D01*
X42868Y-35302D01*
X42864Y-35322D01*
X42856Y-35334D01*
Y-35338D01*
X42796Y-35459D01*
X42727Y-35567D01*
X42655Y-35659D01*
X42619Y-35695D01*
X42587Y-35731D01*
X42555Y-35763D01*
X42523Y-35792D01*
X42495Y-35816D01*
X42471Y-35832D01*
X42455Y-35848D01*
X42439Y-35860D01*
X42431Y-35864D01*
X42427Y-35868D01*
X42370Y-35900D01*
X42314Y-35928D01*
X42194Y-35972D01*
X42074Y-36004D01*
X41957Y-36024D01*
X41901Y-36032D01*
X41853Y-36040D01*
X41809Y-36044D01*
X41773D01*
X41741Y-36048D01*
X41697D01*
X41617Y-36044D01*
X41540Y-36036D01*
X41468Y-36028D01*
X41400Y-36012D01*
X41336Y-35992D01*
X41276Y-35972D01*
X41220Y-35952D01*
X41167Y-35928D01*
X41123Y-35908D01*
X41079Y-35888D01*
X41047Y-35868D01*
X41015Y-35848D01*
X40995Y-35832D01*
X40975Y-35824D01*
X40967Y-35816D01*
X40963Y-35811D01*
X40907Y-35763D01*
X40859Y-35715D01*
X40815Y-35659D01*
X40770Y-35603D01*
X40698Y-35491D01*
X40642Y-35378D01*
X40618Y-35326D01*
X40598Y-35278D01*
X40582Y-35234D01*
X40570Y-35198D01*
X40558Y-35166D01*
X40550Y-35142D01*
X40546Y-35126D01*
Y-35122D01*
X40915Y-35030D01*
X40931Y-35094D01*
X40951Y-35154D01*
X40971Y-35210D01*
X40991Y-35262D01*
X41015Y-35310D01*
X41039Y-35350D01*
X41067Y-35390D01*
X41091Y-35427D01*
X41111Y-35459D01*
X41135Y-35483D01*
X41155Y-35507D01*
X41171Y-35527D01*
X41188Y-35539D01*
X41199Y-35551D01*
X41203Y-35555D01*
X41208Y-35559D01*
X41248Y-35591D01*
X41292Y-35615D01*
X41380Y-35659D01*
X41464Y-35691D01*
X41548Y-35711D01*
X41621Y-35727D01*
X41649Y-35731D01*
X41677D01*
X41701Y-35735D01*
X41729D01*
X41821Y-35731D01*
X41909Y-35715D01*
X41989Y-35695D01*
X42062Y-35671D01*
X42118Y-35647D01*
X42142Y-35635D01*
X42162Y-35627D01*
X42178Y-35619D01*
X42190Y-35611D01*
X42198Y-35607D01*
X42202D01*
X42278Y-35551D01*
X42342Y-35491D01*
X42399Y-35423D01*
X42443Y-35358D01*
X42479Y-35302D01*
X42503Y-35254D01*
X42511Y-35234D01*
X42519Y-35222D01*
X42523Y-35214D01*
Y-35210D01*
X42555Y-35106D01*
X42579Y-35002D01*
X42599Y-34897D01*
X42611Y-34801D01*
X42615Y-34757D01*
X42619Y-34717D01*
Y-34681D01*
X42623Y-34653D01*
Y-34629D01*
Y-34609D01*
Y-34596D01*
Y-34593D01*
X42619Y-34488D01*
X42611Y-34392D01*
X42595Y-34304D01*
X42579Y-34224D01*
X42567Y-34155D01*
X42559Y-34127D01*
X42551Y-34103D01*
X42547Y-34083D01*
X42543Y-34071D01*
X42539Y-34063D01*
Y-34059D01*
X42499Y-33967D01*
X42455Y-33883D01*
X42406Y-33815D01*
X42354Y-33754D01*
X42310Y-33706D01*
X42274Y-33674D01*
X42246Y-33654D01*
X42242Y-33646D01*
X42238D01*
X42154Y-33594D01*
X42062Y-33554D01*
X41973Y-33526D01*
X41889Y-33510D01*
X41813Y-33498D01*
X41781Y-33494D01*
X41753D01*
X41733Y-33490D01*
X41701D01*
X41600Y-33494D01*
X41508Y-33510D01*
X41432Y-33534D01*
X41364Y-33558D01*
X41312Y-33586D01*
X41272Y-33606D01*
X41248Y-33622D01*
X41240Y-33630D01*
X41175Y-33690D01*
X41115Y-33758D01*
X41067Y-33831D01*
X41027Y-33903D01*
X40995Y-33967D01*
X40983Y-33999D01*
X40975Y-34023D01*
X40967Y-34043D01*
X40959Y-34059D01*
X40955Y-34067D01*
Y-34071D01*
X40594Y-33987D01*
X40618Y-33915D01*
X40642Y-33851D01*
X40674Y-33790D01*
X40702Y-33730D01*
X40734Y-33678D01*
X40770Y-33630D01*
X40802Y-33582D01*
X40835Y-33542D01*
X40867Y-33510D01*
X40895Y-33478D01*
X40923Y-33450D01*
X40943Y-33430D01*
X40963Y-33410D01*
X40979Y-33397D01*
X40987Y-33393D01*
X40991Y-33389D01*
X41047Y-33353D01*
X41103Y-33317D01*
X41159Y-33289D01*
X41220Y-33265D01*
X41340Y-33229D01*
X41448Y-33205D01*
X41500Y-33193D01*
X41544Y-33189D01*
X41589Y-33185D01*
X41625Y-33181D01*
X41653Y-33177D01*
X41693D01*
X41825Y-33185D01*
D02*
G37*
G36*
X40041Y-36000D02*
X39652D01*
Y-35611D01*
X40041D01*
Y-36000D01*
D02*
G37*
G36*
X39271Y-35022D02*
Y-35334D01*
X38064D01*
Y-36000D01*
X37723D01*
Y-35334D01*
X37346D01*
Y-35022D01*
X37723D01*
Y-33225D01*
X37999D01*
X39271Y-35022D01*
D02*
G37*
G36*
X27323Y-38281D02*
X27367Y-38345D01*
X27419Y-38410D01*
X27467Y-38466D01*
X27515Y-38514D01*
X27551Y-38554D01*
X27567Y-38566D01*
X27580Y-38578D01*
X27584Y-38582D01*
X27588Y-38586D01*
X27672Y-38654D01*
X27756Y-38718D01*
X27836Y-38774D01*
X27916Y-38819D01*
X27984Y-38859D01*
X28012Y-38875D01*
X28037Y-38887D01*
X28057Y-38899D01*
X28073Y-38903D01*
X28081Y-38911D01*
X28085D01*
Y-39240D01*
X28025Y-39216D01*
X27964Y-39187D01*
X27904Y-39159D01*
X27848Y-39131D01*
X27800Y-39107D01*
X27760Y-39087D01*
X27736Y-39071D01*
X27732Y-39067D01*
X27728D01*
X27656Y-39023D01*
X27591Y-38979D01*
X27535Y-38939D01*
X27491Y-38903D01*
X27451Y-38875D01*
X27427Y-38851D01*
X27407Y-38835D01*
X27403Y-38831D01*
Y-41000D01*
X27062D01*
Y-38213D01*
X27283D01*
X27323Y-38281D01*
D02*
G37*
G36*
X31000Y-39829D02*
Y-39909D01*
X30996Y-39985D01*
X30992Y-40058D01*
X30984Y-40126D01*
X30976Y-40186D01*
X30968Y-40242D01*
X30956Y-40294D01*
X30948Y-40342D01*
X30940Y-40387D01*
X30928Y-40423D01*
X30920Y-40455D01*
X30912Y-40479D01*
X30904Y-40499D01*
X30900Y-40515D01*
X30896Y-40523D01*
Y-40527D01*
X30852Y-40615D01*
X30795Y-40695D01*
X30739Y-40759D01*
X30679Y-40815D01*
X30627Y-40860D01*
X30583Y-40892D01*
X30567Y-40900D01*
X30555Y-40908D01*
X30547Y-40916D01*
X30543D01*
X30443Y-40960D01*
X30338Y-40992D01*
X30230Y-41016D01*
X30130Y-41032D01*
X30086Y-41036D01*
X30042Y-41040D01*
X30002Y-41044D01*
X29969D01*
X29941Y-41048D01*
X29905D01*
X29761Y-41040D01*
X29697Y-41032D01*
X29637Y-41024D01*
X29576Y-41012D01*
X29524Y-41000D01*
X29476Y-40988D01*
X29432Y-40972D01*
X29392Y-40956D01*
X29360Y-40944D01*
X29328Y-40932D01*
X29304Y-40920D01*
X29284Y-40908D01*
X29272Y-40904D01*
X29264Y-40896D01*
X29260D01*
X29171Y-40836D01*
X29099Y-40767D01*
X29043Y-40703D01*
X28995Y-40639D01*
X28959Y-40583D01*
X28935Y-40539D01*
X28927Y-40523D01*
X28919Y-40511D01*
X28915Y-40503D01*
Y-40499D01*
X28899Y-40451D01*
X28883Y-40398D01*
X28859Y-40290D01*
X28843Y-40178D01*
X28831Y-40070D01*
X28827Y-40022D01*
X28823Y-39973D01*
Y-39933D01*
X28819Y-39897D01*
Y-39869D01*
Y-39849D01*
Y-39833D01*
Y-39829D01*
Y-38225D01*
X29188D01*
Y-39829D01*
Y-39921D01*
X29195Y-40009D01*
X29204Y-40086D01*
X29216Y-40158D01*
X29228Y-40222D01*
X29244Y-40282D01*
X29256Y-40334D01*
X29272Y-40378D01*
X29288Y-40415D01*
X29304Y-40451D01*
X29320Y-40475D01*
X29332Y-40499D01*
X29344Y-40515D01*
X29352Y-40527D01*
X29356Y-40531D01*
X29360Y-40535D01*
X29396Y-40567D01*
X29436Y-40595D01*
X29524Y-40639D01*
X29617Y-40671D01*
X29713Y-40691D01*
X29801Y-40707D01*
X29837Y-40711D01*
X29873D01*
X29897Y-40715D01*
X29937D01*
X30022Y-40711D01*
X30098Y-40699D01*
X30170Y-40687D01*
X30226Y-40667D01*
X30274Y-40651D01*
X30310Y-40639D01*
X30330Y-40627D01*
X30338Y-40623D01*
X30395Y-40587D01*
X30443Y-40543D01*
X30483Y-40499D01*
X30511Y-40459D01*
X30535Y-40418D01*
X30555Y-40391D01*
X30563Y-40370D01*
X30567Y-40362D01*
X30579Y-40326D01*
X30587Y-40290D01*
X30603Y-40206D01*
X30615Y-40118D01*
X30623Y-40030D01*
X30627Y-39953D01*
Y-39917D01*
X30631Y-39889D01*
Y-39865D01*
Y-39845D01*
Y-39833D01*
Y-39829D01*
Y-38225D01*
X31000D01*
Y-39829D01*
D02*
G37*
G36*
X39323Y-92281D02*
X39367Y-92345D01*
X39419Y-92409D01*
X39467Y-92466D01*
X39515Y-92514D01*
X39551Y-92554D01*
X39567Y-92566D01*
X39579Y-92578D01*
X39584Y-92582D01*
X39588Y-92586D01*
X39672Y-92654D01*
X39756Y-92718D01*
X39836Y-92774D01*
X39916Y-92819D01*
X39985Y-92859D01*
X40012Y-92875D01*
X40037Y-92887D01*
X40057Y-92899D01*
X40073Y-92903D01*
X40081Y-92911D01*
X40085D01*
Y-93240D01*
X40025Y-93216D01*
X39964Y-93187D01*
X39904Y-93159D01*
X39848Y-93131D01*
X39800Y-93107D01*
X39760Y-93087D01*
X39736Y-93071D01*
X39732Y-93067D01*
X39728D01*
X39656Y-93023D01*
X39592Y-92979D01*
X39535Y-92939D01*
X39491Y-92903D01*
X39451Y-92875D01*
X39427Y-92851D01*
X39407Y-92835D01*
X39403Y-92831D01*
Y-95000D01*
X39062D01*
Y-92213D01*
X39283D01*
X39323Y-92281D01*
D02*
G37*
G36*
X43000Y-95000D02*
X42631D01*
Y-93769D01*
X42158D01*
X42114Y-93773D01*
X42082D01*
X42054Y-93777D01*
X42034Y-93781D01*
X42017D01*
X42009Y-93785D01*
X42006D01*
X41941Y-93805D01*
X41913Y-93817D01*
X41889Y-93829D01*
X41865Y-93841D01*
X41849Y-93849D01*
X41841Y-93853D01*
X41837Y-93857D01*
X41805Y-93881D01*
X41773Y-93909D01*
X41713Y-93969D01*
X41685Y-93998D01*
X41665Y-94022D01*
X41653Y-94038D01*
X41649Y-94042D01*
X41609Y-94098D01*
X41564Y-94158D01*
X41520Y-94222D01*
X41476Y-94282D01*
X41440Y-94338D01*
X41412Y-94383D01*
X41400Y-94398D01*
X41392Y-94411D01*
X41384Y-94419D01*
Y-94423D01*
X41019Y-95000D01*
X40562D01*
X41039Y-94246D01*
X41095Y-94166D01*
X41147Y-94094D01*
X41199Y-94034D01*
X41244Y-93977D01*
X41284Y-93937D01*
X41316Y-93905D01*
X41336Y-93885D01*
X41344Y-93877D01*
X41376Y-93853D01*
X41412Y-93825D01*
X41484Y-93781D01*
X41516Y-93765D01*
X41540Y-93749D01*
X41556Y-93741D01*
X41564Y-93737D01*
X41492Y-93725D01*
X41424Y-93713D01*
X41364Y-93693D01*
X41304Y-93677D01*
X41252Y-93657D01*
X41203Y-93633D01*
X41159Y-93612D01*
X41119Y-93593D01*
X41087Y-93568D01*
X41055Y-93548D01*
X41031Y-93532D01*
X41011Y-93516D01*
X40995Y-93504D01*
X40983Y-93492D01*
X40979Y-93488D01*
X40975Y-93484D01*
X40943Y-93444D01*
X40911Y-93404D01*
X40863Y-93320D01*
X40831Y-93236D01*
X40806Y-93155D01*
X40791Y-93087D01*
X40786Y-93059D01*
Y-93031D01*
X40782Y-93011D01*
Y-92995D01*
Y-92987D01*
Y-92983D01*
X40786Y-92899D01*
X40799Y-92823D01*
X40819Y-92750D01*
X40839Y-92690D01*
X40863Y-92638D01*
X40879Y-92598D01*
X40895Y-92574D01*
X40899Y-92570D01*
Y-92566D01*
X40947Y-92502D01*
X40995Y-92446D01*
X41047Y-92397D01*
X41095Y-92361D01*
X41139Y-92333D01*
X41175Y-92317D01*
X41199Y-92305D01*
X41203Y-92301D01*
X41208D01*
X41244Y-92289D01*
X41288Y-92277D01*
X41376Y-92257D01*
X41472Y-92245D01*
X41560Y-92233D01*
X41645Y-92229D01*
X41681D01*
X41713Y-92225D01*
X43000D01*
Y-95000D01*
D02*
G37*
G36*
X37390Y-92221D02*
X37490Y-92237D01*
X37574Y-92265D01*
X37647Y-92293D01*
X37707Y-92325D01*
X37731Y-92337D01*
X37751Y-92353D01*
X37767Y-92361D01*
X37779Y-92369D01*
X37783Y-92378D01*
X37787D01*
X37859Y-92442D01*
X37919Y-92518D01*
X37971Y-92594D01*
X38012Y-92666D01*
X38044Y-92734D01*
X38060Y-92762D01*
X38068Y-92791D01*
X38076Y-92810D01*
X38084Y-92827D01*
X38088Y-92835D01*
Y-92839D01*
X38104Y-92899D01*
X38120Y-92959D01*
X38144Y-93091D01*
X38164Y-93224D01*
X38176Y-93348D01*
X38180Y-93408D01*
X38184Y-93460D01*
Y-93508D01*
X38188Y-93552D01*
Y-93585D01*
Y-93612D01*
Y-93629D01*
Y-93633D01*
X38184Y-93773D01*
X38176Y-93905D01*
X38164Y-94026D01*
X38144Y-94138D01*
X38124Y-94242D01*
X38100Y-94334D01*
X38076Y-94419D01*
X38052Y-94491D01*
X38028Y-94555D01*
X37999Y-94611D01*
X37980Y-94659D01*
X37959Y-94695D01*
X37939Y-94727D01*
X37927Y-94747D01*
X37919Y-94759D01*
X37915Y-94763D01*
X37871Y-94811D01*
X37823Y-94856D01*
X37771Y-94896D01*
X37719Y-94928D01*
X37667Y-94956D01*
X37615Y-94980D01*
X37562Y-94996D01*
X37514Y-95012D01*
X37466Y-95024D01*
X37422Y-95032D01*
X37382Y-95040D01*
X37350Y-95044D01*
X37322Y-95048D01*
X37282D01*
X37174Y-95040D01*
X37073Y-95024D01*
X36989Y-94996D01*
X36917Y-94968D01*
X36857Y-94940D01*
X36837Y-94924D01*
X36817Y-94912D01*
X36801Y-94904D01*
X36788Y-94896D01*
X36784Y-94888D01*
X36781D01*
X36708Y-94820D01*
X36648Y-94747D01*
X36596Y-94667D01*
X36556Y-94595D01*
X36524Y-94527D01*
X36508Y-94499D01*
X36500Y-94471D01*
X36492Y-94451D01*
X36484Y-94435D01*
X36480Y-94427D01*
Y-94423D01*
X36460Y-94362D01*
X36444Y-94302D01*
X36420Y-94174D01*
X36399Y-94042D01*
X36388Y-93913D01*
X36384Y-93857D01*
X36380Y-93805D01*
Y-93757D01*
X36375Y-93713D01*
Y-93681D01*
Y-93653D01*
Y-93637D01*
Y-93633D01*
Y-93556D01*
X36380Y-93484D01*
Y-93420D01*
X36384Y-93356D01*
X36391Y-93300D01*
X36395Y-93244D01*
X36399Y-93195D01*
X36408Y-93151D01*
X36412Y-93111D01*
X36420Y-93075D01*
X36424Y-93047D01*
X36428Y-93023D01*
X36432Y-93003D01*
X36436Y-92991D01*
X36440Y-92983D01*
Y-92979D01*
X36464Y-92891D01*
X36492Y-92810D01*
X36524Y-92742D01*
X36548Y-92682D01*
X36576Y-92630D01*
X36592Y-92594D01*
X36608Y-92574D01*
X36612Y-92566D01*
X36656Y-92506D01*
X36700Y-92454D01*
X36748Y-92409D01*
X36792Y-92369D01*
X36833Y-92341D01*
X36865Y-92321D01*
X36885Y-92309D01*
X36889Y-92305D01*
X36893D01*
X36957Y-92273D01*
X37025Y-92253D01*
X37089Y-92237D01*
X37149Y-92225D01*
X37201Y-92217D01*
X37246Y-92213D01*
X37282D01*
X37390Y-92221D01*
D02*
G37*
G36*
X34543Y-98217D02*
X34607Y-98225D01*
X34672Y-98237D01*
X34728Y-98253D01*
X34836Y-98297D01*
X34884Y-98317D01*
X34924Y-98341D01*
X34964Y-98369D01*
X34997Y-98390D01*
X35029Y-98413D01*
X35053Y-98434D01*
X35073Y-98450D01*
X35085Y-98462D01*
X35093Y-98470D01*
X35097Y-98474D01*
X35141Y-98522D01*
X35177Y-98578D01*
X35213Y-98630D01*
X35241Y-98686D01*
X35265Y-98746D01*
X35285Y-98803D01*
X35313Y-98907D01*
X35325Y-98959D01*
X35333Y-99003D01*
X35337Y-99047D01*
X35341Y-99083D01*
X35345Y-99111D01*
Y-99131D01*
Y-99147D01*
Y-99151D01*
X35341Y-99228D01*
X35333Y-99296D01*
X35325Y-99364D01*
X35309Y-99428D01*
X35289Y-99484D01*
X35269Y-99540D01*
X35249Y-99589D01*
X35225Y-99633D01*
X35205Y-99673D01*
X35185Y-99709D01*
X35165Y-99737D01*
X35145Y-99765D01*
X35129Y-99785D01*
X35121Y-99797D01*
X35113Y-99805D01*
X35109Y-99809D01*
X35065Y-99853D01*
X35017Y-99889D01*
X34968Y-99925D01*
X34916Y-99953D01*
X34868Y-99977D01*
X34820Y-99998D01*
X34728Y-100026D01*
X34688Y-100038D01*
X34648Y-100046D01*
X34616Y-100050D01*
X34584Y-100054D01*
X34559Y-100058D01*
X34527D01*
X34451Y-100054D01*
X34379Y-100042D01*
X34315Y-100026D01*
X34255Y-100005D01*
X34211Y-99989D01*
X34174Y-99973D01*
X34150Y-99961D01*
X34142Y-99957D01*
X34078Y-99917D01*
X34022Y-99873D01*
X33974Y-99829D01*
X33934Y-99789D01*
X33906Y-99749D01*
X33882Y-99721D01*
X33866Y-99701D01*
X33862Y-99693D01*
Y-99725D01*
Y-99745D01*
Y-99757D01*
Y-99761D01*
X33866Y-99841D01*
X33870Y-99917D01*
X33878Y-99985D01*
X33886Y-100050D01*
X33898Y-100102D01*
X33906Y-100142D01*
X33910Y-100158D01*
Y-100170D01*
X33914Y-100174D01*
Y-100178D01*
X33934Y-100250D01*
X33954Y-100314D01*
X33974Y-100370D01*
X33994Y-100419D01*
X34010Y-100455D01*
X34026Y-100483D01*
X34034Y-100503D01*
X34038Y-100507D01*
X34070Y-100551D01*
X34102Y-100587D01*
X34134Y-100619D01*
X34166Y-100647D01*
X34190Y-100671D01*
X34215Y-100687D01*
X34231Y-100695D01*
X34235Y-100699D01*
X34279Y-100723D01*
X34327Y-100739D01*
X34371Y-100751D01*
X34415Y-100759D01*
X34451Y-100763D01*
X34479Y-100767D01*
X34507D01*
X34571Y-100763D01*
X34632Y-100751D01*
X34684Y-100735D01*
X34728Y-100715D01*
X34760Y-100699D01*
X34788Y-100683D01*
X34804Y-100671D01*
X34808Y-100667D01*
X34848Y-100623D01*
X34880Y-100571D01*
X34908Y-100515D01*
X34928Y-100459D01*
X34944Y-100410D01*
X34956Y-100366D01*
X34960Y-100350D01*
Y-100342D01*
X34964Y-100334D01*
Y-100330D01*
X35293Y-100358D01*
X35269Y-100475D01*
X35237Y-100575D01*
X35197Y-100663D01*
X35157Y-100735D01*
X35117Y-100792D01*
X35097Y-100815D01*
X35081Y-100836D01*
X35069Y-100848D01*
X35057Y-100860D01*
X35053Y-100864D01*
X35049Y-100868D01*
X35008Y-100900D01*
X34964Y-100928D01*
X34876Y-100972D01*
X34788Y-101004D01*
X34704Y-101024D01*
X34628Y-101040D01*
X34596Y-101044D01*
X34567D01*
X34547Y-101048D01*
X34515D01*
X34403Y-101040D01*
X34303Y-101024D01*
X34211Y-100996D01*
X34134Y-100964D01*
X34102Y-100952D01*
X34070Y-100936D01*
X34046Y-100920D01*
X34022Y-100908D01*
X34006Y-100900D01*
X33994Y-100892D01*
X33986Y-100884D01*
X33982D01*
X33902Y-100815D01*
X33830Y-100739D01*
X33773Y-100659D01*
X33725Y-100583D01*
X33685Y-100515D01*
X33669Y-100483D01*
X33657Y-100459D01*
X33649Y-100435D01*
X33641Y-100419D01*
X33637Y-100410D01*
Y-100407D01*
X33617Y-100346D01*
X33597Y-100278D01*
X33569Y-100142D01*
X33549Y-99998D01*
X33537Y-99861D01*
X33529Y-99801D01*
X33525Y-99741D01*
Y-99689D01*
X33521Y-99645D01*
Y-99608D01*
Y-99581D01*
Y-99560D01*
Y-99556D01*
Y-99464D01*
X33525Y-99376D01*
X33533Y-99296D01*
X33541Y-99220D01*
X33549Y-99151D01*
X33557Y-99087D01*
X33569Y-99027D01*
X33581Y-98975D01*
X33593Y-98931D01*
X33601Y-98891D01*
X33613Y-98855D01*
X33621Y-98827D01*
X33629Y-98807D01*
X33637Y-98791D01*
X33641Y-98782D01*
Y-98778D01*
X33689Y-98682D01*
X33741Y-98598D01*
X33801Y-98526D01*
X33854Y-98466D01*
X33906Y-98422D01*
X33946Y-98390D01*
X33962Y-98378D01*
X33974Y-98369D01*
X33978Y-98361D01*
X33982D01*
X34066Y-98313D01*
X34150Y-98277D01*
X34235Y-98249D01*
X34311Y-98233D01*
X34379Y-98221D01*
X34407Y-98217D01*
X34427D01*
X34447Y-98213D01*
X34475D01*
X34543Y-98217D01*
D02*
G37*
G36*
X38000Y-101000D02*
X37631D01*
Y-99769D01*
X37158D01*
X37114Y-99773D01*
X37082D01*
X37054Y-99777D01*
X37034Y-99781D01*
X37018D01*
X37010Y-99785D01*
X37005D01*
X36941Y-99805D01*
X36913Y-99817D01*
X36889Y-99829D01*
X36865Y-99841D01*
X36849Y-99849D01*
X36841Y-99853D01*
X36837Y-99857D01*
X36805Y-99881D01*
X36773Y-99909D01*
X36713Y-99969D01*
X36685Y-99998D01*
X36665Y-100022D01*
X36653Y-100038D01*
X36649Y-100042D01*
X36608Y-100098D01*
X36564Y-100158D01*
X36520Y-100222D01*
X36476Y-100282D01*
X36440Y-100338D01*
X36412Y-100382D01*
X36400Y-100399D01*
X36392Y-100410D01*
X36384Y-100419D01*
Y-100423D01*
X36019Y-101000D01*
X35562D01*
X36039Y-100246D01*
X36095Y-100166D01*
X36147Y-100094D01*
X36200Y-100034D01*
X36244Y-99977D01*
X36284Y-99937D01*
X36316Y-99905D01*
X36336Y-99885D01*
X36344Y-99877D01*
X36376Y-99853D01*
X36412Y-99825D01*
X36484Y-99781D01*
X36516Y-99765D01*
X36540Y-99749D01*
X36556Y-99741D01*
X36564Y-99737D01*
X36492Y-99725D01*
X36424Y-99713D01*
X36364Y-99693D01*
X36304Y-99677D01*
X36252Y-99657D01*
X36204Y-99633D01*
X36159Y-99612D01*
X36119Y-99593D01*
X36087Y-99568D01*
X36055Y-99548D01*
X36031Y-99532D01*
X36011Y-99516D01*
X35995Y-99504D01*
X35983Y-99492D01*
X35979Y-99488D01*
X35975Y-99484D01*
X35943Y-99444D01*
X35911Y-99404D01*
X35863Y-99320D01*
X35831Y-99236D01*
X35807Y-99155D01*
X35791Y-99087D01*
X35787Y-99059D01*
Y-99031D01*
X35783Y-99011D01*
Y-98995D01*
Y-98987D01*
Y-98983D01*
X35787Y-98899D01*
X35798Y-98823D01*
X35819Y-98750D01*
X35839Y-98690D01*
X35863Y-98638D01*
X35879Y-98598D01*
X35895Y-98574D01*
X35899Y-98570D01*
Y-98566D01*
X35947Y-98502D01*
X35995Y-98446D01*
X36047Y-98397D01*
X36095Y-98361D01*
X36139Y-98333D01*
X36176Y-98317D01*
X36200Y-98305D01*
X36204Y-98301D01*
X36208D01*
X36244Y-98289D01*
X36288Y-98277D01*
X36376Y-98257D01*
X36472Y-98245D01*
X36560Y-98233D01*
X36645Y-98229D01*
X36681D01*
X36713Y-98225D01*
X38000D01*
Y-101000D01*
D02*
G37*
G36*
X32000Y-105000D02*
X31631D01*
Y-103769D01*
X31158D01*
X31114Y-103773D01*
X31082D01*
X31054Y-103777D01*
X31034Y-103781D01*
X31018D01*
X31010Y-103785D01*
X31005D01*
X30941Y-103805D01*
X30913Y-103817D01*
X30889Y-103829D01*
X30865Y-103841D01*
X30849Y-103849D01*
X30841Y-103853D01*
X30837Y-103857D01*
X30805Y-103881D01*
X30773Y-103909D01*
X30713Y-103969D01*
X30685Y-103998D01*
X30665Y-104022D01*
X30653Y-104038D01*
X30649Y-104042D01*
X30608Y-104098D01*
X30564Y-104158D01*
X30520Y-104222D01*
X30476Y-104282D01*
X30440Y-104338D01*
X30412Y-104383D01*
X30400Y-104399D01*
X30392Y-104411D01*
X30384Y-104419D01*
Y-104423D01*
X30019Y-105000D01*
X29562D01*
X30039Y-104246D01*
X30095Y-104166D01*
X30147Y-104094D01*
X30200Y-104034D01*
X30244Y-103977D01*
X30284Y-103937D01*
X30316Y-103905D01*
X30336Y-103885D01*
X30344Y-103877D01*
X30376Y-103853D01*
X30412Y-103825D01*
X30484Y-103781D01*
X30516Y-103765D01*
X30540Y-103749D01*
X30556Y-103741D01*
X30564Y-103737D01*
X30492Y-103725D01*
X30424Y-103713D01*
X30364Y-103693D01*
X30304Y-103677D01*
X30252Y-103657D01*
X30204Y-103633D01*
X30159Y-103612D01*
X30119Y-103593D01*
X30087Y-103568D01*
X30055Y-103548D01*
X30031Y-103532D01*
X30011Y-103516D01*
X29995Y-103504D01*
X29983Y-103492D01*
X29979Y-103488D01*
X29975Y-103484D01*
X29943Y-103444D01*
X29911Y-103404D01*
X29863Y-103320D01*
X29831Y-103236D01*
X29807Y-103155D01*
X29790Y-103087D01*
X29787Y-103059D01*
Y-103031D01*
X29783Y-103011D01*
Y-102995D01*
Y-102987D01*
Y-102983D01*
X29787Y-102899D01*
X29798Y-102823D01*
X29819Y-102750D01*
X29839Y-102690D01*
X29863Y-102638D01*
X29879Y-102598D01*
X29895Y-102574D01*
X29899Y-102570D01*
Y-102566D01*
X29947Y-102502D01*
X29995Y-102446D01*
X30047Y-102398D01*
X30095Y-102361D01*
X30139Y-102333D01*
X30176Y-102317D01*
X30200Y-102305D01*
X30204Y-102301D01*
X30207D01*
X30244Y-102289D01*
X30288Y-102277D01*
X30376Y-102257D01*
X30472Y-102245D01*
X30560Y-102233D01*
X30645Y-102229D01*
X30681D01*
X30713Y-102225D01*
X32000D01*
Y-105000D01*
D02*
G37*
G36*
X28507Y-102217D02*
X28571Y-102221D01*
X28684Y-102245D01*
X28736Y-102261D01*
X28784Y-102277D01*
X28828Y-102297D01*
X28868Y-102317D01*
X28900Y-102337D01*
X28932Y-102357D01*
X28960Y-102374D01*
X28980Y-102390D01*
X28997Y-102401D01*
X29008Y-102414D01*
X29017Y-102418D01*
X29021Y-102422D01*
X29057Y-102462D01*
X29093Y-102502D01*
X29121Y-102546D01*
X29145Y-102590D01*
X29185Y-102674D01*
X29209Y-102754D01*
X29225Y-102823D01*
X29229Y-102855D01*
X29233Y-102879D01*
X29237Y-102903D01*
Y-102919D01*
Y-102927D01*
Y-102931D01*
X29233Y-103003D01*
X29221Y-103071D01*
X29205Y-103131D01*
X29185Y-103183D01*
X29169Y-103224D01*
X29153Y-103256D01*
X29141Y-103272D01*
X29137Y-103280D01*
X29093Y-103328D01*
X29045Y-103372D01*
X28993Y-103412D01*
X28940Y-103444D01*
X28892Y-103468D01*
X28856Y-103484D01*
X28840Y-103492D01*
X28828Y-103496D01*
X28824Y-103500D01*
X28820D01*
X28912Y-103528D01*
X28989Y-103564D01*
X29057Y-103609D01*
X29113Y-103649D01*
X29157Y-103689D01*
X29189Y-103721D01*
X29205Y-103741D01*
X29213Y-103745D01*
Y-103749D01*
X29257Y-103821D01*
X29293Y-103897D01*
X29317Y-103969D01*
X29333Y-104042D01*
X29341Y-104106D01*
X29345Y-104134D01*
Y-104158D01*
X29349Y-104174D01*
Y-104190D01*
Y-104198D01*
Y-104202D01*
X29345Y-104266D01*
X29337Y-104330D01*
X29325Y-104391D01*
X29309Y-104451D01*
X29269Y-104551D01*
X29249Y-104599D01*
X29225Y-104639D01*
X29201Y-104679D01*
X29181Y-104711D01*
X29157Y-104739D01*
X29141Y-104763D01*
X29125Y-104783D01*
X29113Y-104796D01*
X29105Y-104804D01*
X29101Y-104807D01*
X29053Y-104852D01*
X29000Y-104888D01*
X28944Y-104920D01*
X28888Y-104948D01*
X28836Y-104968D01*
X28780Y-104988D01*
X28672Y-105016D01*
X28624Y-105028D01*
X28580Y-105036D01*
X28539Y-105040D01*
X28503Y-105044D01*
X28475Y-105048D01*
X28435D01*
X28359Y-105044D01*
X28291Y-105036D01*
X28223Y-105024D01*
X28158Y-105012D01*
X28102Y-104992D01*
X28046Y-104972D01*
X27994Y-104952D01*
X27950Y-104928D01*
X27910Y-104904D01*
X27874Y-104884D01*
X27846Y-104864D01*
X27818Y-104844D01*
X27797Y-104832D01*
X27786Y-104820D01*
X27777Y-104812D01*
X27773Y-104807D01*
X27729Y-104759D01*
X27689Y-104711D01*
X27657Y-104663D01*
X27629Y-104611D01*
X27601Y-104563D01*
X27581Y-104511D01*
X27553Y-104419D01*
X27541Y-104374D01*
X27533Y-104334D01*
X27529Y-104298D01*
X27525Y-104270D01*
X27521Y-104246D01*
Y-104226D01*
Y-104214D01*
Y-104210D01*
X27525Y-104118D01*
X27541Y-104034D01*
X27565Y-103957D01*
X27589Y-103893D01*
X27613Y-103841D01*
X27637Y-103801D01*
X27653Y-103777D01*
X27657Y-103773D01*
Y-103769D01*
X27713Y-103705D01*
X27773Y-103649D01*
X27838Y-103604D01*
X27898Y-103564D01*
X27954Y-103536D01*
X28002Y-103516D01*
X28018Y-103508D01*
X28030Y-103504D01*
X28038Y-103500D01*
X28042D01*
X27970Y-103468D01*
X27910Y-103432D01*
X27858Y-103396D01*
X27814Y-103360D01*
X27782Y-103328D01*
X27757Y-103304D01*
X27741Y-103288D01*
X27737Y-103280D01*
X27701Y-103224D01*
X27677Y-103167D01*
X27657Y-103111D01*
X27645Y-103055D01*
X27637Y-103011D01*
X27633Y-102975D01*
Y-102951D01*
Y-102947D01*
Y-102943D01*
X27637Y-102887D01*
X27641Y-102835D01*
X27669Y-102734D01*
X27705Y-102646D01*
X27745Y-102570D01*
X27786Y-102510D01*
X27806Y-102486D01*
X27822Y-102462D01*
X27838Y-102446D01*
X27850Y-102434D01*
X27854Y-102430D01*
X27858Y-102426D01*
X27902Y-102390D01*
X27946Y-102353D01*
X27994Y-102325D01*
X28042Y-102301D01*
X28138Y-102265D01*
X28235Y-102241D01*
X28275Y-102229D01*
X28315Y-102225D01*
X28351Y-102221D01*
X28383Y-102217D01*
X28407Y-102213D01*
X28443D01*
X28507Y-102217D01*
D02*
G37*
G36*
X29000Y-111000D02*
X28631D01*
Y-109769D01*
X28158D01*
X28114Y-109773D01*
X28082D01*
X28054Y-109777D01*
X28034Y-109781D01*
X28018D01*
X28010Y-109785D01*
X28005D01*
X27941Y-109805D01*
X27913Y-109817D01*
X27889Y-109829D01*
X27865Y-109841D01*
X27849Y-109849D01*
X27841Y-109853D01*
X27837Y-109857D01*
X27805Y-109881D01*
X27773Y-109909D01*
X27713Y-109969D01*
X27685Y-109997D01*
X27665Y-110022D01*
X27653Y-110038D01*
X27649Y-110042D01*
X27608Y-110098D01*
X27564Y-110158D01*
X27520Y-110222D01*
X27476Y-110282D01*
X27440Y-110338D01*
X27412Y-110382D01*
X27400Y-110398D01*
X27392Y-110410D01*
X27384Y-110419D01*
Y-110423D01*
X27019Y-111000D01*
X26562D01*
X27039Y-110246D01*
X27095Y-110166D01*
X27147Y-110094D01*
X27200Y-110034D01*
X27244Y-109977D01*
X27284Y-109937D01*
X27316Y-109905D01*
X27336Y-109885D01*
X27344Y-109877D01*
X27376Y-109853D01*
X27412Y-109825D01*
X27484Y-109781D01*
X27516Y-109765D01*
X27540Y-109749D01*
X27556Y-109741D01*
X27564Y-109737D01*
X27492Y-109725D01*
X27424Y-109713D01*
X27364Y-109693D01*
X27304Y-109677D01*
X27252Y-109657D01*
X27204Y-109633D01*
X27159Y-109613D01*
X27119Y-109592D01*
X27087Y-109568D01*
X27055Y-109548D01*
X27031Y-109532D01*
X27011Y-109516D01*
X26995Y-109504D01*
X26983Y-109492D01*
X26979Y-109488D01*
X26975Y-109484D01*
X26943Y-109444D01*
X26911Y-109404D01*
X26863Y-109320D01*
X26831Y-109236D01*
X26807Y-109155D01*
X26790Y-109087D01*
X26787Y-109059D01*
Y-109031D01*
X26783Y-109011D01*
Y-108995D01*
Y-108987D01*
Y-108983D01*
X26787Y-108899D01*
X26798Y-108823D01*
X26819Y-108750D01*
X26839Y-108690D01*
X26863Y-108638D01*
X26879Y-108598D01*
X26895Y-108574D01*
X26899Y-108570D01*
Y-108566D01*
X26947Y-108502D01*
X26995Y-108446D01*
X27047Y-108397D01*
X27095Y-108361D01*
X27139Y-108333D01*
X27176Y-108317D01*
X27200Y-108305D01*
X27204Y-108301D01*
X27207D01*
X27244Y-108289D01*
X27288Y-108277D01*
X27376Y-108257D01*
X27472Y-108245D01*
X27560Y-108233D01*
X27645Y-108229D01*
X27681D01*
X27713Y-108225D01*
X29000D01*
Y-111000D01*
D02*
G37*
G36*
X26321Y-108590D02*
X24962D01*
X25058Y-108706D01*
X25150Y-108831D01*
X25231Y-108951D01*
X25307Y-109067D01*
X25339Y-109119D01*
X25367Y-109167D01*
X25395Y-109212D01*
X25415Y-109248D01*
X25431Y-109280D01*
X25443Y-109300D01*
X25451Y-109316D01*
X25455Y-109320D01*
X25535Y-109480D01*
X25607Y-109641D01*
X25668Y-109793D01*
X25692Y-109861D01*
X25716Y-109929D01*
X25740Y-109990D01*
X25756Y-110046D01*
X25772Y-110094D01*
X25784Y-110134D01*
X25796Y-110170D01*
X25804Y-110194D01*
X25808Y-110210D01*
Y-110214D01*
X25848Y-110378D01*
X25864Y-110459D01*
X25876Y-110531D01*
X25888Y-110599D01*
X25900Y-110667D01*
X25908Y-110723D01*
X25916Y-110779D01*
X25920Y-110828D01*
X25924Y-110872D01*
X25928Y-110912D01*
Y-110944D01*
X25932Y-110968D01*
Y-110984D01*
Y-110996D01*
Y-111000D01*
X25583D01*
X25571Y-110848D01*
X25551Y-110707D01*
X25531Y-110579D01*
X25519Y-110519D01*
X25507Y-110463D01*
X25499Y-110415D01*
X25487Y-110370D01*
X25479Y-110330D01*
X25471Y-110298D01*
X25463Y-110274D01*
X25459Y-110254D01*
X25455Y-110242D01*
Y-110238D01*
X25395Y-110054D01*
X25331Y-109881D01*
X25299Y-109797D01*
X25267Y-109717D01*
X25231Y-109645D01*
X25199Y-109572D01*
X25170Y-109508D01*
X25142Y-109452D01*
X25118Y-109404D01*
X25098Y-109360D01*
X25078Y-109324D01*
X25066Y-109300D01*
X25058Y-109284D01*
X25054Y-109280D01*
X25006Y-109195D01*
X24958Y-109111D01*
X24910Y-109035D01*
X24862Y-108963D01*
X24818Y-108899D01*
X24773Y-108835D01*
X24729Y-108779D01*
X24693Y-108730D01*
X24657Y-108682D01*
X24625Y-108642D01*
X24593Y-108610D01*
X24569Y-108582D01*
X24553Y-108558D01*
X24537Y-108542D01*
X24529Y-108534D01*
X24525Y-108530D01*
Y-108261D01*
X26321D01*
Y-108590D01*
D02*
G37*
G36*
X14443Y-110217D02*
X14519Y-110225D01*
X14592Y-110241D01*
X14660Y-110261D01*
X14720Y-110289D01*
X14780Y-110313D01*
X14832Y-110345D01*
X14880Y-110373D01*
X14920Y-110401D01*
X14960Y-110434D01*
X14992Y-110458D01*
X15017Y-110482D01*
X15037Y-110506D01*
X15053Y-110522D01*
X15061Y-110530D01*
X15065Y-110534D01*
X15117Y-110606D01*
X15161Y-110690D01*
X15201Y-110778D01*
X15237Y-110871D01*
X15265Y-110967D01*
X15289Y-111063D01*
X15309Y-111163D01*
X15325Y-111256D01*
X15337Y-111348D01*
X15345Y-111432D01*
X15353Y-111508D01*
X15357Y-111572D01*
Y-111629D01*
X15361Y-111669D01*
Y-111685D01*
Y-111697D01*
Y-111701D01*
Y-111705D01*
X15357Y-111833D01*
X15349Y-111953D01*
X15337Y-112066D01*
X15317Y-112170D01*
X15297Y-112262D01*
X15277Y-112346D01*
X15253Y-112423D01*
X15225Y-112491D01*
X15201Y-112547D01*
X15177Y-112599D01*
X15157Y-112639D01*
X15133Y-112675D01*
X15117Y-112703D01*
X15105Y-112719D01*
X15097Y-112731D01*
X15093Y-112735D01*
X15041Y-112792D01*
X14985Y-112840D01*
X14928Y-112880D01*
X14872Y-112916D01*
X14812Y-112948D01*
X14756Y-112972D01*
X14700Y-112992D01*
X14644Y-113008D01*
X14595Y-113020D01*
X14547Y-113032D01*
X14507Y-113040D01*
X14471Y-113044D01*
X14439D01*
X14419Y-113048D01*
X14399D01*
X14307Y-113044D01*
X14223Y-113028D01*
X14146Y-113012D01*
X14078Y-112988D01*
X14026Y-112968D01*
X13986Y-112948D01*
X13970Y-112944D01*
X13958Y-112936D01*
X13954Y-112932D01*
X13950D01*
X13882Y-112884D01*
X13818Y-112828D01*
X13765Y-112771D01*
X13721Y-112715D01*
X13685Y-112663D01*
X13661Y-112623D01*
X13653Y-112607D01*
X13645Y-112595D01*
X13641Y-112591D01*
Y-112587D01*
X13601Y-112503D01*
X13573Y-112415D01*
X13553Y-112334D01*
X13541Y-112258D01*
X13529Y-112194D01*
Y-112170D01*
X13525Y-112146D01*
Y-112126D01*
Y-112114D01*
Y-112106D01*
Y-112102D01*
X13529Y-112030D01*
X13537Y-111961D01*
X13549Y-111893D01*
X13561Y-111833D01*
X13581Y-111777D01*
X13601Y-111721D01*
X13621Y-111673D01*
X13645Y-111629D01*
X13669Y-111589D01*
X13689Y-111552D01*
X13709Y-111524D01*
X13729Y-111496D01*
X13741Y-111476D01*
X13753Y-111464D01*
X13761Y-111456D01*
X13765Y-111452D01*
X13810Y-111408D01*
X13858Y-111368D01*
X13910Y-111336D01*
X13958Y-111308D01*
X14006Y-111280D01*
X14054Y-111260D01*
X14146Y-111232D01*
X14187Y-111220D01*
X14227Y-111212D01*
X14259Y-111207D01*
X14291Y-111204D01*
X14315Y-111199D01*
X14347D01*
X14419Y-111204D01*
X14487Y-111216D01*
X14551Y-111228D01*
X14607Y-111244D01*
X14656Y-111264D01*
X14692Y-111276D01*
X14716Y-111288D01*
X14720Y-111292D01*
X14724D01*
X14788Y-111332D01*
X14844Y-111376D01*
X14896Y-111420D01*
X14936Y-111468D01*
X14973Y-111508D01*
X15000Y-111540D01*
X15017Y-111564D01*
X15021Y-111568D01*
Y-111496D01*
X15017Y-111424D01*
X15012Y-111360D01*
X15004Y-111296D01*
X15000Y-111240D01*
X14992Y-111188D01*
X14985Y-111139D01*
X14973Y-111095D01*
X14964Y-111055D01*
X14956Y-111023D01*
X14948Y-110995D01*
X14944Y-110971D01*
X14936Y-110955D01*
X14932Y-110943D01*
X14928Y-110935D01*
Y-110931D01*
X14888Y-110851D01*
X14848Y-110778D01*
X14804Y-110722D01*
X14764Y-110674D01*
X14728Y-110634D01*
X14700Y-110606D01*
X14680Y-110590D01*
X14672Y-110586D01*
X14624Y-110554D01*
X14575Y-110534D01*
X14527Y-110518D01*
X14479Y-110506D01*
X14443Y-110498D01*
X14411Y-110494D01*
X14383D01*
X14311Y-110502D01*
X14243Y-110518D01*
X14187Y-110542D01*
X14134Y-110566D01*
X14094Y-110594D01*
X14066Y-110618D01*
X14050Y-110634D01*
X14042Y-110642D01*
X14014Y-110678D01*
X13986Y-110722D01*
X13962Y-110770D01*
X13946Y-110819D01*
X13930Y-110863D01*
X13918Y-110899D01*
X13914Y-110923D01*
X13910Y-110927D01*
Y-110931D01*
X13569Y-110903D01*
X13593Y-110791D01*
X13629Y-110690D01*
X13669Y-110602D01*
X13713Y-110530D01*
X13757Y-110474D01*
X13773Y-110450D01*
X13793Y-110430D01*
X13805Y-110418D01*
X13818Y-110406D01*
X13822Y-110401D01*
X13826Y-110398D01*
X13866Y-110365D01*
X13910Y-110337D01*
X13998Y-110289D01*
X14086Y-110257D01*
X14170Y-110237D01*
X14247Y-110221D01*
X14279Y-110217D01*
X14307D01*
X14331Y-110213D01*
X14363D01*
X14443Y-110217D01*
D02*
G37*
G36*
X18000Y-113000D02*
X17631D01*
Y-111769D01*
X17158D01*
X17114Y-111773D01*
X17082D01*
X17054Y-111777D01*
X17034Y-111781D01*
X17018D01*
X17009Y-111785D01*
X17006D01*
X16941Y-111805D01*
X16913Y-111817D01*
X16889Y-111829D01*
X16865Y-111841D01*
X16849Y-111849D01*
X16841Y-111853D01*
X16837Y-111857D01*
X16805Y-111881D01*
X16773Y-111909D01*
X16713Y-111969D01*
X16685Y-111997D01*
X16665Y-112022D01*
X16653Y-112038D01*
X16649Y-112042D01*
X16609Y-112098D01*
X16564Y-112158D01*
X16520Y-112222D01*
X16476Y-112282D01*
X16440Y-112338D01*
X16412Y-112382D01*
X16400Y-112399D01*
X16392Y-112410D01*
X16384Y-112419D01*
Y-112423D01*
X16019Y-113000D01*
X15562D01*
X16039Y-112246D01*
X16095Y-112166D01*
X16147Y-112094D01*
X16199Y-112034D01*
X16244Y-111977D01*
X16284Y-111937D01*
X16316Y-111905D01*
X16336Y-111885D01*
X16344Y-111877D01*
X16376Y-111853D01*
X16412Y-111825D01*
X16484Y-111781D01*
X16516Y-111765D01*
X16540Y-111749D01*
X16556Y-111741D01*
X16564Y-111737D01*
X16492Y-111725D01*
X16424Y-111713D01*
X16364Y-111693D01*
X16304Y-111677D01*
X16252Y-111657D01*
X16204Y-111633D01*
X16159Y-111612D01*
X16119Y-111592D01*
X16087Y-111568D01*
X16055Y-111548D01*
X16031Y-111532D01*
X16011Y-111516D01*
X15995Y-111504D01*
X15983Y-111492D01*
X15979Y-111488D01*
X15975Y-111484D01*
X15943Y-111444D01*
X15911Y-111404D01*
X15863Y-111320D01*
X15831Y-111236D01*
X15807Y-111155D01*
X15790Y-111087D01*
X15787Y-111059D01*
Y-111031D01*
X15782Y-111011D01*
Y-110995D01*
Y-110987D01*
Y-110983D01*
X15787Y-110899D01*
X15799Y-110823D01*
X15819Y-110750D01*
X15839Y-110690D01*
X15863Y-110638D01*
X15879Y-110598D01*
X15895Y-110574D01*
X15899Y-110570D01*
Y-110566D01*
X15947Y-110502D01*
X15995Y-110446D01*
X16047Y-110398D01*
X16095Y-110361D01*
X16139Y-110333D01*
X16175Y-110317D01*
X16199Y-110305D01*
X16204Y-110301D01*
X16207D01*
X16244Y-110289D01*
X16288Y-110277D01*
X16376Y-110257D01*
X16472Y-110245D01*
X16560Y-110233D01*
X16645Y-110229D01*
X16681D01*
X16713Y-110225D01*
X18000D01*
Y-113000D01*
D02*
G37*
G36*
X285Y-110689D02*
X-36Y-110733D01*
X-64Y-110689D01*
X-100Y-110653D01*
X-132Y-110617D01*
X-164Y-110589D01*
X-196Y-110568D01*
X-220Y-110548D01*
X-236Y-110540D01*
X-240Y-110536D01*
X-292Y-110512D01*
X-344Y-110492D01*
X-392Y-110480D01*
X-441Y-110468D01*
X-481Y-110464D01*
X-513Y-110460D01*
X-589D01*
X-637Y-110468D01*
X-721Y-110488D01*
X-793Y-110516D01*
X-858Y-110544D01*
X-906Y-110576D01*
X-942Y-110605D01*
X-962Y-110625D01*
X-970Y-110629D01*
Y-110633D01*
X-1026Y-110701D01*
X-1066Y-110773D01*
X-1094Y-110849D01*
X-1114Y-110925D01*
X-1126Y-110989D01*
X-1130Y-111018D01*
Y-111042D01*
X-1134Y-111062D01*
Y-111078D01*
Y-111086D01*
Y-111090D01*
Y-111146D01*
X-1126Y-111198D01*
X-1106Y-111298D01*
X-1078Y-111382D01*
X-1050Y-111451D01*
X-1018Y-111507D01*
X-990Y-111551D01*
X-978Y-111563D01*
X-970Y-111575D01*
X-966Y-111579D01*
X-962Y-111583D01*
X-930Y-111615D01*
X-898Y-111643D01*
X-826Y-111691D01*
X-757Y-111723D01*
X-689Y-111743D01*
X-633Y-111759D01*
X-585Y-111763D01*
X-569Y-111767D01*
X-545D01*
X-469Y-111763D01*
X-400Y-111747D01*
X-340Y-111727D01*
X-292Y-111703D01*
X-248Y-111679D01*
X-216Y-111659D01*
X-200Y-111643D01*
X-192Y-111639D01*
X-144Y-111583D01*
X-104Y-111523D01*
X-72Y-111455D01*
X-48Y-111395D01*
X-32Y-111334D01*
X-20Y-111290D01*
X-16Y-111270D01*
X-12Y-111258D01*
Y-111250D01*
Y-111246D01*
X345Y-111274D01*
X337Y-111338D01*
X325Y-111398D01*
X289Y-111511D01*
X245Y-111607D01*
X221Y-111651D01*
X197Y-111687D01*
X177Y-111723D01*
X153Y-111755D01*
X133Y-111779D01*
X113Y-111800D01*
X97Y-111816D01*
X89Y-111832D01*
X81Y-111836D01*
X77Y-111840D01*
X29Y-111876D01*
X-20Y-111908D01*
X-72Y-111936D01*
X-124Y-111960D01*
X-224Y-111996D01*
X-324Y-112020D01*
X-368Y-112032D01*
X-412Y-112036D01*
X-449Y-112040D01*
X-481Y-112044D01*
X-509Y-112048D01*
X-545D01*
X-629Y-112044D01*
X-709Y-112032D01*
X-785Y-112016D01*
X-854Y-111996D01*
X-918Y-111968D01*
X-978Y-111940D01*
X-1034Y-111912D01*
X-1082Y-111880D01*
X-1126Y-111848D01*
X-1166Y-111820D01*
X-1199Y-111787D01*
X-1226Y-111763D01*
X-1247Y-111743D01*
X-1263Y-111727D01*
X-1271Y-111715D01*
X-1275Y-111711D01*
X-1315Y-111659D01*
X-1347Y-111603D01*
X-1379Y-111551D01*
X-1403Y-111495D01*
X-1443Y-111387D01*
X-1467Y-111282D01*
X-1475Y-111238D01*
X-1483Y-111194D01*
X-1487Y-111158D01*
X-1491Y-111126D01*
X-1495Y-111098D01*
Y-111078D01*
Y-111066D01*
Y-111062D01*
X-1491Y-110989D01*
X-1483Y-110921D01*
X-1471Y-110853D01*
X-1455Y-110793D01*
X-1435Y-110737D01*
X-1415Y-110681D01*
X-1391Y-110633D01*
X-1371Y-110589D01*
X-1347Y-110548D01*
X-1323Y-110512D01*
X-1303Y-110484D01*
X-1283Y-110456D01*
X-1267Y-110436D01*
X-1255Y-110424D01*
X-1247Y-110416D01*
X-1243Y-110412D01*
X-1194Y-110368D01*
X-1146Y-110328D01*
X-1094Y-110296D01*
X-1042Y-110268D01*
X-990Y-110240D01*
X-938Y-110220D01*
X-842Y-110192D01*
X-797Y-110179D01*
X-757Y-110171D01*
X-721Y-110167D01*
X-689Y-110163D01*
X-665Y-110159D01*
X-577D01*
X-529Y-110167D01*
X-433Y-110187D01*
X-344Y-110216D01*
X-264Y-110248D01*
X-200Y-110280D01*
X-172Y-110296D01*
X-148Y-110308D01*
X-128Y-110320D01*
X-116Y-110328D01*
X-108Y-110332D01*
X-104Y-110336D01*
X-252Y-109586D01*
X-1363D01*
Y-109261D01*
X17D01*
X285Y-110689D01*
D02*
G37*
G36*
X3000Y-112000D02*
X2631D01*
Y-110769D01*
X2158D01*
X2114Y-110773D01*
X2082D01*
X2054Y-110777D01*
X2034Y-110781D01*
X2018D01*
X2010Y-110785D01*
X2005D01*
X1941Y-110805D01*
X1913Y-110817D01*
X1889Y-110829D01*
X1865Y-110841D01*
X1849Y-110849D01*
X1841Y-110853D01*
X1837Y-110857D01*
X1805Y-110881D01*
X1773Y-110909D01*
X1713Y-110969D01*
X1685Y-110997D01*
X1665Y-111022D01*
X1653Y-111038D01*
X1649Y-111042D01*
X1609Y-111098D01*
X1564Y-111158D01*
X1520Y-111222D01*
X1476Y-111282D01*
X1440Y-111338D01*
X1412Y-111382D01*
X1400Y-111398D01*
X1392Y-111410D01*
X1384Y-111419D01*
Y-111423D01*
X1019Y-112000D01*
X562D01*
X1039Y-111246D01*
X1095Y-111166D01*
X1147Y-111094D01*
X1199Y-111034D01*
X1244Y-110977D01*
X1284Y-110937D01*
X1316Y-110905D01*
X1336Y-110885D01*
X1344Y-110877D01*
X1376Y-110853D01*
X1412Y-110825D01*
X1484Y-110781D01*
X1516Y-110765D01*
X1540Y-110749D01*
X1556Y-110741D01*
X1564Y-110737D01*
X1492Y-110725D01*
X1424Y-110713D01*
X1364Y-110693D01*
X1304Y-110677D01*
X1252Y-110657D01*
X1204Y-110633D01*
X1159Y-110612D01*
X1119Y-110592D01*
X1087Y-110568D01*
X1055Y-110548D01*
X1031Y-110532D01*
X1011Y-110516D01*
X995Y-110504D01*
X983Y-110492D01*
X979Y-110488D01*
X975Y-110484D01*
X943Y-110444D01*
X911Y-110404D01*
X863Y-110320D01*
X831Y-110236D01*
X807Y-110155D01*
X790Y-110087D01*
X786Y-110059D01*
Y-110031D01*
X783Y-110011D01*
Y-109995D01*
Y-109987D01*
Y-109983D01*
X786Y-109899D01*
X798Y-109823D01*
X819Y-109750D01*
X839Y-109690D01*
X863Y-109638D01*
X879Y-109598D01*
X895Y-109574D01*
X899Y-109570D01*
Y-109566D01*
X947Y-109502D01*
X995Y-109446D01*
X1047Y-109397D01*
X1095Y-109361D01*
X1139Y-109333D01*
X1175Y-109317D01*
X1199Y-109305D01*
X1204Y-109301D01*
X1208D01*
X1244Y-109289D01*
X1288Y-109277D01*
X1376Y-109257D01*
X1472Y-109245D01*
X1560Y-109233D01*
X1645Y-109229D01*
X1681D01*
X1713Y-109225D01*
X3000D01*
Y-112000D01*
D02*
G37*
G36*
X-6000Y-105000D02*
X-6369D01*
Y-103769D01*
X-6842D01*
X-6886Y-103773D01*
X-6918D01*
X-6946Y-103777D01*
X-6966Y-103781D01*
X-6983D01*
X-6990Y-103785D01*
X-6995D01*
X-7059Y-103805D01*
X-7087Y-103817D01*
X-7111Y-103829D01*
X-7135Y-103841D01*
X-7151Y-103849D01*
X-7159Y-103853D01*
X-7163Y-103857D01*
X-7195Y-103881D01*
X-7227Y-103909D01*
X-7287Y-103969D01*
X-7315Y-103998D01*
X-7335Y-104022D01*
X-7347Y-104038D01*
X-7351Y-104042D01*
X-7391Y-104098D01*
X-7436Y-104158D01*
X-7480Y-104222D01*
X-7524Y-104282D01*
X-7560Y-104338D01*
X-7588Y-104383D01*
X-7600Y-104399D01*
X-7608Y-104411D01*
X-7616Y-104419D01*
Y-104423D01*
X-7981Y-105000D01*
X-8438D01*
X-7961Y-104246D01*
X-7905Y-104166D01*
X-7853Y-104094D01*
X-7801Y-104034D01*
X-7756Y-103977D01*
X-7716Y-103937D01*
X-7684Y-103905D01*
X-7664Y-103885D01*
X-7656Y-103877D01*
X-7624Y-103853D01*
X-7588Y-103825D01*
X-7516Y-103781D01*
X-7484Y-103765D01*
X-7460Y-103749D01*
X-7444Y-103741D01*
X-7436Y-103737D01*
X-7508Y-103725D01*
X-7576Y-103713D01*
X-7636Y-103693D01*
X-7696Y-103677D01*
X-7748Y-103657D01*
X-7796Y-103633D01*
X-7841Y-103612D01*
X-7881Y-103593D01*
X-7913Y-103568D01*
X-7945Y-103548D01*
X-7969Y-103532D01*
X-7989Y-103516D01*
X-8005Y-103504D01*
X-8017Y-103492D01*
X-8021Y-103488D01*
X-8025Y-103484D01*
X-8057Y-103444D01*
X-8089Y-103404D01*
X-8137Y-103320D01*
X-8169Y-103236D01*
X-8194Y-103155D01*
X-8209Y-103087D01*
X-8213Y-103059D01*
Y-103031D01*
X-8218Y-103011D01*
Y-102995D01*
Y-102987D01*
Y-102983D01*
X-8213Y-102899D01*
X-8202Y-102823D01*
X-8181Y-102750D01*
X-8161Y-102690D01*
X-8137Y-102638D01*
X-8121Y-102598D01*
X-8105Y-102574D01*
X-8101Y-102570D01*
Y-102566D01*
X-8053Y-102502D01*
X-8005Y-102446D01*
X-7953Y-102398D01*
X-7905Y-102361D01*
X-7861Y-102333D01*
X-7825Y-102317D01*
X-7801Y-102305D01*
X-7796Y-102301D01*
X-7792D01*
X-7756Y-102289D01*
X-7712Y-102277D01*
X-7624Y-102257D01*
X-7528Y-102245D01*
X-7440Y-102233D01*
X-7355Y-102229D01*
X-7319D01*
X-7287Y-102225D01*
X-6000D01*
Y-105000D01*
D02*
G37*
G36*
X-8538Y-104022D02*
Y-104334D01*
X-9745D01*
Y-105000D01*
X-10086D01*
Y-104334D01*
X-10463D01*
Y-104022D01*
X-10086D01*
Y-102225D01*
X-9809D01*
X-8538Y-104022D01*
D02*
G37*
G36*
X-15408Y-97221D02*
X-15300Y-97241D01*
X-15208Y-97273D01*
X-15128Y-97305D01*
X-15092Y-97325D01*
X-15064Y-97341D01*
X-15036Y-97357D01*
X-15015Y-97373D01*
X-14999Y-97386D01*
X-14988Y-97394D01*
X-14979Y-97398D01*
X-14975Y-97401D01*
X-14899Y-97478D01*
X-14839Y-97562D01*
X-14791Y-97650D01*
X-14751Y-97738D01*
X-14727Y-97815D01*
X-14715Y-97847D01*
X-14707Y-97875D01*
X-14703Y-97899D01*
X-14699Y-97915D01*
X-14695Y-97927D01*
Y-97931D01*
X-15036Y-97991D01*
X-15052Y-97903D01*
X-15076Y-97827D01*
X-15104Y-97762D01*
X-15132Y-97710D01*
X-15160Y-97670D01*
X-15184Y-97642D01*
X-15200Y-97622D01*
X-15204Y-97618D01*
X-15256Y-97578D01*
X-15312Y-97546D01*
X-15364Y-97526D01*
X-15416Y-97510D01*
X-15465Y-97502D01*
X-15501Y-97494D01*
X-15533D01*
X-15605Y-97498D01*
X-15669Y-97514D01*
X-15725Y-97534D01*
X-15773Y-97554D01*
X-15810Y-97578D01*
X-15838Y-97598D01*
X-15858Y-97614D01*
X-15862Y-97618D01*
X-15906Y-97666D01*
X-15938Y-97718D01*
X-15958Y-97770D01*
X-15974Y-97819D01*
X-15982Y-97863D01*
X-15990Y-97895D01*
Y-97919D01*
Y-97923D01*
Y-97927D01*
Y-97971D01*
X-15982Y-98011D01*
X-15962Y-98079D01*
X-15934Y-98139D01*
X-15902Y-98191D01*
X-15870Y-98228D01*
X-15842Y-98256D01*
X-15822Y-98272D01*
X-15818Y-98276D01*
X-15813D01*
X-15745Y-98312D01*
X-15681Y-98340D01*
X-15613Y-98360D01*
X-15553Y-98372D01*
X-15501Y-98380D01*
X-15457Y-98388D01*
X-15405D01*
X-15389Y-98384D01*
X-15368D01*
X-15328Y-98685D01*
X-15380Y-98673D01*
X-15429Y-98665D01*
X-15469Y-98657D01*
X-15505Y-98653D01*
X-15533Y-98649D01*
X-15569D01*
X-15653Y-98657D01*
X-15729Y-98673D01*
X-15798Y-98697D01*
X-15854Y-98725D01*
X-15898Y-98753D01*
X-15930Y-98777D01*
X-15950Y-98793D01*
X-15958Y-98801D01*
X-16010Y-98861D01*
X-16050Y-98925D01*
X-16078Y-98989D01*
X-16094Y-99054D01*
X-16106Y-99106D01*
X-16110Y-99150D01*
X-16114Y-99166D01*
Y-99178D01*
Y-99186D01*
Y-99190D01*
X-16106Y-99278D01*
X-16086Y-99358D01*
X-16062Y-99427D01*
X-16030Y-99487D01*
X-15998Y-99535D01*
X-15974Y-99571D01*
X-15954Y-99595D01*
X-15946Y-99603D01*
X-15882Y-99659D01*
X-15813Y-99699D01*
X-15745Y-99727D01*
X-15681Y-99747D01*
X-15625Y-99759D01*
X-15581Y-99763D01*
X-15565Y-99767D01*
X-15541D01*
X-15469Y-99763D01*
X-15401Y-99747D01*
X-15340Y-99727D01*
X-15292Y-99703D01*
X-15252Y-99683D01*
X-15220Y-99663D01*
X-15204Y-99647D01*
X-15196Y-99643D01*
X-15148Y-99587D01*
X-15108Y-99523D01*
X-15072Y-99455D01*
X-15044Y-99383D01*
X-15023Y-99322D01*
X-15015Y-99294D01*
X-15011Y-99270D01*
X-15008Y-99250D01*
X-15003Y-99234D01*
X-14999Y-99226D01*
Y-99222D01*
X-14659Y-99266D01*
X-14667Y-99330D01*
X-14679Y-99391D01*
X-14715Y-99503D01*
X-14759Y-99599D01*
X-14783Y-99639D01*
X-14807Y-99679D01*
X-14831Y-99715D01*
X-14855Y-99743D01*
X-14875Y-99771D01*
X-14895Y-99792D01*
X-14907Y-99808D01*
X-14919Y-99820D01*
X-14927Y-99828D01*
X-14931Y-99832D01*
X-14979Y-99868D01*
X-15028Y-99904D01*
X-15076Y-99932D01*
X-15128Y-99956D01*
X-15228Y-99996D01*
X-15324Y-100020D01*
X-15368Y-100028D01*
X-15408Y-100036D01*
X-15445Y-100040D01*
X-15477Y-100044D01*
X-15501Y-100048D01*
X-15537D01*
X-15613Y-100044D01*
X-15681Y-100036D01*
X-15749Y-100024D01*
X-15813Y-100008D01*
X-15874Y-99988D01*
X-15926Y-99968D01*
X-15978Y-99944D01*
X-16022Y-99920D01*
X-16066Y-99900D01*
X-16102Y-99876D01*
X-16134Y-99856D01*
X-16158Y-99836D01*
X-16178Y-99820D01*
X-16195Y-99808D01*
X-16203Y-99800D01*
X-16206Y-99796D01*
X-16255Y-99747D01*
X-16295Y-99695D01*
X-16331Y-99643D01*
X-16363Y-99591D01*
X-16387Y-99543D01*
X-16411Y-99491D01*
X-16443Y-99395D01*
X-16451Y-99350D01*
X-16459Y-99310D01*
X-16467Y-99274D01*
X-16471Y-99242D01*
X-16475Y-99218D01*
Y-99198D01*
Y-99186D01*
Y-99182D01*
X-16471Y-99086D01*
X-16455Y-98997D01*
X-16431Y-98921D01*
X-16407Y-98857D01*
X-16383Y-98805D01*
X-16359Y-98765D01*
X-16343Y-98741D01*
X-16339Y-98733D01*
X-16283Y-98673D01*
X-16222Y-98621D01*
X-16158Y-98580D01*
X-16094Y-98548D01*
X-16038Y-98524D01*
X-15994Y-98508D01*
X-15978Y-98504D01*
X-15966Y-98500D01*
X-15958Y-98496D01*
X-15954D01*
X-16022Y-98460D01*
X-16078Y-98424D01*
X-16126Y-98384D01*
X-16166Y-98348D01*
X-16198Y-98316D01*
X-16222Y-98288D01*
X-16235Y-98272D01*
X-16239Y-98264D01*
X-16271Y-98207D01*
X-16295Y-98151D01*
X-16315Y-98095D01*
X-16327Y-98043D01*
X-16335Y-97999D01*
X-16339Y-97967D01*
Y-97943D01*
Y-97935D01*
X-16335Y-97867D01*
X-16323Y-97799D01*
X-16307Y-97738D01*
X-16287Y-97686D01*
X-16267Y-97642D01*
X-16251Y-97606D01*
X-16239Y-97586D01*
X-16235Y-97578D01*
X-16195Y-97518D01*
X-16146Y-97466D01*
X-16098Y-97422D01*
X-16050Y-97382D01*
X-16010Y-97353D01*
X-15974Y-97329D01*
X-15950Y-97317D01*
X-15946Y-97313D01*
X-15942D01*
X-15870Y-97281D01*
X-15798Y-97257D01*
X-15725Y-97237D01*
X-15661Y-97225D01*
X-15609Y-97217D01*
X-15565Y-97213D01*
X-15465D01*
X-15408Y-97221D01*
D02*
G37*
G36*
X-12000Y-100000D02*
X-12369D01*
Y-98769D01*
X-12842D01*
X-12886Y-98773D01*
X-12918D01*
X-12946Y-98777D01*
X-12966Y-98781D01*
X-12982D01*
X-12991Y-98785D01*
X-12994D01*
X-13059Y-98805D01*
X-13087Y-98817D01*
X-13111Y-98829D01*
X-13135Y-98841D01*
X-13151Y-98849D01*
X-13159Y-98853D01*
X-13163Y-98857D01*
X-13195Y-98881D01*
X-13227Y-98909D01*
X-13287Y-98969D01*
X-13315Y-98997D01*
X-13335Y-99022D01*
X-13347Y-99038D01*
X-13351Y-99042D01*
X-13392Y-99098D01*
X-13436Y-99158D01*
X-13480Y-99222D01*
X-13524Y-99282D01*
X-13560Y-99338D01*
X-13588Y-99383D01*
X-13600Y-99398D01*
X-13608Y-99410D01*
X-13616Y-99419D01*
Y-99423D01*
X-13981Y-100000D01*
X-14438D01*
X-13961Y-99246D01*
X-13905Y-99166D01*
X-13853Y-99094D01*
X-13801Y-99034D01*
X-13756Y-98977D01*
X-13716Y-98937D01*
X-13684Y-98905D01*
X-13664Y-98885D01*
X-13656Y-98877D01*
X-13624Y-98853D01*
X-13588Y-98825D01*
X-13516Y-98781D01*
X-13484Y-98765D01*
X-13460Y-98749D01*
X-13444Y-98741D01*
X-13436Y-98737D01*
X-13508Y-98725D01*
X-13576Y-98713D01*
X-13636Y-98693D01*
X-13696Y-98677D01*
X-13748Y-98657D01*
X-13796Y-98633D01*
X-13841Y-98612D01*
X-13881Y-98593D01*
X-13913Y-98568D01*
X-13945Y-98548D01*
X-13969Y-98532D01*
X-13989Y-98516D01*
X-14005Y-98504D01*
X-14017Y-98492D01*
X-14021Y-98488D01*
X-14025Y-98484D01*
X-14057Y-98444D01*
X-14089Y-98404D01*
X-14137Y-98320D01*
X-14169Y-98236D01*
X-14194Y-98155D01*
X-14209Y-98087D01*
X-14213Y-98059D01*
Y-98031D01*
X-14218Y-98011D01*
Y-97995D01*
Y-97987D01*
Y-97983D01*
X-14213Y-97899D01*
X-14201Y-97823D01*
X-14181Y-97750D01*
X-14161Y-97690D01*
X-14137Y-97638D01*
X-14121Y-97598D01*
X-14105Y-97574D01*
X-14101Y-97570D01*
Y-97566D01*
X-14053Y-97502D01*
X-14005Y-97446D01*
X-13953Y-97398D01*
X-13905Y-97361D01*
X-13861Y-97333D01*
X-13825Y-97317D01*
X-13801Y-97305D01*
X-13796Y-97301D01*
X-13792D01*
X-13756Y-97289D01*
X-13712Y-97277D01*
X-13624Y-97257D01*
X-13528Y-97245D01*
X-13440Y-97233D01*
X-13355Y-97229D01*
X-13319D01*
X-13287Y-97225D01*
X-12000D01*
Y-100000D01*
D02*
G37*
G36*
X-16569Y-25217D02*
X-16505Y-25225D01*
X-16441Y-25237D01*
X-16384Y-25253D01*
X-16276Y-25297D01*
X-16228Y-25317D01*
X-16188Y-25341D01*
X-16148Y-25369D01*
X-16116Y-25390D01*
X-16084Y-25414D01*
X-16060Y-25434D01*
X-16040Y-25450D01*
X-16027Y-25462D01*
X-16019Y-25470D01*
X-16015Y-25474D01*
X-15971Y-25522D01*
X-15935Y-25578D01*
X-15899Y-25630D01*
X-15871Y-25686D01*
X-15847Y-25746D01*
X-15827Y-25802D01*
X-15799Y-25907D01*
X-15787Y-25959D01*
X-15779Y-26003D01*
X-15775Y-26047D01*
X-15771Y-26083D01*
X-15767Y-26111D01*
Y-26131D01*
Y-26147D01*
Y-26151D01*
X-15771Y-26228D01*
X-15779Y-26296D01*
X-15787Y-26364D01*
X-15803Y-26428D01*
X-15823Y-26484D01*
X-15843Y-26540D01*
X-15863Y-26588D01*
X-15887Y-26633D01*
X-15907Y-26673D01*
X-15927Y-26709D01*
X-15947Y-26737D01*
X-15967Y-26765D01*
X-15983Y-26785D01*
X-15992Y-26797D01*
X-16000Y-26805D01*
X-16003Y-26809D01*
X-16048Y-26853D01*
X-16096Y-26889D01*
X-16144Y-26925D01*
X-16196Y-26953D01*
X-16244Y-26977D01*
X-16292Y-26998D01*
X-16384Y-27026D01*
X-16424Y-27038D01*
X-16465Y-27046D01*
X-16497Y-27050D01*
X-16529Y-27054D01*
X-16553Y-27058D01*
X-16585D01*
X-16661Y-27054D01*
X-16733Y-27042D01*
X-16797Y-27026D01*
X-16858Y-27005D01*
X-16902Y-26989D01*
X-16938Y-26973D01*
X-16962Y-26961D01*
X-16970Y-26957D01*
X-17034Y-26917D01*
X-17090Y-26873D01*
X-17138Y-26829D01*
X-17178Y-26789D01*
X-17207Y-26749D01*
X-17231Y-26721D01*
X-17247Y-26701D01*
X-17251Y-26693D01*
Y-26725D01*
Y-26745D01*
Y-26757D01*
Y-26761D01*
X-17247Y-26841D01*
X-17243Y-26917D01*
X-17235Y-26985D01*
X-17226Y-27050D01*
X-17214Y-27102D01*
X-17207Y-27142D01*
X-17202Y-27158D01*
Y-27170D01*
X-17199Y-27174D01*
Y-27178D01*
X-17178Y-27250D01*
X-17158Y-27314D01*
X-17138Y-27370D01*
X-17118Y-27419D01*
X-17102Y-27455D01*
X-17086Y-27483D01*
X-17078Y-27503D01*
X-17074Y-27507D01*
X-17042Y-27551D01*
X-17010Y-27587D01*
X-16978Y-27619D01*
X-16946Y-27647D01*
X-16922Y-27671D01*
X-16898Y-27687D01*
X-16882Y-27695D01*
X-16878Y-27699D01*
X-16834Y-27723D01*
X-16785Y-27739D01*
X-16741Y-27751D01*
X-16697Y-27759D01*
X-16661Y-27763D01*
X-16633Y-27767D01*
X-16605D01*
X-16541Y-27763D01*
X-16481Y-27751D01*
X-16429Y-27735D01*
X-16384Y-27715D01*
X-16352Y-27699D01*
X-16324Y-27683D01*
X-16308Y-27671D01*
X-16304Y-27667D01*
X-16264Y-27623D01*
X-16232Y-27571D01*
X-16204Y-27515D01*
X-16184Y-27459D01*
X-16168Y-27411D01*
X-16156Y-27366D01*
X-16152Y-27350D01*
Y-27342D01*
X-16148Y-27334D01*
Y-27330D01*
X-15819Y-27358D01*
X-15843Y-27475D01*
X-15875Y-27575D01*
X-15915Y-27663D01*
X-15955Y-27735D01*
X-15995Y-27792D01*
X-16015Y-27815D01*
X-16032Y-27836D01*
X-16044Y-27848D01*
X-16056Y-27860D01*
X-16060Y-27864D01*
X-16064Y-27868D01*
X-16104Y-27900D01*
X-16148Y-27928D01*
X-16236Y-27972D01*
X-16324Y-28004D01*
X-16409Y-28024D01*
X-16485Y-28040D01*
X-16517Y-28044D01*
X-16545D01*
X-16565Y-28048D01*
X-16597D01*
X-16709Y-28040D01*
X-16809Y-28024D01*
X-16902Y-27996D01*
X-16978Y-27964D01*
X-17010Y-27952D01*
X-17042Y-27936D01*
X-17066Y-27920D01*
X-17090Y-27908D01*
X-17106Y-27900D01*
X-17118Y-27892D01*
X-17126Y-27884D01*
X-17130D01*
X-17210Y-27815D01*
X-17283Y-27739D01*
X-17339Y-27659D01*
X-17387Y-27583D01*
X-17427Y-27515D01*
X-17443Y-27483D01*
X-17455Y-27459D01*
X-17463Y-27435D01*
X-17471Y-27419D01*
X-17475Y-27411D01*
Y-27406D01*
X-17495Y-27346D01*
X-17515Y-27278D01*
X-17543Y-27142D01*
X-17563Y-26998D01*
X-17575Y-26861D01*
X-17583Y-26801D01*
X-17587Y-26741D01*
Y-26689D01*
X-17592Y-26645D01*
Y-26608D01*
Y-26581D01*
Y-26560D01*
Y-26556D01*
Y-26464D01*
X-17587Y-26376D01*
X-17579Y-26296D01*
X-17571Y-26220D01*
X-17563Y-26151D01*
X-17555Y-26087D01*
X-17543Y-26027D01*
X-17531Y-25975D01*
X-17519Y-25931D01*
X-17511Y-25891D01*
X-17499Y-25855D01*
X-17491Y-25827D01*
X-17483Y-25806D01*
X-17475Y-25791D01*
X-17471Y-25782D01*
Y-25778D01*
X-17423Y-25682D01*
X-17371Y-25598D01*
X-17311Y-25526D01*
X-17259Y-25466D01*
X-17207Y-25422D01*
X-17166Y-25390D01*
X-17150Y-25378D01*
X-17138Y-25369D01*
X-17134Y-25361D01*
X-17130D01*
X-17046Y-25313D01*
X-16962Y-25277D01*
X-16878Y-25249D01*
X-16802Y-25233D01*
X-16733Y-25221D01*
X-16705Y-25217D01*
X-16685D01*
X-16665Y-25213D01*
X-16637D01*
X-16569Y-25217D01*
D02*
G37*
G36*
X-14175Y-25185D02*
X-14047Y-25205D01*
X-13934Y-25229D01*
X-13882Y-25245D01*
X-13834Y-25261D01*
X-13790Y-25277D01*
X-13750Y-25293D01*
X-13718Y-25305D01*
X-13686Y-25317D01*
X-13666Y-25329D01*
X-13650Y-25337D01*
X-13638Y-25341D01*
X-13634Y-25345D01*
X-13525Y-25414D01*
X-13433Y-25494D01*
X-13353Y-25574D01*
X-13285Y-25654D01*
X-13233Y-25726D01*
X-13213Y-25758D01*
X-13196Y-25787D01*
X-13180Y-25806D01*
X-13172Y-25823D01*
X-13168Y-25835D01*
X-13164Y-25839D01*
X-13108Y-25963D01*
X-13068Y-26091D01*
X-13040Y-26220D01*
X-13020Y-26336D01*
X-13012Y-26388D01*
X-13008Y-26440D01*
X-13004Y-26480D01*
Y-26520D01*
X-13000Y-26548D01*
Y-26572D01*
Y-26588D01*
Y-26592D01*
X-13008Y-26737D01*
X-13024Y-26877D01*
X-13044Y-27002D01*
X-13060Y-27062D01*
X-13072Y-27114D01*
X-13084Y-27162D01*
X-13100Y-27206D01*
X-13112Y-27246D01*
X-13120Y-27278D01*
X-13132Y-27302D01*
X-13136Y-27322D01*
X-13144Y-27334D01*
Y-27338D01*
X-13205Y-27459D01*
X-13273Y-27567D01*
X-13345Y-27659D01*
X-13381Y-27695D01*
X-13413Y-27731D01*
X-13445Y-27763D01*
X-13477Y-27792D01*
X-13505Y-27815D01*
X-13529Y-27832D01*
X-13545Y-27848D01*
X-13561Y-27860D01*
X-13569Y-27864D01*
X-13573Y-27868D01*
X-13630Y-27900D01*
X-13686Y-27928D01*
X-13806Y-27972D01*
X-13926Y-28004D01*
X-14043Y-28024D01*
X-14099Y-28032D01*
X-14147Y-28040D01*
X-14191Y-28044D01*
X-14227D01*
X-14259Y-28048D01*
X-14303D01*
X-14383Y-28044D01*
X-14460Y-28036D01*
X-14532Y-28028D01*
X-14600Y-28012D01*
X-14664Y-27992D01*
X-14724Y-27972D01*
X-14780Y-27952D01*
X-14833Y-27928D01*
X-14877Y-27908D01*
X-14921Y-27888D01*
X-14953Y-27868D01*
X-14985Y-27848D01*
X-15005Y-27832D01*
X-15025Y-27824D01*
X-15033Y-27815D01*
X-15037Y-27812D01*
X-15093Y-27763D01*
X-15141Y-27715D01*
X-15186Y-27659D01*
X-15230Y-27603D01*
X-15302Y-27491D01*
X-15358Y-27378D01*
X-15382Y-27326D01*
X-15402Y-27278D01*
X-15418Y-27234D01*
X-15430Y-27198D01*
X-15442Y-27166D01*
X-15450Y-27142D01*
X-15454Y-27126D01*
Y-27122D01*
X-15085Y-27030D01*
X-15069Y-27094D01*
X-15049Y-27154D01*
X-15029Y-27210D01*
X-15009Y-27262D01*
X-14985Y-27310D01*
X-14961Y-27350D01*
X-14933Y-27391D01*
X-14909Y-27427D01*
X-14889Y-27459D01*
X-14865Y-27483D01*
X-14845Y-27507D01*
X-14829Y-27527D01*
X-14812Y-27539D01*
X-14800Y-27551D01*
X-14796Y-27555D01*
X-14793Y-27559D01*
X-14752Y-27591D01*
X-14708Y-27615D01*
X-14620Y-27659D01*
X-14536Y-27691D01*
X-14452Y-27711D01*
X-14379Y-27727D01*
X-14351Y-27731D01*
X-14323D01*
X-14299Y-27735D01*
X-14271D01*
X-14179Y-27731D01*
X-14091Y-27715D01*
X-14010Y-27695D01*
X-13938Y-27671D01*
X-13882Y-27647D01*
X-13858Y-27635D01*
X-13838Y-27627D01*
X-13822Y-27619D01*
X-13810Y-27611D01*
X-13802Y-27607D01*
X-13798D01*
X-13722Y-27551D01*
X-13658Y-27491D01*
X-13601Y-27423D01*
X-13557Y-27358D01*
X-13521Y-27302D01*
X-13497Y-27254D01*
X-13489Y-27234D01*
X-13481Y-27222D01*
X-13477Y-27214D01*
Y-27210D01*
X-13445Y-27106D01*
X-13421Y-27002D01*
X-13401Y-26897D01*
X-13389Y-26801D01*
X-13385Y-26757D01*
X-13381Y-26717D01*
Y-26681D01*
X-13377Y-26653D01*
Y-26629D01*
Y-26608D01*
Y-26597D01*
Y-26592D01*
X-13381Y-26488D01*
X-13389Y-26392D01*
X-13405Y-26304D01*
X-13421Y-26224D01*
X-13433Y-26155D01*
X-13441Y-26127D01*
X-13449Y-26103D01*
X-13453Y-26083D01*
X-13457Y-26071D01*
X-13461Y-26063D01*
Y-26059D01*
X-13501Y-25967D01*
X-13545Y-25883D01*
X-13593Y-25815D01*
X-13646Y-25754D01*
X-13690Y-25706D01*
X-13726Y-25674D01*
X-13754Y-25654D01*
X-13758Y-25646D01*
X-13762D01*
X-13846Y-25594D01*
X-13938Y-25554D01*
X-14027Y-25526D01*
X-14111Y-25510D01*
X-14187Y-25498D01*
X-14219Y-25494D01*
X-14247D01*
X-14267Y-25490D01*
X-14299D01*
X-14400Y-25494D01*
X-14492Y-25510D01*
X-14568Y-25534D01*
X-14636Y-25558D01*
X-14688Y-25586D01*
X-14728Y-25606D01*
X-14752Y-25622D01*
X-14760Y-25630D01*
X-14825Y-25690D01*
X-14885Y-25758D01*
X-14933Y-25831D01*
X-14973Y-25903D01*
X-15005Y-25967D01*
X-15017Y-25999D01*
X-15025Y-26023D01*
X-15033Y-26043D01*
X-15041Y-26059D01*
X-15045Y-26067D01*
Y-26071D01*
X-15406Y-25987D01*
X-15382Y-25915D01*
X-15358Y-25851D01*
X-15326Y-25791D01*
X-15298Y-25730D01*
X-15266Y-25678D01*
X-15230Y-25630D01*
X-15198Y-25582D01*
X-15165Y-25542D01*
X-15133Y-25510D01*
X-15105Y-25478D01*
X-15077Y-25450D01*
X-15057Y-25430D01*
X-15037Y-25409D01*
X-15021Y-25398D01*
X-15013Y-25394D01*
X-15009Y-25390D01*
X-14953Y-25353D01*
X-14897Y-25317D01*
X-14841Y-25289D01*
X-14780Y-25265D01*
X-14660Y-25229D01*
X-14552Y-25205D01*
X-14500Y-25193D01*
X-14456Y-25189D01*
X-14412Y-25185D01*
X-14375Y-25181D01*
X-14347Y-25177D01*
X-14307D01*
X-14175Y-25185D01*
D02*
G37*
G36*
X-6175Y-37185D02*
X-6047Y-37205D01*
X-5934Y-37229D01*
X-5882Y-37245D01*
X-5834Y-37261D01*
X-5790Y-37277D01*
X-5750Y-37293D01*
X-5718Y-37305D01*
X-5686Y-37317D01*
X-5666Y-37329D01*
X-5650Y-37337D01*
X-5638Y-37341D01*
X-5634Y-37345D01*
X-5525Y-37413D01*
X-5433Y-37494D01*
X-5353Y-37574D01*
X-5285Y-37654D01*
X-5233Y-37726D01*
X-5212Y-37758D01*
X-5196Y-37786D01*
X-5180Y-37806D01*
X-5172Y-37823D01*
X-5168Y-37835D01*
X-5164Y-37839D01*
X-5108Y-37963D01*
X-5068Y-38091D01*
X-5040Y-38220D01*
X-5020Y-38336D01*
X-5012Y-38388D01*
X-5008Y-38440D01*
X-5004Y-38480D01*
Y-38520D01*
X-5000Y-38548D01*
Y-38572D01*
Y-38589D01*
Y-38592D01*
X-5008Y-38737D01*
X-5024Y-38877D01*
X-5044Y-39002D01*
X-5060Y-39062D01*
X-5072Y-39114D01*
X-5084Y-39162D01*
X-5100Y-39206D01*
X-5112Y-39246D01*
X-5120Y-39278D01*
X-5132Y-39302D01*
X-5136Y-39322D01*
X-5144Y-39334D01*
Y-39338D01*
X-5204Y-39459D01*
X-5273Y-39567D01*
X-5345Y-39659D01*
X-5381Y-39695D01*
X-5413Y-39731D01*
X-5445Y-39763D01*
X-5477Y-39792D01*
X-5505Y-39816D01*
X-5529Y-39832D01*
X-5545Y-39848D01*
X-5561Y-39860D01*
X-5569Y-39864D01*
X-5573Y-39868D01*
X-5630Y-39900D01*
X-5686Y-39928D01*
X-5806Y-39972D01*
X-5926Y-40004D01*
X-6043Y-40024D01*
X-6099Y-40032D01*
X-6147Y-40040D01*
X-6191Y-40044D01*
X-6227D01*
X-6259Y-40048D01*
X-6303D01*
X-6383Y-40044D01*
X-6460Y-40036D01*
X-6532Y-40028D01*
X-6600Y-40012D01*
X-6664Y-39992D01*
X-6724Y-39972D01*
X-6780Y-39952D01*
X-6833Y-39928D01*
X-6877Y-39908D01*
X-6921Y-39888D01*
X-6953Y-39868D01*
X-6985Y-39848D01*
X-7005Y-39832D01*
X-7025Y-39824D01*
X-7033Y-39816D01*
X-7037Y-39812D01*
X-7093Y-39763D01*
X-7141Y-39715D01*
X-7186Y-39659D01*
X-7230Y-39603D01*
X-7302Y-39491D01*
X-7358Y-39378D01*
X-7382Y-39326D01*
X-7402Y-39278D01*
X-7418Y-39234D01*
X-7430Y-39198D01*
X-7442Y-39166D01*
X-7450Y-39142D01*
X-7454Y-39126D01*
Y-39122D01*
X-7085Y-39030D01*
X-7069Y-39094D01*
X-7049Y-39154D01*
X-7029Y-39210D01*
X-7009Y-39262D01*
X-6985Y-39310D01*
X-6961Y-39350D01*
X-6933Y-39391D01*
X-6909Y-39427D01*
X-6889Y-39459D01*
X-6865Y-39483D01*
X-6845Y-39507D01*
X-6829Y-39527D01*
X-6813Y-39539D01*
X-6801Y-39551D01*
X-6797Y-39555D01*
X-6792Y-39559D01*
X-6752Y-39591D01*
X-6708Y-39615D01*
X-6620Y-39659D01*
X-6536Y-39691D01*
X-6452Y-39711D01*
X-6379Y-39727D01*
X-6351Y-39731D01*
X-6323D01*
X-6299Y-39735D01*
X-6271D01*
X-6179Y-39731D01*
X-6091Y-39715D01*
X-6010Y-39695D01*
X-5938Y-39671D01*
X-5882Y-39647D01*
X-5858Y-39635D01*
X-5838Y-39627D01*
X-5822Y-39619D01*
X-5810Y-39611D01*
X-5802Y-39607D01*
X-5798D01*
X-5722Y-39551D01*
X-5658Y-39491D01*
X-5601Y-39423D01*
X-5557Y-39358D01*
X-5521Y-39302D01*
X-5497Y-39254D01*
X-5489Y-39234D01*
X-5481Y-39222D01*
X-5477Y-39214D01*
Y-39210D01*
X-5445Y-39106D01*
X-5421Y-39002D01*
X-5401Y-38897D01*
X-5389Y-38801D01*
X-5385Y-38757D01*
X-5381Y-38717D01*
Y-38681D01*
X-5377Y-38653D01*
Y-38629D01*
Y-38609D01*
Y-38596D01*
Y-38592D01*
X-5381Y-38488D01*
X-5389Y-38392D01*
X-5405Y-38304D01*
X-5421Y-38224D01*
X-5433Y-38155D01*
X-5441Y-38127D01*
X-5449Y-38103D01*
X-5453Y-38083D01*
X-5457Y-38071D01*
X-5461Y-38063D01*
Y-38059D01*
X-5501Y-37967D01*
X-5545Y-37883D01*
X-5593Y-37815D01*
X-5646Y-37754D01*
X-5690Y-37706D01*
X-5726Y-37674D01*
X-5754Y-37654D01*
X-5758Y-37646D01*
X-5762D01*
X-5846Y-37594D01*
X-5938Y-37554D01*
X-6027Y-37526D01*
X-6111Y-37510D01*
X-6187Y-37498D01*
X-6219Y-37494D01*
X-6247D01*
X-6267Y-37490D01*
X-6299D01*
X-6400Y-37494D01*
X-6492Y-37510D01*
X-6568Y-37534D01*
X-6636Y-37558D01*
X-6688Y-37586D01*
X-6728Y-37606D01*
X-6752Y-37622D01*
X-6760Y-37630D01*
X-6825Y-37690D01*
X-6885Y-37758D01*
X-6933Y-37831D01*
X-6973Y-37903D01*
X-7005Y-37967D01*
X-7017Y-37999D01*
X-7025Y-38023D01*
X-7033Y-38043D01*
X-7041Y-38059D01*
X-7045Y-38067D01*
Y-38071D01*
X-7406Y-37987D01*
X-7382Y-37915D01*
X-7358Y-37851D01*
X-7326Y-37791D01*
X-7298Y-37730D01*
X-7266Y-37678D01*
X-7230Y-37630D01*
X-7198Y-37582D01*
X-7165Y-37542D01*
X-7133Y-37510D01*
X-7105Y-37478D01*
X-7077Y-37450D01*
X-7057Y-37430D01*
X-7037Y-37409D01*
X-7021Y-37398D01*
X-7013Y-37394D01*
X-7009Y-37389D01*
X-6953Y-37353D01*
X-6897Y-37317D01*
X-6841Y-37289D01*
X-6780Y-37265D01*
X-6660Y-37229D01*
X-6552Y-37205D01*
X-6500Y-37193D01*
X-6456Y-37189D01*
X-6412Y-37185D01*
X-6375Y-37181D01*
X-6347Y-37177D01*
X-6307D01*
X-6175Y-37185D01*
D02*
G37*
G36*
X-8605Y-37217D02*
X-8541Y-37221D01*
X-8428Y-37245D01*
X-8376Y-37261D01*
X-8328Y-37277D01*
X-8284Y-37297D01*
X-8244Y-37317D01*
X-8212Y-37337D01*
X-8180Y-37357D01*
X-8152Y-37374D01*
X-8132Y-37389D01*
X-8116Y-37402D01*
X-8104Y-37413D01*
X-8096Y-37418D01*
X-8092Y-37422D01*
X-8056Y-37462D01*
X-8020Y-37502D01*
X-7992Y-37546D01*
X-7967Y-37590D01*
X-7927Y-37674D01*
X-7903Y-37754D01*
X-7887Y-37823D01*
X-7883Y-37855D01*
X-7879Y-37879D01*
X-7875Y-37903D01*
Y-37919D01*
Y-37927D01*
Y-37931D01*
X-7879Y-38003D01*
X-7891Y-38071D01*
X-7907Y-38131D01*
X-7927Y-38184D01*
X-7943Y-38224D01*
X-7959Y-38256D01*
X-7971Y-38272D01*
X-7975Y-38280D01*
X-8020Y-38328D01*
X-8068Y-38372D01*
X-8120Y-38412D01*
X-8172Y-38444D01*
X-8220Y-38468D01*
X-8256Y-38484D01*
X-8272Y-38492D01*
X-8284Y-38496D01*
X-8288Y-38500D01*
X-8292D01*
X-8200Y-38528D01*
X-8124Y-38564D01*
X-8056Y-38609D01*
X-7999Y-38649D01*
X-7955Y-38689D01*
X-7923Y-38721D01*
X-7907Y-38741D01*
X-7899Y-38745D01*
Y-38749D01*
X-7855Y-38821D01*
X-7819Y-38897D01*
X-7795Y-38969D01*
X-7779Y-39042D01*
X-7771Y-39106D01*
X-7767Y-39134D01*
Y-39158D01*
X-7763Y-39174D01*
Y-39190D01*
Y-39198D01*
Y-39202D01*
X-7767Y-39266D01*
X-7775Y-39330D01*
X-7787Y-39391D01*
X-7803Y-39451D01*
X-7843Y-39551D01*
X-7863Y-39599D01*
X-7887Y-39639D01*
X-7911Y-39679D01*
X-7931Y-39711D01*
X-7955Y-39739D01*
X-7971Y-39763D01*
X-7987Y-39783D01*
X-7999Y-39796D01*
X-8008Y-39803D01*
X-8011Y-39808D01*
X-8060Y-39852D01*
X-8112Y-39888D01*
X-8168Y-39920D01*
X-8224Y-39948D01*
X-8276Y-39968D01*
X-8332Y-39988D01*
X-8441Y-40016D01*
X-8489Y-40028D01*
X-8533Y-40036D01*
X-8573Y-40040D01*
X-8609Y-40044D01*
X-8637Y-40048D01*
X-8677D01*
X-8753Y-40044D01*
X-8822Y-40036D01*
X-8890Y-40024D01*
X-8954Y-40012D01*
X-9010Y-39992D01*
X-9066Y-39972D01*
X-9118Y-39952D01*
X-9162Y-39928D01*
X-9202Y-39904D01*
X-9239Y-39884D01*
X-9267Y-39864D01*
X-9295Y-39844D01*
X-9315Y-39832D01*
X-9327Y-39819D01*
X-9335Y-39812D01*
X-9339Y-39808D01*
X-9383Y-39759D01*
X-9423Y-39711D01*
X-9455Y-39663D01*
X-9483Y-39611D01*
X-9511Y-39563D01*
X-9531Y-39511D01*
X-9559Y-39419D01*
X-9571Y-39374D01*
X-9579Y-39334D01*
X-9583Y-39298D01*
X-9587Y-39270D01*
X-9591Y-39246D01*
Y-39226D01*
Y-39214D01*
Y-39210D01*
X-9587Y-39118D01*
X-9571Y-39034D01*
X-9547Y-38957D01*
X-9523Y-38893D01*
X-9499Y-38841D01*
X-9475Y-38801D01*
X-9459Y-38777D01*
X-9455Y-38773D01*
Y-38769D01*
X-9399Y-38705D01*
X-9339Y-38649D01*
X-9275Y-38605D01*
X-9215Y-38564D01*
X-9158Y-38536D01*
X-9110Y-38516D01*
X-9094Y-38508D01*
X-9082Y-38504D01*
X-9074Y-38500D01*
X-9070D01*
X-9142Y-38468D01*
X-9202Y-38432D01*
X-9255Y-38396D01*
X-9299Y-38360D01*
X-9331Y-38328D01*
X-9355Y-38304D01*
X-9371Y-38288D01*
X-9375Y-38280D01*
X-9411Y-38224D01*
X-9435Y-38167D01*
X-9455Y-38111D01*
X-9467Y-38055D01*
X-9475Y-38011D01*
X-9479Y-37975D01*
Y-37951D01*
Y-37947D01*
Y-37943D01*
X-9475Y-37887D01*
X-9471Y-37835D01*
X-9443Y-37734D01*
X-9407Y-37646D01*
X-9367Y-37570D01*
X-9327Y-37510D01*
X-9307Y-37486D01*
X-9291Y-37462D01*
X-9275Y-37446D01*
X-9263Y-37434D01*
X-9259Y-37430D01*
X-9255Y-37426D01*
X-9211Y-37389D01*
X-9166Y-37353D01*
X-9118Y-37325D01*
X-9070Y-37301D01*
X-8974Y-37265D01*
X-8878Y-37241D01*
X-8838Y-37229D01*
X-8798Y-37225D01*
X-8761Y-37221D01*
X-8729Y-37217D01*
X-8705Y-37213D01*
X-8669D01*
X-8605Y-37217D01*
D02*
G37*
%LPC*%
G36*
X38064Y-33779D02*
Y-35022D01*
X38938D01*
X38064Y-33779D01*
D02*
G37*
G36*
X42631Y-92534D02*
X41757D01*
X41649Y-92538D01*
X41556Y-92554D01*
X41476Y-92574D01*
X41416Y-92598D01*
X41364Y-92622D01*
X41332Y-92642D01*
X41312Y-92658D01*
X41304Y-92662D01*
X41256Y-92714D01*
X41220Y-92766D01*
X41195Y-92823D01*
X41175Y-92871D01*
X41167Y-92919D01*
X41163Y-92955D01*
X41159Y-92979D01*
Y-92983D01*
Y-92987D01*
X41163Y-93035D01*
X41171Y-93083D01*
X41184Y-93123D01*
X41195Y-93159D01*
X41212Y-93191D01*
X41224Y-93216D01*
X41232Y-93232D01*
X41236Y-93236D01*
X41264Y-93276D01*
X41300Y-93312D01*
X41336Y-93340D01*
X41372Y-93364D01*
X41404Y-93380D01*
X41428Y-93392D01*
X41444Y-93400D01*
X41452Y-93404D01*
X41508Y-93420D01*
X41572Y-93432D01*
X41637Y-93440D01*
X41701Y-93444D01*
X41757Y-93448D01*
X41805Y-93452D01*
X42631D01*
Y-92534D01*
D02*
G37*
G36*
X37310Y-92494D02*
X37286D01*
X37242Y-92498D01*
X37198Y-92502D01*
X37157Y-92514D01*
X37121Y-92530D01*
X37053Y-92566D01*
X36993Y-92606D01*
X36949Y-92650D01*
X36913Y-92686D01*
X36901Y-92702D01*
X36893Y-92714D01*
X36885Y-92718D01*
Y-92722D01*
X36857Y-92770D01*
X36833Y-92827D01*
X36809Y-92891D01*
X36792Y-92959D01*
X36777Y-93031D01*
X36764Y-93107D01*
X36744Y-93260D01*
X36736Y-93336D01*
X36732Y-93404D01*
X36728Y-93468D01*
Y-93520D01*
X36724Y-93568D01*
Y-93604D01*
Y-93625D01*
Y-93629D01*
Y-93633D01*
Y-93757D01*
X36732Y-93869D01*
X36740Y-93969D01*
X36748Y-94066D01*
X36760Y-94146D01*
X36777Y-94222D01*
X36792Y-94286D01*
X36805Y-94346D01*
X36821Y-94394D01*
X36837Y-94435D01*
X36849Y-94471D01*
X36865Y-94499D01*
X36873Y-94519D01*
X36881Y-94531D01*
X36889Y-94539D01*
Y-94543D01*
X36921Y-94583D01*
X36953Y-94615D01*
X36985Y-94647D01*
X37017Y-94671D01*
X37085Y-94711D01*
X37145Y-94739D01*
X37201Y-94755D01*
X37242Y-94763D01*
X37258Y-94767D01*
X37282D01*
X37326Y-94763D01*
X37366Y-94759D01*
X37442Y-94731D01*
X37510Y-94695D01*
X37571Y-94655D01*
X37615Y-94615D01*
X37651Y-94579D01*
X37671Y-94551D01*
X37679Y-94547D01*
Y-94543D01*
X37707Y-94495D01*
X37731Y-94439D01*
X37755Y-94374D01*
X37771Y-94306D01*
X37787Y-94234D01*
X37799Y-94158D01*
X37819Y-94002D01*
X37827Y-93929D01*
X37831Y-93861D01*
X37835Y-93797D01*
Y-93745D01*
X37839Y-93697D01*
Y-93661D01*
Y-93641D01*
Y-93633D01*
X37835Y-93508D01*
X37831Y-93396D01*
X37823Y-93292D01*
X37811Y-93195D01*
X37799Y-93111D01*
X37783Y-93035D01*
X37767Y-92967D01*
X37751Y-92907D01*
X37735Y-92855D01*
X37723Y-92810D01*
X37707Y-92774D01*
X37695Y-92742D01*
X37683Y-92722D01*
X37675Y-92706D01*
X37667Y-92698D01*
Y-92694D01*
X37639Y-92658D01*
X37611Y-92626D01*
X37578Y-92602D01*
X37546Y-92578D01*
X37482Y-92542D01*
X37422Y-92518D01*
X37370Y-92506D01*
X37326Y-92498D01*
X37310Y-92494D01*
D02*
G37*
G36*
X34455Y-98494D02*
X34391D01*
X34351Y-98502D01*
X34279Y-98522D01*
X34215Y-98550D01*
X34158Y-98578D01*
X34114Y-98610D01*
X34082Y-98638D01*
X34062Y-98658D01*
X34054Y-98662D01*
Y-98666D01*
X34002Y-98734D01*
X33962Y-98810D01*
X33934Y-98891D01*
X33918Y-98967D01*
X33906Y-99031D01*
X33902Y-99059D01*
Y-99087D01*
X33898Y-99107D01*
Y-99123D01*
Y-99131D01*
Y-99135D01*
X33906Y-99240D01*
X33922Y-99332D01*
X33946Y-99408D01*
X33974Y-99472D01*
X34006Y-99524D01*
X34030Y-99560D01*
X34046Y-99585D01*
X34054Y-99593D01*
X34114Y-99649D01*
X34179Y-99689D01*
X34243Y-99717D01*
X34307Y-99737D01*
X34359Y-99749D01*
X34403Y-99753D01*
X34419Y-99757D01*
X34443D01*
X34527Y-99749D01*
X34604Y-99733D01*
X34672Y-99705D01*
X34732Y-99673D01*
X34776Y-99645D01*
X34812Y-99616D01*
X34832Y-99600D01*
X34840Y-99593D01*
X34892Y-99528D01*
X34932Y-99456D01*
X34956Y-99384D01*
X34977Y-99316D01*
X34988Y-99256D01*
X34993Y-99232D01*
Y-99208D01*
X34997Y-99187D01*
Y-99176D01*
Y-99167D01*
Y-99163D01*
X34988Y-99059D01*
X34972Y-98963D01*
X34944Y-98879D01*
X34912Y-98810D01*
X34884Y-98754D01*
X34856Y-98714D01*
X34848Y-98702D01*
X34840Y-98690D01*
X34832Y-98686D01*
Y-98682D01*
X34800Y-98650D01*
X34768Y-98618D01*
X34700Y-98574D01*
X34632Y-98538D01*
X34567Y-98518D01*
X34515Y-98502D01*
X34471Y-98498D01*
X34455Y-98494D01*
D02*
G37*
G36*
X37631Y-98534D02*
X36757D01*
X36649Y-98538D01*
X36556Y-98554D01*
X36476Y-98574D01*
X36416Y-98598D01*
X36364Y-98622D01*
X36332Y-98642D01*
X36312Y-98658D01*
X36304Y-98662D01*
X36256Y-98714D01*
X36220Y-98766D01*
X36195Y-98823D01*
X36176Y-98871D01*
X36167Y-98919D01*
X36163Y-98955D01*
X36159Y-98979D01*
Y-98983D01*
Y-98987D01*
X36163Y-99035D01*
X36171Y-99083D01*
X36184Y-99123D01*
X36195Y-99159D01*
X36211Y-99191D01*
X36224Y-99216D01*
X36232Y-99232D01*
X36236Y-99236D01*
X36264Y-99276D01*
X36300Y-99312D01*
X36336Y-99340D01*
X36372Y-99364D01*
X36404Y-99380D01*
X36428Y-99392D01*
X36444Y-99400D01*
X36452Y-99404D01*
X36508Y-99420D01*
X36572Y-99432D01*
X36637Y-99440D01*
X36701Y-99444D01*
X36757Y-99448D01*
X36805Y-99452D01*
X37631D01*
Y-98534D01*
D02*
G37*
G36*
X31631Y-102534D02*
X30757D01*
X30649Y-102538D01*
X30556Y-102554D01*
X30476Y-102574D01*
X30416Y-102598D01*
X30364Y-102622D01*
X30332Y-102642D01*
X30312Y-102658D01*
X30304Y-102662D01*
X30256Y-102714D01*
X30220Y-102766D01*
X30196Y-102823D01*
X30176Y-102871D01*
X30167Y-102919D01*
X30163Y-102955D01*
X30159Y-102979D01*
Y-102983D01*
Y-102987D01*
X30163Y-103035D01*
X30171Y-103083D01*
X30184Y-103123D01*
X30196Y-103159D01*
X30211Y-103191D01*
X30224Y-103216D01*
X30232Y-103232D01*
X30236Y-103236D01*
X30264Y-103276D01*
X30300Y-103312D01*
X30336Y-103340D01*
X30372Y-103364D01*
X30404Y-103380D01*
X30428Y-103392D01*
X30444Y-103400D01*
X30452Y-103404D01*
X30508Y-103420D01*
X30572Y-103432D01*
X30637Y-103440D01*
X30701Y-103444D01*
X30757Y-103448D01*
X30805Y-103452D01*
X31631D01*
Y-102534D01*
D02*
G37*
G36*
X28467Y-102494D02*
X28435D01*
X28367Y-102498D01*
X28303Y-102514D01*
X28251Y-102534D01*
X28203Y-102558D01*
X28166Y-102582D01*
X28138Y-102602D01*
X28118Y-102618D01*
X28114Y-102622D01*
X28070Y-102674D01*
X28038Y-102726D01*
X28014Y-102778D01*
X27998Y-102827D01*
X27990Y-102871D01*
X27982Y-102907D01*
Y-102931D01*
Y-102935D01*
Y-102939D01*
X27986Y-103003D01*
X28002Y-103063D01*
X28022Y-103115D01*
X28046Y-103159D01*
X28070Y-103196D01*
X28090Y-103220D01*
X28106Y-103240D01*
X28110Y-103244D01*
X28158Y-103284D01*
X28215Y-103316D01*
X28267Y-103336D01*
X28319Y-103352D01*
X28367Y-103360D01*
X28403Y-103364D01*
X28427Y-103368D01*
X28435D01*
X28507Y-103364D01*
X28571Y-103348D01*
X28628Y-103328D01*
X28676Y-103304D01*
X28712Y-103284D01*
X28740Y-103264D01*
X28760Y-103248D01*
X28764Y-103244D01*
X28804Y-103196D01*
X28836Y-103139D01*
X28856Y-103087D01*
X28872Y-103035D01*
X28880Y-102991D01*
X28884Y-102955D01*
X28888Y-102931D01*
Y-102927D01*
Y-102923D01*
X28884Y-102859D01*
X28868Y-102803D01*
X28848Y-102750D01*
X28824Y-102706D01*
X28804Y-102670D01*
X28784Y-102642D01*
X28768Y-102626D01*
X28764Y-102622D01*
X28712Y-102578D01*
X28660Y-102546D01*
X28604Y-102526D01*
X28551Y-102510D01*
X28503Y-102502D01*
X28467Y-102494D01*
D02*
G37*
G36*
X28471Y-103645D02*
X28447D01*
X28359Y-103653D01*
X28279Y-103669D01*
X28207Y-103697D01*
X28146Y-103725D01*
X28098Y-103757D01*
X28062Y-103785D01*
X28042Y-103801D01*
X28034Y-103809D01*
X27978Y-103873D01*
X27938Y-103941D01*
X27910Y-104009D01*
X27890Y-104070D01*
X27878Y-104130D01*
X27874Y-104174D01*
X27870Y-104190D01*
Y-104202D01*
Y-104210D01*
Y-104214D01*
X27878Y-104298D01*
X27894Y-104378D01*
X27922Y-104447D01*
X27950Y-104503D01*
X27978Y-104547D01*
X28006Y-104583D01*
X28022Y-104603D01*
X28030Y-104611D01*
X28094Y-104663D01*
X28158Y-104703D01*
X28227Y-104727D01*
X28291Y-104747D01*
X28347Y-104759D01*
X28395Y-104763D01*
X28411Y-104767D01*
X28435D01*
X28491Y-104763D01*
X28547Y-104755D01*
X28600Y-104743D01*
X28644Y-104731D01*
X28680Y-104719D01*
X28708Y-104707D01*
X28724Y-104699D01*
X28732Y-104695D01*
X28780Y-104663D01*
X28820Y-104631D01*
X28856Y-104595D01*
X28884Y-104559D01*
X28908Y-104531D01*
X28924Y-104507D01*
X28932Y-104487D01*
X28936Y-104483D01*
X28956Y-104431D01*
X28972Y-104383D01*
X28984Y-104334D01*
X28993Y-104290D01*
X28997Y-104254D01*
X29000Y-104226D01*
Y-104210D01*
Y-104202D01*
X28993Y-104118D01*
X28977Y-104042D01*
X28952Y-103973D01*
X28920Y-103913D01*
X28892Y-103869D01*
X28868Y-103833D01*
X28852Y-103813D01*
X28844Y-103805D01*
X28784Y-103753D01*
X28716Y-103713D01*
X28652Y-103685D01*
X28587Y-103665D01*
X28531Y-103653D01*
X28487Y-103649D01*
X28471Y-103645D01*
D02*
G37*
G36*
X28631Y-108534D02*
X27757D01*
X27649Y-108538D01*
X27556Y-108554D01*
X27476Y-108574D01*
X27416Y-108598D01*
X27364Y-108622D01*
X27332Y-108642D01*
X27312Y-108658D01*
X27304Y-108662D01*
X27256Y-108714D01*
X27220Y-108766D01*
X27196Y-108823D01*
X27176Y-108871D01*
X27167Y-108919D01*
X27163Y-108955D01*
X27159Y-108979D01*
Y-108983D01*
Y-108987D01*
X27163Y-109035D01*
X27171Y-109083D01*
X27183Y-109123D01*
X27196Y-109159D01*
X27211Y-109192D01*
X27224Y-109216D01*
X27232Y-109232D01*
X27236Y-109236D01*
X27264Y-109276D01*
X27300Y-109312D01*
X27336Y-109340D01*
X27372Y-109364D01*
X27404Y-109380D01*
X27428Y-109392D01*
X27444Y-109400D01*
X27452Y-109404D01*
X27508Y-109420D01*
X27572Y-109432D01*
X27637Y-109440D01*
X27701Y-109444D01*
X27757Y-109448D01*
X27805Y-109452D01*
X28631D01*
Y-108534D01*
D02*
G37*
G36*
X14439Y-111500D02*
X14415D01*
X14331Y-111508D01*
X14255Y-111528D01*
X14190Y-111552D01*
X14134Y-111584D01*
X14090Y-111617D01*
X14058Y-111641D01*
X14038Y-111661D01*
X14030Y-111669D01*
X13978Y-111737D01*
X13938Y-111809D01*
X13910Y-111885D01*
X13894Y-111957D01*
X13882Y-112022D01*
X13878Y-112050D01*
Y-112074D01*
X13874Y-112094D01*
Y-112110D01*
Y-112118D01*
Y-112122D01*
X13882Y-112230D01*
X13898Y-112322D01*
X13922Y-112402D01*
X13950Y-112471D01*
X13982Y-112523D01*
X14006Y-112563D01*
X14022Y-112587D01*
X14030Y-112591D01*
Y-112595D01*
X14058Y-112627D01*
X14090Y-112651D01*
X14154Y-112695D01*
X14219Y-112723D01*
X14275Y-112747D01*
X14327Y-112759D01*
X14367Y-112763D01*
X14383Y-112767D01*
X14403D01*
X14459Y-112763D01*
X14511Y-112755D01*
X14559Y-112739D01*
X14600Y-112723D01*
X14636Y-112711D01*
X14664Y-112695D01*
X14680Y-112687D01*
X14688Y-112683D01*
X14736Y-112647D01*
X14776Y-112611D01*
X14812Y-112567D01*
X14840Y-112531D01*
X14864Y-112495D01*
X14880Y-112467D01*
X14892Y-112447D01*
X14896Y-112439D01*
X14920Y-112378D01*
X14936Y-112318D01*
X14952Y-112262D01*
X14960Y-112210D01*
X14964Y-112166D01*
X14968Y-112130D01*
Y-112110D01*
Y-112102D01*
X14960Y-112005D01*
X14944Y-111921D01*
X14916Y-111845D01*
X14888Y-111785D01*
X14860Y-111733D01*
X14832Y-111697D01*
X14816Y-111677D01*
X14808Y-111669D01*
X14744Y-111612D01*
X14680Y-111572D01*
X14612Y-111540D01*
X14551Y-111520D01*
X14495Y-111508D01*
X14455Y-111504D01*
X14439Y-111500D01*
D02*
G37*
G36*
X17631Y-110534D02*
X16757D01*
X16649Y-110538D01*
X16556Y-110554D01*
X16476Y-110574D01*
X16416Y-110598D01*
X16364Y-110622D01*
X16332Y-110642D01*
X16312Y-110658D01*
X16304Y-110662D01*
X16256Y-110714D01*
X16220Y-110766D01*
X16195Y-110823D01*
X16175Y-110871D01*
X16167Y-110919D01*
X16163Y-110955D01*
X16159Y-110979D01*
Y-110983D01*
Y-110987D01*
X16163Y-111035D01*
X16171Y-111083D01*
X16183Y-111123D01*
X16195Y-111159D01*
X16211Y-111191D01*
X16224Y-111216D01*
X16232Y-111232D01*
X16236Y-111236D01*
X16264Y-111276D01*
X16300Y-111312D01*
X16336Y-111340D01*
X16372Y-111364D01*
X16404Y-111380D01*
X16428Y-111392D01*
X16444Y-111400D01*
X16452Y-111404D01*
X16508Y-111420D01*
X16572Y-111432D01*
X16637Y-111440D01*
X16701Y-111444D01*
X16757Y-111448D01*
X16805Y-111452D01*
X17631D01*
Y-110534D01*
D02*
G37*
G36*
X2631Y-109534D02*
X1757D01*
X1649Y-109538D01*
X1556Y-109554D01*
X1476Y-109574D01*
X1416Y-109598D01*
X1364Y-109622D01*
X1332Y-109642D01*
X1312Y-109658D01*
X1304Y-109662D01*
X1256Y-109714D01*
X1220Y-109766D01*
X1196Y-109823D01*
X1175Y-109871D01*
X1167Y-109919D01*
X1163Y-109955D01*
X1159Y-109979D01*
Y-109983D01*
Y-109987D01*
X1163Y-110035D01*
X1171Y-110083D01*
X1183Y-110123D01*
X1196Y-110159D01*
X1211Y-110192D01*
X1224Y-110216D01*
X1232Y-110232D01*
X1236Y-110236D01*
X1264Y-110276D01*
X1300Y-110312D01*
X1336Y-110340D01*
X1372Y-110364D01*
X1404Y-110380D01*
X1428Y-110392D01*
X1444Y-110400D01*
X1452Y-110404D01*
X1508Y-110420D01*
X1572Y-110432D01*
X1637Y-110440D01*
X1701Y-110444D01*
X1757Y-110448D01*
X1805Y-110452D01*
X2631D01*
Y-109534D01*
D02*
G37*
G36*
X-6369Y-102534D02*
X-7243D01*
X-7351Y-102538D01*
X-7444Y-102554D01*
X-7524Y-102574D01*
X-7584Y-102598D01*
X-7636Y-102622D01*
X-7668Y-102642D01*
X-7688Y-102658D01*
X-7696Y-102662D01*
X-7744Y-102714D01*
X-7780Y-102766D01*
X-7805Y-102823D01*
X-7825Y-102871D01*
X-7833Y-102919D01*
X-7837Y-102955D01*
X-7841Y-102979D01*
Y-102983D01*
Y-102987D01*
X-7837Y-103035D01*
X-7829Y-103083D01*
X-7817Y-103123D01*
X-7805Y-103159D01*
X-7789Y-103191D01*
X-7776Y-103216D01*
X-7768Y-103232D01*
X-7764Y-103236D01*
X-7736Y-103276D01*
X-7700Y-103312D01*
X-7664Y-103340D01*
X-7628Y-103364D01*
X-7596Y-103380D01*
X-7572Y-103392D01*
X-7556Y-103400D01*
X-7548Y-103404D01*
X-7492Y-103420D01*
X-7428Y-103432D01*
X-7363Y-103440D01*
X-7299Y-103444D01*
X-7243Y-103448D01*
X-7195Y-103452D01*
X-6369D01*
Y-102534D01*
D02*
G37*
G36*
X-9745Y-102778D02*
Y-104022D01*
X-8871D01*
X-9745Y-102778D01*
D02*
G37*
G36*
X-12369Y-97534D02*
X-13243D01*
X-13351Y-97538D01*
X-13444Y-97554D01*
X-13524Y-97574D01*
X-13584Y-97598D01*
X-13636Y-97622D01*
X-13668Y-97642D01*
X-13688Y-97658D01*
X-13696Y-97662D01*
X-13744Y-97714D01*
X-13780Y-97766D01*
X-13804Y-97823D01*
X-13825Y-97871D01*
X-13833Y-97919D01*
X-13837Y-97955D01*
X-13841Y-97979D01*
Y-97983D01*
Y-97987D01*
X-13837Y-98035D01*
X-13829Y-98083D01*
X-13816Y-98123D01*
X-13804Y-98159D01*
X-13789Y-98191D01*
X-13776Y-98216D01*
X-13768Y-98232D01*
X-13764Y-98236D01*
X-13736Y-98276D01*
X-13700Y-98312D01*
X-13664Y-98340D01*
X-13628Y-98364D01*
X-13596Y-98380D01*
X-13572Y-98392D01*
X-13556Y-98400D01*
X-13548Y-98404D01*
X-13492Y-98420D01*
X-13428Y-98432D01*
X-13363Y-98440D01*
X-13299Y-98444D01*
X-13243Y-98448D01*
X-13195Y-98452D01*
X-12369D01*
Y-97534D01*
D02*
G37*
G36*
X-16657Y-25494D02*
X-16721D01*
X-16761Y-25502D01*
X-16834Y-25522D01*
X-16898Y-25550D01*
X-16954Y-25578D01*
X-16998Y-25610D01*
X-17030Y-25638D01*
X-17050Y-25658D01*
X-17058Y-25662D01*
Y-25666D01*
X-17110Y-25734D01*
X-17150Y-25811D01*
X-17178Y-25891D01*
X-17195Y-25967D01*
X-17207Y-26031D01*
X-17210Y-26059D01*
Y-26087D01*
X-17214Y-26107D01*
Y-26123D01*
Y-26131D01*
Y-26135D01*
X-17207Y-26240D01*
X-17190Y-26332D01*
X-17166Y-26408D01*
X-17138Y-26472D01*
X-17106Y-26524D01*
X-17082Y-26560D01*
X-17066Y-26585D01*
X-17058Y-26592D01*
X-16998Y-26649D01*
X-16934Y-26689D01*
X-16870Y-26717D01*
X-16805Y-26737D01*
X-16753Y-26749D01*
X-16709Y-26753D01*
X-16693Y-26757D01*
X-16669D01*
X-16585Y-26749D01*
X-16509Y-26733D01*
X-16441Y-26705D01*
X-16380Y-26673D01*
X-16336Y-26645D01*
X-16300Y-26617D01*
X-16280Y-26601D01*
X-16272Y-26592D01*
X-16220Y-26528D01*
X-16180Y-26456D01*
X-16156Y-26384D01*
X-16136Y-26316D01*
X-16124Y-26256D01*
X-16120Y-26232D01*
Y-26208D01*
X-16116Y-26188D01*
Y-26175D01*
Y-26167D01*
Y-26163D01*
X-16124Y-26059D01*
X-16140Y-25963D01*
X-16168Y-25879D01*
X-16200Y-25811D01*
X-16228Y-25754D01*
X-16256Y-25714D01*
X-16264Y-25702D01*
X-16272Y-25690D01*
X-16280Y-25686D01*
Y-25682D01*
X-16312Y-25650D01*
X-16344Y-25618D01*
X-16412Y-25574D01*
X-16481Y-25538D01*
X-16545Y-25518D01*
X-16597Y-25502D01*
X-16641Y-25498D01*
X-16657Y-25494D01*
D02*
G37*
G36*
X-8645Y-37494D02*
X-8677D01*
X-8745Y-37498D01*
X-8810Y-37514D01*
X-8862Y-37534D01*
X-8910Y-37558D01*
X-8946Y-37582D01*
X-8974Y-37602D01*
X-8994Y-37618D01*
X-8998Y-37622D01*
X-9042Y-37674D01*
X-9074Y-37726D01*
X-9098Y-37778D01*
X-9114Y-37827D01*
X-9122Y-37871D01*
X-9130Y-37907D01*
Y-37931D01*
Y-37935D01*
Y-37939D01*
X-9126Y-38003D01*
X-9110Y-38063D01*
X-9090Y-38115D01*
X-9066Y-38159D01*
X-9042Y-38195D01*
X-9022Y-38220D01*
X-9006Y-38240D01*
X-9002Y-38244D01*
X-8954Y-38284D01*
X-8898Y-38316D01*
X-8846Y-38336D01*
X-8794Y-38352D01*
X-8745Y-38360D01*
X-8709Y-38364D01*
X-8685Y-38368D01*
X-8677D01*
X-8605Y-38364D01*
X-8541Y-38348D01*
X-8485Y-38328D01*
X-8437Y-38304D01*
X-8400Y-38284D01*
X-8372Y-38264D01*
X-8352Y-38248D01*
X-8348Y-38244D01*
X-8308Y-38195D01*
X-8276Y-38139D01*
X-8256Y-38087D01*
X-8240Y-38035D01*
X-8232Y-37991D01*
X-8228Y-37955D01*
X-8224Y-37931D01*
Y-37927D01*
Y-37923D01*
X-8228Y-37859D01*
X-8244Y-37802D01*
X-8264Y-37750D01*
X-8288Y-37706D01*
X-8308Y-37670D01*
X-8328Y-37642D01*
X-8344Y-37626D01*
X-8348Y-37622D01*
X-8400Y-37578D01*
X-8453Y-37546D01*
X-8509Y-37526D01*
X-8561Y-37510D01*
X-8609Y-37502D01*
X-8645Y-37494D01*
D02*
G37*
G36*
X-8641Y-38645D02*
X-8665D01*
X-8753Y-38653D01*
X-8834Y-38669D01*
X-8906Y-38697D01*
X-8966Y-38725D01*
X-9014Y-38757D01*
X-9050Y-38785D01*
X-9070Y-38801D01*
X-9078Y-38809D01*
X-9134Y-38873D01*
X-9174Y-38941D01*
X-9202Y-39009D01*
X-9223Y-39070D01*
X-9235Y-39130D01*
X-9239Y-39174D01*
X-9243Y-39190D01*
Y-39202D01*
Y-39210D01*
Y-39214D01*
X-9235Y-39298D01*
X-9218Y-39378D01*
X-9190Y-39447D01*
X-9162Y-39503D01*
X-9134Y-39547D01*
X-9106Y-39583D01*
X-9090Y-39603D01*
X-9082Y-39611D01*
X-9018Y-39663D01*
X-8954Y-39703D01*
X-8886Y-39727D01*
X-8822Y-39747D01*
X-8765Y-39759D01*
X-8717Y-39763D01*
X-8701Y-39767D01*
X-8677D01*
X-8621Y-39763D01*
X-8565Y-39755D01*
X-8513Y-39743D01*
X-8469Y-39731D01*
X-8433Y-39719D01*
X-8405Y-39707D01*
X-8388Y-39699D01*
X-8380Y-39695D01*
X-8332Y-39663D01*
X-8292Y-39631D01*
X-8256Y-39595D01*
X-8228Y-39559D01*
X-8204Y-39531D01*
X-8188Y-39507D01*
X-8180Y-39487D01*
X-8176Y-39483D01*
X-8156Y-39431D01*
X-8140Y-39382D01*
X-8128Y-39334D01*
X-8120Y-39290D01*
X-8116Y-39254D01*
X-8112Y-39226D01*
Y-39210D01*
Y-39202D01*
X-8120Y-39118D01*
X-8136Y-39042D01*
X-8160Y-38973D01*
X-8192Y-38913D01*
X-8220Y-38869D01*
X-8244Y-38833D01*
X-8260Y-38813D01*
X-8268Y-38805D01*
X-8328Y-38753D01*
X-8397Y-38713D01*
X-8461Y-38685D01*
X-8525Y-38665D01*
X-8581Y-38653D01*
X-8625Y-38649D01*
X-8641Y-38645D01*
D02*
G37*
%LPD*%
D11*
X1173Y-71961D02*
X22827D01*
X1173Y-42039D02*
X22827D01*
X26961Y-67827D02*
Y-46173D01*
X-2961Y-67827D02*
Y-46173D01*
X22827Y-71961D02*
X26961Y-67827D01*
X22827Y-42039D02*
X26961Y-46173D01*
X-2961Y-67827D02*
X1173Y-71961D01*
X-2961Y-46173D02*
X1173Y-42039D01*
X22827Y-71961D02*
Y-66055D01*
X20858D02*
X22827D01*
X20858Y-71961D02*
Y-66055D01*
X38654Y-38425D02*
X39047D01*
X38654Y-41575D02*
X39047D01*
X-2020Y-9342D02*
X-248D01*
X-2020Y-14658D02*
X-248D01*
X1114Y-19342D02*
X2886D01*
X1114Y-24657D02*
X2886D01*
X15248Y-19342D02*
X17020D01*
X15248Y-24657D02*
X17020D01*
X-9925Y-30122D02*
Y-29728D01*
X-6776Y-30122D02*
Y-29728D01*
X-16575Y-36197D02*
Y-35803D01*
X-13425Y-36197D02*
Y-35803D01*
X23974Y-95747D02*
X24253Y-96026D01*
X21747Y-97974D02*
X22026Y-98253D01*
X28974Y-91747D02*
X29253Y-92026D01*
X26747Y-93974D02*
X27026Y-94253D01*
X31974Y-85747D02*
X32253Y-86026D01*
X29747Y-87974D02*
X30026Y-88253D01*
X20974Y-101747D02*
X21253Y-102026D01*
X18747Y-103974D02*
X19026Y-104253D01*
X11974Y-101747D02*
X12253Y-102026D01*
X9747Y-103974D02*
X10026Y-104253D01*
X4974Y-103747D02*
X5253Y-104026D01*
X2747Y-105974D02*
X3026Y-106253D01*
X-926Y-97153D02*
X-647Y-96874D01*
X-3153Y-94926D02*
X-2874Y-94647D01*
X-8253Y-91026D02*
X-7974Y-90747D01*
X-6026Y-93253D02*
X-5747Y-92974D01*
D52*
X26075Y-77571D02*
G03*
X26075Y-77571I-492J0D01*
G01*
M02*
