G04*
G04 #@! TF.GenerationSoftware,Altium Limited,Altium Designer,20.0.14 (345)*
G04*
G04 Layer_Physical_Order=1*
G04 Layer_Color=255*
%FSLAX25Y25*%
%MOIN*%
G70*
G01*
G75*
%ADD25C,0.02400*%
%ADD27R,0.03543X0.03937*%
%ADD28R,0.03150X0.03937*%
%ADD29R,0.05512X0.05906*%
%ADD30R,0.03937X0.03543*%
%ADD31R,0.03150X0.03150*%
%ADD32R,0.02756X0.03543*%
%ADD33C,0.01000*%
%ADD34C,0.02000*%
%ADD35C,0.00400*%
%ADD36C,0.06000*%
%ADD37C,0.05984*%
%ADD38R,0.05984X0.05984*%
%ADD39R,0.06102X0.06102*%
%ADD40C,0.06102*%
%ADD41R,0.05984X0.05984*%
%ADD42C,0.01600*%
G36*
X55332Y30716D02*
X56824Y30231D01*
X58221Y29519D01*
X59489Y28598D01*
X60598Y27489D01*
X61519Y26221D01*
X62231Y24824D01*
X62716Y23333D01*
X62961Y21784D01*
Y21000D01*
X62961Y-41109D01*
X62963Y-41118D01*
X62968Y-41795D01*
X62982Y-41862D01*
X62974Y-41929D01*
X63103Y-43662D01*
X63127Y-43750D01*
X63124Y-43841D01*
X63406Y-45556D01*
X63437Y-45641D01*
X63442Y-45732D01*
X63873Y-47415D01*
X63913Y-47497D01*
X63926Y-47587D01*
X64503Y-49226D01*
X64549Y-49304D01*
X64570Y-49393D01*
X65290Y-50975D01*
X65343Y-51049D01*
X65371Y-51135D01*
X66227Y-52647D01*
X66286Y-52716D01*
X66322Y-52800D01*
X67308Y-54231D01*
X67357Y-54278D01*
X67388Y-54339D01*
X67928Y-55021D01*
X67945Y-55036D01*
X67956Y-55056D01*
X68707Y-55963D01*
X68782Y-56025D01*
X68836Y-56105D01*
X109268Y-96538D01*
X109077Y-97000D01*
X-35102D01*
X-50963Y-81134D01*
X-51399Y-80608D01*
X-52284Y-79323D01*
X-53052Y-77965D01*
X-53698Y-76546D01*
X-54216Y-75074D01*
X-54603Y-73563D01*
X-54856Y-72024D01*
X-54972Y-70468D01*
X-54961Y-69688D01*
X-54964Y-69674D01*
X-54961Y-69661D01*
Y21000D01*
Y21784D01*
X-54716Y23333D01*
X-54231Y24824D01*
X-53519Y26221D01*
X-52598Y27489D01*
X-51489Y28598D01*
X-50221Y29519D01*
X-48824Y30231D01*
X-47333Y30716D01*
X-45784Y30961D01*
X-44216D01*
X-42667Y30716D01*
X-41176Y30231D01*
X-39779Y29519D01*
X-38511Y28598D01*
X-37402Y27489D01*
X-36481Y26221D01*
X-35769Y24824D01*
X-35284Y23333D01*
X-35039Y21784D01*
Y15609D01*
X-34884Y14828D01*
X-34442Y14167D01*
X-33833Y13558D01*
X-33172Y13116D01*
X-32391Y12961D01*
X40271D01*
X41051Y13116D01*
X41713Y13558D01*
X42442Y14287D01*
X42884Y14949D01*
X43039Y15729D01*
Y21784D01*
X43284Y23333D01*
X43769Y24824D01*
X44481Y26221D01*
X45402Y27489D01*
X46511Y28598D01*
X47779Y29519D01*
X49176Y30231D01*
X50668Y30716D01*
X52216Y30961D01*
X53784D01*
X55332Y30716D01*
D02*
G37*
G36*
X113102Y-115928D02*
X106143Y-108968D01*
X120062D01*
X113102Y-115928D01*
D02*
G37*
G36*
X96398D02*
X89438Y-108968D01*
X103357D01*
X96398Y-115928D01*
D02*
G37*
G36*
X79693D02*
X72733Y-108968D01*
X86653D01*
X79693Y-115928D01*
D02*
G37*
G36*
X62988D02*
X56028Y-108968D01*
X69948D01*
X62988Y-115928D01*
D02*
G37*
G36*
X46284D02*
X39324Y-108968D01*
X53243D01*
X46284Y-115928D01*
D02*
G37*
G36*
X121454Y-124281D02*
X114494Y-117322D01*
X121454Y-110362D01*
Y-124281D01*
D02*
G37*
G36*
X111709Y-117322D02*
X104749Y-124281D01*
X97790Y-117322D01*
X104749Y-110362D01*
X111709Y-117322D01*
D02*
G37*
G36*
X95004D02*
X88045Y-124281D01*
X81085Y-117322D01*
X88045Y-110362D01*
X95004Y-117322D01*
D02*
G37*
G36*
X78298D02*
X71338Y-124281D01*
X64379Y-117322D01*
X71338Y-110362D01*
X78298Y-117322D01*
D02*
G37*
G36*
X61595D02*
X54635Y-124281D01*
X47675Y-117322D01*
X54635Y-110362D01*
X61595Y-117322D01*
D02*
G37*
G36*
X44890D02*
X37930Y-124281D01*
Y-110362D01*
X44890Y-117322D01*
D02*
G37*
G36*
X120062Y-125673D02*
X113102Y-132633D01*
X106143Y-125673D01*
X113102Y-118713D01*
X120062Y-125673D01*
D02*
G37*
G36*
X103357D02*
X96398Y-132633D01*
X89438Y-125673D01*
X96398Y-118713D01*
X103357Y-125673D01*
D02*
G37*
G36*
X86653D02*
X79693Y-132633D01*
X72733Y-125673D01*
X79693Y-118713D01*
X86653Y-125673D01*
D02*
G37*
G36*
X69948D02*
X62988Y-132633D01*
X56028Y-125673D01*
X62988Y-118713D01*
X69948Y-125673D01*
D02*
G37*
G36*
X53243D02*
X46284Y-132633D01*
X39324Y-125673D01*
X46284Y-118713D01*
X53243Y-125673D01*
D02*
G37*
G36*
X121454Y-140907D02*
X114494Y-133948D01*
X121454Y-126988D01*
Y-140907D01*
D02*
G37*
G36*
X111709Y-133948D02*
X104749Y-140907D01*
X97790Y-133948D01*
X104749Y-126988D01*
X111709Y-133948D01*
D02*
G37*
G36*
X95004D02*
X88045Y-140907D01*
X81085Y-133948D01*
X88045Y-126988D01*
X95004Y-133948D01*
D02*
G37*
G36*
X78298D02*
X71338Y-140907D01*
X64379Y-133948D01*
X71338Y-126988D01*
X78298Y-133948D01*
D02*
G37*
G36*
X61595D02*
X54635Y-140907D01*
X47675Y-133948D01*
X54635Y-126988D01*
X61595Y-133948D01*
D02*
G37*
G36*
X44890D02*
X37930Y-140907D01*
Y-126988D01*
X44890Y-133948D01*
D02*
G37*
G36*
X120062Y-142299D02*
X113102Y-149259D01*
X106143Y-142299D01*
X113102Y-135339D01*
X120062Y-142299D01*
D02*
G37*
G36*
X103357D02*
X96398Y-149259D01*
X89438Y-142299D01*
X96398Y-135339D01*
X103357Y-142299D01*
D02*
G37*
G36*
X86653D02*
X79693Y-149259D01*
X72733Y-142299D01*
X79693Y-135339D01*
X86653Y-142299D01*
D02*
G37*
G36*
X69948D02*
X62988Y-149259D01*
X56028Y-142299D01*
X62988Y-135339D01*
X69948Y-142299D01*
D02*
G37*
G36*
X53243D02*
X46284Y-149259D01*
X39324Y-142299D01*
X46284Y-135339D01*
X53243Y-142299D01*
D02*
G37*
G36*
X121454Y-157533D02*
X114494Y-150574D01*
X121454Y-143614D01*
Y-157533D01*
D02*
G37*
G36*
X111709Y-150574D02*
X104749Y-157533D01*
X97790Y-150574D01*
X104749Y-143614D01*
X111709Y-150574D01*
D02*
G37*
G36*
X95004D02*
X88045Y-157533D01*
X81085Y-150574D01*
X88045Y-143614D01*
X95004Y-150574D01*
D02*
G37*
G36*
X78298D02*
X71338Y-157533D01*
X64379Y-150574D01*
X71338Y-143614D01*
X78298Y-150574D01*
D02*
G37*
G36*
X61595D02*
X54635Y-157533D01*
X47675Y-150574D01*
X54635Y-143614D01*
X61595Y-150574D01*
D02*
G37*
G36*
X44890D02*
X37930Y-157533D01*
Y-143614D01*
X44890Y-150574D01*
D02*
G37*
G36*
X120062Y-158925D02*
X113102Y-165885D01*
X106143Y-158925D01*
X113102Y-151965D01*
X120062Y-158925D01*
D02*
G37*
G36*
X103357D02*
X96398Y-165885D01*
X89438Y-158925D01*
X96398Y-151965D01*
X103357Y-158925D01*
D02*
G37*
G36*
X86653D02*
X79693Y-165885D01*
X72733Y-158925D01*
X79693Y-151965D01*
X86653Y-158925D01*
D02*
G37*
G36*
X69948D02*
X62988Y-165885D01*
X56028Y-158925D01*
X62988Y-151965D01*
X69948Y-158925D01*
D02*
G37*
G36*
X53243D02*
X46284Y-165885D01*
X39324Y-158925D01*
X46284Y-151965D01*
X53243Y-158925D01*
D02*
G37*
G36*
X121454Y-174159D02*
X114494Y-167200D01*
X121454Y-160240D01*
Y-174159D01*
D02*
G37*
G36*
X111709Y-167200D02*
X104749Y-174159D01*
X97790Y-167200D01*
X104749Y-160240D01*
X111709Y-167200D01*
D02*
G37*
G36*
X95004D02*
X88045Y-174159D01*
X81085Y-167200D01*
X88045Y-160240D01*
X95004Y-167200D01*
D02*
G37*
G36*
X78298D02*
X71338Y-174159D01*
X64379Y-167200D01*
X71338Y-160240D01*
X78298Y-167200D01*
D02*
G37*
G36*
X61595D02*
X54635Y-174159D01*
X47675Y-167200D01*
X54635Y-160240D01*
X61595Y-167200D01*
D02*
G37*
G36*
X44890D02*
X37930Y-174159D01*
Y-160240D01*
X44890Y-167200D01*
D02*
G37*
G36*
X120062Y-175551D02*
X113102Y-182511D01*
X106143Y-175551D01*
X113102Y-168591D01*
X120062Y-175551D01*
D02*
G37*
G36*
X103357D02*
X96398Y-182511D01*
X89438Y-175551D01*
X96398Y-168591D01*
X103357Y-175551D01*
D02*
G37*
G36*
X86653D02*
X79693Y-182511D01*
X72733Y-175551D01*
X79693Y-168591D01*
X86653Y-175551D01*
D02*
G37*
G36*
X69948D02*
X62988Y-182511D01*
X56028Y-175551D01*
X62988Y-168591D01*
X69948Y-175551D01*
D02*
G37*
G36*
X53243D02*
X46284Y-182511D01*
X39324Y-175551D01*
X46284Y-168591D01*
X53243Y-175551D01*
D02*
G37*
G36*
X121531Y-190787D02*
X114572Y-183827D01*
X121531Y-176867D01*
Y-190787D01*
D02*
G37*
G36*
X111786Y-183827D02*
X104827Y-190787D01*
X97867Y-183827D01*
X104827Y-176867D01*
X111786Y-183827D01*
D02*
G37*
G36*
X95082D02*
X88122Y-190787D01*
X81162Y-183827D01*
X88122Y-176867D01*
X95082Y-183827D01*
D02*
G37*
G36*
X78376D02*
X71416Y-190787D01*
X64456Y-183827D01*
X71416Y-176867D01*
X78376Y-183827D01*
D02*
G37*
G36*
X61672D02*
X54713Y-190787D01*
X47753Y-183827D01*
X54713Y-176867D01*
X61672Y-183827D01*
D02*
G37*
G36*
X44968D02*
X38008Y-190787D01*
Y-176867D01*
X44968Y-183827D01*
D02*
G37*
G36*
X120062Y-192256D02*
X113102Y-199216D01*
X106143Y-192256D01*
X113102Y-185296D01*
X120062Y-192256D01*
D02*
G37*
G36*
X103357D02*
X96398Y-199216D01*
X89438Y-192256D01*
X96398Y-185296D01*
X103357Y-192256D01*
D02*
G37*
G36*
X86653D02*
X79693Y-199216D01*
X72733Y-192256D01*
X79693Y-185296D01*
X86653Y-192256D01*
D02*
G37*
G36*
X69948D02*
X62988Y-199216D01*
X56028Y-192256D01*
X62988Y-185296D01*
X69948Y-192256D01*
D02*
G37*
G36*
X53243D02*
X46284Y-199216D01*
X39324Y-192256D01*
X46284Y-185296D01*
X53243Y-192256D01*
D02*
G37*
G36*
X121531Y-207491D02*
X114572Y-200532D01*
X121531Y-193572D01*
Y-207491D01*
D02*
G37*
G36*
X111786Y-200532D02*
X104827Y-207491D01*
X97867Y-200532D01*
X104827Y-193572D01*
X111786Y-200532D01*
D02*
G37*
G36*
X95082D02*
X88122Y-207491D01*
X81162Y-200532D01*
X88122Y-193572D01*
X95082Y-200532D01*
D02*
G37*
G36*
X78376D02*
X71416Y-207491D01*
X64456Y-200532D01*
X71416Y-193572D01*
X78376Y-200532D01*
D02*
G37*
G36*
X61672D02*
X54713Y-207491D01*
X47753Y-200532D01*
X54713Y-193572D01*
X61672Y-200532D01*
D02*
G37*
G36*
X44968D02*
X38008Y-207491D01*
Y-193572D01*
X44968Y-200532D01*
D02*
G37*
G36*
X120062Y-208961D02*
X113102Y-215920D01*
X106143Y-208961D01*
X113102Y-202001D01*
X120062Y-208961D01*
D02*
G37*
G36*
X103357D02*
X96398Y-215920D01*
X89438Y-208961D01*
X96398Y-202001D01*
X103357Y-208961D01*
D02*
G37*
G36*
X86653D02*
X79693Y-215920D01*
X72733Y-208961D01*
X79693Y-202001D01*
X86653Y-208961D01*
D02*
G37*
G36*
X69948D02*
X62988Y-215920D01*
X56028Y-208961D01*
X62988Y-202001D01*
X69948Y-208961D01*
D02*
G37*
G36*
X53243D02*
X46284Y-215920D01*
X39324Y-208961D01*
X46284Y-202001D01*
X53243Y-208961D01*
D02*
G37*
G36*
X121531Y-224196D02*
X114572Y-217236D01*
X121531Y-210277D01*
Y-224196D01*
D02*
G37*
G36*
X111786Y-217236D02*
X104827Y-224196D01*
X97867Y-217236D01*
X104827Y-210277D01*
X111786Y-217236D01*
D02*
G37*
G36*
X95082D02*
X88122Y-224196D01*
X81162Y-217236D01*
X88122Y-210277D01*
X95082Y-217236D01*
D02*
G37*
G36*
X78376D02*
X71416Y-224196D01*
X64456Y-217236D01*
X71416Y-210277D01*
X78376Y-217236D01*
D02*
G37*
G36*
X61672D02*
X54713Y-224196D01*
X47753Y-217236D01*
X54713Y-210277D01*
X61672Y-217236D01*
D02*
G37*
G36*
X44968D02*
X38008Y-224196D01*
Y-210277D01*
X44968Y-217236D01*
D02*
G37*
G36*
X120062Y-225665D02*
X113102Y-232625D01*
X106143Y-225665D01*
X113102Y-218706D01*
X120062Y-225665D01*
D02*
G37*
G36*
X103357D02*
X96398Y-232625D01*
X89438Y-225665D01*
X96398Y-218706D01*
X103357Y-225665D01*
D02*
G37*
G36*
X86653D02*
X79693Y-232625D01*
X72733Y-225665D01*
X79693Y-218706D01*
X86653Y-225665D01*
D02*
G37*
G36*
X69948D02*
X62988Y-232625D01*
X56028Y-225665D01*
X62988Y-218706D01*
X69948Y-225665D01*
D02*
G37*
G36*
X53243D02*
X46284Y-232625D01*
X39324Y-225665D01*
X46284Y-218706D01*
X53243Y-225665D01*
D02*
G37*
G36*
X121531Y-240901D02*
X114572Y-233941D01*
X121531Y-226981D01*
Y-240901D01*
D02*
G37*
G36*
X111786Y-233941D02*
X104827Y-240901D01*
X97867Y-233941D01*
X104827Y-226981D01*
X111786Y-233941D01*
D02*
G37*
G36*
X95082D02*
X88122Y-240901D01*
X81162Y-233941D01*
X88122Y-226981D01*
X95082Y-233941D01*
D02*
G37*
G36*
X78376D02*
X71416Y-240901D01*
X64456Y-233941D01*
X71416Y-226981D01*
X78376Y-233941D01*
D02*
G37*
G36*
X61672D02*
X54713Y-240901D01*
X47753Y-233941D01*
X54713Y-226981D01*
X61672Y-233941D01*
D02*
G37*
G36*
X44968D02*
X38008Y-240901D01*
Y-226981D01*
X44968Y-233941D01*
D02*
G37*
G36*
X120062Y-242370D02*
X106143D01*
X113102Y-235410D01*
X120062Y-242370D01*
D02*
G37*
G36*
X103357D02*
X89438D01*
X96398Y-235410D01*
X103357Y-242370D01*
D02*
G37*
G36*
X86653D02*
X72733D01*
X79693Y-235410D01*
X86653Y-242370D01*
D02*
G37*
G36*
X69948D02*
X56028D01*
X62988Y-235410D01*
X69948Y-242370D01*
D02*
G37*
G36*
X53243D02*
X39324D01*
X46284Y-235410D01*
X53243Y-242370D01*
D02*
G37*
%LPC*%
G36*
X53000Y27950D02*
X51839Y27836D01*
X50723Y27497D01*
X49694Y26947D01*
X48793Y26207D01*
X48053Y25306D01*
X47503Y24277D01*
X47164Y23161D01*
X47050Y22000D01*
X47164Y20839D01*
X47503Y19723D01*
X48053Y18694D01*
X48793Y17793D01*
X49694Y17053D01*
X50723Y16503D01*
X51839Y16164D01*
X53000Y16050D01*
X54161Y16164D01*
X55277Y16503D01*
X56306Y17053D01*
X57207Y17793D01*
X57947Y18694D01*
X58497Y19723D01*
X58836Y20839D01*
X58950Y22000D01*
X58836Y23161D01*
X58497Y24277D01*
X57947Y25306D01*
X57207Y26207D01*
X56306Y26947D01*
X55277Y27497D01*
X54161Y27836D01*
X53000Y27950D01*
D02*
G37*
G36*
X-45000D02*
X-46161Y27836D01*
X-47277Y27497D01*
X-48306Y26947D01*
X-49207Y26207D01*
X-49947Y25306D01*
X-50497Y24277D01*
X-50836Y23161D01*
X-50950Y22000D01*
X-50836Y20839D01*
X-50497Y19723D01*
X-49947Y18694D01*
X-49207Y17793D01*
X-48306Y17053D01*
X-47277Y16503D01*
X-46161Y16164D01*
X-45000Y16050D01*
X-43839Y16164D01*
X-42723Y16503D01*
X-41694Y17053D01*
X-40793Y17793D01*
X-40053Y18694D01*
X-39503Y19723D01*
X-39164Y20839D01*
X-39050Y22000D01*
X-39164Y23161D01*
X-39503Y24277D01*
X-40053Y25306D01*
X-40793Y26207D01*
X-41694Y26947D01*
X-42723Y27497D01*
X-43839Y27836D01*
X-45000Y27950D01*
D02*
G37*
G36*
X-44500Y11748D02*
X-47756D01*
Y8295D01*
X-44500D01*
Y11748D01*
D02*
G37*
G36*
X-16244D02*
X-19500D01*
Y8295D01*
X-16244D01*
Y11748D01*
D02*
G37*
G36*
X54500Y9020D02*
Y5500D01*
X58020D01*
X57947Y6058D01*
X57539Y7043D01*
X56889Y7889D01*
X56043Y8539D01*
X55058Y8947D01*
X54500Y9020D01*
D02*
G37*
G36*
X53500D02*
X52942Y8947D01*
X51957Y8539D01*
X51111Y7889D01*
X50461Y7043D01*
X50053Y6058D01*
X49980Y5500D01*
X53500D01*
Y9020D01*
D02*
G37*
G36*
X14000Y9086D02*
X12942Y8947D01*
X11957Y8539D01*
X11111Y7889D01*
X10461Y7043D01*
X10065Y6086D01*
X9638Y5801D01*
X8522Y4685D01*
X8074Y4906D01*
X8086Y5000D01*
X7947Y6058D01*
X7539Y7043D01*
X6889Y7889D01*
X6043Y8539D01*
X5058Y8947D01*
X4000Y9086D01*
X2942Y8947D01*
X1957Y8539D01*
X1111Y7889D01*
X461Y7043D01*
X53Y6058D01*
X-86Y5000D01*
X53Y3942D01*
X461Y2957D01*
X1111Y2111D01*
X1251Y2003D01*
X1090Y1529D01*
X-1000D01*
X-1585Y1413D01*
X-2081Y1081D01*
X-2433Y730D01*
X-2500Y743D01*
X-3358Y572D01*
X-4086Y86D01*
X-4572Y-642D01*
X-4743Y-1500D01*
X-4572Y-2358D01*
X-4465Y-2520D01*
X-4700Y-2961D01*
X-9908D01*
X-9958Y-2928D01*
X-10816Y-2757D01*
X-11675Y-2928D01*
X-12403Y-3414D01*
X-12889Y-4142D01*
X-13059Y-5000D01*
X-12889Y-5858D01*
X-12403Y-6586D01*
X-11675Y-7072D01*
X-10816Y-7243D01*
X-9958Y-7072D01*
X-9908Y-7039D01*
X-51D01*
Y-8971D01*
X-51Y-9051D01*
X-246Y-9471D01*
X-26000D01*
X-26585Y-9587D01*
X-27081Y-9919D01*
X-38034Y-20871D01*
X-38366Y-21368D01*
X-38482Y-21953D01*
Y-22702D01*
X-38944Y-22893D01*
X-40215Y-21622D01*
Y-20051D01*
X-40244Y-19903D01*
Y-13842D01*
X-47756D01*
Y-21748D01*
X-43273D01*
Y-22256D01*
X-43157Y-22841D01*
X-42825Y-23337D01*
X-42593Y-23570D01*
X-42785Y-24032D01*
X-46622D01*
Y-29969D01*
X-41079D01*
Y-28529D01*
X-39528D01*
Y-29969D01*
X-38153D01*
X-37917Y-30410D01*
X-38072Y-30642D01*
X-38243Y-31500D01*
X-38072Y-32358D01*
X-37586Y-33086D01*
X-36858Y-33572D01*
X-36000Y-33743D01*
X-35142Y-33572D01*
X-34414Y-33086D01*
X-33928Y-32358D01*
X-33757Y-31500D01*
X-33928Y-30642D01*
X-34378Y-29968D01*
Y-24032D01*
X-35423D01*
Y-22586D01*
X-33059Y-20222D01*
X-32671Y-20541D01*
X-32769Y-20687D01*
X-33072Y-21142D01*
X-33243Y-22000D01*
X-33086Y-22788D01*
Y-24032D01*
X-33622D01*
Y-29969D01*
X-33086D01*
Y-34155D01*
X-35192Y-36261D01*
X-36008D01*
Y-35008D01*
X-43992D01*
Y-37471D01*
X-44953D01*
X-45538Y-37587D01*
X-46034Y-37919D01*
X-49194Y-41079D01*
X-51968D01*
Y-46622D01*
X-46031D01*
Y-42242D01*
X-44492Y-40702D01*
X-43992Y-40909D01*
Y-42992D01*
X-36008D01*
Y-40909D01*
X-35508Y-40702D01*
X-33968Y-42242D01*
Y-45622D01*
X-28682D01*
X-28479Y-45883D01*
X-28702Y-46378D01*
X-30500D01*
Y-48650D01*
X-28032D01*
Y-46839D01*
X-27531Y-46631D01*
X-22230Y-51933D01*
X-22243Y-52000D01*
X-22072Y-52858D01*
X-21586Y-53586D01*
X-20858Y-54072D01*
X-20000Y-54243D01*
X-19142Y-54072D01*
X-18414Y-53586D01*
X-17928Y-52858D01*
X-17822Y-52328D01*
X-17304Y-52286D01*
X-17285Y-52311D01*
Y-54122D01*
X-20633Y-57471D01*
X-21376D01*
X-21414Y-57414D01*
X-22142Y-56928D01*
X-23000Y-56757D01*
X-23858Y-56928D01*
X-24586Y-57414D01*
X-25072Y-58142D01*
X-25243Y-59000D01*
X-25072Y-59858D01*
X-24586Y-60586D01*
X-23858Y-61072D01*
X-23000Y-61243D01*
X-22142Y-61072D01*
X-21414Y-60586D01*
X-21376Y-60529D01*
X-20000D01*
X-19415Y-60413D01*
X-18919Y-60081D01*
X-14674Y-55837D01*
X-14343Y-55341D01*
X-14227Y-54756D01*
Y-50772D01*
X-13378D01*
Y-45228D01*
X-18134D01*
Y-50002D01*
X-18634Y-50267D01*
X-19142Y-49928D01*
X-20000Y-49757D01*
X-20067Y-49770D01*
X-28032Y-41806D01*
Y-40339D01*
X-18724D01*
Y-41500D01*
X-16150D01*
X-13575D01*
Y-40339D01*
X-12425D01*
Y-44575D01*
X-11773D01*
Y-45228D01*
X-12622D01*
Y-50772D01*
X-7866D01*
Y-45228D01*
X-8715D01*
Y-44575D01*
X-7276D01*
Y-40339D01*
X-724D01*
Y-41500D01*
X1850D01*
X4425D01*
Y-40339D01*
X5575D01*
Y-44575D01*
X6227D01*
Y-45228D01*
X5378D01*
Y-50772D01*
X10134D01*
Y-45228D01*
X9285D01*
Y-44575D01*
X10724D01*
Y-40339D01*
X17276D01*
Y-41500D01*
X19850D01*
X22425D01*
Y-40339D01*
X23575D01*
Y-44575D01*
X24620D01*
Y-45228D01*
X23378D01*
Y-48557D01*
X22901Y-48767D01*
X22622Y-48543D01*
Y-45228D01*
X17866D01*
Y-50772D01*
X20459D01*
X21769Y-52081D01*
X22265Y-52413D01*
X22850Y-52529D01*
X24654D01*
X24846Y-52991D01*
X23014Y-54823D01*
X22871Y-54919D01*
X19758Y-58031D01*
X16378D01*
Y-63968D01*
X17620D01*
Y-65031D01*
X16378D01*
Y-70969D01*
X21921D01*
Y-65031D01*
X20679D01*
Y-63968D01*
X21921D01*
Y-60194D01*
X24939Y-57177D01*
X25081Y-57081D01*
X25617Y-56546D01*
X26079Y-56737D01*
Y-60969D01*
X27321D01*
Y-64031D01*
X26079D01*
Y-69968D01*
X31622D01*
Y-64031D01*
X30380D01*
Y-60969D01*
X31622D01*
Y-55032D01*
X30380D01*
Y-52634D01*
X30484Y-52529D01*
X40076D01*
X40114Y-52586D01*
X40842Y-53072D01*
X41700Y-53243D01*
X42558Y-53072D01*
X43286Y-52586D01*
X43324Y-52529D01*
X44079D01*
Y-55471D01*
X42000D01*
X41415Y-55587D01*
X40919Y-55919D01*
X40587Y-56415D01*
X40471Y-57000D01*
X40587Y-57585D01*
X40919Y-58081D01*
X41415Y-58413D01*
X42000Y-58529D01*
X44850D01*
X45436Y-58413D01*
X45932Y-58081D01*
X46045Y-57968D01*
X46350D01*
Y-55000D01*
X46850D01*
Y-54500D01*
X49622D01*
Y-52808D01*
X49855Y-52606D01*
X49901Y-52590D01*
X50378Y-52901D01*
Y-57968D01*
X55921D01*
Y-52031D01*
X54679D01*
Y-49968D01*
X55921D01*
Y-44032D01*
X50378D01*
Y-47740D01*
X50099Y-47964D01*
X49622Y-47754D01*
Y-47500D01*
X46850D01*
Y-47000D01*
X46350D01*
Y-44032D01*
X44079D01*
Y-44032D01*
X43579Y-44130D01*
X43367Y-43919D01*
X42871Y-43587D01*
X42286Y-43471D01*
X42000D01*
X41415Y-43587D01*
X40919Y-43919D01*
X40587Y-44415D01*
X40471Y-45000D01*
X40587Y-45585D01*
X40919Y-46081D01*
X41415Y-46413D01*
X41566Y-46443D01*
X42204Y-47081D01*
X42700Y-47413D01*
X43286Y-47529D01*
X44079D01*
Y-49471D01*
X43324D01*
X43286Y-49414D01*
X42558Y-48928D01*
X42500Y-48916D01*
X30442Y-36858D01*
X29780Y-36416D01*
X29000Y-36261D01*
X-20641D01*
X-20908Y-35761D01*
X-20757Y-35000D01*
X-20770Y-34933D01*
X-16966Y-31129D01*
X-16634Y-30632D01*
X-16518Y-30047D01*
Y-29969D01*
X-15472D01*
Y-24032D01*
X-16518D01*
Y-21748D01*
X-16244D01*
Y-13842D01*
X-23756D01*
Y-21748D01*
X-19577D01*
Y-24032D01*
X-20622D01*
Y-29969D01*
X-20622D01*
X-20478Y-30315D01*
X-22933Y-32770D01*
X-23000Y-32757D01*
X-23858Y-32928D01*
X-24586Y-33414D01*
X-25072Y-34142D01*
X-25243Y-35000D01*
X-25092Y-35761D01*
X-25359Y-36261D01*
X-28905D01*
X-29168Y-35850D01*
X-29159Y-35761D01*
X-29008Y-35000D01*
Y-29969D01*
X-28472D01*
Y-28529D01*
X-26528D01*
Y-29969D01*
X-21378D01*
Y-24032D01*
X-26528D01*
Y-25471D01*
X-28472D01*
Y-24032D01*
X-29008D01*
Y-22979D01*
X-28928Y-22858D01*
X-28757Y-22000D01*
X-28928Y-21142D01*
X-29414Y-20414D01*
X-30142Y-19928D01*
X-31000Y-19757D01*
X-31858Y-19928D01*
X-32313Y-20231D01*
X-32459Y-20329D01*
X-32778Y-19940D01*
X-25367Y-12529D01*
X16366D01*
X24471Y-20633D01*
Y-31376D01*
X24414Y-31414D01*
X23928Y-32142D01*
X23757Y-33000D01*
X23928Y-33858D01*
X24414Y-34586D01*
X25142Y-35072D01*
X26000Y-35243D01*
X26858Y-35072D01*
X27586Y-34586D01*
X28072Y-33858D01*
X28243Y-33000D01*
X28072Y-32142D01*
X27586Y-31414D01*
X27529Y-31376D01*
Y-20000D01*
X27413Y-19415D01*
X27148Y-19018D01*
X27536Y-18699D01*
X29471Y-20633D01*
Y-24876D01*
X29414Y-24914D01*
X28928Y-25642D01*
X28757Y-26500D01*
X28928Y-27358D01*
X29414Y-28086D01*
X30142Y-28572D01*
X31000Y-28743D01*
X31858Y-28572D01*
X32586Y-28086D01*
X33072Y-27358D01*
X33243Y-26500D01*
X33072Y-25642D01*
X32586Y-24914D01*
X32529Y-24876D01*
Y-20000D01*
X32413Y-19415D01*
X32081Y-18919D01*
X22445Y-9282D01*
X22728Y-8858D01*
X22942Y-8947D01*
X24000Y-9086D01*
X25058Y-8947D01*
X26043Y-8539D01*
X26231Y-8394D01*
X35471Y-17634D01*
Y-24876D01*
X35414Y-24914D01*
X34928Y-25642D01*
X34757Y-26500D01*
X34928Y-27358D01*
X35414Y-28086D01*
X36142Y-28572D01*
X37000Y-28743D01*
X37858Y-28572D01*
X38586Y-28086D01*
X39072Y-27358D01*
X39243Y-26500D01*
X39072Y-25642D01*
X38586Y-24914D01*
X38529Y-24876D01*
Y-17000D01*
X38413Y-16415D01*
X38081Y-15919D01*
X27979Y-5816D01*
X28086Y-5000D01*
X27947Y-3942D01*
X27539Y-2957D01*
X26889Y-2111D01*
X26043Y-1461D01*
X25058Y-1053D01*
X24000Y-914D01*
X22942Y-1053D01*
X21957Y-1461D01*
X21111Y-2111D01*
X20461Y-2957D01*
X20053Y-3942D01*
X19914Y-5000D01*
X20053Y-6058D01*
X20142Y-6272D01*
X19718Y-6555D01*
X18075Y-4912D01*
X17947Y-3942D01*
X17539Y-2957D01*
X16889Y-2111D01*
X16043Y-1461D01*
X15058Y-1053D01*
X14000Y-914D01*
X12942Y-1053D01*
X11957Y-1461D01*
X11111Y-2111D01*
X10461Y-2957D01*
X10053Y-3942D01*
X9914Y-5000D01*
X10053Y-6058D01*
X10461Y-7043D01*
X11111Y-7889D01*
X11957Y-8539D01*
X12942Y-8947D01*
X13122Y-8971D01*
X13090Y-9471D01*
X8246D01*
X8051Y-9051D01*
X8051Y-8971D01*
Y-949D01*
X7867D01*
X7676Y-487D01*
X10479Y2316D01*
X10978Y2283D01*
X11111Y2111D01*
X11957Y1461D01*
X12942Y1053D01*
X14000Y914D01*
X15058Y1053D01*
X16043Y1461D01*
X16889Y2111D01*
X17539Y2957D01*
X17947Y3942D01*
X18086Y5000D01*
X17947Y6058D01*
X17539Y7043D01*
X16889Y7889D01*
X16043Y8539D01*
X15058Y8947D01*
X14000Y9086D01*
D02*
G37*
G36*
X-16244Y7295D02*
X-19500D01*
Y3842D01*
X-16244D01*
Y7295D01*
D02*
G37*
G36*
X-20500Y11748D02*
X-23756D01*
Y10529D01*
X-30000D01*
X-30585Y10413D01*
X-31081Y10081D01*
X-31413Y9585D01*
X-31529Y9000D01*
X-31413Y8415D01*
X-31081Y7919D01*
X-30585Y7587D01*
X-30000Y7471D01*
X-23756D01*
Y3842D01*
X-20500D01*
Y7795D01*
Y11748D01*
D02*
G37*
G36*
X-40244D02*
X-43500D01*
Y7795D01*
Y3842D01*
X-40244D01*
Y7471D01*
X-37000D01*
X-36415Y7587D01*
X-35919Y7919D01*
X-35587Y8415D01*
X-35471Y9000D01*
X-35587Y9585D01*
X-35919Y10081D01*
X-36415Y10413D01*
X-37000Y10529D01*
X-40244D01*
Y11748D01*
D02*
G37*
G36*
X-44500Y7295D02*
X-47756D01*
Y3842D01*
X-44500D01*
Y7295D01*
D02*
G37*
G36*
X58020Y4500D02*
X54500D01*
Y980D01*
X55058Y1053D01*
X56043Y1461D01*
X56889Y2111D01*
X57539Y2957D01*
X57947Y3942D01*
X58020Y4500D01*
D02*
G37*
G36*
X53500D02*
X49980D01*
X50053Y3942D01*
X50461Y2957D01*
X51111Y2111D01*
X51957Y1461D01*
X52942Y1053D01*
X53500Y980D01*
Y4500D01*
D02*
G37*
G36*
X44000Y9086D02*
X42942Y8947D01*
X41957Y8539D01*
X41111Y7889D01*
X40461Y7043D01*
X40053Y6058D01*
X39914Y5000D01*
X40053Y3942D01*
X40461Y2957D01*
X41111Y2111D01*
X41957Y1461D01*
X42942Y1053D01*
X44000Y914D01*
X45058Y1053D01*
X46043Y1461D01*
X46889Y2111D01*
X47539Y2957D01*
X47947Y3942D01*
X48086Y5000D01*
X47947Y6058D01*
X47539Y7043D01*
X46889Y7889D01*
X46043Y8539D01*
X45058Y8947D01*
X44000Y9086D01*
D02*
G37*
G36*
X34000D02*
X32942Y8947D01*
X31957Y8539D01*
X31111Y7889D01*
X30461Y7043D01*
X30053Y6058D01*
X29914Y5000D01*
X30053Y3942D01*
X30461Y2957D01*
X31111Y2111D01*
X31957Y1461D01*
X32942Y1053D01*
X34000Y914D01*
X35058Y1053D01*
X36043Y1461D01*
X36889Y2111D01*
X37539Y2957D01*
X37947Y3942D01*
X38086Y5000D01*
X37947Y6058D01*
X37539Y7043D01*
X36889Y7889D01*
X36043Y8539D01*
X35058Y8947D01*
X34000Y9086D01*
D02*
G37*
G36*
X24000D02*
X22942Y8947D01*
X21957Y8539D01*
X21111Y7889D01*
X20461Y7043D01*
X20053Y6058D01*
X19914Y5000D01*
X20053Y3942D01*
X20461Y2957D01*
X21111Y2111D01*
X21957Y1461D01*
X22942Y1053D01*
X24000Y914D01*
X25058Y1053D01*
X26043Y1461D01*
X26889Y2111D01*
X27539Y2957D01*
X27947Y3942D01*
X28086Y5000D01*
X27947Y6058D01*
X27539Y7043D01*
X26889Y7889D01*
X26043Y8539D01*
X25058Y8947D01*
X24000Y9086D01*
D02*
G37*
G36*
X54000Y-914D02*
X52942Y-1053D01*
X51957Y-1461D01*
X51111Y-2111D01*
X50461Y-2957D01*
X50053Y-3942D01*
X49914Y-5000D01*
X50053Y-6058D01*
X50461Y-7043D01*
X51111Y-7889D01*
X51957Y-8539D01*
X52942Y-8947D01*
X54000Y-9086D01*
X55058Y-8947D01*
X56043Y-8539D01*
X56889Y-7889D01*
X57539Y-7043D01*
X57947Y-6058D01*
X58086Y-5000D01*
X57947Y-3942D01*
X57539Y-2957D01*
X56889Y-2111D01*
X56043Y-1461D01*
X55058Y-1053D01*
X54000Y-914D01*
D02*
G37*
G36*
X44000D02*
X42942Y-1053D01*
X41957Y-1461D01*
X41111Y-2111D01*
X40461Y-2957D01*
X40053Y-3942D01*
X39914Y-5000D01*
X40053Y-6058D01*
X40461Y-7043D01*
X41111Y-7889D01*
X41957Y-8539D01*
X42942Y-8947D01*
X44000Y-9086D01*
X45058Y-8947D01*
X46043Y-8539D01*
X46889Y-7889D01*
X47539Y-7043D01*
X47947Y-6058D01*
X48086Y-5000D01*
X47947Y-3942D01*
X47539Y-2957D01*
X46889Y-2111D01*
X46043Y-1461D01*
X45058Y-1053D01*
X44000Y-914D01*
D02*
G37*
G36*
X34000D02*
X32942Y-1053D01*
X31957Y-1461D01*
X31111Y-2111D01*
X30461Y-2957D01*
X30053Y-3942D01*
X29914Y-5000D01*
X30053Y-6058D01*
X30461Y-7043D01*
X31111Y-7889D01*
X31957Y-8539D01*
X32942Y-8947D01*
X34000Y-9086D01*
X35058Y-8947D01*
X36043Y-8539D01*
X36889Y-7889D01*
X37539Y-7043D01*
X37947Y-6058D01*
X38086Y-5000D01*
X37947Y-3942D01*
X37539Y-2957D01*
X36889Y-2111D01*
X36043Y-1461D01*
X35058Y-1053D01*
X34000Y-914D01*
D02*
G37*
G36*
X-47378Y-24032D02*
X-49650D01*
Y-26500D01*
X-47378D01*
Y-24032D01*
D02*
G37*
G36*
X-50650D02*
X-52921D01*
Y-26500D01*
X-50650D01*
Y-24032D01*
D02*
G37*
G36*
X-47378Y-27500D02*
X-49650D01*
Y-29969D01*
X-47378D01*
Y-27500D01*
D02*
G37*
G36*
X-50650D02*
X-52921D01*
Y-29969D01*
X-50650D01*
Y-27500D01*
D02*
G37*
G36*
X22425Y-42500D02*
X20350D01*
Y-44575D01*
X22425D01*
Y-42500D01*
D02*
G37*
G36*
X19350D02*
X17276D01*
Y-44575D01*
X19350D01*
Y-42500D01*
D02*
G37*
G36*
X4425D02*
X2350D01*
Y-44575D01*
X4425D01*
Y-42500D01*
D02*
G37*
G36*
X1350D02*
X-724D01*
Y-44575D01*
X1350D01*
Y-42500D01*
D02*
G37*
G36*
X-13575D02*
X-15650D01*
Y-44575D01*
X-13575D01*
Y-42500D01*
D02*
G37*
G36*
X-16650D02*
X-18724D01*
Y-44575D01*
X-16650D01*
Y-42500D01*
D02*
G37*
G36*
X49622Y-44032D02*
X47350D01*
Y-46500D01*
X49622D01*
Y-44032D01*
D02*
G37*
G36*
X-39500Y-45039D02*
Y-48500D01*
X-36039D01*
X-36111Y-47958D01*
X-36513Y-46987D01*
X-37153Y-46153D01*
X-37987Y-45513D01*
X-38958Y-45111D01*
X-39500Y-45039D01*
D02*
G37*
G36*
X-40500D02*
X-41042Y-45111D01*
X-42013Y-45513D01*
X-42847Y-46153D01*
X-43487Y-46987D01*
X-43889Y-47958D01*
X-43961Y-48500D01*
X-40500D01*
Y-45039D01*
D02*
G37*
G36*
X-31500Y-46378D02*
X-33968D01*
Y-48650D01*
X-31500D01*
Y-46378D01*
D02*
G37*
G36*
X-46031Y-47378D02*
X-48500D01*
Y-49650D01*
X-46031D01*
Y-47378D01*
D02*
G37*
G36*
X-49500D02*
X-51968D01*
Y-49650D01*
X-49500D01*
Y-47378D01*
D02*
G37*
G36*
X-28032Y-49650D02*
X-30500D01*
Y-51921D01*
X-28032D01*
Y-49650D01*
D02*
G37*
G36*
X-31500D02*
X-33968D01*
Y-51921D01*
X-31500D01*
Y-49650D01*
D02*
G37*
G36*
X-46031Y-50650D02*
X-48500D01*
Y-52921D01*
X-46031D01*
Y-50650D01*
D02*
G37*
G36*
X-49500D02*
X-51968D01*
Y-52921D01*
X-49500D01*
Y-50650D01*
D02*
G37*
G36*
X-36039Y-49500D02*
X-39500D01*
Y-52961D01*
X-38958Y-52889D01*
X-37987Y-52487D01*
X-37153Y-51847D01*
X-36513Y-51013D01*
X-36111Y-50042D01*
X-36039Y-49500D01*
D02*
G37*
G36*
X-40500D02*
X-43961D01*
X-43889Y-50042D01*
X-43487Y-51013D01*
X-42847Y-51847D01*
X-42013Y-52487D01*
X-41042Y-52889D01*
X-40500Y-52961D01*
Y-49500D01*
D02*
G37*
G36*
X37921Y-55032D02*
X35650D01*
Y-57500D01*
X37921D01*
Y-55032D01*
D02*
G37*
G36*
X34650D02*
X32378D01*
Y-57500D01*
X34650D01*
Y-55032D01*
D02*
G37*
G36*
X49622Y-55500D02*
X47350D01*
Y-57968D01*
X49622D01*
Y-55500D01*
D02*
G37*
G36*
X15622Y-58031D02*
X13350D01*
Y-60500D01*
X15622D01*
Y-58031D01*
D02*
G37*
G36*
X37921Y-58500D02*
X35650D01*
Y-60969D01*
X37921D01*
Y-58500D01*
D02*
G37*
G36*
X34650D02*
X32378D01*
Y-60969D01*
X34650D01*
Y-58500D01*
D02*
G37*
G36*
X4622Y-45228D02*
X-134D01*
Y-50772D01*
X715D01*
Y-56814D01*
X142Y-56928D01*
X-586Y-57414D01*
X-1072Y-58142D01*
X-1243Y-59000D01*
X-1072Y-59858D01*
X-586Y-60586D01*
X142Y-61072D01*
X1000Y-61243D01*
X1858Y-61072D01*
X2586Y-60586D01*
X3072Y-59858D01*
X3243Y-59000D01*
X3203Y-58798D01*
X3325Y-58675D01*
X3657Y-58179D01*
X3774Y-57594D01*
Y-50772D01*
X4622D01*
Y-45228D01*
D02*
G37*
G36*
X-40000Y-54973D02*
X-41042Y-55111D01*
X-42013Y-55513D01*
X-42847Y-56153D01*
X-43487Y-56987D01*
X-43889Y-57958D01*
X-44027Y-59000D01*
X-43889Y-60042D01*
X-43487Y-61013D01*
X-42847Y-61847D01*
X-42013Y-62487D01*
X-41042Y-62889D01*
X-40000Y-63027D01*
X-38958Y-62889D01*
X-37987Y-62487D01*
X-37153Y-61847D01*
X-36513Y-61013D01*
X-36111Y-60042D01*
X-35973Y-59000D01*
X-36111Y-57958D01*
X-36513Y-56987D01*
X-37153Y-56153D01*
X-37987Y-55513D01*
X-38958Y-55111D01*
X-40000Y-54973D01*
D02*
G37*
G36*
X15622Y-61500D02*
X13350D01*
Y-63968D01*
X15622D01*
Y-61500D01*
D02*
G37*
G36*
X12350Y-58031D02*
X10079D01*
Y-59844D01*
X9626D01*
X9041Y-59961D01*
X8545Y-60292D01*
X6919Y-61919D01*
X6587Y-62415D01*
X6471Y-63000D01*
X6587Y-63585D01*
X6919Y-64081D01*
X7415Y-64413D01*
X8000Y-64529D01*
X8585Y-64413D01*
X9081Y-64081D01*
X9617Y-63546D01*
X10079Y-63737D01*
Y-63968D01*
X12350D01*
Y-61000D01*
Y-58031D01*
D02*
G37*
G36*
X37921Y-64031D02*
X35650D01*
Y-66500D01*
X37921D01*
Y-64031D01*
D02*
G37*
G36*
X34650D02*
X32378D01*
Y-66500D01*
X34650D01*
Y-64031D01*
D02*
G37*
G36*
X15622Y-65031D02*
X13350D01*
Y-67500D01*
X15622D01*
Y-65031D01*
D02*
G37*
G36*
X37921Y-67500D02*
X35650D01*
Y-69968D01*
X37921D01*
Y-67500D01*
D02*
G37*
G36*
X34650D02*
X32378D01*
Y-69968D01*
X34650D01*
Y-67500D01*
D02*
G37*
G36*
X15622Y-68500D02*
X13350D01*
Y-70969D01*
X15622D01*
Y-68500D01*
D02*
G37*
G36*
X12350Y-65031D02*
X10079D01*
Y-66471D01*
X8000D01*
X7415Y-66587D01*
X6919Y-66919D01*
X6587Y-67415D01*
X6471Y-68000D01*
X6587Y-68585D01*
X6919Y-69081D01*
X7415Y-69413D01*
X8000Y-69529D01*
X10079D01*
Y-70969D01*
X12350D01*
Y-68000D01*
Y-65031D01*
D02*
G37*
G36*
X-40000Y-64973D02*
X-41042Y-65111D01*
X-42013Y-65513D01*
X-42847Y-66153D01*
X-43487Y-66987D01*
X-43889Y-67958D01*
X-44027Y-69000D01*
X-43889Y-70042D01*
X-43487Y-71013D01*
X-42847Y-71847D01*
X-42013Y-72487D01*
X-41042Y-72889D01*
X-40000Y-73027D01*
X-38958Y-72889D01*
X-37987Y-72487D01*
X-37153Y-71847D01*
X-36513Y-71013D01*
X-36111Y-70042D01*
X-35973Y-69000D01*
X-36111Y-67958D01*
X-36513Y-66987D01*
X-37153Y-66153D01*
X-37987Y-65513D01*
X-38958Y-65111D01*
X-40000Y-64973D01*
D02*
G37*
G36*
Y-74973D02*
X-41042Y-75111D01*
X-42013Y-75513D01*
X-42847Y-76153D01*
X-43487Y-76987D01*
X-43889Y-77958D01*
X-44027Y-79000D01*
X-43889Y-80042D01*
X-43487Y-81013D01*
X-42847Y-81847D01*
X-42013Y-82487D01*
X-41042Y-82889D01*
X-40000Y-83027D01*
X-38958Y-82889D01*
X-37987Y-82487D01*
X-37153Y-81847D01*
X-36513Y-81013D01*
X-36111Y-80042D01*
X-35973Y-79000D01*
X-36111Y-77958D01*
X-36513Y-76987D01*
X-37153Y-76153D01*
X-37987Y-75513D01*
X-38958Y-75111D01*
X-40000Y-74973D01*
D02*
G37*
G36*
X85992Y-86008D02*
X82500D01*
Y-89500D01*
X85992D01*
Y-86008D01*
D02*
G37*
G36*
X72500Y-86039D02*
Y-89500D01*
X75961D01*
X75889Y-88958D01*
X75487Y-87987D01*
X74847Y-87153D01*
X74013Y-86513D01*
X73042Y-86111D01*
X72500Y-86039D01*
D02*
G37*
G36*
X71500D02*
X70958Y-86111D01*
X69987Y-86513D01*
X69153Y-87153D01*
X68513Y-87987D01*
X68111Y-88958D01*
X68039Y-89500D01*
X71500D01*
Y-86039D01*
D02*
G37*
G36*
X81500Y-86008D02*
X78008D01*
Y-89500D01*
X81500D01*
Y-86008D01*
D02*
G37*
G36*
X75961Y-90500D02*
X72500D01*
Y-93961D01*
X73042Y-93889D01*
X74013Y-93487D01*
X74847Y-92847D01*
X75487Y-92013D01*
X75889Y-91042D01*
X75961Y-90500D01*
D02*
G37*
G36*
X71500D02*
X68039D01*
X68111Y-91042D01*
X68513Y-92013D01*
X69153Y-92847D01*
X69987Y-93487D01*
X70958Y-93889D01*
X71500Y-93961D01*
Y-90500D01*
D02*
G37*
G36*
X85992D02*
X82500D01*
Y-93992D01*
X85992D01*
Y-90500D01*
D02*
G37*
G36*
X81500D02*
X78008D01*
Y-93992D01*
X81500D01*
Y-90500D01*
D02*
G37*
%LPD*%
G36*
X36825Y-49009D02*
X36634Y-49471D01*
X28134D01*
Y-45228D01*
X27679D01*
Y-44575D01*
X28724D01*
Y-41561D01*
X29186Y-41370D01*
X36825Y-49009D01*
D02*
G37*
D25*
X40000Y-14000D02*
D03*
X42000Y-45000D02*
D03*
Y-57000D02*
D03*
X31000Y-26500D02*
D03*
X26000Y-33000D02*
D03*
X37000Y-26500D02*
D03*
X60000Y-64000D02*
D03*
X-23000Y-59000D02*
D03*
X-36000Y-31500D02*
D03*
X-31000Y-22000D02*
D03*
X-23000Y-35000D02*
D03*
X-30000Y-95000D02*
D03*
Y-85000D02*
D03*
Y-75000D02*
D03*
Y-66000D02*
D03*
Y-55000D02*
D03*
X-37000Y9000D02*
D03*
X-30000D02*
D03*
X-50000Y-39000D02*
D03*
Y-32000D02*
D03*
Y-79000D02*
D03*
Y-70000D02*
D03*
Y-61000D02*
D03*
Y-20000D02*
D03*
X-30000Y-10000D02*
D03*
X-40000D02*
D03*
X-50000D02*
D03*
X-30000Y0D02*
D03*
X-40000D02*
D03*
X-50000D02*
D03*
X-20000D02*
D03*
X-10000D02*
D03*
X60000D02*
D03*
Y10000D02*
D03*
X50000D02*
D03*
X-10000D02*
D03*
X0D02*
D03*
X40000D02*
D03*
X30000D02*
D03*
X20000D02*
D03*
X10000D02*
D03*
Y0D02*
D03*
X20000D02*
D03*
X30000D02*
D03*
X40000D02*
D03*
X50000D02*
D03*
X90000Y-84000D02*
D03*
X80000Y-74000D02*
D03*
Y-84000D02*
D03*
X70000Y-64000D02*
D03*
Y-74000D02*
D03*
Y-84000D02*
D03*
X60000D02*
D03*
Y-74000D02*
D03*
Y-54000D02*
D03*
Y-44000D02*
D03*
Y-34000D02*
D03*
Y-24000D02*
D03*
X-10816Y-5000D02*
D03*
X-11000Y-14000D02*
D03*
X10000D02*
D03*
X60000D02*
D03*
X50000D02*
D03*
X-2500Y-1500D02*
D03*
X1000Y-59000D02*
D03*
X-20000Y-52000D02*
D03*
X8000Y-63000D02*
D03*
Y-68000D02*
D03*
X41700Y-51000D02*
D03*
D27*
X28850Y-58000D02*
D03*
X35150D02*
D03*
X12850Y-61000D02*
D03*
X19150D02*
D03*
X12850Y-68000D02*
D03*
X19150D02*
D03*
X28850Y-67000D02*
D03*
X35150D02*
D03*
X46850Y-55000D02*
D03*
X53150D02*
D03*
X-50150Y-27000D02*
D03*
X-43850D02*
D03*
X46850Y-47000D02*
D03*
X53150D02*
D03*
D28*
X-36953Y-27000D02*
D03*
X-31047D02*
D03*
X-18047D02*
D03*
X-23953D02*
D03*
D29*
X-44000Y7795D02*
D03*
Y-17795D02*
D03*
X-20000Y7795D02*
D03*
Y-17795D02*
D03*
D30*
X-31000Y-49150D02*
D03*
Y-42850D02*
D03*
X-49000Y-43850D02*
D03*
Y-50150D02*
D03*
D31*
X8150Y-42000D02*
D03*
X1850D02*
D03*
X-9850D02*
D03*
X-16150D02*
D03*
X26150D02*
D03*
X19850D02*
D03*
D32*
X-10244Y-48000D02*
D03*
X-15756D02*
D03*
X7756D02*
D03*
X2244D02*
D03*
X20244D02*
D03*
X25756D02*
D03*
D33*
X-38000Y-27000D02*
Y-26000D01*
Y-27000D02*
X-36953D01*
X-43850D02*
X-38000D01*
X45850Y-46000D02*
X46850Y-47000D01*
X43286Y-46000D02*
X45850D01*
X42286Y-45000D02*
X43286Y-46000D01*
X42000Y-45000D02*
X42286D01*
X42000Y-57000D02*
X44850D01*
X31000Y-26200D02*
Y-20000D01*
X16000Y-5000D02*
X31000Y-20000D01*
X26000Y-33000D02*
Y-20000D01*
X25000Y-5000D02*
X37000Y-17000D01*
Y-25644D02*
Y-17000D01*
X14000Y-5000D02*
X16000D01*
X-23000Y-59000D02*
X-20000D01*
X-15756Y-54756D01*
Y-48000D01*
X-36000Y-31500D02*
Y-27953D01*
X-36953Y-21953D02*
X-26000Y-11000D01*
X17000D01*
X-36953Y-27000D02*
Y-21953D01*
Y-27000D02*
X-36000Y-27953D01*
X-31000Y-22000D02*
X-31000Y-22000D01*
X-18047Y-30047D02*
Y-27000D01*
Y-19748D01*
X-23000Y-35000D02*
X-18047Y-30047D01*
X-42795Y9000D02*
X-37000D01*
X-44000Y7795D02*
X-42795Y9000D01*
X-21205D02*
X-20000Y7795D01*
X-30000Y9000D02*
X-21205D01*
X-48803Y-42850D02*
X-44953Y-39000D01*
X-40000D01*
X-1000Y0D02*
X6000D01*
X10720Y4720D01*
X13720D01*
X17000Y-11000D02*
X26000Y-20000D01*
X24000Y-5000D02*
X25000D01*
X-2500Y-1500D02*
X-1000Y0D01*
X13720Y4720D02*
X14000Y5000D01*
X-35047Y-39000D02*
X-31197Y-42850D01*
X-35047Y-39000D02*
X-34347Y-38300D01*
X53150Y-55000D02*
Y-47197D01*
X41700Y-51000D02*
X49346D01*
X53150Y-47197D01*
Y-47000D01*
X44850Y-57000D02*
X46850Y-55000D01*
X-31000Y-42850D02*
X-29150D01*
X-20000Y-52000D01*
X-31047Y-27000D02*
X-23953D01*
X29000Y-51000D02*
X29850D01*
X28850Y-58000D02*
Y-52000D01*
X24000Y-56000D02*
X29000Y-51000D01*
X22850D02*
X29000D01*
X28850Y-52000D02*
X29850Y-51000D01*
X41700D01*
X20244Y-48394D02*
X22850Y-51000D01*
X20244Y-48394D02*
Y-48000D01*
X1000Y-59000D02*
Y-58838D01*
X2244Y-57594D01*
Y-48000D01*
X7756Y-42394D02*
X8150Y-42000D01*
X7756Y-48000D02*
Y-42394D01*
X-10244D02*
X-9850Y-42000D01*
X-10244Y-48000D02*
Y-42394D01*
X-20000Y-17795D02*
X-18047Y-19748D01*
X28850Y-67000D02*
Y-58000D01*
X23953Y-56000D02*
X24000D01*
X19150Y-60803D02*
X23953Y-56000D01*
X19150Y-61000D02*
Y-60803D01*
Y-68000D02*
Y-61000D01*
X-49000Y-42850D02*
X-48803D01*
X-31197D02*
X-31000D01*
X-41744Y-22256D02*
Y-20051D01*
Y-22256D02*
X-38000Y-26000D01*
X54000Y5000D02*
X54885Y4115D01*
X-44000Y-17795D02*
X-41744Y-20051D01*
X26150Y-46606D02*
Y-42000D01*
X8000Y-63000D02*
X9626Y-61374D01*
X12477D01*
X12850Y-61000D01*
X8000Y-68000D02*
X12850D01*
D34*
X-10816Y-5000D02*
X4000D01*
X-31047Y-22047D02*
X-31000Y-22000D01*
X-31047Y-27000D02*
Y-22047D01*
X-39300Y-38300D02*
X-34347D01*
X-40000Y-39000D02*
X-39300Y-38300D01*
X-34347D02*
X-31047Y-35000D01*
X-34347Y-38300D02*
X29000D01*
X41700Y-51000D01*
X-31047Y-35000D02*
Y-27000D01*
D35*
X39283Y-217314D02*
X116284D01*
X39283Y-150574D02*
X116284D01*
X39283Y-117322D02*
X116284D01*
X39283Y-133948D02*
X116284D01*
X39283Y-167200D02*
X116284D01*
X39283Y-183904D02*
X116284D01*
X39283Y-200609D02*
X116284D01*
X39283Y-234018D02*
X116284D01*
D36*
X-45000Y22000D02*
D03*
X53000D02*
D03*
D37*
X72000Y-90000D02*
D03*
X-40000Y-79000D02*
D03*
Y-69000D02*
D03*
Y-59000D02*
D03*
Y-49000D02*
D03*
D38*
X82000Y-90000D02*
D03*
D39*
X4000Y-5000D02*
D03*
D40*
X14000D02*
D03*
X24000D02*
D03*
X34000D02*
D03*
X44000D02*
D03*
X54000D02*
D03*
X4000Y5000D02*
D03*
X14000D02*
D03*
X24000D02*
D03*
X34000D02*
D03*
X44000D02*
D03*
X54000D02*
D03*
D41*
X-40000Y-39000D02*
D03*
D42*
X38100Y-72000D02*
D03*
X46284Y-204236D02*
D03*
X9000Y-90000D02*
D03*
X10000Y-94000D02*
D03*
X14000D02*
D03*
X6800Y-86700D02*
D03*
X17000Y-92000D02*
D03*
X19600Y-89200D02*
D03*
X23000Y-87000D02*
D03*
X45500Y-72000D02*
D03*
X47200Y-62200D02*
D03*
X44000Y-64000D02*
D03*
X42000Y-72000D02*
D03*
X39283Y-217314D02*
D03*
Y-150574D02*
D03*
Y-167200D02*
D03*
X46284Y-120949D02*
D03*
X62988D02*
D03*
X113102D02*
D03*
X96398D02*
D03*
X79693D02*
D03*
X62989Y-110634D02*
D03*
X113103D02*
D03*
X96399D02*
D03*
X79694D02*
D03*
X46284D02*
D03*
X79694Y-180276D02*
D03*
X96399D02*
D03*
X113103D02*
D03*
X113102Y-170827D02*
D03*
X39283Y-117322D02*
D03*
X96399Y-130398D02*
D03*
X46284D02*
D03*
X62989D02*
D03*
X79694D02*
D03*
X113103D02*
D03*
X46284Y-137575D02*
D03*
X62988D02*
D03*
X113102D02*
D03*
X96398D02*
D03*
X79693D02*
D03*
X39283Y-133948D02*
D03*
X96399Y-147024D02*
D03*
X46284D02*
D03*
X62989D02*
D03*
X79694D02*
D03*
X113103D02*
D03*
X46284Y-154201D02*
D03*
X62988D02*
D03*
X113102D02*
D03*
X96398D02*
D03*
X79693D02*
D03*
X96399Y-163650D02*
D03*
X46284D02*
D03*
X62989D02*
D03*
X79694D02*
D03*
X113103D02*
D03*
X62988Y-170827D02*
D03*
X96398D02*
D03*
X79693D02*
D03*
X46284Y-180276D02*
D03*
X113102Y-187531D02*
D03*
X96398D02*
D03*
X79693D02*
D03*
X62989Y-180276D02*
D03*
X62988Y-187531D02*
D03*
X113103Y-196980D02*
D03*
X113102Y-204236D02*
D03*
X96399Y-196980D02*
D03*
X96398Y-204236D02*
D03*
X79693D02*
D03*
X62989Y-196980D02*
D03*
X62988Y-204236D02*
D03*
X46284Y-196980D02*
D03*
X113103Y-213685D02*
D03*
X113102Y-220941D02*
D03*
X96399Y-213685D02*
D03*
X96398Y-220941D02*
D03*
X79694Y-213685D02*
D03*
X79693Y-220941D02*
D03*
X62989Y-213685D02*
D03*
X62988Y-220941D02*
D03*
X46284D02*
D03*
X46284Y-213685D02*
D03*
X113103Y-230390D02*
D03*
X113102Y-237646D02*
D03*
X96399Y-230390D02*
D03*
X96398Y-237646D02*
D03*
X79694Y-230390D02*
D03*
X79693Y-237646D02*
D03*
X62989Y-230390D02*
D03*
X62988Y-237646D02*
D03*
X46284D02*
D03*
X46284Y-230390D02*
D03*
X79694Y-196980D02*
D03*
X46284Y-187531D02*
D03*
X39283Y-183904D02*
D03*
Y-200609D02*
D03*
Y-234018D02*
D03*
X46284Y-170827D02*
D03*
M02*
