M48
;Layer_Color=9474304
;FILE_FORMAT=2:5
INCH,LZ
;TYPE=PLATED
T1F00S00C0.00800
T2F00S00C0.01200
T3F00S00C0.04016
T4F00S00C0.09843
%
T01
X0113102Y-0237646
X0113103Y-023039
X0113102Y-0220941
X0113103Y-0213685
X0113102Y-0204236
X0113103Y-019698
X0113102Y-0187531
X0113103Y-0180276
X0113102Y-0170827
X0113103Y-016365
X0113102Y-0154201
X0113103Y-0147024
X0113102Y-0137575
X0113103Y-0130398
X0113102Y-0120949
X0113103Y-0110634
X0096399
X0096398Y-0120949
X0096399Y-0130398
X0096398Y-0137575
X0096399Y-0147024
X0096398Y-0154201
X0096399Y-016365
X0096398Y-0170827
X0096399Y-0180276
X0096398Y-0187531
X0096399Y-019698
X0096398Y-0204236
X0096399Y-0213685
X0096398Y-0220941
X0096399Y-023039
X0096398Y-0237646
X0079693
X0079694Y-023039
X0079693Y-0220941
X0079694Y-0213685
X0079693Y-0204236
X0079694Y-019698
X0079693Y-0187531
X0079694Y-0180276
X0079693Y-0170827
X0079694Y-016365
X0079693Y-0154201
X0079694Y-0147024
X0079693Y-0137575
X0079694Y-0130398
X0079693Y-0120949
X0079694Y-0110634
X0062989
X0062988Y-0120949
X0062989Y-0130398
X0062988Y-0137575
X0062989Y-0147024
X0062988Y-0154201
X0062989Y-016365
X0062988Y-0170827
X0062989Y-0180276
X0062988Y-0187531
X0062989Y-019698
X0062988Y-0204236
X0062989Y-0213685
X0062988Y-0220941
X0062989Y-023039
X0062988Y-0237646
X0046284
X0046284Y-023039
X0046284Y-0220941
X0046284Y-0213685
X0046284Y-0204236
X0046284Y-019698
X0046284Y-0187531
X0046284Y-0180276
X0046284Y-0170827
X0046284Y-016365
X0046284Y-0154201
X0046284Y-0147024
X0046284Y-0137575
X0046284Y-0130398
X0046284Y-0120949
X0046284Y-0110634
X0039283Y-0117322
Y-0133948
Y-0150574
Y-01672
Y-0183904
Y-0200609
Y-0217314
Y-0234018
X0014Y-0094
X001
X0009Y-009
X00068Y-00867
X00196Y-00892
X0017Y-0092
X0023Y-0087
X00381Y-0072
X0042
X00455
X0044Y-0064
X00472Y-00622
T02
X-003Y-0095
X-005Y-0079
Y-007
Y-0061
Y-0039
Y-0032
Y-002
Y-001
Y0
X-004
Y-001
X-003
Y0
Y0009
X-0037
X-002Y0
X-001
X-0010816Y-0005
X-0011Y-0014
X001
Y0
Y001
X0
X-001
X-00025Y-00015
X002Y0
Y001
X003
X004
X005
X006
Y0
X005
X004
X003
X004Y-0014
X005
X006
Y-0024
Y-0034
Y-0044
Y-0054
Y-0064
X007
Y-0074
X008
Y-0084
X009
X007
X006
Y-0074
X0042Y-0057
X00417Y-0051
X0042Y-0045
X0037Y-00265
X0031
X0026Y-0033
X0008Y-0063
Y-0068
X0001Y-0059
X-0023
X-002Y-0052
X-003Y-0055
Y-0066
Y-0075
Y-0085
X-0023Y-0035
X-0036Y-00315
X-0031Y-0022
T03
X-004Y-0079
Y-0069
Y-0059
Y-0049
Y-0039
X0004Y-0005
X0014
X0024
X0034
X0044
X0054
Y0005
X0044
X0034
X0024
X0014
X0004
X0072Y-009
X0082
T04
X-0045Y0022
X0053
M30
