G04*
G04 #@! TF.GenerationSoftware,Altium Limited,Altium Designer,20.0.14 (345)*
G04*
G04 Layer_Physical_Order=2*
G04 Layer_Color=16711680*
%FSLAX25Y25*%
%MOIN*%
G70*
G01*
G75*
%ADD25C,0.02400*%
%ADD27R,0.03543X0.03937*%
%ADD30R,0.03937X0.03543*%
%ADD33C,0.01000*%
%ADD34C,0.02000*%
%ADD35C,0.00400*%
%ADD36C,0.06000*%
%ADD37C,0.05984*%
%ADD38R,0.05984X0.05984*%
%ADD39R,0.06102X0.06102*%
%ADD40C,0.06102*%
%ADD41R,0.05984X0.05984*%
%ADD42C,0.01600*%
%ADD43O,0.01181X0.08071*%
%ADD44O,0.08071X0.01181*%
%ADD45R,0.03543X0.04724*%
G04:AMPARAMS|DCode=46|XSize=39.37mil|YSize=35.43mil|CornerRadius=0mil|HoleSize=0mil|Usage=FLASHONLY|Rotation=225.000|XOffset=0mil|YOffset=0mil|HoleType=Round|Shape=Rectangle|*
%AMROTATEDRECTD46*
4,1,4,0.00139,0.02645,0.02645,0.00139,-0.00139,-0.02645,-0.02645,-0.00139,0.00139,0.02645,0.0*
%
%ADD46ROTATEDRECTD46*%

G04:AMPARAMS|DCode=47|XSize=39.37mil|YSize=35.43mil|CornerRadius=0mil|HoleSize=0mil|Usage=FLASHONLY|Rotation=135.000|XOffset=0mil|YOffset=0mil|HoleType=Round|Shape=Rectangle|*
%AMROTATEDRECTD47*
4,1,4,0.02645,-0.00139,0.00139,-0.02645,-0.02645,0.00139,-0.00139,0.02645,0.02645,-0.00139,0.0*
%
%ADD47ROTATEDRECTD47*%

G36*
X55332Y30716D02*
X56824Y30231D01*
X58221Y29519D01*
X59489Y28598D01*
X60598Y27489D01*
X61519Y26221D01*
X62231Y24824D01*
X62716Y23333D01*
X62961Y21784D01*
Y21000D01*
X62961Y-41109D01*
X62963Y-41118D01*
X62968Y-41795D01*
X62982Y-41862D01*
X62974Y-41929D01*
X63103Y-43662D01*
X63127Y-43750D01*
X63124Y-43841D01*
X63406Y-45556D01*
X63437Y-45641D01*
X63442Y-45732D01*
X63873Y-47415D01*
X63913Y-47497D01*
X63926Y-47587D01*
X64503Y-49226D01*
X64549Y-49304D01*
X64570Y-49393D01*
X65290Y-50975D01*
X65343Y-51049D01*
X65371Y-51135D01*
X66227Y-52647D01*
X66286Y-52716D01*
X66322Y-52800D01*
X67308Y-54231D01*
X67357Y-54278D01*
X67388Y-54339D01*
X67928Y-55021D01*
X67945Y-55036D01*
X67956Y-55056D01*
X68707Y-55963D01*
X68782Y-56025D01*
X68836Y-56105D01*
X111268Y-98538D01*
X111077Y-99000D01*
X67000D01*
X54000Y-86000D01*
X54000Y-18000D01*
X51000D01*
Y-55000D01*
X46300Y-55000D01*
X45400Y-54400D01*
Y-53700D01*
X46100Y-53000D01*
X46019Y-24000D01*
X19000D01*
Y-20000D01*
X46008D01*
X46003Y-18000D01*
X18451D01*
Y-15712D01*
X20633Y-13529D01*
X35000D01*
X35585Y-13413D01*
X36081Y-13081D01*
X41203Y-7960D01*
X41957Y-8539D01*
X42942Y-8947D01*
X44000Y-9086D01*
X45058Y-8947D01*
X46043Y-8539D01*
X46889Y-7889D01*
X47539Y-7043D01*
X47947Y-6058D01*
X48086Y-5000D01*
X47947Y-3942D01*
X47539Y-2957D01*
X46889Y-2111D01*
X46043Y-1461D01*
X45058Y-1053D01*
X44000Y-914D01*
X42942Y-1053D01*
X41957Y-1461D01*
X41111Y-2111D01*
X40461Y-2957D01*
X40053Y-3942D01*
X39926Y-4912D01*
X38282Y-6555D01*
X37858Y-6272D01*
X37947Y-6058D01*
X38086Y-5000D01*
X37947Y-3942D01*
X37539Y-2957D01*
X36889Y-2111D01*
X36043Y-1461D01*
X35058Y-1053D01*
X34000Y-914D01*
X32942Y-1053D01*
X31957Y-1461D01*
X31111Y-2111D01*
X30461Y-2957D01*
X30053Y-3942D01*
X29914Y-5000D01*
X30053Y-6058D01*
X30266Y-6571D01*
X28767Y-8071D01*
X27380D01*
X27134Y-7571D01*
X27539Y-7043D01*
X27947Y-6058D01*
X28086Y-5000D01*
X27947Y-3942D01*
X27539Y-2957D01*
X26889Y-2111D01*
X26043Y-1461D01*
X25058Y-1053D01*
X24000Y-914D01*
X22942Y-1053D01*
X21957Y-1461D01*
X21111Y-2111D01*
X20461Y-2957D01*
X20053Y-3942D01*
X19914Y-5000D01*
X20053Y-6058D01*
X20461Y-7043D01*
X20866Y-7571D01*
X20619Y-8071D01*
X18400D01*
X17815Y-8187D01*
X17319Y-8519D01*
X13871Y-11966D01*
X13540Y-12462D01*
X13423Y-13047D01*
Y-18000D01*
X4830D01*
X4775Y-17722D01*
X4444Y-17226D01*
X3042Y-15824D01*
X3045Y-15817D01*
X3000Y-15824D01*
Y-12500D01*
Y-11500D01*
Y-9051D01*
X8051D01*
Y-949D01*
X3351D01*
X3159Y-487D01*
X4444Y797D01*
X4572Y989D01*
X5058Y1053D01*
X6043Y1461D01*
X6889Y2111D01*
X7539Y2957D01*
X7947Y3942D01*
X8086Y5000D01*
X7947Y6058D01*
X7539Y7043D01*
X6889Y7889D01*
X6043Y8539D01*
X5058Y8947D01*
X4000Y9086D01*
X2942Y8947D01*
X1957Y8539D01*
X1111Y7889D01*
X461Y7043D01*
X53Y6058D01*
X-86Y5000D01*
X53Y3942D01*
X461Y2957D01*
X1111Y2111D01*
X1130Y1810D01*
X-622Y57D01*
X-914Y86D01*
X-1642Y572D01*
X-2500Y743D01*
X-3358Y572D01*
X-4086Y86D01*
X-4572Y-642D01*
X-4743Y-1500D01*
X-4572Y-2358D01*
X-4086Y-3086D01*
X-4025Y-3127D01*
Y-8638D01*
X-4768D01*
Y-15362D01*
X-4029D01*
Y-16086D01*
X-3913Y-16671D01*
X-3581Y-17167D01*
X-3211Y-17538D01*
X-3402Y-18000D01*
X-20000D01*
Y-49257D01*
X-20000Y-49757D01*
X-20858Y-49928D01*
X-21030Y-50042D01*
X-21471Y-49806D01*
Y-36624D01*
X-21414Y-36586D01*
X-20928Y-35858D01*
X-20757Y-35000D01*
X-20928Y-34142D01*
X-21414Y-33414D01*
X-22142Y-32928D01*
X-23000Y-32757D01*
X-23858Y-32928D01*
X-24586Y-33414D01*
X-25072Y-34142D01*
X-25243Y-35000D01*
X-25072Y-35858D01*
X-24586Y-36586D01*
X-24529Y-36624D01*
Y-53000D01*
X-24413Y-53585D01*
X-24081Y-54081D01*
X-21222Y-56941D01*
X-21541Y-57329D01*
X-22142Y-56928D01*
X-23000Y-56757D01*
X-23858Y-56928D01*
X-24586Y-57414D01*
X-25072Y-58142D01*
X-25243Y-59000D01*
X-25072Y-59858D01*
X-25010Y-59951D01*
X-25246Y-60392D01*
X-31921D01*
X-32506Y-60508D01*
X-33003Y-60840D01*
X-37811Y-65648D01*
X-37987Y-65513D01*
X-38958Y-65111D01*
X-40000Y-64973D01*
X-41042Y-65111D01*
X-42013Y-65513D01*
X-42847Y-66153D01*
X-43487Y-66987D01*
X-43889Y-67958D01*
X-44027Y-69000D01*
X-43889Y-70042D01*
X-43487Y-71013D01*
X-42847Y-71847D01*
X-42013Y-72487D01*
X-41042Y-72889D01*
X-40000Y-73027D01*
X-38958Y-72889D01*
X-37987Y-72487D01*
X-37153Y-71847D01*
X-36513Y-71013D01*
X-36111Y-70042D01*
X-35973Y-69000D01*
X-36074Y-68237D01*
X-31288Y-63451D01*
X-20000D01*
Y-64329D01*
X-23858D01*
X-24443Y-64445D01*
X-24940Y-64777D01*
X-28633Y-68471D01*
X-31000D01*
X-31585Y-68587D01*
X-32081Y-68919D01*
X-38474Y-75311D01*
X-38958Y-75111D01*
X-40000Y-74973D01*
X-41042Y-75111D01*
X-42013Y-75513D01*
X-42847Y-76153D01*
X-43487Y-76987D01*
X-43889Y-77958D01*
X-44027Y-79000D01*
X-43889Y-80042D01*
X-43487Y-81013D01*
X-42847Y-81847D01*
X-42013Y-82487D01*
X-41042Y-82889D01*
X-40000Y-83027D01*
X-38958Y-82889D01*
X-37987Y-82487D01*
X-37153Y-81847D01*
X-36513Y-81013D01*
X-36111Y-80042D01*
X-35973Y-79000D01*
X-36111Y-77958D01*
X-36311Y-77474D01*
X-30367Y-71529D01*
X-28000D01*
X-27415Y-71413D01*
X-26919Y-71081D01*
X-23225Y-67388D01*
X-20000D01*
Y-96000D01*
X19000Y-135000D01*
Y-150462D01*
X18538Y-150654D01*
X-50963Y-81134D01*
X-51399Y-80608D01*
X-52284Y-79323D01*
X-53052Y-77965D01*
X-53698Y-76546D01*
X-54216Y-75074D01*
X-54603Y-73563D01*
X-54856Y-72024D01*
X-54972Y-70468D01*
X-54961Y-69688D01*
X-54964Y-69674D01*
X-54961Y-69661D01*
Y21000D01*
Y21784D01*
X-54716Y23333D01*
X-54231Y24824D01*
X-53519Y26221D01*
X-52598Y27489D01*
X-51489Y28598D01*
X-50221Y29519D01*
X-48824Y30231D01*
X-47333Y30716D01*
X-45784Y30961D01*
X-44216D01*
X-42667Y30716D01*
X-41176Y30231D01*
X-39779Y29519D01*
X-38511Y28598D01*
X-37402Y27489D01*
X-36481Y26221D01*
X-35769Y24824D01*
X-35284Y23333D01*
X-35039Y21784D01*
Y15609D01*
X-34884Y14828D01*
X-34442Y14167D01*
X-33833Y13558D01*
X-33172Y13116D01*
X-32391Y12961D01*
X40271D01*
X41051Y13116D01*
X41713Y13558D01*
X42442Y14287D01*
X42884Y14949D01*
X43039Y15729D01*
Y21784D01*
X43284Y23333D01*
X43769Y24824D01*
X44481Y26221D01*
X45402Y27489D01*
X46511Y28598D01*
X47779Y29519D01*
X49176Y30231D01*
X50668Y30716D01*
X52216Y30961D01*
X53784D01*
X55332Y30716D01*
D02*
G37*
G36*
X13000Y-24000D02*
X5000D01*
Y-20000D01*
X13000D01*
Y-24000D01*
D02*
G37*
G36*
X-1000Y-20000D02*
Y-24000D01*
X-5000D01*
X-6000Y-25000D01*
Y-29000D01*
X-11000D01*
X-13000Y-31000D01*
X-13000Y-35000D01*
X-17000D01*
Y-30000D01*
X-12000Y-25000D01*
X-7000Y-20000D01*
X-1000Y-20000D01*
D02*
G37*
%LPC*%
G36*
X53000Y27950D02*
X51839Y27836D01*
X50723Y27497D01*
X49694Y26947D01*
X48793Y26207D01*
X48053Y25306D01*
X47503Y24277D01*
X47164Y23161D01*
X47050Y22000D01*
X47164Y20839D01*
X47503Y19723D01*
X48053Y18694D01*
X48793Y17793D01*
X49694Y17053D01*
X50723Y16503D01*
X51839Y16164D01*
X53000Y16050D01*
X54161Y16164D01*
X55277Y16503D01*
X56306Y17053D01*
X57207Y17793D01*
X57947Y18694D01*
X58497Y19723D01*
X58836Y20839D01*
X58950Y22000D01*
X58836Y23161D01*
X58497Y24277D01*
X57947Y25306D01*
X57207Y26207D01*
X56306Y26947D01*
X55277Y27497D01*
X54161Y27836D01*
X53000Y27950D01*
D02*
G37*
G36*
X-45000D02*
X-46161Y27836D01*
X-47277Y27497D01*
X-48306Y26947D01*
X-49207Y26207D01*
X-49947Y25306D01*
X-50497Y24277D01*
X-50836Y23161D01*
X-50950Y22000D01*
X-50836Y20839D01*
X-50497Y19723D01*
X-49947Y18694D01*
X-49207Y17793D01*
X-48306Y17053D01*
X-47277Y16503D01*
X-46161Y16164D01*
X-45000Y16050D01*
X-43839Y16164D01*
X-42723Y16503D01*
X-41694Y17053D01*
X-40793Y17793D01*
X-40053Y18694D01*
X-39503Y19723D01*
X-39164Y20839D01*
X-39050Y22000D01*
X-39164Y23161D01*
X-39503Y24277D01*
X-40053Y25306D01*
X-40793Y26207D01*
X-41694Y26947D01*
X-42723Y27497D01*
X-43839Y27836D01*
X-45000Y27950D01*
D02*
G37*
G36*
X54500Y9020D02*
Y5500D01*
X58020D01*
X57947Y6058D01*
X57539Y7043D01*
X56889Y7889D01*
X56043Y8539D01*
X55058Y8947D01*
X54500Y9020D01*
D02*
G37*
G36*
X53500D02*
X52942Y8947D01*
X51957Y8539D01*
X51111Y7889D01*
X50461Y7043D01*
X50053Y6058D01*
X49980Y5500D01*
X53500D01*
Y9020D01*
D02*
G37*
G36*
X58020Y4500D02*
X54500D01*
Y980D01*
X55058Y1053D01*
X56043Y1461D01*
X56889Y2111D01*
X57539Y2957D01*
X57947Y3942D01*
X58020Y4500D01*
D02*
G37*
G36*
X53500D02*
X49980D01*
X50053Y3942D01*
X50461Y2957D01*
X51111Y2111D01*
X51957Y1461D01*
X52942Y1053D01*
X53500Y980D01*
Y4500D01*
D02*
G37*
G36*
X44000Y9086D02*
X42942Y8947D01*
X41957Y8539D01*
X41111Y7889D01*
X40461Y7043D01*
X40053Y6058D01*
X39914Y5000D01*
X40053Y3942D01*
X40461Y2957D01*
X41111Y2111D01*
X41957Y1461D01*
X42942Y1053D01*
X44000Y914D01*
X45058Y1053D01*
X46043Y1461D01*
X46889Y2111D01*
X47539Y2957D01*
X47947Y3942D01*
X48086Y5000D01*
X47947Y6058D01*
X47539Y7043D01*
X46889Y7889D01*
X46043Y8539D01*
X45058Y8947D01*
X44000Y9086D01*
D02*
G37*
G36*
X34000D02*
X32942Y8947D01*
X31957Y8539D01*
X31111Y7889D01*
X30461Y7043D01*
X30053Y6058D01*
X29914Y5000D01*
X30053Y3942D01*
X30461Y2957D01*
X31111Y2111D01*
X31957Y1461D01*
X32942Y1053D01*
X34000Y914D01*
X35058Y1053D01*
X36043Y1461D01*
X36889Y2111D01*
X37539Y2957D01*
X37947Y3942D01*
X38086Y5000D01*
X37947Y6058D01*
X37539Y7043D01*
X36889Y7889D01*
X36043Y8539D01*
X35058Y8947D01*
X34000Y9086D01*
D02*
G37*
G36*
X24000D02*
X22942Y8947D01*
X21957Y8539D01*
X21111Y7889D01*
X20461Y7043D01*
X20053Y6058D01*
X19914Y5000D01*
X20053Y3942D01*
X20461Y2957D01*
X21111Y2111D01*
X21957Y1461D01*
X22942Y1053D01*
X24000Y914D01*
X25058Y1053D01*
X26043Y1461D01*
X26889Y2111D01*
X27539Y2957D01*
X27947Y3942D01*
X28086Y5000D01*
X27947Y6058D01*
X27539Y7043D01*
X26889Y7889D01*
X26043Y8539D01*
X25058Y8947D01*
X24000Y9086D01*
D02*
G37*
G36*
X14000D02*
X12942Y8947D01*
X11957Y8539D01*
X11111Y7889D01*
X10461Y7043D01*
X10053Y6058D01*
X9914Y5000D01*
X10053Y3942D01*
X10461Y2957D01*
X11111Y2111D01*
X11957Y1461D01*
X12942Y1053D01*
X14000Y914D01*
X15058Y1053D01*
X16043Y1461D01*
X16889Y2111D01*
X17539Y2957D01*
X17947Y3942D01*
X18086Y5000D01*
X17947Y6058D01*
X17539Y7043D01*
X16889Y7889D01*
X16043Y8539D01*
X15058Y8947D01*
X14000Y9086D01*
D02*
G37*
G36*
X-10816Y-2757D02*
X-11675Y-2928D01*
X-11724Y-2961D01*
X-14000D01*
X-14780Y-3116D01*
X-15442Y-3558D01*
X-31800Y-19916D01*
X-31858Y-19928D01*
X-32586Y-20414D01*
X-33072Y-21142D01*
X-33243Y-22000D01*
X-33072Y-22858D01*
X-32586Y-23586D01*
X-31858Y-24072D01*
X-31000Y-24243D01*
X-30142Y-24072D01*
X-29414Y-23586D01*
X-28928Y-22858D01*
X-28916Y-22800D01*
X-13155Y-7039D01*
X-11724D01*
X-11675Y-7072D01*
X-10816Y-7243D01*
X-9958Y-7072D01*
X-9230Y-6586D01*
X-8744Y-5858D01*
X-8573Y-5000D01*
X-8744Y-4142D01*
X-9230Y-3414D01*
X-9958Y-2928D01*
X-10816Y-2757D01*
D02*
G37*
G36*
X54000Y-914D02*
X52942Y-1053D01*
X51957Y-1461D01*
X51111Y-2111D01*
X50461Y-2957D01*
X50053Y-3942D01*
X49914Y-5000D01*
X50053Y-6058D01*
X50461Y-7043D01*
X51111Y-7889D01*
X51957Y-8539D01*
X52942Y-8947D01*
X54000Y-9086D01*
X55058Y-8947D01*
X56043Y-8539D01*
X56889Y-7889D01*
X57539Y-7043D01*
X57947Y-6058D01*
X58086Y-5000D01*
X57947Y-3942D01*
X57539Y-2957D01*
X56889Y-2111D01*
X56043Y-1461D01*
X55058Y-1053D01*
X54000Y-914D01*
D02*
G37*
G36*
X14000D02*
X12942Y-1053D01*
X11957Y-1461D01*
X11111Y-2111D01*
X10461Y-2957D01*
X10053Y-3942D01*
X9914Y-5000D01*
X10053Y-6058D01*
X10461Y-7043D01*
X11111Y-7889D01*
X11957Y-8539D01*
X12942Y-8947D01*
X14000Y-9086D01*
X15058Y-8947D01*
X16043Y-8539D01*
X16889Y-7889D01*
X17539Y-7043D01*
X17947Y-6058D01*
X18086Y-5000D01*
X17947Y-3942D01*
X17539Y-2957D01*
X16889Y-2111D01*
X16043Y-1461D01*
X15058Y-1053D01*
X14000Y-914D01*
D02*
G37*
G36*
X-36008Y-35008D02*
X-43992D01*
Y-42992D01*
X-36008D01*
Y-35008D01*
D02*
G37*
G36*
X-39500Y-45039D02*
Y-48500D01*
X-36039D01*
X-36111Y-47958D01*
X-36513Y-46987D01*
X-37153Y-46153D01*
X-37987Y-45513D01*
X-38958Y-45111D01*
X-39500Y-45039D01*
D02*
G37*
G36*
X-40500D02*
X-41042Y-45111D01*
X-42013Y-45513D01*
X-42847Y-46153D01*
X-43487Y-46987D01*
X-43889Y-47958D01*
X-43961Y-48500D01*
X-40500D01*
Y-45039D01*
D02*
G37*
G36*
X-36039Y-49500D02*
X-39500D01*
Y-52961D01*
X-38958Y-52889D01*
X-37987Y-52487D01*
X-37153Y-51847D01*
X-36513Y-51013D01*
X-36111Y-50042D01*
X-36039Y-49500D01*
D02*
G37*
G36*
X-40500D02*
X-43961D01*
X-43889Y-50042D01*
X-43487Y-51013D01*
X-42847Y-51847D01*
X-42013Y-52487D01*
X-41042Y-52889D01*
X-40500Y-52961D01*
Y-49500D01*
D02*
G37*
G36*
X-36000Y-29257D02*
X-36858Y-29428D01*
X-37586Y-29914D01*
X-38072Y-30642D01*
X-38243Y-31500D01*
X-38072Y-32358D01*
X-37586Y-33086D01*
X-36858Y-33572D01*
X-36000Y-33743D01*
X-35142Y-33572D01*
X-34811Y-33352D01*
X-33529Y-34633D01*
Y-50366D01*
X-38474Y-55311D01*
X-38958Y-55111D01*
X-40000Y-54973D01*
X-41042Y-55111D01*
X-42013Y-55513D01*
X-42847Y-56153D01*
X-43487Y-56987D01*
X-43889Y-57958D01*
X-44027Y-59000D01*
X-43889Y-60042D01*
X-43487Y-61013D01*
X-42847Y-61847D01*
X-42013Y-62487D01*
X-41042Y-62889D01*
X-40000Y-63027D01*
X-38958Y-62889D01*
X-37987Y-62487D01*
X-37153Y-61847D01*
X-36513Y-61013D01*
X-36111Y-60042D01*
X-35973Y-59000D01*
X-36111Y-57958D01*
X-36311Y-57474D01*
X-30919Y-52081D01*
X-30587Y-51585D01*
X-30471Y-51000D01*
Y-34000D01*
X-30587Y-33415D01*
X-30919Y-32919D01*
X-33419Y-30419D01*
X-33915Y-30087D01*
X-34357Y-29999D01*
X-34414Y-29914D01*
X-35142Y-29428D01*
X-36000Y-29257D01*
D02*
G37*
G36*
X85992Y-86008D02*
X82500D01*
Y-89500D01*
X85992D01*
Y-86008D01*
D02*
G37*
G36*
X72500Y-86039D02*
Y-89500D01*
X75961D01*
X75889Y-88958D01*
X75487Y-87987D01*
X74847Y-87153D01*
X74013Y-86513D01*
X73042Y-86111D01*
X72500Y-86039D01*
D02*
G37*
G36*
X71500D02*
X70958Y-86111D01*
X69987Y-86513D01*
X69153Y-87153D01*
X68513Y-87987D01*
X68111Y-88958D01*
X68039Y-89500D01*
X71500D01*
Y-86039D01*
D02*
G37*
G36*
X81500Y-86008D02*
X78008D01*
Y-89500D01*
X81500D01*
Y-86008D01*
D02*
G37*
G36*
X75961Y-90500D02*
X72500D01*
Y-93961D01*
X73042Y-93889D01*
X74013Y-93487D01*
X74847Y-92847D01*
X75487Y-92013D01*
X75889Y-91042D01*
X75961Y-90500D01*
D02*
G37*
G36*
X71500D02*
X68039D01*
X68111Y-91042D01*
X68513Y-92013D01*
X69153Y-92847D01*
X69987Y-93487D01*
X70958Y-93889D01*
X71500Y-93961D01*
Y-90500D01*
D02*
G37*
G36*
X85992D02*
X82500D01*
Y-93992D01*
X85992D01*
Y-90500D01*
D02*
G37*
G36*
X81500D02*
X78008D01*
Y-93992D01*
X81500D01*
Y-90500D01*
D02*
G37*
%LPD*%
D25*
X40000Y-14000D02*
D03*
X42000Y-45000D02*
D03*
Y-57000D02*
D03*
X31000Y-26500D02*
D03*
X26000Y-33000D02*
D03*
X37000Y-26500D02*
D03*
X60000Y-64000D02*
D03*
X-23000Y-59000D02*
D03*
X-36000Y-31500D02*
D03*
X-31000Y-22000D02*
D03*
X-23000Y-35000D02*
D03*
X-30000Y-95000D02*
D03*
Y-85000D02*
D03*
Y-75000D02*
D03*
Y-66000D02*
D03*
Y-55000D02*
D03*
X-37000Y9000D02*
D03*
X-30000D02*
D03*
X-50000Y-39000D02*
D03*
Y-32000D02*
D03*
Y-79000D02*
D03*
Y-70000D02*
D03*
Y-61000D02*
D03*
Y-20000D02*
D03*
X-30000Y-10000D02*
D03*
X-40000D02*
D03*
X-50000D02*
D03*
X-30000Y0D02*
D03*
X-40000D02*
D03*
X-50000D02*
D03*
X-20000D02*
D03*
X-10000D02*
D03*
X60000D02*
D03*
Y10000D02*
D03*
X50000D02*
D03*
X-10000D02*
D03*
X0D02*
D03*
X40000D02*
D03*
X30000D02*
D03*
X20000D02*
D03*
X10000D02*
D03*
Y0D02*
D03*
X20000D02*
D03*
X30000D02*
D03*
X40000D02*
D03*
X50000D02*
D03*
X90000Y-84000D02*
D03*
X80000Y-74000D02*
D03*
Y-84000D02*
D03*
X70000Y-64000D02*
D03*
Y-74000D02*
D03*
Y-84000D02*
D03*
X60000D02*
D03*
Y-74000D02*
D03*
Y-54000D02*
D03*
Y-44000D02*
D03*
Y-34000D02*
D03*
Y-24000D02*
D03*
X-10816Y-5000D02*
D03*
X-11000Y-14000D02*
D03*
X10000D02*
D03*
X60000D02*
D03*
X50000D02*
D03*
X-2500Y-1500D02*
D03*
X1000Y-59000D02*
D03*
X-20000Y-52000D02*
D03*
X8000Y-63000D02*
D03*
Y-68000D02*
D03*
X41700Y-51000D02*
D03*
D27*
X42000Y-40000D02*
D03*
X35701D02*
D03*
D30*
X-8350Y-26776D02*
D03*
Y-33075D02*
D03*
X-15000Y-32850D02*
D03*
Y-39150D02*
D03*
D33*
X42000Y-47142D02*
Y-45000D01*
X41000Y-48142D02*
X42000Y-47142D01*
Y-57000D02*
Y-56000D01*
X40024Y-54024D02*
X42000Y-56000D01*
X16921Y-15079D02*
X20000Y-12000D01*
X35000D02*
X41720Y-5280D01*
X20000Y-12000D02*
X35000D01*
X21800Y-26200D02*
X31000D01*
X18890Y-29110D02*
X21800Y-26200D01*
X27000Y-28000D02*
X29000Y-30000D01*
X22444Y-28000D02*
X27000D01*
X20858Y-29586D02*
X22444Y-28000D01*
X29000Y-30000D02*
X33200D01*
X37000Y-26200D01*
X20858Y-36429D02*
Y-29586D01*
X18890Y-36429D02*
Y-29110D01*
X26000Y-35000D02*
Y-33000D01*
X3362Y1879D02*
Y4362D01*
X-51Y-14894D02*
X3362Y-18308D01*
X-51Y-14894D02*
Y-1535D01*
X-2500Y-1500D02*
X-2496Y-1504D01*
X3362Y-24776D02*
X4586Y-26000D01*
X3362Y-24776D02*
Y-18308D01*
X-51Y-1535D02*
X3362Y1879D01*
Y4362D02*
X4000Y5000D01*
X-2500Y-16086D02*
Y-14780D01*
Y-16086D02*
X638Y-19224D01*
X-2500Y-14780D02*
X-2496Y-14776D01*
Y-1504D01*
X638Y-25638D02*
Y-19224D01*
Y-25638D02*
X3000Y-28000D01*
X4586Y-26000D02*
X7000D01*
X9047Y-28047D01*
Y-36429D02*
Y-28047D01*
X-23000Y-59000D02*
X-17000D01*
X-15984Y-57984D01*
X-31921Y-61921D02*
X-8571D01*
X-39000Y-69000D02*
X-31921Y-61921D01*
X-20000Y-56000D02*
X-8587D01*
X-23000Y-53000D02*
X-20000Y-56000D01*
X-23000Y-53000D02*
Y-35000D01*
X-8587Y-56000D02*
X-8571Y-56016D01*
X-15984Y-57984D02*
X-8571D01*
X-36000Y-31500D02*
X-34500D01*
X-32000Y-34000D01*
Y-51000D02*
Y-34000D01*
X-40000Y-59000D02*
X-32000Y-51000D01*
X-40000Y-79000D02*
X-31000Y-70000D01*
X-28000D01*
X-23858Y-65858D01*
X-8571D01*
X-40000Y-79000D02*
X-39000D01*
X-40000Y-69000D02*
X-39000D01*
X3000Y-28000D02*
X5000D01*
X7079Y-30079D01*
Y-36429D02*
Y-30079D01*
X46976Y-54024D02*
X47000Y-54000D01*
X40024Y-54024D02*
X46976D01*
X32594D02*
X40024D01*
X32571Y-48142D02*
X41000D01*
X47000D01*
X-8571Y-59953D02*
X47D01*
X1000Y-59000D01*
X-20000Y-52000D02*
X-8650D01*
X22827Y-36429D02*
X24571D01*
X26000Y-35000D01*
X16921Y-36429D02*
Y-15079D01*
X14953Y-36429D02*
Y-13047D01*
X18400Y-9600D01*
X42000Y-40000D02*
X47000D01*
X32571Y-43429D02*
X36000Y-40000D01*
X36850D01*
X32571Y-46173D02*
Y-43429D01*
X18400Y-9600D02*
X29400D01*
X34000Y-5000D01*
X41720Y-5280D02*
X43720D01*
X44000Y-5000D01*
X5110Y-56890D02*
X8000Y-54000D01*
X13858Y-48142D01*
X8000Y-54000D02*
X8047Y-54047D01*
X32571D01*
X13858Y-48142D02*
X32571D01*
X62989Y-110634D02*
X62989Y-110634D01*
X62988Y-120949D02*
X62989Y-120948D01*
X79693Y-110634D02*
X79694Y-110634D01*
X79693Y-120949D02*
X79693Y-120948D01*
X5110Y-65890D02*
X8000Y-63000D01*
X5110Y-70890D02*
X8000Y-68000D01*
X5110Y-65890D02*
Y-56890D01*
Y-77571D02*
Y-70890D01*
Y-65890D01*
X40400Y-51000D02*
X41700D01*
X39510Y-50110D02*
X40400Y-51000D01*
X32571Y-52079D02*
X39421D01*
X40450Y-51050D01*
X32571Y-50110D02*
X39510D01*
X32571Y-54047D02*
X32594Y-54024D01*
X-15000Y-39150D02*
X-11850D01*
X-8571Y-42429D01*
Y-46173D02*
Y-42429D01*
X-6803Y-33150D02*
X-3524Y-36429D01*
X-7000Y-33150D02*
X-6803D01*
X-3524Y-36429D02*
X1173D01*
X-9350Y-32925D02*
X-9201Y-33075D01*
X-8350D01*
D34*
X-31000Y-22000D02*
X-14000Y-5000D01*
X-10816D01*
D35*
X38100Y-96800D02*
Y-72263D01*
X34872Y-112910D02*
Y-90872D01*
X33227Y-89227D02*
X34872Y-90872D01*
Y-112910D02*
X39283Y-117322D01*
X42000Y-91700D02*
X48300Y-98000D01*
X40300Y-96300D02*
X46284Y-102284D01*
X40300Y-96300D02*
Y-69300D01*
X46284Y-110634D02*
Y-102284D01*
X65504Y-105100D02*
X76100D01*
X47200Y-86796D02*
X65504Y-105100D01*
X76100D02*
X79694Y-108694D01*
X65736Y-104200D02*
X77200D01*
X32436Y-134629D02*
Y-120266D01*
X34072Y-119515D02*
Y-94591D01*
X27624Y-179694D02*
Y-124124D01*
X24424Y-209747D02*
Y-133286D01*
X30824Y-149643D02*
Y-109324D01*
X29224Y-164224D02*
Y-116724D01*
X26024Y-194720D02*
Y-132624D01*
X17000Y-95500D02*
X30824Y-109324D01*
X47200Y-62200D02*
X49600Y-64600D01*
X66298Y-102500D02*
X93500D01*
X49600Y-85802D02*
X66298Y-102500D01*
X49600Y-85802D02*
Y-64600D01*
X113103Y-170827D02*
Y-163570D01*
Y-137575D02*
Y-130318D01*
Y-154201D02*
Y-146944D01*
X66630Y-101700D02*
X105700D01*
X113103Y-109103D01*
Y-110103D02*
Y-109103D01*
X79693Y-170827D02*
Y-163571D01*
Y-137575D02*
Y-130319D01*
Y-154201D02*
Y-146945D01*
X79694Y-110634D02*
Y-108694D01*
X62988Y-204236D02*
X62989Y-204236D01*
Y-196981D01*
X62989Y-196980D01*
X62988Y-187531D02*
X62989Y-187531D01*
Y-180276D01*
X62989Y-180276D01*
X62988Y-170827D02*
X62989Y-170826D01*
Y-163650D01*
X62989Y-163650D01*
X62988Y-154201D02*
X62989Y-154200D01*
Y-147024D01*
X62989Y-147024D01*
X62989Y-237646D02*
Y-229603D01*
X62989Y-110634D02*
Y-107393D01*
X46284Y-110634D02*
X46284Y-110634D01*
X46284Y-120948D02*
Y-110634D01*
X46284Y-120949D02*
X46284Y-120948D01*
X62989D02*
Y-110634D01*
X79693Y-120948D02*
Y-110634D01*
X96398D02*
X96399Y-110634D01*
X96398Y-120948D02*
Y-110634D01*
X96398Y-120949D02*
X96398Y-120948D01*
Y-170827D02*
Y-163570D01*
Y-137575D02*
Y-130318D01*
Y-154201D02*
Y-146944D01*
X113103Y-110634D02*
X113103Y-110634D01*
X113103Y-120948D02*
Y-110634D01*
X113102Y-120949D02*
X113103Y-120948D01*
X96398Y-187531D02*
Y-180276D01*
X79693Y-204236D02*
Y-196980D01*
Y-187531D02*
Y-180276D01*
X113103Y-187531D02*
Y-180276D01*
X96398Y-204236D02*
Y-196980D01*
X113103Y-204236D02*
Y-196980D01*
X62989Y-220941D02*
Y-213685D01*
X79693Y-220941D02*
Y-213685D01*
X96398Y-220941D02*
Y-213685D01*
X113103Y-220941D02*
Y-213685D01*
X79693Y-237646D02*
Y-230390D01*
X96398Y-237646D02*
Y-230390D01*
X96399Y-110634D02*
Y-108399D01*
X113103Y-237646D02*
Y-230390D01*
X46284Y-204236D02*
X46284Y-204236D01*
X-2800Y-101800D02*
X9000Y-90000D01*
X10000Y-95000D02*
Y-94000D01*
X12300Y-97246D02*
Y-93296D01*
X12984Y-92612D01*
Y-77571D01*
X4700Y-100300D02*
X10000Y-95000D01*
X14000Y-101500D02*
Y-94000D01*
X773Y-100823D02*
X11016Y-90580D01*
Y-77571D01*
X2466Y-93534D02*
X9047Y-86953D01*
X6300Y-86700D02*
X6800D01*
X3028Y-87672D02*
X7079Y-83621D01*
X16921Y-88925D02*
X20773Y-92777D01*
X16921Y-88925D02*
Y-77571D01*
X17000Y-95500D02*
Y-92000D01*
X15700Y-98700D02*
Y-93296D01*
X14953Y-92549D02*
X15700Y-93296D01*
X14953Y-92549D02*
Y-77571D01*
X8773Y-100773D02*
X12300Y-97246D01*
X14000Y-101500D02*
X29224Y-116724D01*
X15700Y-98700D02*
X17773Y-100773D01*
X773Y-101773D02*
Y-100823D01*
X23923Y-90623D02*
X24773Y-89773D01*
X20773Y-94773D02*
Y-92777D01*
X19600Y-89200D02*
X19681D01*
X18890Y-85590D02*
X23923Y-90623D01*
X23000Y-87000D02*
X23300Y-86700D01*
X22300Y-85000D02*
X29000D01*
X23300Y-86700D02*
X26181D01*
X34072Y-94591D01*
X18890Y-85590D02*
Y-77571D01*
X19681Y-89200D02*
X32424Y-101943D01*
X3500Y-89500D02*
X6300Y-86700D01*
X7079Y-83621D02*
Y-77571D01*
X-1828Y-87672D02*
X3028D01*
X9047Y-86953D02*
Y-77571D01*
X43700Y-88104D02*
Y-69700D01*
X45500Y-87500D02*
Y-72000D01*
X47200Y-86796D02*
Y-69604D01*
X48000Y-86465D02*
X65736Y-104200D01*
X48000Y-86465D02*
Y-68000D01*
X48800Y-86133D02*
X65967Y-103300D01*
X48800Y-86133D02*
Y-66396D01*
X50400Y-85470D02*
X66630Y-101700D01*
X50400Y-85470D02*
Y-62996D01*
X188Y-93534D02*
X2466D01*
X-2800Y-103800D02*
X26024Y-132624D01*
X-2800Y-103800D02*
Y-101800D01*
X-8400Y-100463D02*
Y-97919D01*
Y-100463D02*
X24424Y-133286D01*
X-9227Y-100767D02*
Y-94227D01*
Y-100767D02*
X23624Y-133618D01*
Y-218358D02*
Y-133618D01*
X-3988Y-103744D02*
Y-98266D01*
Y-103744D02*
X25224Y-132955D01*
Y-203254D02*
Y-132955D01*
X32424Y-120253D02*
Y-101943D01*
X44325Y-61921D02*
X48800Y-66396D01*
X32571Y-61921D02*
X44325D01*
X32571Y-59953D02*
X47357D01*
X50400Y-62996D01*
X45500Y-87500D02*
X63000Y-105000D01*
X65967Y-103300D02*
X91300D01*
X41486Y-63890D02*
X47200Y-69604D01*
X32571Y-63890D02*
X41486D01*
X44000Y-64000D02*
X48000Y-68000D01*
X42000Y-91700D02*
Y-72000D01*
X91300Y-103300D02*
X96399Y-108399D01*
X62989Y-137575D02*
Y-130398D01*
X43700Y-88104D02*
X62989Y-107393D01*
X39900Y-65900D02*
X43700Y-69700D01*
X38827Y-67827D02*
X40300Y-69300D01*
X32571Y-67827D02*
X38827D01*
X32613Y-65900D02*
X39900D01*
X32571Y-65858D02*
X32613Y-65900D01*
X62989Y-137575D02*
X62989Y-130398D01*
X19Y-89500D02*
X3500D01*
X-3057Y-88900D02*
X-1828Y-87672D01*
X-4300Y-88900D02*
X-3057D01*
X-8400Y-97919D02*
X19Y-89500D01*
X13227Y-105227D02*
X28424Y-120424D01*
X4700Y-101200D02*
Y-100300D01*
Y-101200D02*
X27624Y-124124D01*
X5227Y-106227D02*
X26824Y-127824D01*
X-4127Y-98127D02*
X-3988Y-98266D01*
X25224Y-203254D02*
X39283Y-217314D01*
X26824Y-188149D02*
Y-127824D01*
Y-188149D02*
X39283Y-200609D01*
X188Y-93534D02*
X327Y-93673D01*
X20858Y-83558D02*
Y-77571D01*
Y-83558D02*
X22300Y-85000D01*
X29000D02*
X29773Y-85773D01*
X21800Y-104000D02*
X30024Y-112224D01*
Y-157940D02*
Y-112224D01*
X25700Y-99600D02*
X31624Y-105524D01*
X29227Y-94227D02*
X33224Y-98224D01*
X23624Y-218358D02*
X39283Y-234018D01*
X28424Y-173044D02*
Y-120424D01*
Y-173044D02*
X39283Y-183904D01*
X30024Y-157940D02*
X39283Y-167200D01*
X31624Y-142914D02*
Y-105524D01*
Y-142914D02*
X39283Y-150574D01*
X32424Y-120253D02*
X32436Y-120266D01*
X33224Y-119922D02*
X33236Y-119934D01*
X33224Y-119922D02*
Y-98224D01*
X33236Y-127900D02*
Y-119934D01*
Y-127900D02*
X39283Y-133948D01*
X46284Y-154200D02*
Y-147024D01*
Y-146237D01*
Y-170826D02*
Y-163650D01*
Y-137574D02*
Y-130398D01*
Y-180276D02*
X46284Y-180276D01*
X46284Y-130398D02*
X46284Y-130398D01*
X46284Y-137575D02*
X46284Y-137574D01*
Y-147024D02*
X46284Y-147024D01*
X46284Y-154201D02*
X46284Y-154200D01*
Y-163650D02*
X46284Y-163650D01*
X46284Y-170827D02*
X46284Y-170826D01*
Y-196981D02*
X46284Y-196980D01*
X46284Y-220941D02*
X46284Y-220940D01*
Y-213685D02*
X46284Y-213685D01*
X46284Y-237646D02*
X46284Y-237645D01*
Y-230390D02*
X46284Y-230390D01*
X46284Y-187531D02*
X46284Y-187531D01*
Y-180276D01*
Y-204236D02*
Y-196981D01*
Y-213685D02*
Y-212898D01*
Y-220940D02*
Y-213685D01*
Y-221728D02*
Y-220940D01*
Y-230390D02*
Y-229603D01*
Y-237645D02*
Y-230390D01*
D36*
X-45000Y22000D02*
D03*
X53000D02*
D03*
D37*
X72000Y-90000D02*
D03*
X-40000Y-79000D02*
D03*
Y-69000D02*
D03*
Y-59000D02*
D03*
Y-49000D02*
D03*
D38*
X82000Y-90000D02*
D03*
D39*
X4000Y-5000D02*
D03*
D40*
X14000D02*
D03*
X24000D02*
D03*
X34000D02*
D03*
X44000D02*
D03*
X54000D02*
D03*
X4000Y5000D02*
D03*
X14000D02*
D03*
X24000D02*
D03*
X34000D02*
D03*
X44000D02*
D03*
X54000D02*
D03*
D41*
X-40000Y-39000D02*
D03*
D42*
X38100Y-72000D02*
D03*
X46284Y-204236D02*
D03*
X9000Y-90000D02*
D03*
X10000Y-94000D02*
D03*
X14000D02*
D03*
X6800Y-86700D02*
D03*
X17000Y-92000D02*
D03*
X19600Y-89200D02*
D03*
X23000Y-87000D02*
D03*
X45500Y-72000D02*
D03*
X47200Y-62200D02*
D03*
X44000Y-64000D02*
D03*
X42000Y-72000D02*
D03*
X39283Y-217314D02*
D03*
Y-150574D02*
D03*
Y-167200D02*
D03*
X46284Y-120949D02*
D03*
X62988D02*
D03*
X113102D02*
D03*
X96398D02*
D03*
X79693D02*
D03*
X62989Y-110634D02*
D03*
X113103D02*
D03*
X96399D02*
D03*
X79694D02*
D03*
X46284D02*
D03*
X79694Y-180276D02*
D03*
X96399D02*
D03*
X113103D02*
D03*
X113102Y-170827D02*
D03*
X39283Y-117322D02*
D03*
X96399Y-130398D02*
D03*
X46284D02*
D03*
X62989D02*
D03*
X79694D02*
D03*
X113103D02*
D03*
X46284Y-137575D02*
D03*
X62988D02*
D03*
X113102D02*
D03*
X96398D02*
D03*
X79693D02*
D03*
X39283Y-133948D02*
D03*
X96399Y-147024D02*
D03*
X46284D02*
D03*
X62989D02*
D03*
X79694D02*
D03*
X113103D02*
D03*
X46284Y-154201D02*
D03*
X62988D02*
D03*
X113102D02*
D03*
X96398D02*
D03*
X79693D02*
D03*
X96399Y-163650D02*
D03*
X46284D02*
D03*
X62989D02*
D03*
X79694D02*
D03*
X113103D02*
D03*
X62988Y-170827D02*
D03*
X96398D02*
D03*
X79693D02*
D03*
X46284Y-180276D02*
D03*
X113102Y-187531D02*
D03*
X96398D02*
D03*
X79693D02*
D03*
X62989Y-180276D02*
D03*
X62988Y-187531D02*
D03*
X113103Y-196980D02*
D03*
X113102Y-204236D02*
D03*
X96399Y-196980D02*
D03*
X96398Y-204236D02*
D03*
X79693D02*
D03*
X62989Y-196980D02*
D03*
X62988Y-204236D02*
D03*
X46284Y-196980D02*
D03*
X113103Y-213685D02*
D03*
X113102Y-220941D02*
D03*
X96399Y-213685D02*
D03*
X96398Y-220941D02*
D03*
X79694Y-213685D02*
D03*
X79693Y-220941D02*
D03*
X62989Y-213685D02*
D03*
X62988Y-220941D02*
D03*
X46284D02*
D03*
X46284Y-213685D02*
D03*
X113103Y-230390D02*
D03*
X113102Y-237646D02*
D03*
X96399Y-230390D02*
D03*
X96398Y-237646D02*
D03*
X79694Y-230390D02*
D03*
X79693Y-237646D02*
D03*
X62989Y-230390D02*
D03*
X62988Y-237646D02*
D03*
X46284D02*
D03*
X46284Y-230390D02*
D03*
X79694Y-196980D02*
D03*
X46284Y-187531D02*
D03*
X39283Y-183904D02*
D03*
Y-200609D02*
D03*
Y-234018D02*
D03*
X46284Y-170827D02*
D03*
D43*
X22827Y-77571D02*
D03*
X20858D02*
D03*
X18890D02*
D03*
X16921D02*
D03*
X14953D02*
D03*
X12984D02*
D03*
X11016D02*
D03*
X9047D02*
D03*
X7079D02*
D03*
X5110D02*
D03*
X3142D02*
D03*
X1173D02*
D03*
Y-36429D02*
D03*
X3142D02*
D03*
X5110D02*
D03*
X7079D02*
D03*
X9047D02*
D03*
X11016D02*
D03*
X12984D02*
D03*
X14953D02*
D03*
X16921D02*
D03*
X18890D02*
D03*
X20858D02*
D03*
X22827D02*
D03*
D44*
X-8571Y-67827D02*
D03*
Y-65858D02*
D03*
Y-63890D02*
D03*
Y-61921D02*
D03*
Y-59953D02*
D03*
Y-57984D02*
D03*
Y-56016D02*
D03*
Y-54047D02*
D03*
Y-52079D02*
D03*
Y-50110D02*
D03*
Y-48142D02*
D03*
Y-46173D02*
D03*
X32571D02*
D03*
Y-48142D02*
D03*
Y-50110D02*
D03*
Y-52079D02*
D03*
Y-54047D02*
D03*
Y-56016D02*
D03*
Y-57984D02*
D03*
Y-59953D02*
D03*
Y-61921D02*
D03*
Y-63890D02*
D03*
Y-65858D02*
D03*
Y-67827D02*
D03*
D45*
X3000Y-12000D02*
D03*
X-5268D02*
D03*
X6134Y-22000D02*
D03*
X-2134D02*
D03*
X20268D02*
D03*
X12000D02*
D03*
D46*
X20773Y-94773D02*
D03*
X25227Y-99227D02*
D03*
X25773Y-90773D02*
D03*
X30227Y-95227D02*
D03*
X28773Y-84773D02*
D03*
X33227Y-89227D02*
D03*
X17773Y-100773D02*
D03*
X22227Y-105227D02*
D03*
X8773Y-100773D02*
D03*
X13227Y-105227D02*
D03*
X1773Y-102773D02*
D03*
X6227Y-107227D02*
D03*
D47*
X327Y-93673D02*
D03*
X-4127Y-98127D02*
D03*
X-9227Y-94227D02*
D03*
X-4773Y-89773D02*
D03*
M02*
